<?xml version="1.0" standalone="no"?>
<!DOCTYPE svg PUBLIC "-//W3C//DTD SVG 1.1//EN" "http://www.w3.org/Graphics/SVG/1.1/DTD/svg11.dtd" >
<svg xmlns="http://www.w3.org/2000/svg">
<metadata>
This is a custom SVG webfont generated by Font Squirrel.
Copyright   : Copyright c 2009 by Eduardo Manso All rights reserved
Designer    : Eduardo Manso
Foundry     : Eduardo Manso
Foundry URL : httpwwwemtypenet
</metadata>
<defs>
<font id="GeogrotesqueUltraLightItalic" horiz-adv-x="1054" >
<font-face units-per-em="2048" ascent="1536" descent="-512" />
<missing-glyph horiz-adv-x="493" />
<glyph unicode=" "  horiz-adv-x="493" />
<glyph unicode="&#x09;" horiz-adv-x="493" />
<glyph unicode="&#xa0;" horiz-adv-x="493" />
<glyph unicode="!" horiz-adv-x="493" d="M213 18l20 156q4 18 21 19h35q18 0 14 -19l-20 -156q-4 -18 -21 -18h-31q-22 0 -18 18zM258 328l51 471l70 575q2 18 20 19h37q18 0 17 -19l-70 -575l-68 -471q-4 -18 -20 -19h-23q-14 1 -14 19z" />
<glyph unicode="&#x22;" horiz-adv-x="679" d="M315 1014l37 360q4 18 21 19h37q16 0 14 -19l-51 -360q-4 -18 -19 -19h-22q-21 1 -17 19zM553 1014l37 360q4 18 20 19h35q18 0 17 -19l-52 -360q-4 -18 -18 -19h-23q-20 1 -16 19z" />
<glyph unicode="#" horiz-adv-x="1306" d="M250 514v21q0 16 20 16h183l106 266h-176q-14 0 -14 19v20q0 16 20 16h193l86 220q6 18 26 18h27q18 0 10 -18l-86 -220h348l86 220q6 18 25 18h29q18 0 10 -18l-88 -220h151q18 0 17 -16l-2 -20q-4 -18 -21 -19h-166l-108 -266h161q18 0 17 -16l-2 -21q0 -16 -21 -16 h-176l-86 -215q-8 -18 -22 -19h-31q-18 0 -10 19l86 215h-348l-86 -215q-6 -18 -23 -19h-29q-20 0 -12 19l86 215h-166q-14 0 -14 16zM516 551h348l107 266h-348z" />
<glyph unicode="$" horiz-adv-x="1073" d="M262 362q0 14 2 31l6 53q2 16 19 17h33q14 0 12 -17l-6 -49q-2 -14 -2 -26q0 -139 264 -140q141 0 220 42t87 116l12 105q0 2 1 12t1 18q0 72 -120 111l-314 96q-57 16 -98 60.5t-41 101.5q0 18 2 31l12 84q25 197 328 206l20 160q4 18 21 19h31q18 0 14 -19l-21 -162 q137 -6 207 -55t70 -125q0 -18 -2 -39l-8 -59q-2 -14 -19 -14h-30q-8 0 -13.5 4t-3.5 10l8 55q2 16 2 39q0 57 -61 95t-190 38q-270 0 -289 -153l-8 -74q-2 -14 -2 -29q0 -84 110 -119l315 -94q145 -43 146 -153q0 -10 -2 -23v-12l-14 -121q-12 -90 -96.5 -145.5 t-246.5 -61.5l-20 -158q-4 -18 -18 -18h-31q-20 0 -17 18l19 158q-143 6 -216 57t-73 129z" />
<glyph unicode="%" horiz-adv-x="1480" d="M305 967q0 16 4 41l27 223q20 174 272 174q233 0 234 -148q0 -25 -2 -40l-27 -222q-10 -84 -71.5 -129t-200.5 -45q-236 1 -236 146zM367 975q0 -102 180 -103q190 0 205 123l26 222q2 12 2 30q0 104 -176 105q-193 0 -207 -123l-28 -230v-8q-2 -8 -2 -16zM403 18 l768 1356q8 18 27 19h33q18 0 8 -19l-768 -1356q-8 -18 -27 -18h-32q-19 0 -9 18zM803 129q0 16 4 41l27 223q20 174 272 174q233 0 233 -147q0 -25 -2 -41l-26 -221q-10 -84 -71.5 -129t-201.5 -45q-235 0 -235 145zM864 137q0 -102 180 -102q190 0 205 123l27 221 q2 12 2 31q0 104 -176 104q-193 0 -207 -123l-29 -229q0 -2 -1 -10.5t-1 -14.5z" />
<glyph unicode="&#x26;" horiz-adv-x="1347" d="M233 223q0 20 3 35l30 250q14 104 63.5 161.5t170.5 80.5q-168 35 -168 182q0 16 4 53l18 152q16 131 104.5 201.5t301.5 70.5q346 0 346 -221v-21l-6 -63q-2 -18 -21 -19h-32q-14 0 -15 19l4 57v17q0 72 -47 112.5t-102.5 50t-132.5 9.5q-150 0 -234 -48.5t-98 -171.5 l-16 -139q-4 -37 -5 -51q0 -82 61.5 -122t223.5 -40h643q14 0 14 -18l-2 -25q0 -18 -20 -18h-172l-57 -461q-35 -272 -461 -272q-398 -1 -398 239zM303 233q0 -190 334 -190q358 0 387 219l57 455h-415q-184 0 -251 -52.5t-81 -160.5l-29 -240q-2 -13 -2 -31z" />
<glyph unicode="'" horiz-adv-x="442" d="M315 1014l37 360q4 18 21 19h37q16 0 14 -19l-51 -360q-4 -18 -19 -19h-22q-21 1 -17 19z" />
<glyph unicode="(" horiz-adv-x="722" d="M178 -240q0 25 2 37l174 1413q14 119 97.5 179.5t275.5 60.5h14q16 0 15 -18l-2 -23q0 -18 -19 -18h-8q-156 0 -223.5 -48.5t-79.5 -138.5l-172 -1392q-4 -25 -4 -39q0 -160 260 -160h8q14 0 14 -19l-2 -22q0 -18 -18 -18h-8q-324 -1 -324 206z" />
<glyph unicode=")" horiz-adv-x="722" d="M86 -406q0 18 20 19h9q156 0 223.5 48t79.5 138l172 1393q4 41 4 43q0 156 -262 156h-8q-16 0 -13 18l2 23q0 18 19 18h8q324 0 324 -207q0 -25 -2 -37l-175 -1413q-14 -119 -97 -179t-277 -60h-13q-14 0 -14 18v22z" />
<glyph unicode="*" horiz-adv-x="1009" d="M330 958q-8 16 10 25l256 141l-221 144q-14 8 -4 22l10 17q8 18 27 6l217 -154l26 279q4 18 23 18h18q16 0 15 -18l-41 -279l252 156q16 8 24 -6l10 -17q8 -14 -10 -24l-258 -144l223 -143q12 -6 4 -23l-10 -16q-10 -20 -29 -6l-215 151l-26 -272q-2 -20 -21 -20h-20 q-16 0 -15 20l41 275l-254 -156q-16 -10 -24 6z" />
<glyph unicode="+" horiz-adv-x="1208" d="M268 682v25q0 18 19 18h368v371q0 18 17 18h24q16 0 17 -18v-371h374q16 0 17 -18v-25q0 -16 -17 -16h-374v-371q0 -18 -17 -19h-24q-16 0 -17 19v371h-368q-19 0 -19 16z" />
<glyph unicode="," horiz-adv-x="430" d="M53 -127q-6 16 13 25q63 29 90.5 65.5t36.5 93.5l14 117q2 18 20 19h33q18 0 16 -19l-16 -119q-18 -158 -178 -215q-14 -6 -21 8z" />
<glyph unicode="-" horiz-adv-x="956" d="M254 582v22q0 18 18 19h551q16 0 17 -19v-22q0 -18 -17 -19h-551q-18 1 -18 19z" />
<glyph unicode="." horiz-adv-x="417" d="M176 18l19 156q4 18 20 19h35q16 0 14 -19l-18 -156q-4 -18 -19 -18h-32q-21 0 -19 18z" />
<glyph unicode="/" horiz-adv-x="757" d="M76 -285l672 1698q8 18 22 19h37q18 0 12 -19l-669 -1698q-6 -18 -27 -18h-37q-18 0 -10 18z" />
<glyph unicode="0" horiz-adv-x="1085" d="M180 211q0 16 4 53l107 866q10 86 45 143.5t129 96.5t248 39q360 0 360 -231q0 -33 -2 -50l-104 -866q-16 -133 -109.5 -205.5t-316.5 -72.5q-361 0 -361 227zM250 225q0 -88 66.5 -134t230.5 -46q184 0 260 58.5t90 166.5l104 850q2 16 3 45q0 88 -66 135.5t-231 47.5 q-182 0 -258 -57.5t-91 -168.5l-104 -850q-4 -45 -4 -47z" />
<glyph unicode="1" horiz-adv-x="1085" d="M160 18l2 25q2 18 20 18h355l155 1262l-366 -106q-8 -2 -12.5 3t-2.5 13l2 24q0 14 21 21l418 117q8 2 14 -2t4 -13l-164 -1319h355q16 0 16 -18l-2 -25q-4 -18 -21 -18h-778q-16 0 -16 18z" />
<glyph unicode="2" horiz-adv-x="1085" d="M190 18l52 406q18 141 209 186l372 97q27 8 55.5 21t62.5 50t40 86l33 258q2 16 2 47q0 86 -64.5 132.5t-228.5 46.5q-184 0 -256 -57.5t-86 -166.5l-14 -106q-2 -18 -19 -19h-33q-20 0 -16 19l14 112q12 88 45 144.5t125 95.5t246 39q197 0 276.5 -59.5t79.5 -167.5 q0 -35 -2 -54l-32 -264q-12 -96 -75 -147t-128 -68l-363 -92q-164 -45 -176 -149l-43 -347h672q16 0 14 -18l-2 -25q0 -18 -20 -18h-723q-19 0 -17 18z" />
<glyph unicode="3" horiz-adv-x="1085" d="M172 213q0 27 2 43l4 33q2 18 21 18h32q18 0 15 -18l-4 -27q-2 -14 -2 -41q0 -86 65.5 -132t226.5 -46q178 0 255 56.5t90 162.5l28 242q4 37 4 49q0 82 -61.5 123t-220.5 41h-197q-18 0 -18 18l2 25q4 18 22 18h187q182 0 249.5 51.5t81.5 161.5l17 139q2 20 2 44 q0 86 -62.5 131t-218.5 45q-176 0 -250.5 -57.5t-83.5 -162.5l-2 -26q0 -18 -18 -19h-33q-16 0 -16 19l2 33q18 272 409 272q344 0 344 -223q0 -14 -4 -51l-18 -152q-12 -100 -58 -155.5t-159 -77.5q174 -37 174 -187q0 -16 -4 -57l-31 -250q-16 -133 -107.5 -202.5 t-308.5 -69.5q-356 0 -356 229z" />
<glyph unicode="4" horiz-adv-x="1085" d="M172 494l4 24q2 12 12 33l414 823q8 18 27 19h37q18 0 8 -19l-420 -833h635l102 833q4 18 21 19h32q16 0 15 -19l-166 -1356q-4 -18 -19 -18h-32q-23 0 -19 18l58 461h-693q-8 0 -13 3.5t-3 11.5z" />
<glyph unicode="5" horiz-adv-x="1085" d="M207 211q0 29 2 45l2 33q0 18 20 18h33q16 0 17 -18l-2 -25q-2 -16 -3 -47q0 -88 56.5 -131t216.5 -43q180 0 246.5 54.5t78.5 164.5l35 293q4 37 4 43q0 164 -282 164h-320q-20 0 -16 18l74 594q4 18 18 19h645q16 0 15 -19l-3 -24q0 -18 -18 -19h-594l-63 -508h268 q164 0 255 -54t91 -159q0 -12 -4 -49l-37 -305q-8 -63 -27.5 -109.5t-62.5 -85t-120 -58t-189 -19.5q-190 0 -263 58t-73 169z" />
<glyph unicode="6" horiz-adv-x="1085" d="M193 209q0 16 4 53l108 885q14 119 102.5 190.5t307.5 71.5q346 0 346 -223q0 -14 -2 -39l-2 -29q0 -16 -21 -16h-32q-16 0 -15 16l2 23v14q2 12 2 16q0 178 -286 179q-178 0 -251 -57.5t-83 -151.5l-56 -449q76 125 336 125q352 0 353 -229q0 -18 -5 -51l-32 -275 q-10 -86 -45 -143.5t-128.5 -96t-246.5 -38.5q-195 0 -275.5 59.5t-80.5 165.5zM262 221q0 -86 64.5 -132t226.5 -46q184 0 258 57.5t88 167.5l33 264q4 33 4 46q0 86 -66.5 133t-230.5 47q-317 0 -340 -205l-33 -283q-4 -33 -4 -49z" />
<glyph unicode="7" horiz-adv-x="1085" d="M283 1350l2 24q0 18 20 19h811q18 0 17 -19l-3 -22q0 -6 -10 -27l-698 -1307q-10 -18 -25 -18h-43q-23 0 -12 18l705 1313h-748q-16 1 -16 19z" />
<glyph unicode="8" horiz-adv-x="1085" d="M186 209q0 33 2 53l31 242q14 104 66.5 164.5t177.5 83.5q-176 31 -176 190q0 18 4 59l16 129q8 66 26.5 111t60.5 86t121 61.5t196 20.5q190 0 267 -58.5t77 -164.5q0 -14 -4 -56l-17 -131q-14 -106 -63 -165.5t-172 -81.5q188 -37 188 -201q0 -31 -2 -49l-29 -240 q-16 -135 -105 -206.5t-312 -71.5q-195 0 -274 59.5t-79 165.5zM254 221q0 -86 64.5 -132t226.5 -46q182 0 255.5 57.5t88.5 167.5l26 228q2 16 3 45q0 88 -63.5 134t-227.5 46q-182 0 -254 -57.5t-86 -165.5l-29 -230q-4 -33 -4 -47zM356 956q0 -86 60.5 -131t218.5 -45 q182 0 249.5 56.5t82.5 169.5l14 118q4 37 4 52q0 84 -60.5 129t-219.5 45q-182 0 -249 -56.5t-81 -169.5l-15 -118q-4 -38 -4 -50z" />
<glyph unicode="9" horiz-adv-x="1085" d="M190 207q0 29 3 39l4 28q4 16 20 17h31q18 0 16 -17l-2 -22q0 -2 -1 -14.5t-1 -16.5q0 -178 289 -178q178 0 249.5 57.5t82.5 151.5l55 448q-76 -125 -338 -125q-350 0 -350 230q0 18 4 51l33 274q10 88 45 144.5t128 95.5t244 39q358 0 359 -225q0 -16 -4 -54l-109 -884 q-14 -119 -100 -190.5t-305 -71.5q-353 0 -353 223zM317 815q0 -86 66 -133t229 -47q313 0 340 205l33 282q4 33 4 49q0 86 -63.5 132.5t-225.5 46.5q-184 0 -258.5 -57.5t-89.5 -168.5l-30 -264q-5 -33 -5 -45z" />
<glyph unicode=":" horiz-adv-x="417" d="M176 18l19 156q2 18 20 19h33q18 0 14 -19l-18 -156q-2 -18 -21 -18h-33q-18 0 -14 18zM276 831l19 156q4 18 20 19h33q20 0 17 -19l-21 -156q-4 -18 -20 -18h-33q-17 0 -15 18z" />
<glyph unicode=";" horiz-adv-x="528" d="M154 -127q-4 16 14 25q61 29 89 65.5t36 93.5l14 117q2 18 19 19h36q18 0 15 -19l-17 -119q-18 -160 -178 -215q-14 -6 -18 6zM387 831l19 156q4 18 22 19h33q14 0 14 -19l-18 -156q0 -18 -21 -18h-33q-16 0 -16 18z" />
<glyph unicode="&#x3c;" horiz-adv-x="1122" d="M268 680v35q0 14 17 20l716 334q18 8 19 -12v-35q0 -10 -19 -21l-663 -303l663 -303q18 -10 19 -20v-35q0 -20 -19 -12l-716 331q-17 7 -17 21z" />
<glyph unicode="=" horiz-adv-x="1212" d="M246 512v25q0 16 18 16h805q18 0 18 -16v-25q0 -18 -18 -18h-805q-18 0 -18 18zM246 846v22q0 18 18 19h805q18 0 18 -19v-22q0 -18 -18 -19h-805q-18 1 -18 19z" />
<glyph unicode="&#x3e;" horiz-adv-x="1122" d="M225 340v35q0 10 19 20l663 303l-663 301q-18 8 -19 21v37q0 20 19 12l717 -332q16 -6 16 -20v-37q0 -14 -16 -21l-717 -333q-19 -11 -19 14z" />
<glyph unicode="?" horiz-adv-x="1163" d="M307 1018l15 112q16 133 111 206t319 73q369 0 368 -235q0 -29 -2 -46l-22 -190q-18 -156 -187 -233l-110 -54q-115 -55 -131 -164l-23 -159q-2 -18 -18 -19h-35q-18 0 -14 19l20 172q14 129 164 200l123 60q125 59 141 180l25 184q2 14 2 39q0 88 -70 136.5t-238 48.5 q-184 0 -263 -58.5t-93 -165.5l-14 -106q-2 -18 -21 -19h-32q-19 1 -15 19zM539 18l18 154q4 20 21 21h34q18 0 15 -19l-19 -156q-2 -18 -20 -18h-33q-18 0 -16 18z" />
<glyph unicode="@" horiz-adv-x="1624" d="M215 49q0 2 8 76l101 821q16 141 157.5 220t481.5 79q569 0 569 -262q0 -4 -4 -49l-80 -633q-14 -115 -66.5 -174t-160.5 -59q-74 0 -119 34.5t-51 98.5q-188 -133 -351 -133q-209 0 -208 168q0 37 8 69l88 393q27 117 94.5 179.5t204.5 62.5q154 0 287 -127l24 92 q6 18 21 19h26q18 0 15 -19l-136 -596q-8 -33 -8 -67q0 -119 113 -119q129 0 153 184l78 625q4 29 4 41q0 213 -508 213q-537 0 -565 -240l-102 -831q-6 -49 -6 -56q0 -104 114.5 -158.5t393.5 -54.5h387q14 0 14 -16l-2 -27q0 -16 -21 -16h-385q-569 0 -569 262zM561 256 q0 -127 166 -127q145 0 322 127q4 29 8 45l100 451q-121 127 -266 127q-193 0 -238 -189l-84 -377q-8 -37 -8 -57z" />
<glyph unicode="A" horiz-adv-x="1046" d="M59 18l590 1356q10 18 25 19h37q18 0 20 -19l256 -1356q4 -18 -12 -18h-37q-16 0 -20 18l-82 431h-521l-188 -431q-6 -18 -23 -18h-30q-17 0 -17 10q0 3 2 8zM340 508h487l-118 625l-27 180q-4 -12 -28.5 -80t-37.5 -94z" />
<glyph unicode="B" horiz-adv-x="1179" d="M211 18l166 1356q4 18 20 19h340q381 0 381 -236q0 -29 -2 -43l-18 -141q-12 -96 -66.5 -156.5t-167.5 -89.5q227 -41 228 -219q0 -27 -2 -39l-25 -195q-16 -131 -116.5 -202.5t-327.5 -71.5h-394q-18 0 -16 18zM285 59h340q344 0 372 224l23 184q2 12 2 37 q0 188 -317 188h-343zM371 752h315q315 0 344 223l17 133q2 12 2 37q0 188 -318 188h-289z" />
<glyph unicode="C" horiz-adv-x="1110" d="M213 215q0 16 4 49l107 866q16 131 112 205t322 74q375 0 375 -235q0 -29 -3 -46l-14 -106q-2 -18 -18 -18h-33q-20 0 -16 18l12 100q2 12 2 39q0 186 -309 187q-186 0 -267 -58.5t-96 -167.5l-104 -850q-2 -14 -2 -41q0 -186 307 -186q186 0 268 58.5t96 166.5l17 125 q2 16 18 17h33q20 0 16 -17l-16 -133q-16 -131 -113.5 -204.5t-322.5 -73.5q-375 0 -375 231z" />
<glyph unicode="D" horiz-adv-x="1216" d="M211 18l166 1356q4 18 18 19h393q383 0 383 -238q0 -31 -2 -45l-102 -831q-14 -131 -115.5 -205t-328.5 -74h-396q-18 0 -16 18zM285 61h342q342 0 370 226l101 817q2 12 2 37q0 190 -318 190h-340z" />
<glyph unicode="E" horiz-adv-x="1087" d="M211 18l166 1356q4 18 20 19h699q16 0 16 -19l-2 -24q-4 -18 -20 -19h-648l-69 -565h608q16 0 16 -18l-2 -25q0 -18 -20 -18h-610l-80 -644h673q20 0 17 -18l-4 -25q-4 -18 -19 -18h-727q-16 0 -14 18z" />
<glyph unicode="F" horiz-adv-x="1091" d="M211 18l166 1356q4 18 20 19h754q20 0 16 -19l-4 -24q-4 -18 -20 -19h-701l-71 -571h663q18 0 17 -19l-4 -24q-2 -18 -19 -19h-663l-84 -680q-2 -18 -19 -18h-35q-18 0 -16 18z" />
<glyph unicode="G" horiz-adv-x="1144" d="M213 215q0 16 4 49l107 866q16 131 112 205t322 74q375 0 375 -235q0 -31 -3 -46l-14 -104q-2 -18 -18 -18h-33q-20 0 -16 18l12 98q2 12 2 39q0 186 -309 187q-184 0 -266 -58.5t-97 -167.5l-104 -850q-2 -14 -2 -41q0 -90 69.5 -138t237.5 -48q186 0 267 57.5t95 163.5 l41 307h-315q-16 0 -16 19l2 24q0 18 20 19h367q18 0 14 -19l-43 -354q-16 -131 -113.5 -204.5t-322.5 -73.5q-375 0 -375 231z" />
<glyph unicode="H" horiz-adv-x="1241" d="M211 18l166 1356q4 18 20 19h35q18 0 14 -19l-71 -594h684l71 594q4 18 21 19h35q18 0 14 -19l-166 -1356q-2 -18 -18 -18h-35q-18 0 -16 18l86 703h-684l-86 -703q-2 -18 -19 -18h-35q-18 0 -16 18z" />
<glyph unicode="I" horiz-adv-x="487" d="M211 18l166 1356q4 18 20 19h35q18 0 14 -19l-165 -1356q-2 -18 -19 -18h-35q-18 0 -16 18z" />
<glyph unicode="J" horiz-adv-x="995" d="M106 213q0 16 5 53l8 70q4 18 20 18h33q16 0 14 -18l-8 -66q-4 -29 -4 -47q0 -86 60.5 -132t207.5 -46q166 0 234.5 57.5t83.5 167.5l137 1104q4 18 18 19h35q20 0 17 -19l-138 -1112q-16 -133 -102 -205.5t-291 -72.5q-330 0 -330 229z" />
<glyph unicode="K" horiz-adv-x="1083" d="M211 18l166 1356q4 18 20 19h33q20 0 16 -19l-77 -647h75l619 649q12 16 31 17h43q13 0 13 -7q0 -4 -7 -12l-639 -669l532 -687q4 -6 1 -12t-11 -6h-43q-16 0 -31 18l-510 654h-82l-81 -654q-4 -18 -19 -18h-33q-18 0 -16 18z" />
<glyph unicode="L" horiz-adv-x="1017" d="M211 18l166 1356q4 18 20 19h35q18 0 14 -19l-161 -1313h641q16 0 16 -18l-2 -25q-2 -18 -20 -18h-695q-16 0 -14 18z" />
<glyph unicode="M" horiz-adv-x="1462" d="M211 18l166 1356q0 18 18 19h29q12 0 16 -11l303 -1015q18 -70 21 -84q6 20 41 84l547 1015q4 10 18 11h35q16 0 14 -19l-166 -1356q-4 -18 -18 -18h-33q-18 0 -16 18l149 1217q0 -2 -16 -37l-25 -51l-493 -916q-10 -18 -27 -18h-35q-16 0 -22 18l-275 924q-10 33 -16 80 l-152 -1217q-4 -18 -18 -18h-29q-18 0 -16 18z" />
<glyph unicode="N" horiz-adv-x="1239" d="M211 18l166 1356q4 18 20 19h25q14 0 16 -9l496 -1132q45 -98 45 -111l151 1233q4 18 21 19h29q20 0 16 -19l-168 -1356q-4 -18 -18 -18h-27q-14 0 -16 8l-494 1129q-6 14 -45 116l-154 -1235q-4 -18 -18 -18h-29q-18 0 -16 18z" />
<glyph unicode="O" horiz-adv-x="1193" d="M213 217q0 14 4 47l107 866q14 131 114.5 205t327.5 74q383 0 383 -238q0 -29 -2 -43l-107 -866q-33 -279 -446 -278q-381 0 -381 233zM285 236q0 -190 315 -191q342 0 371 225l104 850q2 14 2 37q0 190 -317 191q-340 0 -369 -226l-104 -850q-2 -13 -2 -36z" />
<glyph unicode="P" horiz-adv-x="1144" d="M211 18l166 1356q4 18 18 19h391q381 0 381 -246q0 -27 -2 -43l-32 -268q-16 -131 -117 -201t-328 -70h-340l-67 -547q-2 -18 -19 -18h-35q-18 0 -16 18zM356 627h338q188 0 273.5 55t97.5 162l31 254q2 12 2 37q0 197 -318 196h-338z" />
<glyph unicode="Q" horiz-adv-x="1191" d="M213 217q0 14 4 47l107 866q14 131 114.5 205t327.5 74q383 0 383 -238q0 -29 -2 -43l-107 -866q-29 -248 -354 -274l277 -287q12 -12 -2 -25l-21 -20q-6 -6 -12 -6l-13 6l-313 328h-8q-381 0 -381 233zM285 236q0 -190 315 -191q342 0 371 225l104 850q2 14 2 37 q0 190 -317 191q-340 0 -369 -226l-104 -850q-2 -13 -2 -36z" />
<glyph unicode="R" horiz-adv-x="1198" d="M211 18l166 1356q4 18 18 19h391q381 0 381 -246q0 -27 -2 -43l-28 -246q-12 -106 -83 -173t-223 -89l224 -578q8 -18 -17 -18h-34q-16 0 -25 18l-217 572q-23 -2 -72 -2h-340l-69 -570q-2 -18 -19 -18h-35q-18 0 -16 18zM358 649h338q348 0 373 217l27 232q2 12 2 37 q0 197 -318 196h-338z" />
<glyph unicode="S" horiz-adv-x="1148" d="M197 219q0 8 4 45l12 98q2 18 18 19h33q18 0 17 -19l-13 -92q-2 -14 -2 -39q0 -188 316 -188q342 0 370 225l21 168q2 16 2 27q0 113 -148 172l-368 149q-66 27 -111 80.5t-45 128.5q0 14 4 47l10 90q16 133 111.5 206t321.5 73q369 0 368 -233q0 -31 -2 -46l-12 -104 q-2 -18 -21 -18h-32q-18 0 -17 18l13 98q2 16 2 39q0 90 -69 138.5t-237 48.5q-338 0 -358 -224l-8 -79q-4 -37 -4 -43q0 -111 121 -158l378 -154q170 -70 170 -219q0 -20 -2 -33l-20 -178q-14 -131 -115.5 -204.5t-326.5 -73.5q-381 -1 -381 235z" />
<glyph unicode="T" horiz-adv-x="976" d="M209 1350l2 24q0 18 20 19h848q18 0 17 -19l-2 -24q0 -18 -21 -19h-389l-162 -1313q-2 -18 -18 -18h-35q-18 0 -16 18l161 1313h-389q-16 1 -16 19z" />
<glyph unicode="U" horiz-adv-x="1216" d="M225 221q0 31 2 45l138 1108q4 18 18 19h33q23 0 18 -19l-137 -1098q-2 -16 -2 -40q0 -190 315 -191q188 0 272.5 59.5t98.5 165.5l137 1104q4 18 19 19h32q23 0 19 -19l-137 -1112q-16 -131 -116.5 -204.5t-328.5 -73.5q-381 -1 -381 237z" />
<glyph unicode="V" horiz-adv-x="1046" d="M225 1374q-2 18 19 19h35q16 0 18 -19l213 -1114q6 -29 11 -69.5t8 -69.5t3 -31q31 92 64 164l487 1120q10 18 23 19h37q15 0 14 -10q0 -4 -2 -9l-590 -1356q-8 -18 -24 -18h-35q-23 0 -25 18z" />
<glyph unicode="W" horiz-adv-x="1597" d="M225 1374q-2 18 19 19h32q14 0 19 -19l149 -1118q14 -115 15 -137l49 137l422 1118q6 18 24 19h33q16 0 19 -19l147 -1118q14 -102 14 -137q8 29 50 137l421 1118q6 18 25 19h33q13 0 13 -9q0 -4 -3 -10l-510 -1356q-6 -18 -25 -18h-34q-18 0 -23 18l-147 1133 q-12 102 -13 119l-41 -119l-428 -1133q-6 -18 -24 -18h-35q-20 0 -23 18z" />
<glyph unicode="X" horiz-adv-x="1103" d="M104 18l490 687l-315 669q-8 18 10 19h41q16 0 24 -19l291 -610l424 610q12 18 29 19h41q11 0 11 -7q0 -4 -5 -12l-471 -672l325 -684q8 -18 -12 -18h-39q-20 0 -28 18l-295 623l-443 -623q-10 -18 -28 -18h-39q-14 0 -14 8q0 4 3 10z" />
<glyph unicode="Y" horiz-adv-x="1026" d="M217 1374q-2 5 -2 9q0 10 16 10h39q14 0 21 -19l280 -667q16 -45 21 -62q2 12 33 62l444 667q14 18 27 19h37q15 0 14 -8q0 -4 -4 -11l-525 -786l-69 -570q-4 -18 -19 -18h-32q-23 0 -19 18l70 564z" />
<glyph unicode="Z" horiz-adv-x="1036" d="M125 16l4 23q2 12 10 24l840 1268h-637q-18 0 -16 19l4 24q2 18 20 19h707q14 0 14 -19l-2 -24q0 -10 -6 -19l-844 -1270h705q18 0 16 -18l-4 -25q-2 -18 -18 -18h-775q-10 0 -15 4t-3 12z" />
<glyph unicode="[" horiz-adv-x="716" d="M154 -414l227 1827q2 18 20 19h330q14 0 14 -19l-2 -24q0 -18 -18 -19h-281l-215 -1741h279q16 0 16 -18l-2 -25q-2 -18 -18 -18h-332q-18 0 -18 18z" />
<glyph unicode="\" horiz-adv-x="757" d="M285 1413q-4 18 14 19h33q20 0 22 -19l252 -1696q4 -20 -16 -20h-35q-14 0 -18 18z" />
<glyph unicode="]" horiz-adv-x="716" d="M90 -414l2 25q0 18 19 18h280l215 1741h-278q-16 0 -17 19l2 24q2 18 19 19h332q18 0 18 -19l-227 -1827q-2 -18 -21 -18h-330q-18 0 -14 18z" />
<glyph unicode="^" horiz-adv-x="1116" d="M266 657l332 717q8 18 20 19h37q12 0 21 -19l332 -717q8 -18 -13 -18h-34q-12 0 -21 18l-303 664l-303 -664q-8 -18 -21 -18h-34q-21 0 -13 18z" />
<glyph unicode="_" horiz-adv-x="860" d="M16 -205q0 18 19 19h727q18 0 18 -19v-22q0 -18 -18 -19h-727q-18 0 -19 19v22z" />
<glyph unicode="`" horiz-adv-x="698" d="M406 1432q-8 18 12 18h37q16 0 22 -14l125 -248q10 -16 -8 -17h-29q-16 0 -20 11z" />
<glyph unicode="a" d="M182 186q0 12 4 37l70 559q29 240 305 240q203 0 348 -129l15 94q6 18 20 19h29q14 0 14 -19l-119 -969q-4 -18 -20 -18h-29q-14 0 -14 18l6 93q-176 -127 -377 -127q-125 0 -188.5 54t-63.5 148zM252 201q0 -72 50 -114t153 -42q184 0 364 129l82 655q-137 131 -334 132 q-111 0 -172 -51.5t-73 -133.5l-68 -547q-2 -10 -2 -28z" />
<glyph unicode="b" d="M186 18l170 1395q2 18 21 19h33q20 0 16 -19l-64 -518q176 127 375 127q125 0 189.5 -55.5t64.5 -149.5q0 -16 -2 -35l-69 -559q-12 -111 -89 -175t-219 -64q-205 0 -348 127l-14 -93q-4 -18 -21 -18h-28q-17 0 -15 18zM274 174q143 -129 332 -129q111 0 173.5 51 t72.5 133l68 547q2 18 2 29q0 72 -50.5 114t-150.5 42q-203 0 -367 -132z" />
<glyph unicode="c" horiz-adv-x="964" d="M182 184q0 25 2 39l70 559q14 117 98 178.5t277 61.5q317 0 317 -201q0 -23 -2 -41l-6 -39q-2 -18 -18 -18h-31q-20 0 -17 16l5 39q2 14 2 33q0 154 -256 154q-156 0 -223.5 -49.5t-77.5 -137.5l-68 -547q-2 -20 -2 -36q0 -74 57.5 -113t198.5 -39q156 0 221.5 48 t79.5 136l8 56q2 18 21 18h30q16 0 15 -18l-9 -60q-14 -117 -96 -178t-276 -61q-320 -1 -320 200z" />
<glyph unicode="d" d="M182 186q0 10 4 39l70 557q31 240 303 240q199 0 348 -127l64 518q4 18 20 19h33q16 0 14 -19l-170 -1395q-4 -18 -20 -18h-29q-14 0 -14 18l6 93q-176 -127 -377 -127q-125 0 -188.5 54t-63.5 148zM252 201q0 -72 50 -114t153 -42q184 0 364 129l80 655 q-131 131 -332 132q-113 0 -174 -51.5t-71 -133.5l-68 -545q-2 -24 -2 -30z" />
<glyph unicode="e" horiz-adv-x="999" d="M182 186q0 20 2 37l70 559q14 117 100 178.5t279 61.5q324 0 323 -203q0 -25 -2 -37l-32 -256q-4 -18 -19 -18h-614l-37 -279q-2 -16 -2 -32q0 -156 262 -156q287 0 307 184l6 54q2 18 23 18h29q16 0 14 -18l-6 -56q-14 -115 -98.5 -177t-278.5 -62q-326 -1 -326 202z M293 563h567l29 215q2 14 2 31q0 156 -264 156q-281 0 -305 -185z" />
<glyph unicode="f" horiz-adv-x="626" d="M184 -410l168 1354h-139q-20 0 -16 19l2 18q2 18 20 18l115 5h22l25 196q14 115 100 177.5t279 62.5h10q16 0 14 -19l-2 -22q-2 -18 -20 -19h-8q-285 0 -305 -186l-23 -190h252q23 0 18 -19l-2 -22q-2 -18 -20 -19h-254l-168 -1354q-2 -18 -21 -18h-32q-17 0 -15 18z" />
<glyph unicode="g" d="M176 -412l2 25q0 18 21 18h272q285 0 305 185l35 293q-174 -125 -375 -125q-125 0 -189.5 55t-64.5 151q0 8 8 66l66 526q31 240 305 240q209 0 348 -129l15 94q2 18 20 19h29q18 0 14 -19l-143 -1175q-14 -117 -99.5 -178.5t-279.5 -61.5h-272q-19 0 -17 16zM252 203 q0 -72 50 -115t153 -43q184 0 364 129l82 655q-137 131 -334 132q-111 0 -172 -50.5t-73 -134.5l-68 -543q-2 -16 -2 -30z" />
<glyph unicode="h" horiz-adv-x="1064" d="M188 18l170 1395q2 18 21 19h33q16 0 14 -19l-64 -518q170 127 377 127q123 0 187.5 -54.5t64.5 -146.5q0 -23 -2 -35l-94 -768q-2 -18 -21 -18h-32q-16 0 -15 18l93 758q2 10 2 29q0 156 -203 156q-188 0 -365 -130l-98 -813q-2 -18 -20 -18h-33q-17 0 -15 18z" />
<glyph unicode="i" horiz-adv-x="438" d="M188 18l119 969q4 18 19 19h32q23 0 19 -19l-121 -969q-2 -18 -20 -18h-33q-17 0 -15 18zM334 1214l24 199q2 18 21 19h33q16 0 14 -19l-23 -199q-2 -18 -20 -18h-33q-18 0 -16 18z" />
<glyph unicode="j" horiz-adv-x="436" d="M-174 -412l2 25q4 18 20 18h9q281 0 301 185l145 1171q4 18 21 19h32q18 0 15 -19l-146 -1175q-14 -117 -99 -178.5t-276 -61.5h-8q-16 0 -16 16zM330 1214l26 199q4 18 19 19h33q18 0 16 -19l-27 -199q-4 -18 -18 -18h-33q-18 0 -16 18z" />
<glyph unicode="k" horiz-adv-x="899" d="M186 18l170 1395q4 18 21 19h33q18 0 14 -19l-98 -817h75l451 393q16 16 33 17h43q13 0 13 -10q0 -6 -5 -9l-475 -416l413 -553q10 -18 -10 -18h-39q-14 0 -30 18l-392 521h-86l-63 -521q-4 -18 -21 -18h-32q-19 0 -15 18z" />
<glyph unicode="l" horiz-adv-x="438" d="M186 18l170 1395q4 18 21 19h33q20 0 16 -19l-172 -1395q-4 -18 -18 -18h-35q-17 0 -15 18z" />
<glyph unicode="m" horiz-adv-x="1681" d="M188 18l119 969q4 18 19 19h28q18 0 17 -19l-9 -92q160 127 365 127q100 0 164.5 -38t81.5 -101q186 139 381 139q125 0 189.5 -54.5t64.5 -146.5q0 -23 -2 -35l-97 -768q-4 -18 -18 -18h-35q-16 0 -14 18l94 756q2 10 2 29q0 72 -50 115t-153 43q-197 0 -358 -134 q2 -20 0 -51l-94 -758q-2 -18 -19 -18h-35q-16 0 -14 18l92 744q4 33 4 41q0 72 -50 115t-152 43q-184 0 -355 -130l-98 -813q-4 -18 -18 -18h-35q-17 0 -15 18z" />
<glyph unicode="n" horiz-adv-x="1064" d="M188 18l119 969q4 18 19 19h28q18 0 17 -19l-9 -94q172 129 377 129q123 0 187.5 -54.5t64.5 -146.5q0 -25 -2 -37l-94 -766q-2 -18 -21 -18h-32q-16 0 -15 18l93 756q4 16 4 29q0 158 -203 158q-190 0 -367 -130l-98 -813q-2 -18 -20 -18h-33q-17 0 -15 18z" />
<glyph unicode="o" horiz-adv-x="1030" d="M182 188q0 23 2 35l70 559q14 115 101 177.5t282 62.5q326 0 326 -203q0 -18 -2 -37l-68 -559q-29 -240 -383 -239q-328 -1 -328 204zM252 199q0 -156 264 -156q289 0 309 184l68 551q2 18 2 29q0 158 -264 158q-287 0 -309 -187l-68 -551q-2 -16 -2 -28z" />
<glyph unicode="p" d="M135 -410l172 1397q4 18 19 19h28q16 0 15 -19l-9 -94q178 129 379 129q125 0 188.5 -54.5t63.5 -148.5q0 -25 -2 -37l-69 -559q-12 -111 -88 -175t-218 -64q-201 0 -348 125l-63 -519q-2 -18 -21 -18h-30q-19 0 -17 18zM274 174q143 -129 334 -129q111 0 172.5 51 t71.5 133l68 545q2 16 2 31q0 72 -50.5 114t-150.5 42q-207 0 -365 -132z" />
<glyph unicode="q" d="M182 190q0 12 8 66l66 526q31 240 305 240q209 0 348 -129l15 94q2 18 20 19h29q18 0 14 -19l-170 -1397q-2 -18 -20 -18h-33q-20 0 -16 18l63 519q-174 -125 -375 -125q-125 0 -189.5 55t-64.5 151zM252 203q0 -72 50 -115t153 -43q184 0 364 129l82 655 q-137 131 -334 132q-113 0 -174 -51.5t-71 -133.5l-68 -543q-2 -20 -2 -30z" />
<glyph unicode="r" horiz-adv-x="673" d="M188 18l119 969q4 18 19 19h28q18 0 17 -19l-11 -117q197 150 375 150q18 0 17 -19l-2 -28q-2 -16 -23 -17q-178 -4 -375 -147l-96 -791q-4 -18 -20 -18h-33q-17 0 -15 18z" />
<glyph unicode="s" horiz-adv-x="946" d="M156 170q0 14 2 31l6 53q2 16 18 16h33q14 0 12 -16l-6 -49q-2 -14 -2 -27q0 -139 264 -139q141 0 220 42t88 116l12 104q0 2 1 12.5t1 18.5q0 72 -121 110l-313 97q-57 16 -98.5 60t-41.5 101q0 18 2 31l13 84q29 207 356 207q156 0 234.5 -51t78.5 -131q0 -18 -2 -39 l-8 -60q-2 -14 -18 -14h-31q-8 0 -13 4t-3 10l8 56q2 16 2 39q0 57 -61.5 95t-190.5 38q-270 0 -289 -154l-8 -74q-2 -14 -2 -28q0 -84 111 -119l315 -94q145 -43 145 -154q0 -10 -2 -22v-13l-14 -121q-12 -94 -105.5 -150t-269.5 -56q-162 0 -242.5 52t-80.5 134z" />
<glyph unicode="t" horiz-adv-x="692" d="M182 963l2 18q4 18 21 18l135 5h2l29 227q2 18 20 18h31q20 0 16 -18l-28 -227h256q14 0 14 -19v-24q0 -16 -23 -17h-256l-84 -696q-2 -12 -2 -33q0 -156 258 -156h31q14 0 14 -18v-23q0 -18 -22 -18h-35q-172 0 -243.5 51t-71.5 148q0 23 2 41l86 704h-137q-17 1 -15 19 z" />
<glyph unicode="u" horiz-adv-x="1052" d="M195 184q0 16 2 35l94 768q4 18 20 19h33q18 0 16 -19l-94 -756q-2 -16 -2 -28q0 -158 203 -158q190 0 352 129l99 813q4 18 20 19h33q18 0 16 -19l-121 -969q-2 -18 -16 -18h-29q-23 0 -18 18l8 93q-160 -127 -362 -127q-125 0 -189.5 54t-64.5 146z" />
<glyph unicode="v" horiz-adv-x="835" d="M168 985q-4 20 14 21h37q14 0 17 -19l178 -803q4 -14 8 -49t6 -41q31 82 35 90l377 803q8 18 22 19h33q17 0 16 -10q0 -4 -2 -9l-452 -969q-10 -18 -23 -18h-37q-12 0 -16 18z" />
<glyph unicode="w" horiz-adv-x="1271" d="M164 987q-4 18 16 19h35q14 0 18 -19l119 -813l10 -78q10 35 27 78l324 813q6 18 24 19h45q16 0 19 -19l117 -813l8 -74l26 74l324 813q6 18 22 19h33q13 0 13 -9q0 -4 -3 -10l-389 -969q-6 -18 -22 -18h-37q-12 0 -16 18l-121 811q-8 61 -8 91q-2 -2 -17.5 -43 t-19.5 -50l-328 -809q-10 -18 -23 -18h-36q-12 0 -17 18z" />
<glyph unicode="x" horiz-adv-x="935" d="M87 6q-1 2 -1 4q0 4 4 8l399 494l-270 475q-10 18 12 19h39q14 0 25 -19l246 -426l336 426q14 18 30 19h39q12 0 12 -7q0 -4 -6 -12l-385 -479l279 -485q10 -23 -10 -23h-37q-16 0 -27 18l-252 441l-354 -441q-14 -18 -31 -18h-37q-8 0 -11 6z" />
<glyph unicode="y" horiz-adv-x="835" d="M168 987q-4 18 14 19h35q16 0 19 -19l178 -803l16 -90q16 47 35 90l375 803q8 18 22 19h33q17 0 16 -10q0 -4 -2 -9l-649 -1399q-8 -18 -24 -18h-29q-23 0 -12 18l190 414z" />
<glyph unicode="z" horiz-adv-x="937" d="M127 18l2 19q2 12 21 37l675 872h-542q-16 0 -15 19l2 24q0 16 21 17h610q16 0 14 -17l-2 -18q0 -10 -10 -25l-688 -887h594q18 0 14 -18l-2 -23q-2 -18 -20 -18h-658q-20 0 -16 18z" />
<glyph unicode="{" horiz-adv-x="915" d="M178 498l4 22q2 18 19 19h4q256 0 280 186l60 485q14 115 99 177.5t278 62.5h10q18 0 14 -18l-2 -23q0 -18 -18 -18h-8q-156 0 -223.5 -48.5t-80.5 -138.5l-59 -485q-20 -174 -215 -211q164 -33 164 -176q0 -23 -4 -60l-58 -456q-4 -25 -4 -45q0 -158 260 -158h9 q14 0 14 -19l-2 -22q0 -18 -19 -18h-8q-324 0 -323 204q0 27 4 56l55 454q6 55 6 58q0 154 -237 153h-2q-19 1 -17 19z" />
<glyph unicode="|" horiz-adv-x="487" d="M244 -414v1827q0 18 16 19h35q16 0 16 -19v-1827q0 -18 -16 -18h-35q-16 0 -16 18z" />
<glyph unicode="}" horiz-adv-x="915" d="M86 -428l2 22q0 18 21 19h8q156 0 222.5 48t78.5 138l61 500q20 172 217 209q-166 33 -166 178q0 29 5 53l55 451q4 29 4 45q0 156 -258 156h-8q-16 0 -17 18l2 23q2 18 21 18h6q324 0 324 -205q0 -16 -5 -53l-55 -451q-4 -29 -4 -49q0 -154 238 -153h2q16 0 16 -19 l-2 -24q0 -16 -23 -17h-2q-256 0 -280 -184l-62 -502q-14 -115 -100 -177t-274 -62h-11q-16 0 -16 18z" />
<glyph unicode="~" horiz-adv-x="974" d="M242 475v31q6 172 125 172q43 0 102 -37l166 -98q53 -29 84 -29q43 0 56 25.5t13 99.5v20q0 16 19 17h20q16 0 17 -19v-32q-6 -172 -121 -172q-47 0 -111 39l-168 100q-45 25 -73 24q-43 0 -58.5 -25.5t-15.5 -98.5v-19q0 -18 -21 -18h-18q-16 0 -16 20z" />
<glyph unicode="&#xa1;" horiz-adv-x="493" d="M162 -369l69 576l68 471q4 18 20 18h23q14 0 14 -18l-51 -471l-69 -576q-2 -18 -21 -18h-37q-18 0 -16 18zM311 831l21 156q4 18 20 19h31q23 0 18 -19l-20 -156q-4 -18 -21 -18h-34q-19 0 -15 18z" />
<glyph unicode="&#xa2;" horiz-adv-x="1064" d="M231 377q0 25 2 39l70 559q14 111 90 172t252 65l21 162q2 18 20 19h33q18 0 14 -19l-18 -162q281 -10 280 -198q0 -23 -2 -41l-6 -39q-2 -18 -18 -19h-31q-20 0 -16 17l4 39q2 14 2 33q0 154 -256 153q-156 0 -223.5 -49t-77.5 -137l-68 -547q-2 -20 -2 -37 q0 -74 57.5 -112.5t198.5 -38.5q156 0 221.5 48t79.5 136l8 55q2 18 21 19h31q16 0 14 -19l-8 -59q-14 -111 -89 -172.5t-247 -67.5l-21 -158q-2 -18 -18 -18h-33q-20 0 -18 18l20 158q-287 8 -287 201z" />
<glyph unicode="&#xa3;" horiz-adv-x="1325" d="M188 18l2 25q0 16 21 16h123l78 615h-125q-14 0 -15 18l2 25q2 16 21 16h123l51 416q8 66 26.5 108.5t61.5 79.5t121 54.5t194 17.5q195 0 272 -52t77 -155q0 -16 -4 -53l-7 -53q-2 -18 -20 -19h-31q-20 0 -16 21l6 43q4 37 4 51q0 80 -62.5 118t-224.5 38 q-182 0 -248.5 -49.5t-80.5 -157.5l-50 -408h369q18 0 14 -16l-2 -25q0 -18 -20 -18h-367l-78 -615h455q104 0 178 57.5t74 207.5v8q4 18 20 18h29q16 0 17 -18v-8q-4 -324 -314 -324h-659q-15 0 -15 18z" />
<glyph unicode="&#xa5;" horiz-adv-x="1030" d="M203 596l2 16q2 16 18 17h307l-75 184h-207q-16 0 -17 18v17q0 16 21 16h180l-213 510q-8 18 14 19h39q14 0 21 -19l280 -667q16 -45 21 -62q2 10 33 62l444 667q14 18 27 19h37q23 0 10 -19l-340 -510h182q16 0 17 -16v-17q0 -18 -21 -18h-213l-123 -184h309 q10 0 15.5 -4t3.5 -13l-2 -16q-2 -18 -21 -18h-334l-67 -560q-2 -18 -19 -18h-32q-20 0 -19 18l70 560h-332q-18 0 -16 18z" />
<glyph unicode="&#xa7;" horiz-adv-x="1120" d="M180 -240q0 16 4 50l2 18q2 18 21 18h31q16 0 14 -20l-2 -16q-4 -25 -4 -41q0 -158 264 -158q281 0 305 184l21 158q4 29 4 41q0 94 -142 133l-274 82q-57 16 -104.5 60t-47.5 118q0 29 2 43l27 219q2 18 21 19h28q18 0 17 -19l-25 -203q-4 -29 -4 -47q0 -96 119 -133 l276 -82q174 -51 174 -178q0 -18 -4 -51l-18 -158q-14 -115 -100.5 -177t-278.5 -62q-326 -1 -326 202zM328 963q0 20 4 49l20 157q14 115 100.5 177.5t278.5 62.5q324 0 324 -203q0 -18 -4 -47l-2 -20q-2 -18 -21 -19h-29q-18 0 -16 21l2 16q4 25 4 43q0 156 -262 156 q-283 0 -307 -185l-21 -155q-2 -16 -2 -43q0 -94 142 -133l274 -80q55 -16 103.5 -60.5t48.5 -117.5q0 -31 -2 -45l-29 -220q-4 -18 -21 -18h-28q-20 0 -17 18l27 203q4 29 4 49q0 96 -121 131l-274 82q-176 58 -176 181z" />
<glyph unicode="&#xa8;" horiz-adv-x="595" d="M326 1214l24 203q2 18 21 19h22q16 0 15 -19l-25 -203q-2 -18 -21 -18h-20q-18 0 -16 18zM506 1214l24 203q2 18 21 19h22q16 0 15 -19l-25 -203q-2 -18 -20 -18h-21q-18 0 -16 18z" />
<glyph unicode="&#xa9;" horiz-adv-x="1429" d="M240 285v825q0 68 20.5 118t72.5 93t155.5 65.5t256.5 22.5q152 0 255.5 -22.5t155.5 -65.5t72.5 -93t20.5 -118v-825q0 -70 -20.5 -120t-72.5 -93t-155.5 -65.5t-255.5 -22.5q-154 0 -257 22.5t-155 65.5t-72.5 93t-20.5 120zM297 279q0 -117 98.5 -180.5t350 -63.5 t350 63.5t98.5 180.5v835q0 117 -98.5 180.5t-350 63.5t-350 -63.5t-98.5 -180.5v-835zM481 498v395q0 119 54.5 178t210 59t210 -59t54.5 -178v-39q0 -18 -19 -18h-26q-18 0 -19 18v37q0 94 -38 140t-162.5 46t-162.5 -45t-38 -141v-391q0 -94 38 -140.5t162 -46.5 q123 0 162 46.5t39 140.5v53q0 18 19 18h26q18 0 19 -18v-55q0 -119 -54.5 -178.5t-210 -59.5t-210 59.5t-54.5 178.5z" />
<glyph unicode="&#xaa;" horiz-adv-x="714" d="M252 907q0 4 4 37l39 322q18 143 188 143q113 0 207 -76l10 49q2 16 17 17h22q14 0 11 -15l-70 -579q0 -10 -14 -10h-27q-10 0 -10 10l4 55q-109 -76 -227 -76q-76 0 -115 33t-39 90zM307 918q0 -88 115 -88.5t217 79.5l45 373q-88 80 -197 80q-125 0 -139 -102l-37 -297 z" />
<glyph unicode="&#xab;" horiz-adv-x="1234" d="M231 489l5 27q2 16 20 27l416 291q6 6 13 4t5 -13l-6 -39q-2 -14 -20 -28l-371 -256l307 -254q16 -16 14 -27l-4 -41q-2 -8 -8 -10t-10 2l-348 293q-15 14 -13 24zM625 489l4 27q2 16 20 27l416 291q6 6 13 4t5 -13l-6 -39q-2 -14 -20 -28l-371 -256l307 -254 q16 -16 15 -27l-4 -41q-2 -8 -8.5 -10t-10.5 2l-348 293q-14 14 -12 24z" />
<glyph unicode="&#xac;" horiz-adv-x="749" d="M158 637q0 88 62.5 151.5t152.5 63.5t153.5 -63.5t63.5 -151.5t-63.5 -151.5t-153.5 -63.5t-152.5 63.5t-62.5 151.5z" />
<glyph unicode="&#xad;" horiz-adv-x="956" d="M254 582v22q0 18 18 19h551q16 0 17 -19v-22q0 -18 -17 -19h-551q-18 1 -18 19z" />
<glyph unicode="&#xae;" horiz-adv-x="1247" d="M305 801v358q0 250 416 250q412 0 412 -250v-358q0 -248 -412 -248q-416 0 -416 248zM358 797q0 -80 79 -137.5t284 -57.5q358 0 358 195v366q0 197 -358 197q-203 0 -283 -58.5t-80 -138.5v-366zM541 715v512q0 14 14 14h182q102 0 146.5 -41t44.5 -98v-53 q0 -104 -115 -131l88 -203q4 -12 -12 -13h-29q-12 0 -16 13l-84 194h-164v-194q0 -12 -12 -13h-31q-12 1 -12 13zM596 954h139q72 0 104.5 29t32.5 70v45q0 41 -32.5 69.5t-104.5 28.5h-139v-242z" />
<glyph unicode="&#xaf;" horiz-adv-x="864" d="M299 1272l2 20q0 18 21 19h538q16 0 17 -17l-3 -22q0 -18 -20 -19h-539q-16 1 -16 19z" />
<glyph unicode="&#xb0;" horiz-adv-x="794" d="M266 1006q0 20 4 41l23 184q10 86 70.5 130t203.5 44q233 0 234 -152q0 -27 -2 -39l-23 -182q-10 -84 -70.5 -129t-203.5 -45q-236 1 -236 148zM328 1014q0 -104 180 -105q193 0 207 125l22 178q2 8 2 31q0 111 -178 111q-193 0 -207 -123l-22 -184q-4 -25 -4 -33z" />
<glyph unicode="&#xb1;" horiz-adv-x="1208" d="M217 272v23q0 18 19 18h800q18 0 19 -18v-23q0 -18 -19 -18h-800q-19 0 -19 18zM217 766v25q0 16 19 16h368v285q0 18 17 18h24q18 0 19 -18v-285h372q18 0 19 -16v-25q0 -18 -19 -18h-372v-287q0 -18 -19 -19h-24q-16 0 -17 19v287h-368q-19 0 -19 18z" />
<glyph unicode="&#xb4;" horiz-adv-x="698" d="M379 1188l190 248q10 14 23 14h41q20 0 6 -18l-199 -250q-10 -10 -20 -11h-33q-18 1 -8 17z" />
<glyph unicode="&#xb5;" horiz-adv-x="1052" d="M121 -412l174 1399q4 18 20 19h31q18 0 16 -19l-90 -725q-6 -41 -6 -59q0 -158 203 -158q184 0 352 127l101 815q4 18 20 19h31q18 0 16 -19l-121 -969q-4 -18 -18 -18h-27q-16 0 -16 18l6 93q-158 -127 -358 -127q-166 0 -211 96l-56 -492q-2 -16 -18 -16h-33 q-18 0 -16 16z" />
<glyph unicode="&#xb6;" horiz-adv-x="1263" d="M305 805q0 29 4 57l33 262q16 129 110.5 199t317.5 70h168q16 0 16 -17l-219 -1786q-2 -18 -20 -18h-35q-16 0 -14 18l120 988h-116q-365 0 -365 227zM928 -410l219 1784q4 18 20 19h33q16 0 17 -19l-220 -1784q-2 -18 -20 -18h-35q-16 0 -14 18z" />
<glyph unicode="&#xb7;" horiz-adv-x="417" d="M227 451l19 155q4 18 20 19h35q18 0 14 -19l-18 -155q-2 -18 -18 -19h-33q-21 1 -19 19z" />
<glyph unicode="&#xb8;" horiz-adv-x="286" d="M-80 -399q0 18 21 18h237q49 0 89 27.5t40 99.5q0 49 -30.5 69.5t-71.5 20.5h-113q-31 0 -20 23l59 145q4 14 21 14l18 -2q16 -2 8 -24l-43 -105h84q57 0 101.5 -33.5t44.5 -103.5q0 -98 -56.5 -140t-130.5 -42h-244q-14 0 -14 18v15z" />
<glyph unicode="&#xba;" horiz-adv-x="716" d="M252 911q0 10 6 54l37 297q16 147 233 147q205 0 205 -127q0 -14 -4 -39l-39 -311q-16 -147 -235 -148q-203 0 -203 127zM307 920q0 -90 152 -91q162 0 176 107l39 307q4 20 4 33q0 88 -152 88q-166 0 -176 -104l-39 -293q-4 -29 -4 -47z" />
<glyph unicode="&#xbb;" horiz-adv-x="1241" d="M233 195l7 38q2 14 20 29l371 256l-307 254q-16 16 -15 27l4 41q2 8 8.5 10t10.5 -2l348 -293q14 -14 12 -25l-4 -26q-2 -16 -20 -27l-416 -291q-6 -6 -13.5 -3.5t-5.5 12.5zM633 195l6 38q2 14 20 29l371 256l-307 254q-16 16 -14 27l4 41q2 8 8 10t10 -2l348 -293 q14 -14 13 -25l-5 -26q-2 -16 -20 -27l-416 -291q-6 -6 -13 -3.5t-5 12.5z" />
<glyph unicode="&#xbf;" horiz-adv-x="1163" d="M164 -168q0 29 2 45l22 191q18 156 187 233l110 53q115 55 131 164l23 160q2 18 18 18h35q18 0 15 -18l-21 -172q-14 -129 -164 -201l-123 -59q-125 -59 -141 -180l-25 -185q-2 -14 -2 -39q0 -88 70 -136t238 -48q184 0 263 58.5t93 164.5l14 107q2 18 21 18h33 q16 0 14 -18l-14 -113q-16 -133 -111.5 -205.5t-319.5 -72.5q-368 -1 -368 235zM657 831l19 156q4 18 20 19h33q18 0 16 -19l-18 -153q-4 -20 -20 -21h-35q-17 0 -15 18z" />
<glyph unicode="&#xc0;" horiz-adv-x="1046" d="M59 18l590 1356q10 18 25 19h37q18 0 20 -19l256 -1356q4 -18 -12 -18h-37q-16 0 -20 18l-82 431h-521l-188 -431q-6 -18 -23 -18h-30q-23 0 -15 18zM340 508h487l-118 625l-27 180q-4 -12 -28.5 -80t-37.5 -94zM502 1780q-10 18 10 18h37q16 0 22 -14l127 -248 q6 -16 -10 -16h-26q-16 0 -23 10z" />
<glyph unicode="&#xc1;" horiz-adv-x="1046" d="M59 18l590 1356q10 18 25 19h37q18 0 20 -19l256 -1356q4 -18 -12 -18h-37q-16 0 -20 18l-82 431h-521l-188 -431q-6 -18 -23 -18h-30q-23 0 -15 18zM340 508h487l-118 625l-27 180q-4 -12 -28.5 -80t-37.5 -94zM668 1536l188 248q10 14 25 14h39q20 0 6 -18l-199 -250 q-10 -10 -20 -10h-33q-18 0 -6 16z" />
<glyph unicode="&#xc2;" horiz-adv-x="1046" d="M59 18l590 1356q10 18 25 19h37q18 0 20 -19l256 -1356q4 -18 -12 -18h-37q-16 0 -20 18l-82 431h-521l-188 -431q-6 -18 -23 -18h-30q-23 0 -15 18zM340 508h487l-118 625l-27 180q-4 -12 -28.5 -80t-37.5 -94zM489 1538l191 242q14 18 31 18h26q14 0 25 -16l135 -244 q10 -18 -10 -18h-27q-14 0 -26 18l-113 211l-168 -211q-14 -18 -25 -18h-30q-23 0 -9 18z" />
<glyph unicode="&#xc3;" horiz-adv-x="1046" d="M59 18l590 1356q10 18 25 19h37q18 0 20 -19l256 -1356q4 -18 -12 -18h-37q-16 0 -20 18l-82 431h-521l-188 -431q-6 -18 -23 -18h-30q-23 0 -15 18zM340 508h487l-118 625l-27 180q-4 -12 -28.5 -80t-37.5 -94zM426 1575l4 31q12 92 46 130t93 38q53 0 101 -48l80 -79 q35 -35 65 -35q41 0 59.5 25.5t26.5 99.5l2 20q2 16 23 17h18q18 0 14 -19l-4 -31q-12 -92 -46 -130t-93 -38q-53 0 -100 48l-82 79q-39 35 -64 35q-41 0 -57 -24.5t-29 -98.5l-4 -22q-4 -18 -20 -19h-19q-18 1 -14 21z" />
<glyph unicode="&#xc4;" horiz-adv-x="1046" d="M59 18l590 1356q10 18 25 19h37q18 0 20 -19l256 -1356q4 -18 -12 -18h-37q-16 0 -20 18l-82 431h-521l-188 -431q-6 -18 -23 -18h-30q-23 0 -15 18zM340 508h487l-118 625l-27 180q-4 -12 -28.5 -80t-37.5 -94zM578 1556l24 203q2 16 21 17h22q16 0 14 -17l-24 -203 q-2 -18 -21 -18h-20q-18 0 -16 18zM758 1556l24 203q2 16 21 17h22q16 0 15 -17l-23 -203q-2 -18 -20 -18h-23q-18 0 -16 18z" />
<glyph unicode="&#xc5;" horiz-adv-x="1046" d="M59 18l590 1356q10 18 25 19h37q18 0 20 -19l256 -1356q4 -18 -12 -18h-37q-16 0 -20 18l-82 431h-521l-188 -431q-6 -18 -23 -18h-30q-23 0 -15 18zM340 508h487l-118 625l-27 180q-4 -12 -28.5 -80t-37.5 -94zM526 1604q0 27 2 53l2 18q14 131 195 131q80 0 122 -34.5 t42 -88.5q0 -18 -2 -38l-4 -33q-16 -125 -195 -125q-80 0 -121 33t-41 84zM575 1612q0 -80 117 -80q137 0 144 84l2 24q2 18 2 35q0 84 -119 84q-133 0 -143 -88l-3 -24v-35z" />
<glyph unicode="&#xc6;" horiz-adv-x="1722" d="M61 18l949 1356q14 18 34 19h693q16 0 14 -19l-2 -22q-4 -18 -20 -19h-648l-69 -567h608q18 0 16 -18l-2 -23q-4 -18 -20 -18h-608l-82 -648h673q18 0 17 -16l-4 -25q-4 -18 -19 -18h-712q-14 0 -21.5 4t-5.5 19l53 426h-471l-301 -431q-14 -18 -24 -18h-33q-27 0 -15 18 zM477 508h436l93 762q-29 -49 -80 -121z" />
<glyph unicode="&#xc7;" horiz-adv-x="1110" d="M213 215q0 16 4 49l107 866q16 131 112 205t322 74q375 0 375 -235q0 -29 -3 -46l-14 -106q-2 -18 -18 -18h-33q-20 0 -16 18l12 100q2 12 2 39q0 186 -309 187q-186 0 -267 -58.5t-96 -167.5l-104 -850q-2 -14 -2 -41q0 -186 307 -186q186 0 268 58.5t96 166.5l17 125 q2 16 18 17h33q20 0 16 -17l-16 -133q-16 -131 -113.5 -204.5t-322.5 -73.5h-25l-39 -97h84q57 0 101.5 -33.5t44.5 -103.5q0 -98 -56.5 -140t-130.5 -42h-243q-14 0 -15 18v15q0 18 21 18h237q49 0 89 27.5t40 99.5q0 49 -30.5 69.5t-71.5 20.5h-113q-31 0 -20 23l51 129 q-299 18 -299 227z" />
<glyph unicode="&#xc8;" horiz-adv-x="1087" d="M211 18l166 1356q4 18 20 19h699q16 0 16 -19l-2 -24q-4 -18 -20 -19h-648l-69 -565h608q16 0 16 -18l-2 -25q0 -18 -20 -18h-610l-80 -644h673q20 0 17 -18l-4 -25q-4 -18 -19 -18h-727q-16 0 -14 18zM575 1780q-10 18 11 18h37q16 0 22 -14l127 -248q6 -16 -10 -16h-27 q-16 0 -22 10z" />
<glyph unicode="&#xc9;" horiz-adv-x="1087" d="M211 18l166 1356q4 18 20 19h699q16 0 16 -19l-2 -24q-4 -18 -20 -19h-648l-69 -565h608q16 0 16 -18l-2 -25q0 -18 -20 -18h-610l-80 -644h673q20 0 17 -18l-4 -25q-4 -18 -19 -18h-727q-16 0 -14 18zM713 1536l188 248q10 14 25 14h39q20 0 6 -18l-199 -250 q-10 -10 -20 -10h-33q-18 0 -6 16z" />
<glyph unicode="&#xca;" horiz-adv-x="1087" d="M211 18l166 1356q4 18 20 19h699q16 0 16 -19l-2 -24q-4 -18 -20 -19h-648l-69 -565h608q16 0 16 -18l-2 -25q0 -18 -20 -18h-610l-80 -644h673q20 0 17 -18l-4 -25q-4 -18 -19 -18h-727q-16 0 -14 18zM551 1538l190 242q14 18 31 18h27q14 0 24 -16l135 -244 q10 -18 -10 -18h-26q-14 0 -27 18l-113 211l-168 -211q-14 -18 -24 -18h-31q-22 0 -8 18z" />
<glyph unicode="&#xcb;" horiz-adv-x="1087" d="M211 18l166 1356q4 18 20 19h699q16 0 16 -19l-2 -24q-4 -18 -20 -19h-648l-69 -565h608q16 0 16 -18l-2 -25q0 -18 -20 -18h-610l-80 -644h673q20 0 17 -18l-4 -25q-4 -18 -19 -18h-727q-16 0 -14 18zM651 1556l25 203q2 16 20 17h23q16 0 14 -17l-24 -203 q-2 -18 -21 -18h-20q-19 0 -17 18zM831 1556l25 203q2 16 21 17h22q16 0 14 -17l-22 -203q-2 -18 -21 -18h-22q-19 0 -17 18z" />
<glyph unicode="&#xcc;" horiz-adv-x="487" d="M211 18l166 1356q4 18 20 19h35q18 0 14 -19l-165 -1356q-2 -18 -19 -18h-35q-18 0 -16 18zM252 1780q-10 18 10 18h37q16 0 23 -14l127 -248q6 -16 -11 -16h-26q-16 0 -23 10z" />
<glyph unicode="&#xcd;" horiz-adv-x="487" d="M211 18l166 1356q4 18 20 19h35q18 0 14 -19l-165 -1356q-2 -18 -19 -18h-35q-18 0 -16 18zM401 1536l189 248q10 14 24 14h39q20 0 6 -18l-198 -250q-10 -10 -21 -10h-32q-19 0 -7 16z" />
<glyph unicode="&#xce;" horiz-adv-x="487" d="M211 18l166 1356q4 18 20 19h35q18 0 14 -19l-165 -1356q-2 -18 -19 -18h-35q-18 0 -16 18zM221 1538l191 242q14 18 30 18h27q14 0 25 -16l135 -244q10 -18 -11 -18h-26q-14 0 -27 18l-112 211l-168 -211q-14 -18 -25 -18h-31q-22 0 -8 18z" />
<glyph unicode="&#xcf;" horiz-adv-x="487" d="M211 18l166 1356q4 18 20 19h35q18 0 14 -19l-165 -1356q-2 -18 -19 -18h-35q-18 0 -16 18zM315 1556l25 203q2 16 20 17h23q16 0 14 -17l-24 -203q-2 -18 -21 -18h-20q-19 0 -17 18zM496 1556l24 203q2 16 21 17h22q16 0 15 -17l-23 -203q-2 -18 -20 -18h-23 q-18 0 -16 18z" />
<glyph unicode="&#xd0;" horiz-adv-x="1218" d="M111 696l2 21q0 18 20 18h166l78 639q4 18 18 19h393q383 0 383 -238q0 -31 -2 -45l-102 -831q-14 -131 -115.5 -205t-328.5 -74h-396q-18 0 -16 18l80 660h-164q-20 0 -16 18zM285 61h342q342 0 370 226l101 817q2 12 2 37q0 190 -318 190h-340l-73 -596h315 q16 0 16 -18l-2 -21q-6 -18 -22 -18h-316z" />
<glyph unicode="&#xd1;" horiz-adv-x="1239" d="M211 18l166 1356q4 18 20 19h25q14 0 16 -9l496 -1132q45 -98 45 -111l151 1233q4 18 21 19h29q20 0 16 -19l-168 -1356q-4 -18 -18 -18h-27q-14 0 -16 8l-494 1129q-6 14 -45 116l-154 -1235q-4 -18 -18 -18h-29q-18 0 -16 18zM549 1575l4 31q12 92 46 130t93 38 q53 0 101 -48l79 -79q35 -35 66 -35q41 0 59.5 25.5t26.5 99.5l2 20q2 16 23 17h18q18 0 14 -19l-4 -31q-12 -92 -46 -130t-93 -38q-53 0 -100 48l-82 79q-39 35 -64 35q-41 0 -57.5 -24.5t-28.5 -98.5l-4 -22q-4 -18 -20 -19h-19q-18 1 -14 21z" />
<glyph unicode="&#xd2;" horiz-adv-x="1193" d="M213 217q0 14 4 47l107 866q14 131 114.5 205t327.5 74q383 0 383 -238q0 -29 -2 -43l-107 -866q-33 -279 -446 -278q-381 0 -381 233zM285 236q0 -190 315 -191q342 0 371 225l104 850q2 14 2 37q0 190 -317 191q-340 0 -369 -226l-104 -850q-2 -13 -2 -36zM610 1780 q-8 18 11 18h36q14 0 23 -14l127 -248q6 -16 -10 -16h-27q-16 0 -22 10z" />
<glyph unicode="&#xd3;" horiz-adv-x="1193" d="M213 217q0 14 4 47l107 866q14 131 114.5 205t327.5 74q383 0 383 -238q0 -29 -2 -43l-107 -866q-33 -279 -446 -278q-381 0 -381 233zM285 236q0 -190 315 -191q342 0 371 225l104 850q2 14 2 37q0 190 -317 191q-340 0 -369 -226l-104 -850q-2 -13 -2 -36zM750 1536 l188 248q10 14 25 14h38q20 0 7 -18l-199 -250q-10 -10 -21 -10h-32q-18 0 -6 16z" />
<glyph unicode="&#xd4;" horiz-adv-x="1193" d="M213 217q0 14 4 47l107 866q14 131 114.5 205t327.5 74q383 0 383 -238q0 -29 -2 -43l-107 -866q-33 -279 -446 -278q-381 0 -381 233zM285 236q0 -190 315 -191q342 0 371 225l104 850q2 14 2 37q0 190 -317 191q-340 0 -369 -226l-104 -850q-2 -13 -2 -36zM569 1538 l191 242q14 18 31 18h26q14 0 25 -16l135 -244q10 -18 -10 -18h-27q-14 0 -27 18l-112 211l-168 -211q-14 -18 -25 -18h-30q-23 0 -9 18z" />
<glyph unicode="&#xd5;" horiz-adv-x="1193" d="M213 217q0 14 4 47l107 866q14 131 114.5 205t327.5 74q383 0 383 -238q0 -29 -2 -43l-107 -866q-33 -279 -446 -278q-381 0 -381 233zM285 236q0 -190 315 -191q342 0 371 225l104 850q2 14 2 37q0 190 -317 191q-340 0 -369 -226l-104 -850q-2 -13 -2 -36zM528 1575 l4 31q12 92 46 130t94 38q53 0 100 -48l80 -79q35 -35 66 -35q41 0 59 25.5t27 99.5l2 20q2 16 22 17h19q18 0 14 -19l-4 -31q-12 -92 -46 -130t-93 -38q-53 0 -101 48l-82 79q-39 35 -63 35q-41 0 -57.5 -24.5t-28.5 -98.5l-4 -22q-4 -18 -21 -19h-18q-19 1 -15 21z" />
<glyph unicode="&#xd6;" horiz-adv-x="1193" d="M213 217q0 14 4 47l107 866q14 131 114.5 205t327.5 74q383 0 383 -238q0 -29 -2 -43l-107 -866q-33 -279 -446 -278q-381 0 -381 233zM285 236q0 -190 315 -191q342 0 371 225l104 850q2 14 2 37q0 190 -317 191q-340 0 -369 -226l-104 -850q-2 -13 -2 -36zM662 1556 l24 203q2 16 21 17h22q16 0 14 -17l-24 -203q-2 -18 -21 -18h-20q-18 0 -16 18zM842 1556l24 203q2 16 21 17h22q16 0 15 -17l-23 -203q-2 -18 -20 -18h-23q-18 0 -16 18z" />
<glyph unicode="&#xd8;" horiz-adv-x="1193" d="M213 215q0 14 4 47l107 866q14 131 114.5 205t327.5 74q178 0 274 -53l41 67q10 18 27 19h20q8 0 9.5 -6.5t-2.5 -12.5l-56 -94q70 -57 70 -158q0 -29 -2 -43l-107 -866q-33 -279 -446 -278q-182 0 -275 51l-36 -62q-12 -23 -27 -22h-20q-20 0 -7 22l52 88 q-68 54 -68 156zM285 233q0 -66 34 -108l687 1169q-76 51 -246 52q-340 0 -369 -226l-104 -850q-2 -14 -2 -37zM354 94q76 -51 246 -51q342 0 371 225l104 850q2 14 2 37q0 63 -37 107z" />
<glyph unicode="&#xd9;" horiz-adv-x="1218" d="M225 221q0 31 2 45l138 1108q4 18 18 19h33q23 0 18 -19l-137 -1098q-2 -16 -2 -40q0 -190 315 -191q188 0 272.5 59.5t98.5 165.5l137 1104q4 18 19 19h32q23 0 19 -19l-137 -1112q-16 -131 -116.5 -204.5t-328.5 -73.5q-381 -1 -381 237zM612 1780q-10 18 11 18h36 q16 0 23 -14l127 -248q6 -16 -10 -16h-27q-16 0 -22 10z" />
<glyph unicode="&#xda;" horiz-adv-x="1218" d="M225 221q0 31 2 45l138 1108q4 18 18 19h33q23 0 18 -19l-137 -1098q-2 -16 -2 -40q0 -190 315 -191q188 0 272.5 59.5t98.5 165.5l137 1104q4 18 19 19h32q23 0 19 -19l-137 -1112q-16 -131 -116.5 -204.5t-328.5 -73.5q-381 -1 -381 237zM756 1536l188 248q10 14 25 14 h39q20 0 6 -18l-199 -250q-10 -10 -20 -10h-33q-18 0 -6 16z" />
<glyph unicode="&#xdb;" horiz-adv-x="1218" d="M225 221q0 31 2 45l138 1108q4 18 18 19h33q23 0 18 -19l-137 -1098q-2 -16 -2 -40q0 -190 315 -191q188 0 272.5 59.5t98.5 165.5l137 1104q4 18 19 19h32q23 0 19 -19l-137 -1112q-16 -131 -116.5 -204.5t-328.5 -73.5q-381 -1 -381 237zM586 1538l190 242q14 18 31 18 h27q14 0 24 -16l135 -244q10 -18 -10 -18h-27q-14 0 -26 18l-113 211l-168 -211q-14 -18 -24 -18h-31q-22 0 -8 18z" />
<glyph unicode="&#xdc;" horiz-adv-x="1218" d="M225 221q0 31 2 45l138 1108q4 18 18 19h33q23 0 18 -19l-137 -1098q-2 -16 -2 -40q0 -190 315 -191q188 0 272.5 59.5t98.5 165.5l137 1104q4 18 19 19h32q23 0 19 -19l-137 -1112q-16 -131 -116.5 -204.5t-328.5 -73.5q-381 -1 -381 237zM668 1556l24 203q2 16 21 17 h22q16 0 15 -17l-25 -203q-2 -18 -20 -18h-21q-18 0 -16 18zM848 1556l24 203q2 16 21 17h22q16 0 15 -17l-23 -203q-2 -18 -20 -18h-23q-18 0 -16 18z" />
<glyph unicode="&#xdd;" horiz-adv-x="1026" d="M217 1374q-8 18 14 19h39q14 0 21 -19l280 -667q16 -45 21 -62q2 10 33 62l444 667q14 18 27 19h37q23 0 10 -19l-525 -786l-69 -570q-4 -18 -19 -18h-32q-23 0 -19 18l70 564zM666 1536l188 248q10 14 25 14h39q20 0 6 -18l-199 -250q-10 -10 -20 -10h-33q-18 0 -6 16z " />
<glyph unicode="&#xde;" horiz-adv-x="1144" d="M211 18l166 1356q4 18 20 19h33q18 0 16 -19l-45 -368h338q381 0 381 -238q0 -27 -2 -41l-28 -227q-16 -131 -117 -205t-328 -74h-340l-26 -203q-4 -18 -19 -18h-33q-18 0 -16 18zM311 283h340q342 0 371 225l27 213q2 12 2 35q0 190 -318 190h-340z" />
<glyph unicode="&#xdf;" horiz-adv-x="1189" d="M184 961v20q0 18 21 18l137 5h2l25 206q31 240 393 240q336 0 336 -209q0 -8 -4 -49l-7 -59q-12 -127 -186 -170l-129 -31q-2 0 -20.5 -4t-25.5 -7t-25.5 -9.5t-28.5 -14.5l-23 -18q-12 -10 -18 -26.5t-8 -35.5l-2 -12q-2 -16 -3 -25q0 -78 121 -123l236 -86 q170 -61 170 -170q0 -27 -2 -39l-19 -139q-14 -117 -88.5 -178t-263.5 -61q-164 0 -230.5 49t-66.5 141q0 29 2 45l4 31q2 18 21 18h24q18 0 17 -18l-4 -31q-2 -14 -2 -37q0 -72 53 -109.5t186 -37.5q152 0 212.5 48t72.5 136l14 121q2 18 2 47q0 12 -3 24.5t-7 20.5 t-12 17.5t-15.5 15.5t-18.5 13t-17.5 10.5t-18.5 8.5t-16 7t-17 6l-12 4l-233 84q-53 18 -101.5 61t-48.5 109q0 18 2 33l2 18q16 123 187 162l122 27q141 29 152 129l6 53q4 37 4 43q0 162 -276 162q-297 0 -318 -189l-145 -1188q-2 -18 -21 -18h-32q-18 0 -17 18l115 926 h-139q-15 1 -15 17z" />
<glyph unicode="&#xe0;" d="M182 186q0 12 4 37l70 559q29 240 305 240q203 0 348 -129l15 94q6 18 20 19h29q14 0 14 -19l-119 -969q-4 -18 -20 -18h-29q-14 0 -14 18l6 93q-176 -127 -377 -127q-125 0 -188.5 54t-63.5 148zM252 201q0 -72 50 -114t153 -42q184 0 364 129l82 655q-137 131 -334 132 q-111 0 -172 -51.5t-73 -133.5l-68 -547q-2 -10 -2 -28zM477 1432q-10 18 12 18h37q14 0 23 -14l125 -248q10 -16 -8 -17h-29q-16 0 -21 11z" />
<glyph unicode="&#xe1;" d="M182 186q0 12 4 37l70 559q29 240 305 240q203 0 348 -129l15 94q6 18 20 19h29q14 0 14 -19l-119 -969q-4 -18 -20 -18h-29q-14 0 -14 18l6 93q-176 -127 -377 -127q-125 0 -188.5 54t-63.5 148zM252 201q0 -72 50 -114t153 -42q184 0 364 129l82 655q-137 131 -334 132 q-111 0 -172 -51.5t-73 -133.5l-68 -547q-2 -10 -2 -28zM598 1188l190 248q10 14 23 14h41q20 0 6 -18l-199 -250q-10 -10 -20 -11h-33q-18 1 -8 17z" />
<glyph unicode="&#xe2;" d="M182 186q0 12 4 37l70 559q29 240 305 240q203 0 348 -129l15 94q6 18 20 19h29q14 0 14 -19l-119 -969q-4 -18 -20 -18h-29q-14 0 -14 18l6 93q-176 -127 -377 -127q-125 0 -188.5 54t-63.5 148zM252 201q0 -72 50 -114t153 -42q184 0 364 129l82 655q-137 131 -334 132 q-111 0 -172 -51.5t-73 -133.5l-68 -547q-2 -10 -2 -28zM424 1190l190 242q14 18 31 18h27q18 0 26 -16l133 -244q10 -18 -10 -19h-26q-16 0 -25 19l-115 211l-168 -211q-14 -18 -24 -19h-31q-22 1 -8 19z" />
<glyph unicode="&#xe3;" d="M182 186q0 12 4 37l70 559q29 240 305 240q203 0 348 -129l15 94q6 18 20 19h29q14 0 14 -19l-119 -969q-4 -18 -20 -18h-29q-14 0 -14 18l6 93q-176 -127 -377 -127q-125 0 -188.5 54t-63.5 148zM252 201q0 -72 50 -114t153 -42q184 0 364 129l82 655q-137 131 -334 132 q-111 0 -172 -51.5t-73 -133.5l-68 -547q-2 -10 -2 -28zM379 1219l4 30q14 92 47 130t92 38q55 0 101 -47l79 -80q35 -35 66 -35q41 0 59.5 26t26.5 99l2 21q2 16 21 16h20q16 0 14 -18l-4 -29q-12 -94 -46 -132t-93 -38q-53 0 -100 47l-82 80q-35 35 -64 35 q-41 0 -57 -24.5t-29 -98.5l-4 -22q-2 -16 -20 -17h-21q-14 1 -12 19z" />
<glyph unicode="&#xe4;" d="M182 186q0 12 4 37l70 559q29 240 305 240q203 0 348 -129l15 94q6 18 20 19h29q14 0 14 -19l-119 -969q-4 -18 -20 -18h-29q-14 0 -14 18l6 93q-176 -127 -377 -127q-125 0 -188.5 54t-63.5 148zM252 201q0 -72 50 -114t153 -42q184 0 364 129l82 655q-137 131 -334 132 q-111 0 -172 -51.5t-73 -133.5l-68 -547q-2 -10 -2 -28zM514 1214l25 203q2 18 20 19h23q16 0 14 -19l-25 -203q-2 -18 -20 -18h-21q-18 0 -16 18zM694 1214l25 203q2 18 20 19h23q16 0 14 -19l-24 -203q-2 -18 -21 -18h-20q-19 0 -17 18z" />
<glyph unicode="&#xe5;" d="M182 186q0 12 4 37l70 559q29 240 305 240q203 0 348 -129l15 94q6 18 20 19h29q14 0 14 -19l-119 -969q-4 -18 -20 -18h-29q-14 0 -14 18l6 93q-176 -127 -377 -127q-125 0 -188.5 54t-63.5 148zM252 201q0 -72 50 -114t153 -42q184 0 364 129l82 655q-137 131 -334 132 q-111 0 -172 -51.5t-73 -133.5l-68 -547q-2 -10 -2 -28zM492 1262q0 27 2 53l2 18q14 131 194 131q80 0 122 -34.5t42 -88.5q0 -18 -2 -38l-4 -33q-16 -125 -195 -125q-80 0 -120.5 33t-40.5 84zM541 1270q0 -80 116 -80q137 0 144 84l2 24q2 18 2 35q0 84 -119 84 q-133 0 -143 -88l-2 -24v-35z" />
<glyph unicode="&#xe6;" horiz-adv-x="1617" d="M166 180q0 25 2 37l10 90q10 102 81 166t192 64h391l28 229q4 33 4 45q0 156 -256 156q-156 0 -221 -48.5t-80 -136.5l-6 -39q-2 -18 -18 -18h-29q-18 0 -16 18l4 39q12 115 96 177.5t277 62.5q248 0 295 -129q74 129 331 129q324 0 324 -203q0 -25 -2 -37l-33 -256 q-4 -18 -18 -18h-615l-35 -268q-4 -33 -4 -43q0 -156 265 -156q156 0 223 48t82 136l8 54q4 18 20 18h27q18 0 16 -18l-8 -56q-16 -117 -99 -178t-276 -61q-283 0 -317 153q-188 -154 -389 -153q-119 0 -186.5 52t-67.5 144zM233 197q0 -154 201 -154q172 0 367 150l35 288 h-385q-90 0 -144.5 -50t-62.5 -130l-8 -78q-3 -12 -3 -26zM911 563h568l28 217v29q0 156 -260 156q-158 0 -226.5 -48.5t-80.5 -136.5z" />
<glyph unicode="&#xe7;" horiz-adv-x="966" d="M182 184q0 25 2 39l70 559q14 117 98 178.5t277 61.5q317 0 317 -201q0 -23 -2 -41l-6 -39q-2 -18 -18 -18h-31q-20 0 -17 16l5 39q2 14 2 33q0 154 -256 154q-156 0 -223.5 -49.5t-77.5 -137.5l-68 -547q-2 -20 -2 -36q0 -74 57.5 -113t198.5 -39q156 0 221.5 48 t79.5 136l8 56q2 18 21 18h30q16 0 15 -18l-9 -60q-14 -115 -94 -176t-266 -63l-39 -97h84q57 0 101.5 -33.5t44.5 -103.5q0 -98 -56.5 -140t-130.5 -42h-244q-14 0 -14 18v15q0 18 21 18h237q49 0 89 27.5t40 99.5q0 49 -30.5 69.5t-71.5 20.5h-113q-31 0 -20 23l51 127 q-281 10 -281 198z" />
<glyph unicode="&#xe8;" horiz-adv-x="999" d="M182 186q0 20 2 37l70 559q14 117 100 178.5t279 61.5q324 0 323 -203q0 -25 -2 -37l-32 -256q-4 -18 -19 -18h-614l-37 -279q-2 -16 -2 -32q0 -156 262 -156q287 0 307 184l6 54q2 18 23 18h29q16 0 14 -18l-6 -56q-14 -115 -98.5 -177t-278.5 -62q-326 -1 -326 202z M293 563h567l29 215q2 14 2 31q0 156 -264 156q-281 0 -305 -185zM481 1432q-10 18 13 18h36q14 0 23 -14l125 -248q10 -16 -8 -17h-29q-16 0 -20 11z" />
<glyph unicode="&#xe9;" horiz-adv-x="999" d="M182 186q0 20 2 37l70 559q14 117 100 178.5t279 61.5q324 0 323 -203q0 -25 -2 -37l-32 -256q-4 -18 -19 -18h-614l-37 -279q-2 -16 -2 -32q0 -156 262 -156q287 0 307 184l6 54q2 18 23 18h29q16 0 14 -18l-6 -56q-14 -115 -98.5 -177t-278.5 -62q-326 -1 -326 202z M293 563h567l29 215q2 14 2 31q0 156 -264 156q-281 0 -305 -185zM614 1188l191 248q10 14 22 14h41q20 0 6 -18l-198 -250q-10 -10 -21 -11h-32q-19 1 -9 17z" />
<glyph unicode="&#xea;" horiz-adv-x="999" d="M182 186q0 20 2 37l70 559q14 117 100 178.5t279 61.5q324 0 323 -203q0 -25 -2 -37l-32 -256q-4 -18 -19 -18h-614l-37 -279q-2 -16 -2 -32q0 -156 262 -156q287 0 307 184l6 54q2 18 23 18h29q16 0 14 -18l-6 -56q-14 -115 -98.5 -177t-278.5 -62q-326 -1 -326 202z M293 563h567l29 215q2 14 2 31q0 156 -264 156q-281 0 -305 -185zM438 1190l191 242q14 18 30 18h27q18 0 27 -16l133 -244q10 -18 -10 -19h-27q-14 0 -25 19l-114 211l-168 -211q-14 -18 -25 -19h-31q-22 1 -8 19z" />
<glyph unicode="&#xeb;" horiz-adv-x="999" d="M182 186q0 20 2 37l70 559q14 117 100 178.5t279 61.5q324 0 323 -203q0 -25 -2 -37l-32 -256q-4 -18 -19 -18h-614l-37 -279q-2 -16 -2 -32q0 -156 262 -156q287 0 307 184l6 54q2 18 23 18h29q16 0 14 -18l-6 -56q-14 -115 -98.5 -177t-278.5 -62q-326 -1 -326 202z M293 563h567l29 215q2 14 2 31q0 156 -264 156q-281 0 -305 -185zM522 1214l25 203q2 18 20 19h23q16 0 14 -19l-24 -203q-2 -18 -21 -18h-20q-19 0 -17 18zM702 1214l25 203q2 18 21 19h22q16 0 14 -19l-24 -203q-2 -18 -21 -18h-20q-19 0 -17 18z" />
<glyph unicode="&#xec;" horiz-adv-x="438" d="M182 1432q-10 18 13 18h36q14 0 23 -14l125 -248q10 -16 -8 -17h-29q-16 0 -20 11zM188 18l119 969q0 18 19 19h32q18 0 17 -19l-119 -969q-2 -18 -20 -18h-33q-21 0 -15 18z" />
<glyph unicode="&#xed;" horiz-adv-x="438" d="M188 18l119 969q0 18 19 19h32q18 0 17 -19l-119 -969q-2 -18 -20 -18h-33q-21 0 -15 18zM332 1188l190 248q10 14 23 14h41q20 0 6 -18l-199 -250q-10 -10 -20 -11h-33q-18 1 -8 17z" />
<glyph unicode="&#xee;" horiz-adv-x="438" d="M158 1190l190 242q14 18 31 18h27q18 0 26 -16l133 -244q10 -18 -10 -19h-27q-16 0 -24 19l-115 211l-168 -211q-14 -18 -24 -19h-31q-22 1 -8 19zM188 18l119 969q0 18 19 19h32q18 0 17 -19l-119 -969q-2 -18 -20 -18h-33q-21 0 -15 18z" />
<glyph unicode="&#xef;" horiz-adv-x="438" d="M188 18l119 969q0 18 19 19h32q18 0 17 -19l-119 -969q-2 -18 -20 -18h-33q-21 0 -15 18zM252 1214l24 203q2 18 21 19h22q16 0 15 -19l-25 -203q-2 -18 -20 -18h-21q-18 0 -16 18zM432 1214l25 203q2 18 20 19h23q16 0 14 -19l-25 -203q-2 -18 -20 -18h-20q-19 0 -17 18 z" />
<glyph unicode="&#xf0;" horiz-adv-x="1122" d="M182 186q0 25 2 37l68 559q29 240 307 240q197 0 346 -127l39 307q0 2 1 12.5t1 14.5q0 33 -12 63l-203 -80q-18 -8 -22 7l-4 14q-4 14 12 20l198 78q-55 66 -229 66h-174q-8 0 -13 3t-3 11l2 21q2 18 20 18h176q217 0 283 -88l121 49q14 8 20 -6l6 -14q6 -12 -12 -21 l-113 -47q12 -27 13 -72q0 -29 -2 -41l-119 -987q-14 -115 -100 -177t-281 -62q-328 -1 -328 202zM252 199q0 -158 264 -158q289 0 309 186l74 604q-137 131 -334 132q-111 0 -173 -51.5t-73 -135.5l-65 -549q-2 -10 -2 -28z" />
<glyph unicode="&#xf1;" horiz-adv-x="1064" d="M188 18l119 969q4 18 19 19h28q18 0 17 -19l-9 -94q172 129 377 129q123 0 187.5 -54.5t64.5 -146.5q0 -25 -2 -37l-94 -766q-2 -18 -21 -18h-32q-16 0 -15 18l93 756q4 16 4 29q0 158 -203 158q-190 0 -367 -130l-98 -813q-2 -18 -20 -18h-33q-17 0 -15 18zM422 1219 l4 30q14 92 47 130t92 38q55 0 101 -47l79 -80q35 -35 66 -35q41 0 59.5 26t26.5 99l2 21q2 16 21 16h20q18 0 14 -18l-4 -29q-12 -94 -46 -132t-93 -38q-53 0 -100 47l-82 80q-35 35 -64 35q-41 0 -57 -24.5t-29 -98.5l-4 -22q-2 -16 -20 -17h-21q-16 1 -12 19z" />
<glyph unicode="&#xf2;" horiz-adv-x="1030" d="M182 188q0 23 2 35l70 559q14 115 101 177.5t282 62.5q326 0 326 -203q0 -18 -2 -37l-68 -559q-29 -240 -383 -239q-328 -1 -328 204zM252 199q0 -156 264 -156q289 0 309 184l68 551q2 18 2 29q0 158 -264 158q-287 0 -309 -187l-68 -551q-2 -16 -2 -28zM463 1432 q-8 18 12 18h37q16 0 23 -14l124 -248q10 -16 -8 -17h-28q-16 0 -21 11z" />
<glyph unicode="&#xf3;" horiz-adv-x="1030" d="M182 188q0 23 2 35l70 559q14 115 101 177.5t282 62.5q326 0 326 -203q0 -18 -2 -37l-68 -559q-29 -240 -383 -239q-328 -1 -328 204zM252 199q0 -156 264 -156q289 0 309 184l68 551q2 18 2 29q0 158 -264 158q-287 0 -309 -187l-68 -551q-2 -16 -2 -28zM616 1188 l191 248q10 14 22 14h41q20 0 7 -18l-199 -250q-10 -10 -21 -11h-32q-19 1 -9 17z" />
<glyph unicode="&#xf4;" horiz-adv-x="1030" d="M182 188q0 23 2 35l70 559q14 115 101 177.5t282 62.5q326 0 326 -203q0 -18 -2 -37l-68 -559q-29 -240 -383 -239q-328 -1 -328 204zM252 199q0 -156 264 -156q289 0 309 184l68 551q2 18 2 29q0 158 -264 158q-287 0 -309 -187l-68 -551q-2 -16 -2 -28zM449 1190 l190 242q14 18 31 18h26q18 0 27 -16l133 -244q10 -18 -10 -19h-27q-16 0 -24 19l-115 211l-168 -211q-14 -18 -25 -19h-30q-22 1 -8 19z" />
<glyph unicode="&#xf5;" horiz-adv-x="1030" d="M182 188q0 23 2 35l70 559q14 115 101 177.5t282 62.5q326 0 326 -203q0 -18 -2 -37l-68 -559q-29 -240 -383 -239q-328 -1 -328 204zM252 199q0 -156 264 -156q289 0 309 184l68 551q2 18 2 29q0 158 -264 158q-287 0 -309 -187l-68 -551q-2 -16 -2 -28zM387 1219l4 30 q14 92 47 130t92 38q55 0 101 -47l80 -80q35 -35 65 -35q41 0 59.5 26t26.5 99l2 21q2 16 21 16h20q16 0 15 -18l-5 -29q-12 -94 -45.5 -132t-93.5 -38q-53 0 -100 47l-82 80q-35 35 -64 35q-41 0 -57 -24.5t-29 -98.5l-4 -22q-2 -16 -20 -17h-21q-14 1 -12 19z" />
<glyph unicode="&#xf6;" horiz-adv-x="1030" d="M182 188q0 23 2 35l70 559q14 115 101 177.5t282 62.5q326 0 326 -203q0 -18 -2 -37l-68 -559q-29 -240 -383 -239q-328 -1 -328 204zM252 199q0 -156 264 -156q289 0 309 184l68 551q2 18 2 29q0 158 -264 158q-287 0 -309 -187l-68 -551q-2 -16 -2 -28zM526 1214 l25 203q2 18 20 19h23q16 0 14 -19l-24 -203q-2 -18 -21 -18h-20q-19 0 -17 18zM707 1214l24 203q2 18 21 19h22q16 0 14 -19l-24 -203q-2 -18 -21 -18h-20q-18 0 -16 18z" />
<glyph unicode="&#xf7;" horiz-adv-x="1214" d="M266 670v24q0 18 17 19h809q18 0 18 -17v-26q0 -18 -18 -19h-807q-19 1 -19 19zM653 276v156q0 18 17 19h35q16 0 16 -19v-156q0 -18 -16 -18h-35q-17 0 -17 18zM653 936v156q0 18 17 18h35q16 0 16 -18v-156q0 -18 -16 -18h-35q-17 0 -17 18z" />
<glyph unicode="&#xf8;" horiz-adv-x="1030" d="M171 -43q-1 6 3 12l62 88q-53 51 -54 131q0 23 2 35l70 559q14 115 101 177.5t282 62.5q150 0 237 -47l48 67q12 18 24 19h21q16 0 6 -19l-64 -92q53 -51 54 -131q0 -25 -2 -37l-68 -559q-14 -115 -102.5 -177t-280.5 -62q-156 0 -242 49l-43 -64q-10 -18 -26 -18h-19 q-8 0 -9 6zM252 199q0 -51 24 -84l560 805q-63 45 -205 45q-285 0 -309 -187l-68 -551q-2 -10 -2 -28zM307 86q66 -43 209 -43q285 0 309 184l68 549q2 10 2 31q0 49 -27 84z" />
<glyph unicode="&#xf9;" horiz-adv-x="1052" d="M195 184q0 16 2 35l94 768q4 18 20 19h33q18 0 16 -19l-94 -756q-2 -16 -2 -28q0 -158 203 -158q190 0 352 129l99 813q4 18 20 19h33q18 0 16 -19l-121 -969q-2 -18 -16 -18h-29q-23 0 -18 18l8 93q-160 -127 -362 -127q-125 0 -189.5 54t-64.5 146zM481 1432 q-10 18 13 18h36q14 0 23 -14l125 -248q10 -16 -8 -17h-29q-16 0 -20 11z" />
<glyph unicode="&#xfa;" horiz-adv-x="1052" d="M195 184q0 16 2 35l94 768q4 18 20 19h33q18 0 16 -19l-94 -756q-2 -16 -2 -28q0 -158 203 -158q190 0 352 129l99 813q4 18 20 19h33q18 0 16 -19l-121 -969q-2 -18 -16 -18h-29q-23 0 -18 18l8 93q-160 -127 -362 -127q-125 0 -189.5 54t-64.5 146zM610 1188l191 248 q10 14 22 14h41q20 0 6 -18l-198 -250q-10 -10 -21 -11h-33q-18 1 -8 17z" />
<glyph unicode="&#xfb;" horiz-adv-x="1052" d="M195 184q0 16 2 35l94 768q4 18 20 19h33q18 0 16 -19l-94 -756q-2 -16 -2 -28q0 -158 203 -158q190 0 352 129l99 813q4 18 20 19h33q18 0 16 -19l-121 -969q-2 -18 -16 -18h-29q-23 0 -18 18l8 93q-160 -127 -362 -127q-125 0 -189.5 54t-64.5 146zM444 1190l191 242 q14 18 31 18h26q18 0 27 -16l133 -244q10 -18 -10 -19h-27q-16 0 -24 19l-115 211l-168 -211q-14 -18 -25 -19h-30q-23 1 -9 19z" />
<glyph unicode="&#xfc;" horiz-adv-x="1052" d="M195 184q0 16 2 35l94 768q4 18 20 19h33q18 0 16 -19l-94 -756q-2 -16 -2 -28q0 -158 203 -158q190 0 352 129l99 813q4 18 20 19h33q18 0 16 -19l-121 -969q-2 -18 -16 -18h-29q-23 0 -18 18l8 93q-160 -127 -362 -127q-125 0 -189.5 54t-64.5 146zM541 1214l24 203 q4 18 21 19h22q18 0 15 -19l-25 -203q-4 -18 -20 -18h-21q-20 0 -16 18zM721 1214l24 203q4 18 21 19h22q18 0 15 -19l-25 -203q-4 -18 -20 -18h-21q-20 0 -16 18z" />
<glyph unicode="&#xfd;" horiz-adv-x="835" d="M168 987q-4 18 14 19h35q16 0 19 -19l178 -803l16 -90q16 47 35 90l375 803q8 18 22 19h33q23 0 14 -19l-649 -1399q-8 -18 -24 -18h-29q-23 0 -12 18l190 414zM510 1188l190 248q10 14 23 14h41q20 0 6 -18l-199 -250q-10 -10 -20 -11h-33q-18 1 -8 17z" />
<glyph unicode="&#xfe;" d="M133 -412l225 1825q2 18 19 19h33q20 0 16 -19l-64 -518q176 127 377 127q125 0 188.5 -54.5t63.5 -148.5q0 -18 -4 -51l-67 -545q-31 -240 -306 -239q-211 0 -348 127l-65 -523q-4 -18 -19 -18h-32q-19 0 -17 18zM272 174q143 -129 334 -129q111 0 172.5 50t73.5 134 l66 533q4 37 4 43q0 72 -50.5 115t-152.5 43q-197 0 -363 -132z" />
<glyph unicode="&#xff;" horiz-adv-x="835" d="M168 987q-4 18 14 19h35q16 0 19 -19l178 -803l16 -90q16 47 35 90l375 803q8 18 22 19h33q23 0 14 -19l-649 -1399q-8 -18 -24 -18h-29q-23 0 -12 18l190 414zM424 1214l25 203q2 18 20 19h23q16 0 14 -19l-25 -203q-2 -18 -20 -18h-21q-18 0 -16 18zM604 1214l25 203 q2 18 20 19h23q16 0 14 -19l-24 -203q-2 -18 -21 -18h-20q-19 0 -17 18z" />
<glyph unicode="&#x10c;" horiz-adv-x="1110" d="M213 215q0 16 4 49l107 866q16 131 112 205t322 74q375 0 375 -235q0 -29 -3 -46l-14 -106q-2 -18 -18 -18h-33q-20 0 -16 18l12 100q2 12 2 39q0 186 -309 187q-186 0 -267 -58.5t-96 -167.5l-104 -850q-2 -14 -2 -41q0 -186 307 -186q186 0 268 58.5t96 166.5l17 125 q2 16 18 17h33q20 0 16 -17l-16 -133q-16 -131 -113.5 -204.5t-322.5 -73.5q-375 0 -375 231zM590 1780q-10 18 12 18h29q10 0 20 -18l115 -211l168 211q12 18 27 18h30q20 0 6 -18l-192 -244q-12 -16 -29 -16h-24q-18 0 -29 18z" />
<glyph unicode="&#x10d;" horiz-adv-x="966" d="M182 184q0 25 2 39l70 559q14 117 98 178.5t277 61.5q317 0 317 -201q0 -23 -2 -41l-6 -39q-2 -18 -18 -18h-31q-20 0 -17 16l5 39q2 14 2 33q0 154 -256 154q-156 0 -223.5 -49.5t-77.5 -137.5l-68 -547q-2 -20 -2 -36q0 -74 57.5 -113t198.5 -39q156 0 221.5 48 t79.5 136l8 56q2 18 21 18h30q16 0 15 -18l-9 -60q-14 -117 -96 -178t-276 -61q-320 -1 -320 200zM469 1432q-10 18 12 18h29q12 0 22 -18l113 -211l168 211q14 18 27 18h30q18 0 7 -18l-193 -244q-12 -16 -29 -17h-24q-16 0 -27 19z" />
<glyph unicode="&#x10e;" horiz-adv-x="1218" d="M211 18l166 1356q4 18 18 19h393q383 0 383 -238q0 -31 -2 -45l-102 -831q-14 -131 -115.5 -205t-328.5 -74h-396q-18 0 -16 18zM285 61h342q342 0 370 226l101 817q2 12 2 37q0 190 -318 190h-340zM596 1780q-10 18 12 18h29q10 0 20 -18l115 -211l168 211q12 18 27 18 h30q20 0 7 -18l-193 -244q-12 -16 -29 -16h-24q-20 0 -29 18z" />
<glyph unicode="&#x10f;" horiz-adv-x="1087" d="M182 186q0 10 4 39l70 557q31 240 303 240q199 0 348 -127l64 518q4 18 20 19h33q16 0 14 -19l-170 -1395q-4 -18 -20 -18h-29q-14 0 -14 18l6 93q-176 -127 -377 -127q-125 0 -188.5 54t-63.5 148zM252 201q0 -72 50 -114t153 -42q184 0 364 129l80 655 q-131 131 -332 132q-113 0 -174 -51.5t-71 -133.5l-68 -545q-2 -24 -2 -30zM1126 1169l43 73q12 22 25.5 56.5t17.5 75.5l7 53q2 18 20 19h27q16 0 14 -19l-6 -55q-4 -45 -22.5 -89t-32 -66.5t-43.5 -67.5q-12 -14 -25 -10l-21 6q-16 8 -4 24z" />
<glyph unicode="&#x11a;" horiz-adv-x="1087" d="M211 18l166 1356q4 18 20 19h699q16 0 16 -19l-2 -24q-4 -18 -20 -19h-648l-69 -565h608q16 0 16 -18l-2 -25q0 -18 -20 -18h-610l-80 -644h673q20 0 17 -18l-4 -25q-4 -18 -19 -18h-727q-16 0 -14 18zM571 1780q-10 18 13 18h28q10 0 21 -18l115 -211l167 211 q12 18 27 18h31q20 0 6 -18l-193 -244q-12 -16 -28 -16h-25q-20 0 -28 18z" />
<glyph unicode="&#x11b;" horiz-adv-x="999" d="M182 186q0 20 2 37l70 559q14 117 100 178.5t279 61.5q324 0 323 -203q0 -25 -2 -37l-32 -256q-4 -18 -19 -18h-614l-37 -279q-2 -16 -2 -32q0 -156 262 -156q287 0 307 184l6 54q2 18 23 18h29q16 0 14 -18l-6 -56q-14 -115 -98.5 -177t-278.5 -62q-326 -1 -326 202z M293 563h567l29 215q2 14 2 31q0 156 -264 156q-281 0 -305 -185zM459 1432q-10 18 12 18h29q12 0 22 -18l113 -211l168 211q16 18 26 18h31q18 0 6 -18l-192 -244q-12 -16 -29 -17h-24q-16 0 -27 19z" />
<glyph unicode="&#x131;" horiz-adv-x="438" d="M188 18l119 969q0 18 19 19h32q18 0 17 -19l-119 -969q-2 -18 -20 -18h-33q-21 0 -15 18z" />
<glyph unicode="&#x139;" horiz-adv-x="1017" d="M211 18l166 1356q4 18 20 19h35q18 0 14 -19l-161 -1313h641q16 0 16 -18l-2 -25q-2 -18 -20 -18h-695q-16 0 -14 18zM403 1536l189 248q10 14 24 14h39q20 0 7 -18l-199 -250q-10 -10 -21 -10h-32q-19 0 -7 16z" />
<glyph unicode="&#x13a;" horiz-adv-x="438" d="M186 18l170 1395q4 18 21 19h33q20 0 16 -19l-172 -1395q-4 -18 -18 -18h-35q-17 0 -15 18zM381 1536l188 248q10 14 25 14h39q20 0 6 -18l-199 -250q-10 -10 -20 -10h-33q-18 0 -6 16z" />
<glyph unicode="&#x13d;" horiz-adv-x="1017" d="M211 18l166 1356q4 18 20 19h35q18 0 14 -19l-161 -1313h641q16 0 16 -18l-2 -25q-2 -18 -20 -18h-695q-16 0 -14 18zM733 1135l43 72q12 22 25.5 56.5t17.5 75.5l6 54q2 18 21 18h26q16 0 15 -18l-6 -56q-4 -45 -22.5 -89t-32 -66.5t-44.5 -67.5q-12 -14 -24 -10l-21 6 q-16 9 -4 25z" />
<glyph unicode="&#x13e;" horiz-adv-x="473" d="M186 18l170 1395q4 18 21 19h33q20 0 16 -19l-172 -1395q-4 -18 -18 -18h-35q-17 0 -15 18zM512 1169l43 73q12 22 25.5 56.5t17.5 75.5l6 53q2 18 21 19h26q16 0 15 -19l-7 -55q-4 -45 -22.5 -89t-31.5 -66.5t-44 -67.5q-12 -14 -24 -10l-21 6q-16 8 -4 24z" />
<glyph unicode="&#x147;" horiz-adv-x="1239" d="M211 18l166 1356q4 18 20 19h25q14 0 16 -9l496 -1132q45 -98 45 -111l151 1233q4 18 21 19h29q20 0 16 -19l-168 -1356q-4 -18 -18 -18h-27q-14 0 -16 8l-494 1129q-6 14 -45 116l-154 -1235q-4 -18 -18 -18h-29q-18 0 -16 18zM616 1780q-10 18 13 18h28q10 0 21 -18 l115 -211l168 211q12 18 26 18h31q20 0 6 -18l-193 -244q-12 -16 -28 -16h-25q-20 0 -28 18z" />
<glyph unicode="&#x148;" horiz-adv-x="1064" d="M188 18l119 969q4 18 19 19h28q18 0 17 -19l-9 -94q172 129 377 129q123 0 187.5 -54.5t64.5 -146.5q0 -25 -2 -37l-94 -766q-2 -18 -21 -18h-32q-16 0 -15 18l93 756q4 16 4 29q0 158 -203 158q-190 0 -367 -130l-98 -813q-2 -18 -20 -18h-33q-17 0 -15 18zM514 1432 q-10 18 12 18h29q12 0 23 -18l112 -211l168 211q14 18 27 18h30q18 0 7 -18l-193 -244q-12 -16 -29 -17h-24q-16 0 -27 19z" />
<glyph unicode="&#x152;" horiz-adv-x="1816" d="M213 217q0 14 4 47l107 866q14 131 113.5 205t322.5 74q252 0 336 -111l10 76q4 18 20 19h699q16 0 16 -19l-2 -24q-2 -16 -20 -17h-648l-69 -567h606q18 0 18 -16l-2 -25q-4 -18 -20 -18h-610l-80 -648h674q16 0 14 -16l-2 -25q0 -18 -19 -18h-727q-16 0 -14 18l8 72 q-106 -106 -354 -106q-381 0 -381 233zM285 233q0 -190 315 -190q344 0 369 223l104 850l4 25v18q0 190 -317 191q-340 0 -369 -226l-104 -854q-2 -12 -2 -37z" />
<glyph unicode="&#x153;" horiz-adv-x="1638" d="M182 186q0 25 2 37l70 559q14 115 100 177.5t281 62.5q254 0 303 -127q80 127 336 127q322 0 321 -203q0 -25 -2 -37l-32 -254q-4 -18 -19 -18h-614l-37 -285q-2 -14 -2 -28q0 -158 264 -158q154 0 222.5 48t82.5 136l8 56q2 16 21 16h29q16 0 14 -16l-8 -56 q-16 -117 -99.5 -178t-275.5 -61q-250 0 -307 120q-80 -121 -330 -120q-328 -1 -328 202zM252 199q0 -158 264 -158q285 0 309 186l68 551q2 10 2 29q0 158 -264 158q-285 0 -309 -187l-68 -551q-2 -10 -2 -28zM932 563h567l29 217q2 10 2 29q0 158 -262 158 q-283 0 -307 -187z" />
<glyph unicode="&#x154;" horiz-adv-x="1198" d="M211 18l166 1356q4 18 18 19h391q381 0 381 -246q0 -27 -2 -43l-28 -246q-12 -106 -83 -173t-223 -89l224 -578q8 -18 -17 -18h-34q-16 0 -25 18l-217 572q-23 -2 -72 -2h-340l-69 -570q-2 -18 -19 -18h-35q-18 0 -16 18zM358 649h338q348 0 373 217l27 232q2 12 2 37 q0 197 -318 196h-338zM709 1536l188 248q10 14 25 14h39q20 0 6 -18l-199 -250q-10 -10 -20 -10h-33q-18 0 -6 16z" />
<glyph unicode="&#x155;" horiz-adv-x="673" d="M188 18l119 969q4 18 19 19h28q18 0 17 -19l-11 -117q197 150 375 150q18 0 17 -19l-2 -28q-2 -16 -23 -17q-178 -4 -375 -147l-96 -791q-4 -18 -20 -18h-33q-17 0 -15 18zM471 1188l191 248q10 14 22 14h41q20 0 6 -18l-199 -250q-10 -10 -20 -11h-33q-18 1 -8 17z" />
<glyph unicode="&#x158;" horiz-adv-x="1198" d="M211 18l166 1356q4 18 18 19h391q381 0 381 -246q0 -27 -2 -43l-28 -246q-12 -106 -83 -173t-223 -89l224 -578q8 -18 -17 -18h-34q-16 0 -25 18l-217 572q-23 -2 -72 -2h-340l-69 -570q-2 -18 -19 -18h-35q-18 0 -16 18zM358 649h338q348 0 373 217l27 232q2 12 2 37 q0 197 -318 196h-338zM569 1780q-10 18 13 18h28q10 0 21 -18l114 -211l168 211q12 18 27 18h31q20 0 6 -18l-193 -244q-12 -16 -28 -16h-25q-18 0 -29 18z" />
<glyph unicode="&#x159;" horiz-adv-x="673" d="M188 18l119 969q4 18 19 19h28q18 0 17 -19l-11 -117q197 150 375 150q18 0 17 -19l-2 -28q-2 -16 -23 -17q-178 -4 -375 -147l-96 -791q-4 -18 -20 -18h-33q-17 0 -15 18zM326 1432q-10 18 12 18h29q12 0 22 -18l113 -211l168 211q14 18 26 18h31q18 0 6 -18l-192 -244 q-12 -16 -29 -17h-25q-16 0 -26 19z" />
<glyph unicode="&#x160;" horiz-adv-x="1148" d="M197 219q0 8 4 45l12 98q2 18 18 19h33q18 0 17 -19l-13 -92q-2 -14 -2 -39q0 -188 316 -188q342 0 370 225l21 168q2 16 2 27q0 113 -148 172l-368 149q-66 27 -111 80.5t-45 128.5q0 14 4 47l10 90q16 133 111.5 206t321.5 73q369 0 368 -233q0 -31 -2 -46l-12 -104 q-2 -18 -21 -18h-32q-18 0 -17 18l13 98q2 16 2 39q0 90 -69 138.5t-237 48.5q-338 0 -358 -224l-8 -79q-4 -37 -4 -43q0 -111 121 -158l378 -154q170 -70 170 -219q0 -20 -2 -33l-20 -178q-14 -131 -115.5 -204.5t-326.5 -73.5q-381 -1 -381 235zM569 1780q-10 18 13 18h28 q10 0 21 -18l114 -211l168 211q12 18 27 18h31q20 0 6 -18l-193 -244q-12 -16 -28 -16h-25q-18 0 -29 18z" />
<glyph unicode="&#x161;" horiz-adv-x="946" d="M156 170q0 14 2 31l6 53q2 16 18 16h33q14 0 12 -16l-6 -49q-2 -14 -2 -27q0 -139 264 -139q141 0 220 42t88 116l12 104q0 2 1 12.5t1 18.5q0 72 -121 110l-313 97q-57 16 -98.5 60t-41.5 101q0 18 2 31l13 84q29 207 356 207q156 0 234.5 -51t78.5 -131q0 -18 -2 -39 l-8 -60q-2 -14 -18 -14h-31q-8 0 -13 4t-3 10l8 56q2 16 2 39q0 57 -61.5 95t-190.5 38q-270 0 -289 -154l-8 -74q-2 -14 -2 -28q0 -84 111 -119l315 -94q145 -43 145 -154q0 -10 -2 -22v-13l-14 -121q-12 -94 -105.5 -150t-269.5 -56q-162 0 -242.5 52t-80.5 134zM416 1432 q-10 18 12 18h29q12 0 22 -18l113 -211l168 211q14 18 26 18h31q18 0 6 -18l-192 -244q-12 -16 -29 -17h-24q-16 0 -27 19z" />
<glyph unicode="&#x164;" horiz-adv-x="976" d="M209 1350l2 24q0 18 20 19h848q18 0 17 -19l-2 -24q0 -18 -21 -19h-389l-162 -1313q-2 -18 -18 -18h-35q-18 0 -16 18l161 1313h-389q-16 1 -16 19zM492 1780q-10 18 12 18h28q10 0 21 -18l115 -211l168 211q12 18 26 18h31q20 0 6 -18l-192 -244q-12 -16 -29 -16h-25 q-18 0 -28 18z" />
<glyph unicode="&#x165;" horiz-adv-x="700" d="M182 963l2 18q4 18 21 18l135 5h2l29 227q2 18 20 18h31q20 0 16 -18l-28 -227h256q14 0 14 -19v-24q0 -16 -23 -17h-256l-84 -696q-2 -12 -2 -33q0 -156 258 -156h31q14 0 14 -18v-23q0 -18 -22 -18h-35q-172 0 -243.5 51t-71.5 148q0 23 2 41l86 704h-137q-17 1 -15 19 zM551 1169l43 73q12 22 25.5 56.5t17.5 75.5l6 53q2 18 21 19h26q18 0 15 -19l-7 -55q-4 -45 -22.5 -89t-31.5 -66.5t-44 -67.5q-12 -14 -25 -10l-20 6q-14 8 -4 24z" />
<glyph unicode="&#x16e;" horiz-adv-x="1218" d="M225 221q0 31 2 45l138 1108q4 18 18 19h33q23 0 18 -19l-137 -1098q-2 -16 -2 -40q0 -190 315 -191q188 0 272.5 59.5t98.5 165.5l137 1104q4 18 19 19h32q23 0 19 -19l-137 -1112q-16 -131 -116.5 -204.5t-328.5 -73.5q-381 -1 -381 237zM621 1604q0 27 2 53l2 18 q14 131 194 131q80 0 122 -34.5t42 -88.5q0 -18 -2 -38l-4 -33q-16 -125 -195 -125q-80 0 -120.5 33t-40.5 84zM670 1612q0 -80 116 -80q137 0 144 84l2 24q2 18 2 35q0 84 -119 84q-133 0 -143 -88l-2 -24v-35z" />
<glyph unicode="&#x16f;" horiz-adv-x="1052" d="M195 184q0 16 2 35l94 768q4 18 20 19h33q18 0 16 -19l-94 -756q-2 -16 -2 -28q0 -158 203 -158q190 0 352 129l99 813q4 18 20 19h33q18 0 16 -19l-121 -969q-2 -18 -16 -18h-29q-23 0 -18 18l8 93q-160 -127 -362 -127q-125 0 -189.5 54t-64.5 146zM483 1262q0 27 2 53 l2 18q14 131 195 131q80 0 122 -34.5t42 -88.5q0 -18 -2 -38l-4 -33q-16 -125 -195 -125q-80 0 -121 33t-41 84zM532 1270q0 -80 117 -80q137 0 144 84l2 24q2 18 2 35q0 84 -119 84q-133 0 -143 -88l-3 -24v-35z" />
<glyph unicode="&#x178;" horiz-adv-x="1026" d="M217 1374q-8 18 14 19h39q14 0 21 -19l280 -667q16 -45 21 -62q2 10 33 62l444 667q14 18 27 19h37q23 0 10 -19l-525 -786l-69 -570q-4 -18 -19 -18h-32q-23 0 -19 18l70 564zM561 1556l25 203q2 16 20 17h23q16 0 14 -17l-25 -203q-2 -18 -20 -18h-20q-19 0 -17 18z M741 1556l25 203q2 16 20 17h23q16 0 14 -17l-22 -203q-2 -18 -21 -18h-22q-19 0 -17 18z" />
<glyph unicode="&#x17d;" horiz-adv-x="1036" d="M125 16l4 23q2 12 10 24l840 1268h-637q-18 0 -16 19l4 24q2 18 20 19h707q14 0 14 -19l-2 -24q0 -10 -6 -19l-844 -1270h705q18 0 16 -18l-4 -25q-2 -18 -18 -18h-775q-10 0 -15 4t-3 12zM526 1780q-10 18 13 18h28q10 0 21 -18l114 -211l168 211q12 18 27 18h31 q20 0 6 -18l-193 -244q-12 -16 -28 -16h-25q-20 0 -29 18z" />
<glyph unicode="&#x17e;" horiz-adv-x="937" d="M115 18l2 19q2 12 20 37l676 872h-543q-16 0 -14 19l2 24q0 16 21 17h610q16 0 14 -17l-2 -18q0 -10 -10 -25l-688 -887h594q18 0 14 -18l-2 -23q-2 -18 -21 -18h-657q-20 0 -16 18zM403 1432q-10 18 13 18h28q12 0 23 -18l113 -211l168 211q14 18 26 18h31q18 0 6 -18 l-193 -244q-12 -16 -28 -17h-25q-16 0 -26 19z" />
<glyph unicode="&#x192;" horiz-adv-x="1101" d="M33 -426l2 23q0 18 18 18h15q156 0 228.5 48t94.5 138l240 969h-217q-16 0 -17 18l2 23q0 18 21 18h225l92 381q27 115 119 177.5t283 62.5h12q16 0 16 -18l-2 -23q-2 -18 -20 -18h-12q-283 0 -328 -187l-92 -375h225q16 0 16 -18l-2 -23q-2 -18 -20 -18h-234l-239 -973 q-29 -117 -120 -179t-280 -62h-12q-14 0 -14 18z" />
<glyph unicode="&#x2c6;" horiz-adv-x="700" d="M289 1190l190 242q14 18 31 18h27q18 0 26 -16l133 -244q10 -18 -10 -19h-27q-16 0 -24 19l-115 211l-168 -211q-14 -18 -24 -19h-31q-22 1 -8 19z" />
<glyph unicode="&#x2c7;" horiz-adv-x="700" d="M319 1432q-10 18 13 18h28q12 0 23 -18l113 -211l168 211q16 18 26 18h31q18 0 6 -18l-192 -244q-12 -16 -29 -17h-25q-16 0 -26 19z" />
<glyph unicode="&#x2d8;" horiz-adv-x="794" d="M326 1311q0 16 2 37l4 49q4 18 18 18h23q20 0 14 -18l-4 -49v-35q0 -61 33 -90t116 -29q100 0 136.5 44t44.5 134l2 25q0 18 20 18h23q14 0 14 -18l-2 -25q-14 -117 -64.5 -172t-179.5 -55q-106 0 -153 41t-47 125z" />
<glyph unicode="&#x2d9;" horiz-adv-x="481" d="M356 1227l19 153q2 18 20 19h35q16 0 14 -19l-18 -153q-2 -18 -18 -19h-33q-21 1 -19 19z" />
<glyph unicode="&#x2da;" horiz-adv-x="630" d="M242 1262q0 27 2 53l2 18q14 131 194 131q80 0 122 -34.5t42 -88.5q0 -18 -2 -38l-4 -33q-16 -125 -195 -125q-80 0 -120.5 33t-40.5 84zM291 1270q0 -80 117 -80q137 0 143 84l2 24q2 18 2 35q0 84 -119 84q-133 0 -143 -88l-2 -24v-35z" />
<glyph unicode="&#x2db;" horiz-adv-x="456" d="M94 -172q0 125 162 207q18 10 27 4l20 -14q18 -14 0 -21q-145 -63 -145 -168q0 -82 116 -82h50q10 0 15 -4t3 -12l-2 -21q0 -18 -18 -18h-60q-168 0 -168 129z" />
<glyph unicode="&#x2dc;" horiz-adv-x="880" d="M330 1219l4 30q14 92 47 130t92 38q55 0 100 -47l80 -80q35 -35 66 -35q41 0 59.5 26t26.5 99l2 21q2 16 20 16h21q16 0 14 -18l-4 -29q-12 -94 -46 -132t-93 -38q-53 0 -101 47l-81 80q-35 35 -64 35q-41 0 -57.5 -24.5t-28.5 -98.5l-4 -22q-2 -16 -21 -17h-20 q-14 1 -12 19z" />
<glyph unicode="&#x2dd;" horiz-adv-x="706" d="M307 1190l158 242q10 18 27 18h32q20 0 11 -18l-168 -242q-12 -18 -27 -19h-25q-16 1 -8 19zM459 1190l186 242q14 18 31 18h33q20 0 6 -18l-197 -246q-14 -14 -26 -15h-25q-18 1 -8 19z" />
<glyph unicode="&#x3a9;" horiz-adv-x="749" d="M141 637q0 96 69 164.5t163 68.5t163.5 -68.5t69.5 -164.5q0 -94 -68.5 -162.5t-164.5 -68.5q-94 0 -163 67.5t-69 163.5zM176 637q0 -84 57.5 -141.5t139.5 -57.5t140 57.5t58 141.5q0 82 -58 140.5t-140 58.5t-139.5 -58.5t-57.5 -140.5z" />
<glyph unicode="&#x3c0;" horiz-adv-x="749" d="M114 841.5q3 20.5 23 20.5h469q14 0 20.5 -10t4.5 -23.5t-10 -27.5l-218 -355q-10 -18 -29.5 -17t-29.5 17l-219 355q-14 20 -11 40.5z" />
<glyph unicode="&#x2000;" horiz-adv-x="903" />
<glyph unicode="&#x2001;" horiz-adv-x="1806" />
<glyph unicode="&#x2002;" horiz-adv-x="903" />
<glyph unicode="&#x2003;" horiz-adv-x="1806" />
<glyph unicode="&#x2004;" horiz-adv-x="602" />
<glyph unicode="&#x2005;" horiz-adv-x="450" />
<glyph unicode="&#x2006;" horiz-adv-x="301" />
<glyph unicode="&#x2007;" horiz-adv-x="301" />
<glyph unicode="&#x2008;" horiz-adv-x="225" />
<glyph unicode="&#x2009;" horiz-adv-x="360" />
<glyph unicode="&#x200a;" horiz-adv-x="100" />
<glyph unicode="&#x2010;" horiz-adv-x="956" d="M254 582v22q0 18 18 19h551q16 0 17 -19v-22q0 -18 -17 -19h-551q-18 1 -18 19z" />
<glyph unicode="&#x2011;" horiz-adv-x="956" d="M254 582v22q0 18 18 19h551q16 0 17 -19v-22q0 -18 -17 -19h-551q-18 1 -18 19z" />
<glyph unicode="&#x2012;" horiz-adv-x="956" d="M254 582v22q0 18 18 19h551q16 0 17 -19v-22q0 -18 -17 -19h-551q-18 1 -18 19z" />
<glyph unicode="&#x2013;" horiz-adv-x="1132" d="M254 582v22q0 18 18 19h725q18 0 19 -19v-22q0 -18 -19 -19h-725q-18 1 -18 19z" />
<glyph unicode="&#x2014;" horiz-adv-x="1765" d="M254 582v22q0 18 18 19h1358q18 0 19 -19v-22q0 -18 -19 -19h-1358q-18 1 -18 19z" />
<glyph unicode="&#x2018;" horiz-adv-x="430" d="M301 1128l16 119q18 158 179 215q14 6 20 -8l8 -24q6 -16 -12 -25q-63 -29 -91 -65.5t-36 -94.5l-14 -117q-2 -18 -21 -18h-33q-18 0 -16 18z" />
<glyph unicode="&#x2019;" horiz-adv-x="430" d="M217 1145q-6 16 12 24q63 29 91 66t36 94l15 117q2 18 20 18h33q18 0 16 -18l-16 -119q-18 -158 -178 -215q-14 -6 -21 8z" />
<glyph unicode="&#x201a;" horiz-adv-x="430" d="M53 -127q-6 16 13 25q63 29 90.5 65.5t36.5 93.5l14 117q2 18 20 19h33q18 0 16 -19l-16 -119q-18 -158 -178 -215q-14 -6 -21 8z" />
<glyph unicode="&#x201c;" horiz-adv-x="679" d="M301 1128l16 119q18 158 179 215q14 6 20 -8l8 -24q6 -16 -12 -25q-63 -29 -91 -65.5t-36 -94.5l-14 -117q-2 -18 -21 -18h-33q-18 0 -16 18zM553 1128l16 119q18 158 179 215q14 6 20 -8l8 -24q6 -16 -12 -25q-63 -29 -91 -65.5t-36 -94.5l-14 -117q-4 -18 -21 -18h-33 q-20 0 -16 18z" />
<glyph unicode="&#x201d;" horiz-adv-x="679" d="M217 1145q-6 16 12 24q63 29 91 66t36 94l15 117q2 18 20 18h33q18 0 16 -18l-16 -119q-18 -158 -178 -215q-14 -6 -21 8zM469 1145q-6 16 12 24q63 29 91 66t36 94l15 117q4 18 20 18h33q20 0 16 -18l-16 -119q-18 -158 -178 -215q-14 -6 -21 8z" />
<glyph unicode="&#x201e;" horiz-adv-x="679" d="M53 -127q-6 16 13 25q63 29 90.5 65.5t36.5 93.5l14 117q2 18 20 19h33q18 0 16 -19l-16 -119q-18 -158 -178 -215q-14 -6 -21 8zM305 -127q-6 16 12 25q63 29 91 65.5t36 93.5l15 117q4 18 20 19h33q20 0 16 -19l-16 -119q-18 -158 -178 -215q-14 -6 -21 8z" />
<glyph unicode="&#x2020;" horiz-adv-x="1071" d="M326 969l4 24q2 18 18 19h219q16 0 17 -19v-24q0 -16 -21 -17h-219q-10 0 -15 4.5t-3 12.5zM504 18l170 1395q2 18 22 19h31q18 0 16 -19l-172 -1395q-2 -18 -20 -18h-31q-20 0 -16 18zM723 969l2 24q4 18 18 19h222q18 0 16 -19l-2 -24q0 -16 -18 -17h-220q-18 1 -18 17 z" />
<glyph unicode="&#x2021;" horiz-adv-x="1071" d="M262 440l2 25q0 18 19 18h221q20 0 16 -18l-2 -25q0 -18 -18 -18h-219q-19 0 -19 18zM328 969l2 24q2 18 20 19h219q20 0 17 -19l-2 -24q0 -16 -19 -17h-219q-18 1 -18 17zM506 18l170 1395q4 18 20 19h33q20 0 16 -19l-172 -1395q-4 -18 -20 -18h-33q-16 0 -14 18z M659 440l3 25q0 18 18 18h221q16 0 17 -18l-3 -25q0 -18 -18 -18h-221q-17 0 -17 18zM725 969l2 24q0 18 18 19h222q16 0 16 -19l-2 -24q0 -16 -18 -17h-220q-18 1 -18 17z" />
<glyph unicode="&#x2022;" horiz-adv-x="487" d="M258 403l29 246q4 18 20 19h33q16 0 16 -19l-30 -246q-2 -18 -21 -18h-33q-18 0 -14 18z" />
<glyph unicode="&#x2026;" horiz-adv-x="1431" d="M176 18l19 156q4 18 20 19h35q16 0 14 -19l-18 -156q-4 -18 -19 -18h-32q-21 0 -19 18zM684 18l18 156q4 18 21 19h35q16 0 14 -19l-18 -156q-4 -18 -19 -18h-33q-20 0 -18 18zM1190 18l18 156q4 18 21 19h35q18 0 14 -19l-18 -156q-2 -18 -19 -18h-33q-20 0 -18 18z" />
<glyph unicode="&#x202f;" horiz-adv-x="360" />
<glyph unicode="&#x2030;" horiz-adv-x="2099" d="M305 967q0 16 4 41l27 223q20 174 272 174q233 0 234 -148q0 -25 -2 -40l-27 -222q-10 -84 -71.5 -129t-200.5 -45q-236 1 -236 146zM367 975q0 -102 180 -103q190 0 205 123l26 222q2 12 2 30q0 104 -176 105q-193 0 -207 -123l-28 -230v-8q-2 -8 -2 -16zM403 18 l768 1356q8 18 27 19h33q18 0 8 -19l-768 -1356q-8 -18 -27 -18h-32q-19 0 -9 18zM803 129q0 16 4 41l27 223q20 174 272 174q233 0 233 -147q0 -25 -2 -41l-26 -221q-10 -84 -71.5 -129t-201.5 -45q-235 0 -235 145zM864 137q0 -102 180 -102q190 0 205 123l27 221 q2 12 2 31q0 104 -176 104q-193 0 -207 -123l-29 -229q0 -2 -1 -10.5t-1 -14.5zM1421 129q0 16 4 41l27 223q20 174 272 174q233 0 234 -147q0 -25 -2 -41l-27 -221q-10 -84 -71.5 -129t-200.5 -45q-236 0 -236 145zM1483 137q0 -102 180 -102q190 0 205 123l26 221 q2 12 2 31q0 104 -176 104q-193 0 -207 -123l-28 -229q0 -2 -1 -10.5t-1 -14.5z" />
<glyph unicode="&#x2039;" horiz-adv-x="841" d="M231 489l5 27q2 16 20 27l416 291q6 6 13 4t5 -13l-6 -39q-2 -14 -20 -28l-371 -256l307 -254q16 -16 14 -27l-4 -41q-2 -8 -8 -10t-10 2l-348 293q-15 14 -13 24z" />
<glyph unicode="&#x203a;" horiz-adv-x="841" d="M233 180l7 39q2 14 20 29l371 256l-307 254q-16 16 -15 26l4 41q2 8 8.5 10.5t10.5 -1.5l348 -293q14 -14 12 -25l-4 -27q-2 -16 -20 -26l-416 -291q-6 -6 -13.5 -4t-5.5 12z" />
<glyph unicode="&#x2044;" horiz-adv-x="882" d="M109 18l768 1356q8 18 26 19h33q18 0 8 -19l-768 -1356q-8 -18 -26 -18h-33q-18 0 -8 18z" />
<glyph unicode="&#x205f;" horiz-adv-x="450" />
<glyph unicode="&#x20ac;" horiz-adv-x="1101" d="M141 571v17q0 18 21 18h172l22 185h-172q-18 0 -16 16l2 16q2 18 20 19h172l37 288q16 131 112.5 205t322.5 74q375 0 374 -235q0 -29 -2 -46l-14 -106q-4 -18 -18 -18h-33q-18 0 -17 18l13 100q2 12 2 39q0 186 -310 187q-186 0 -267 -58.5t-95 -167.5l-35 -280h326 q16 0 16 -19v-16q0 -16 -22 -16h-326l-23 -185h326q20 0 16 -18l-2 -17q-2 -16 -18 -16h-328l-35 -283q-2 -14 -2 -41q0 -186 308 -186q186 0 268 58.5t96 166.5l17 125q2 16 18 17h33q20 0 16 -17l-16 -133q-16 -131 -113.5 -204.5t-322.5 -73.5q-375 0 -375 231q0 16 4 49 l35 291h-170q-17 0 -17 16z" />
<glyph unicode="&#x2122;" horiz-adv-x="1798" d="M315 1354l2 24q0 14 17 15h551q16 0 14 -15l-2 -24q0 -14 -16 -15h-246l-96 -768q0 -14 -15 -14h-32q-14 0 -15 14l94 768h-239q-17 1 -17 15zM903 571l98 807q4 14 17 15h29q8 0 12 -15l201 -579l12 -49q14 29 26 49l336 581q6 12 19 13h33q12 0 12 -15l-101 -807 q0 -14 -14 -14h-31q-14 0 -14 14l84 693l-25 -50l-297 -516q-10 -14 -22 -14h-27q-10 0 -18 14l-176 521l-10 47l-86 -695q0 -14 -15 -14h-31q-12 0 -12 14z" />
<glyph unicode="&#x2202;" horiz-adv-x="749" d="M180 408v469q0 20 19.5 23t40.5 -9l354 -219q16 -10 17 -29.5t-17 -30.5l-354 -217q-14 -8 -27.5 -11t-23 3.5t-9.5 20.5z" />
<glyph unicode="&#x2206;" horiz-adv-x="749" d="M178 483v310q0 43 41 43h311q41 0 41 -43v-310q0 -43 -41 -43h-311q-41 0 -41 43z" />
<glyph unicode="&#x220f;" horiz-adv-x="749" d="M118 444.5q-3 20.5 9 38.5l219 355q10 16 28.5 16t28.5 -16l220 -355q8 -12 10 -25.5t-3 -23.5t-20 -10h-469q-20 0 -23 20.5z" />
<glyph unicode="&#x2211;" horiz-adv-x="749" d="M138 642.5q1 19.5 18 29.5l354 219q14 8 27.5 10t22.5 -4t9 -20v-469q0 -14 -9 -20.5t-22.5 -3.5t-27.5 11l-354 217q-19 11 -18 30.5z" />
<glyph unicode="&#x221a;" horiz-adv-x="749" d="M160 483v310q0 59 59 59h311q59 0 60 -59v-310q0 -59 -60 -59h-311q-59 0 -59 59zM195 483q0 -25 24 -24h311q25 0 25 24v310q0 27 -25 26h-311q-25 0 -24 -26v-310z" />
<glyph unicode="&#x221e;" horiz-adv-x="749" d="M90 639q0 12 25 41l217 219q18 20 42.5 20.5t43.5 -20.5l217 -219q23 -27 22 -41q0 -16 -22 -43l-217 -219q-20 -23 -43 -23t-43 23l-217 219q-25 29 -25 43zM129 639q0 -10 8 -18l221 -220q10 -10 16.5 -10t16.5 10l221 220q8 8 9 18q0 8 -9 16l-221 222q-8 8 -16 8 t-17 -8l-221 -222q-8 -8 -8 -16z" />
<glyph unicode="&#x222b;" horiz-adv-x="749" d="M66 637q0 129 89 219t218 90t220 -91t91 -218q0 -129 -91 -218t-220 -89t-218 89t-89 218z" />
<glyph unicode="&#x2248;" horiz-adv-x="974" d="M242 420v31q6 172 125 172q43 0 102 -37l166 -99q53 -29 84 -28q43 0 56 25.5t13 99.5v20q0 16 19 17h20q16 0 17 -19v-33q-6 -172 -121 -172q-47 0 -111 39l-168 101q-45 25 -73 24q-43 0 -58.5 -25.5t-15.5 -99.5v-18q0 -18 -21 -19h-18q-16 1 -16 21zM242 713v30 q6 172 125 172q43 0 102 -36l166 -99q53 -29 84 -28q43 0 56 25.5t13 99.5v20q0 16 19 16h20q16 0 17 -18v-33q-6 -172 -121 -172q-47 0 -111 39l-168 100q-45 25 -73 25q-43 0 -58.5 -25.5t-15.5 -99.5v-18q0 -18 -21 -19h-18q-16 1 -16 21z" />
<glyph unicode="&#x2260;" horiz-adv-x="1212" d="M246 512v25q0 16 18 16h311l109 274h-420q-18 0 -18 19v22q0 18 18 19h445l61 155q6 18 25 19h28q20 0 13 -19l-62 -155h295q18 0 18 -19v-22q0 -18 -18 -19h-319l-109 -274h428q18 0 18 -16v-25q0 -18 -18 -18h-451l-61 -156q-8 -18 -27 -19h-28q-18 0 -10 19l61 156 h-289q-18 0 -18 18z" />
<glyph unicode="&#x2264;" horiz-adv-x="1122" d="M221 793v36q0 10 19 21l716 291q18 8 19 -13v-34q0 -12 -19 -21l-663 -262l663 -262q18 -8 19 -21v-34q0 -20 -19 -13l-716 291q-19 11 -19 21zM223 297v22q0 18 19 19h714q18 0 19 -19v-22q0 -18 -19 -18h-714q-19 0 -19 18z" />
<glyph unicode="&#x2265;" horiz-adv-x="1122" d="M219 297v22q0 18 19 19h714q18 0 19 -19v-22q0 -18 -19 -18h-714q-19 0 -19 18zM219 494v34q0 16 19 23l663 260l-663 262q-18 6 -19 21v34q0 23 19 15l716 -293q18 -8 19 -21v-36q0 -12 -19 -21l-716 -291q-19 -7 -19 13z" />
<glyph unicode="&#x25ca;" horiz-adv-x="749" d="M111 639q0 12 16 29l219 219q14 14 28.5 14t28.5 -14l220 -219q16 -16 16 -29q0 -14 -16 -31l-220 -219q-16 -16 -28.5 -16t-28.5 16l-219 219q-16 17 -16 31z" />
<glyph unicode="&#xe000;" horiz-adv-x="1004" d="M0 1005h1005v-1005h-1005v1005z" />
<glyph unicode="&#xfb01;" horiz-adv-x="1034" d="M184 -410l168 1354h-139q-14 0 -14 19v18q0 18 18 18l117 5h24l23 188q14 115 99 177.5t276 62.5h235q16 0 15 -19l-2 -22q0 -18 -19 -19h-231q-285 0 -305 -186l-23 -182h567q20 0 19 -21l-121 -965q-4 -18 -19 -18h-32q-20 0 -17 18l115 926h-518l-168 -1354 q-2 -18 -19 -18h-32q-19 0 -17 18z" />
<glyph unicode="&#xfb02;" horiz-adv-x="1077" d="M184 -410l168 1354h-139q-14 0 -14 19v18q0 18 18 18l117 5h24l23 188q14 115 99 177.5t276 62.5h288q20 0 19 -19l-172 -1395q-2 -18 -19 -18h-32q-20 0 -17 18l168 1354h-237q-285 0 -305 -186l-23 -182h252q16 0 16 -19l-2 -22q-4 -18 -18 -19h-254l-168 -1354 q-2 -18 -19 -18h-32q-19 0 -17 18z" />
<glyph horiz-adv-x="0" />
</font>
</defs>
</svg>
