<?xml version="1.0" standalone="no"?>
<!DOCTYPE svg PUBLIC "-//W3C//DTD SVG 1.1//EN" "http://www.w3.org/Graphics/SVG/1.1/DTD/svg11.dtd" >
<svg xmlns="http://www.w3.org/2000/svg">
<metadata>
This is a custom SVG webfont generated by Font Squirrel.
Copyright   : Copyright c 2009 by Eduardo Manso All rights reserved
Designer    : Eduardo Manso
Foundry     : Eduardo Manso
Foundry URL : httpwwwemtypenet
</metadata>
<defs>
<font id="GeogrotesqueThinItalic" horiz-adv-x="1044" >
<font-face units-per-em="2048" ascent="1536" descent="-512" />
<missing-glyph horiz-adv-x="512" />
<glyph unicode=" "  horiz-adv-x="512" />
<glyph unicode="&#x09;" horiz-adv-x="512" />
<glyph unicode="&#xa0;" horiz-adv-x="512" />
<glyph unicode="!" horiz-adv-x="479" d="M225 12l21 154q4 12 14 12h8q10 0 11 -12l-21 -154q-4 -12 -14 -12h-6q-17 0 -13 12zM264 309l58 490l69 581q2 12 15 13h12q10 0 10 -13l-70 -581l-65 -490q-2 -12 -14 -12h-5q-10 0 -10 12z" />
<glyph unicode="&#x22;" horiz-adv-x="645" d="M324 1016l41 364q0 12 14 13h12q14 0 10 -13l-49 -364q0 -12 -12 -12h-4q-12 0 -12 12zM539 1016l41 364q0 12 14 13h12q12 0 10 -13l-49 -364q0 -12 -12 -12h-4q-12 0 -12 12z" />
<glyph unicode="#" horiz-adv-x="1292" d="M260 532v7q0 12 14 12h189l115 287h-193q-10 0 -10 12v6q0 12 14 12h201l90 230q6 12 18 12h11q10 0 6 -12l-90 -230h364l90 230q6 12 19 12h10q10 0 6 -12l-90 -230h164q10 0 10 -12v-6q0 -12 -14 -12h-172l-115 -287h176q10 0 10 -12v-7q0 -12 -14 -12h-184l-90 -223 q-4 -12 -15 -12h-12q-12 0 -8 12l90 223h-365l-90 -223q-6 -12 -14 -12h-12q-12 0 -9 12l91 223h-181q-10 0 -10 12zM498 551h364l115 287h-365z" />
<glyph unicode="$" horiz-adv-x="1069" d="M270 354v19l2 12l7 55q0 10 14 11h10q10 0 8 -11l-6 -53q-2 -16 -2 -27q0 -154 283 -153q154 0 236.5 47t92.5 125l15 121v4q0 4 1 11t1 13q0 82 -127 119l-322 96q-53 16 -95 57.5t-42 96.5q0 14 2 29l12 88q29 193 332 198l23 168q2 12 14 13h6q14 0 10 -13l-22 -168 q143 -2 215 -50t72 -122q0 -20 -2 -41l-9 -61q0 -10 -12 -10h-10q-10 0 -10 10l8 59q2 18 2 41q0 61 -65.5 103.5t-206.5 42.5q-150 0 -227 -46t-85 -124l-10 -86q-2 -16 -2 -29q0 -45 34 -79t87 -48l321 -94q141 -41 142 -146l-2 -30l-15 -125q-10 -90 -99 -144.5 t-255 -56.5l-19 -164q0 -12 -12 -12h-6q-12 0 -12 12l18 164q-145 2 -219 51t-74 127z" />
<glyph unicode="%" horiz-adv-x="1427" d="M315 973q0 16 4 41l27 227q8 78 67.5 121t194.5 43q221 0 221 -137q0 -6 -4 -43l-26 -226q-10 -80 -68.5 -121.5t-191.5 -41.5q-224 0 -224 137zM348 977q0 -113 195 -113q209 0 223 135l27 228q4 29 4 35q0 115 -193 114q-211 0 -225 -135l-29 -237l-2 -11v-16zM397 12 l760 1368q10 12 19 13h10q14 0 6 -13l-760 -1368q-6 -12 -16 -12h-13q-10 0 -6 12zM764 121q0 16 4 41l27 227q8 78 67.5 121t194.5 43q221 0 221 -137q0 -6 -4 -43l-27 -226q-10 -80 -68.5 -121.5t-191.5 -41.5q-223 0 -223 137zM797 125q0 -113 194 -113q209 0 223 135 l27 228q4 29 4 35q0 115 -192 114q-211 0 -226 -135l-28 -237v-11q-2 -10 -2 -16z" />
<glyph unicode="&#x26;" horiz-adv-x="1333" d="M246 213q0 20 2 33l33 266q14 106 64 162.5t175 79.5q-96 18 -135 64t-39 120q0 18 4 55l19 154q14 129 100 195.5t291 66.5q330 0 330 -209v-18l-5 -62q0 -12 -14 -12h-8q-10 0 -10 12l4 62v16q0 57 -26.5 96t-76 55.5t-94.5 22.5t-104 6q-160 0 -249 -50t-106 -181 l-18 -154q-4 -37 -4 -53q0 -86 64.5 -129t236.5 -43h635q10 0 10 -12v-6q0 -12 -14 -13h-181l-61 -491q-35 -262 -442 -262q-381 0 -381 229zM279 215q0 -201 350 -201q379 0 407 232l62 491h-432q-137 0 -214 -30.5t-102.5 -74.5t-36.5 -120l-32 -266q-2 -11 -2 -31z" />
<glyph unicode="'" horiz-adv-x="430" d="M324 1016l41 364q0 12 14 13h12q14 0 10 -13l-49 -364q0 -12 -12 -12h-4q-12 0 -12 12z" />
<glyph unicode="(" horiz-adv-x="720" d="M190 -254q0 25 3 37l178 1438q14 111 93 170t267 59h6q10 0 11 -12v-6q0 -12 -13 -13h-6q-168 0 -240.5 -52t-85.5 -146l-176 -1424q-4 -25 -4 -43q0 -170 281 -170h6q8 0 8 -12v-6q0 -12 -12 -12h-6q-310 -1 -310 192z" />
<glyph unicode=")" horiz-adv-x="720" d="M92 -428q0 12 12 12h7q168 0 240.5 52.5t84.5 146.5l176 1423q4 45 4 47q0 166 -280 166h-6q-8 0 -8 13v6q0 12 12 12h6q309 0 309 -193q0 -25 -2 -36l-178 -1438q-14 -111 -93 -170t-267 -59h-7q-10 0 -10 12v6z" />
<glyph unicode="*" horiz-adv-x="991" d="M344 979q-6 10 6 16l260 150l-223 151q-8 6 -4 15l4 6q6 12 19 4l219 -156l30 279q0 12 15 12h6q12 0 10 -12l-39 -281l256 160q12 8 19 -4l4 -6q6 -10 -6 -17l-263 -151l226 -150q8 -4 2 -16l-2 -4q-6 -12 -21 -4l-219 155l-31 -280q0 -12 -14 -12h-6q-14 0 -10 12 l39 280l-256 -157q-12 -6 -17 4z" />
<glyph unicode="+" horiz-adv-x="1218" d="M281 692v6q0 12 12 13h383v385q0 12 12 12h6q12 0 13 -12v-385h387q12 0 12 -13v-6q0 -12 -12 -12h-387v-385q0 -12 -13 -12h-6q-12 0 -12 12v385h-383q-12 0 -12 12z" />
<glyph unicode="," horiz-adv-x="401" d="M53 -133q-4 10 8 16q66 31 93.5 71t35.5 99l15 113q4 12 14 12h8q14 0 11 -12l-15 -113q-16 -145 -151 -198q-10 -4 -15 4z" />
<glyph unicode="-" horiz-adv-x="968" d="M266 590v6q0 12 13 12h550q12 0 13 -12v-6q0 -12 -13 -12h-550q-13 0 -13 12z" />
<glyph unicode="." horiz-adv-x="401" d="M186 12l19 154q0 12 12 12h10q10 0 11 -12l-19 -154q0 -12 -12 -12h-8q-15 0 -13 12z" />
<glyph unicode="/" horiz-adv-x="759" d="M90 -291l682 1710q4 12 16 13h11q14 0 8 -13l-682 -1710q-6 -12 -19 -12h-10q-10 0 -6 12z" />
<glyph unicode="0" horiz-adv-x="1075" d="M188 199q0 16 5 53l108 889q16 131 102 199.5t306 68.5q193 0 269.5 -56.5t76.5 -162.5q0 -33 -2 -49l-109 -889q-16 -131 -103 -199.5t-306 -68.5q-190 0 -268.5 55.5t-78.5 159.5zM221 205q0 -92 69.5 -141.5t246.5 -49.5q199 0 279.5 61.5t94.5 176.5l109 889 q2 14 2 45q0 92 -69.5 142t-247.5 50q-199 0 -278 -61.5t-93 -175.5l-109 -889q-4 -45 -4 -47z" />
<glyph unicode="1" horiz-adv-x="1075" d="M164 12v6q0 12 12 13h369l164 1325l-381 -115q-4 -2 -7.5 1t-3.5 9v6q0 10 15 15l401 121q12 4 12 -9l-167 -1353h370q10 0 10 -13v-6q0 -12 -12 -12h-772q-10 0 -10 12z" />
<glyph unicode="2" horiz-adv-x="1075" d="M201 12l51 408q8 61 55 106t85 59.5t77 22.5l360 82q49 10 104.5 50t65.5 114l35 287q2 16 2 47q0 92 -67.5 141t-243.5 49q-199 0 -274.5 -60.5t-90.5 -176.5l-14 -111q0 -12 -14 -12h-8q-10 0 -11 12l15 111q12 88 42.5 141t119 90t239.5 37q190 0 265 -55.5t75 -159.5 q0 -35 -2 -53l-35 -287q-8 -63 -49 -109.5t-78 -63.5t-71 -24l-361 -82q-174 -41 -188 -155l-49 -389h686q10 0 10 -13v-6q0 -12 -14 -12h-707q-10 0 -10 12z" />
<glyph unicode="3" horiz-adv-x="1075" d="M178 201q0 29 2 45l4 26q4 12 15 13h8q14 0 10 -13l-4 -26q-2 -12 -2 -43q0 -92 68.5 -140.5t242.5 -48.5q193 0 271.5 59.5t93.5 172.5l33 266q4 37 4 53q0 86 -63.5 129t-235.5 43h-205q-12 0 -12 13v6q0 12 14 12h196q137 0 214 30.5t101.5 75t35.5 119.5l18 154 q2 23 2 45q0 90 -65.5 138t-233.5 48q-188 0 -268 -61.5t-88 -169.5l-2 -27q0 -12 -13 -12h-8q-12 0 -12 12l2 27q10 125 98 193.5t295 68.5q180 0 255 -54.5t75 -156.5q0 -2 -4 -51l-19 -154q-14 -104 -59 -160.5t-164 -78.5q100 -18 139 -63.5t39 -121.5q0 -16 -4 -57 l-32 -266q-14 -129 -101.5 -195.5t-298.5 -66.5q-186 0 -264 56.5t-78 160.5z" />
<glyph unicode="4" horiz-adv-x="1075" d="M182 506v4q0 6 8 22l437 848q6 12 18 13h10q14 0 7 -13l-439 -852h678l105 852q2 12 14 13h8q12 0 10 -13l-168 -1368q0 -12 -12 -12h-8q-12 0 -12 12l59 486h-704q-11 0 -11 8z" />
<glyph unicode="5" horiz-adv-x="1075" d="M219 199q0 20 2 47l2 26q0 12 15 13h8q10 0 10 -13l-2 -26q-2 -29 -2 -49q0 -92 58.5 -137.5t230.5 -45.5q102 0 168.5 16.5t102.5 50.5t51.5 70.5t21.5 94.5l39 319q4 33 4 41q0 172 -301 172h-312q-12 0 -12 13l74 589q4 12 14 13h625q10 0 10 -13v-6q0 -12 -12 -12 h-606l-70 -553h291q332 0 332 -199q0 -10 -5 -47l-38 -317q-10 -86 -41 -139.5t-114 -88t-226 -34.5q-184 0 -251 54.5t-67 160.5z" />
<glyph unicode="6" horiz-adv-x="1075" d="M201 197q0 18 4 55l110 907q12 113 96.5 181.5t299.5 68.5q334 0 333 -213q0 -14 -2 -37l-2 -22q0 -12 -14 -13h-8q-10 0 -10 13l2 22l2 12v19q0 84 -64.5 136t-240.5 52q-193 0 -271 -60.5t-88 -158.5l-59 -485q72 137 354 137q190 0 267 -56.5t77 -160.5q0 -18 -4 -51 l-35 -291q-10 -86 -44 -140.5t-123 -91t-238 -36.5q-190 0 -266 54.5t-76 158.5zM233 203q0 -92 68 -140.5t244 -48.5q199 0 277.5 61.5t92.5 176.5l35 291q4 33 4 47q0 92 -69.5 141t-245.5 49q-338 0 -365 -217l-36 -311q-5 -33 -5 -49z" />
<glyph unicode="7" horiz-adv-x="1075" d="M291 1374v6q0 12 14 13h797q10 0 10 -11v-4q0 -6 -6 -18l-713 -1348q-6 -12 -16 -12h-12q-16 0 -11 12l717 1350h-768q-12 0 -12 12z" />
<glyph unicode="8" horiz-adv-x="1075" d="M193 197q0 14 4 55l30 252q14 109 67.5 169t184.5 83q-184 31 -184 192q0 20 4 62l16 131q8 66 25.5 108.5t58.5 82.5t117 58.5t191 18.5q186 0 258.5 -54.5t72.5 -156.5q0 -25 -4 -57l-16 -131q-14 -111 -64.5 -172.5t-181.5 -81.5q109 -18 153 -68.5t44 -132.5 q0 -33 -2 -51l-31 -252q-10 -86 -43 -140.5t-122 -91t-239 -36.5q-190 0 -264.5 54.5t-74.5 158.5zM225 203q0 -92 66.5 -140.5t243.5 -48.5q199 0 276.5 61.5t91.5 176.5l31 252q2 16 2 47q0 92 -67.5 141t-243.5 49q-197 0 -274 -60t-91 -177l-31 -252q-4 -41 -4 -49z M328 956q0 -90 64.5 -137t236.5 -47q137 0 216 34t104.5 80t35.5 124l16 131q4 37 5 53q0 90 -64.5 137t-239.5 47q-135 0 -213.5 -33.5t-104.5 -79.5t-36 -124l-16 -131q-4 -46 -4 -54z" />
<glyph unicode="9" horiz-adv-x="1075" d="M197 197q0 10 2 36l2 23q0 12 14 12h8q10 0 10 -12l-2 -23l-2 -12v-18q0 -188 310 -189q193 0 268.5 60.5t85.5 158.5l59 486q-72 -137 -354 -137q-190 0 -267 56t-77 161q0 18 4 51l35 291q10 86 44 140t123 91t238 37q190 0 266 -54.5t76 -158.5q0 -18 -4 -55 l-110 -908q-12 -113 -95 -181t-296 -68q-338 0 -338 213zM287 803q0 -92 69.5 -141.5t245.5 -49.5q338 0 365 217l37 312q4 33 4 49q0 92 -68 140t-244 48q-199 0 -277.5 -61.5t-92.5 -175.5l-35 -291q-4 -33 -4 -47z" />
<glyph unicode=":" horiz-adv-x="401" d="M184 12l19 154q0 12 14 12h8q12 0 11 -12l-19 -154q0 -12 -14 -12h-8q-11 0 -11 12zM287 838l18 153q0 12 14 13h9q10 0 10 -13l-19 -153q0 -12 -14 -13h-8q-10 1 -10 13z" />
<glyph unicode=";" horiz-adv-x="518" d="M170 -133q-6 10 8 16q63 31 92 71t37 99l15 113q2 12 12 12h10q10 0 10 -12l-14 -113q-18 -145 -152 -198q-10 -4 -12 2zM403 838l19 153q0 12 14 13h8q10 0 11 -13l-19 -153q0 -12 -14 -13h-8q-11 1 -11 13z" />
<glyph unicode="&#x3c;" horiz-adv-x="1132" d="M281 694v8q0 8 12 15l715 336q12 4 12 -6v-13q0 -8 -12 -14l-691 -322l691 -321q12 -6 12 -15v-12q0 -10 -12 -6l-715 336q-12 6 -12 14z" />
<glyph unicode="=" horiz-adv-x="1216" d="M260 535v6q0 12 12 12h799q12 0 12 -12v-6q0 -12 -12 -13h-799q-12 1 -12 13zM260 852v6q0 12 12 12h799q12 0 12 -12v-6q0 -12 -12 -12h-799q-12 0 -12 12z" />
<glyph unicode="&#x3e;" horiz-adv-x="1132" d="M238 350v12q0 8 12 15l690 321l-690 322q-12 6 -12 14v13q0 10 12 6l715 -336q12 -6 12 -15v-8q0 -8 -12 -14l-715 -336q-12 -4 -12 6z" />
<glyph unicode="?" horiz-adv-x="1165" d="M322 1030l14 111q16 131 107.5 199.5t310.5 68.5q195 0 275.5 -58.5t80.5 -164.5q0 -31 -2 -45l-27 -207q-20 -145 -178 -221l-108 -54q-123 -59 -138 -172l-22 -178q-4 -12 -14 -12h-9q-10 0 -10 12l23 178q16 135 166 205l108 53q133 63 150 189l26 207q2 14 2 41 q0 94 -72.5 145t-254.5 51q-199 0 -283 -62.5t-98 -174.5l-15 -111q-2 -12 -14 -12h-8q-10 0 -10 12zM565 12l19 152q0 14 14 14h8q10 0 10 -12l-18 -154q0 -12 -14 -12h-9q-10 0 -10 12z" />
<glyph unicode="@" horiz-adv-x="1564" d="M225 41q0 4 8 78l105 842q14 129 147 198.5t447 69.5q289 0 409.5 -62.5t120.5 -175.5q0 -4 -4 -45l-82 -661q-27 -217 -194 -217q-68 0 -108 35.5t-42 99.5q-182 -135 -352 -135q-205 0 -205 159q0 35 8 68l95 414q27 111 92 171t202 60q158 0 289 -131l27 102 q4 12 14 13h4q14 0 11 -13l-142 -626q-8 -31 -8 -64q0 -57 30.5 -90t88.5 -33q133 0 157 187l82 661q4 29 5 39q0 213 -502 213q-528 0 -557 -237l-107 -857q-6 -49 -6 -57q0 -104 114.5 -158.5t387.5 -54.5h391q10 0 10 -10v-10q0 -10 -14 -11h-391q-289 0 -410 62.5 t-121 175.5zM508 238q0 -139 178 -140q158 0 348 138l8 49l109 487q-123 137 -285 137q-213 0 -256 -200l-94 -414q-8 -41 -8 -57z" />
<glyph unicode="A" horiz-adv-x="1030" d="M63 12l599 1368q6 12 18 13h10q10 0 15 -13l262 -1368q1 -3 1 -5q0 -7 -10 -7h-10q-10 0 -14 12l-90 463h-545l-203 -463q-6 -12 -14 -12h-8q-15 0 -11 12zM313 506h527l-133 694l-29 148q-18 -51 -57 -142z" />
<glyph unicode="B" horiz-adv-x="1173" d="M221 12l168 1368q4 12 14 13h334q367 0 367 -228q0 -27 -2 -41l-19 -147q-12 -98 -68.5 -160.5t-174.5 -89.5q233 -37 233 -217q0 -27 -2 -39l-24 -203q-14 -129 -111.5 -198.5t-319.5 -69.5h-383q-12 0 -12 12zM256 31h362q367 0 396 237l24 203q2 12 2 37 q0 201 -338 201h-362zM344 739h344q334 0 363 238l18 147q2 12 2 37q0 201 -338 201h-313z" />
<glyph unicode="C" horiz-adv-x="1099" d="M223 205q0 14 4 47l109 889q14 129 108.5 198.5t313.5 69.5q197 0 278.5 -58.5t81.5 -166.5q0 -29 -2 -43l-14 -111q0 -12 -12 -12h-9q-12 0 -12 12l14 111q2 12 2 39q0 199 -331 198q-199 0 -285 -62.5t-100 -174.5l-109 -889q-2 -14 -2 -41q0 -94 74 -145.5t254 -51.5 q201 0 288 62.5t101 175.5l16 133q0 12 13 12h8q12 0 12 -12l-16 -133q-14 -129 -109.5 -198.5t-314.5 -69.5q-361 0 -361 221z" />
<glyph unicode="D" horiz-adv-x="1210" d="M221 12l168 1368q4 12 12 13h385q367 0 367 -228q0 -27 -2 -41l-104 -856q-14 -129 -111.5 -198.5t-319.5 -69.5h-383q-12 0 -12 12zM256 31h362q367 0 396 237l104 856q2 12 2 37q0 201 -338 201h-362z" />
<glyph unicode="E" horiz-adv-x="1093" d="M221 12l168 1368q4 12 14 13h699q10 0 10 -13v-6q0 -12 -14 -12h-678l-74 -608h639q10 0 10 -13v-6q0 -12 -14 -12h-639l-86 -692h705q10 0 10 -13v-6q0 -12 -13 -12h-727q-10 0 -10 12z" />
<glyph unicode="F" horiz-adv-x="1097" d="M221 12l168 1368q4 12 14 13h754q10 0 10 -13v-6q0 -12 -14 -12h-733l-76 -614h694q10 0 11 -13v-6q0 -12 -13 -12h-694l-88 -705q0 -12 -12 -12h-9q-12 0 -12 12z" />
<glyph unicode="G" horiz-adv-x="1136" d="M223 205q0 14 4 47l109 889q14 129 108.5 198.5t313.5 69.5q197 0 278.5 -58.5t81.5 -166.5q0 -29 -2 -43l-14 -111q0 -12 -12 -12h-9q-12 0 -12 12l14 111q2 12 2 39q0 199 -331 198q-199 0 -285 -62.5t-100 -174.5l-109 -889q-2 -14 -2 -41q0 -94 74 -145.5t254 -51.5 q199 0 285.5 61.5t101.5 172.5l43 338h-334q-12 0 -12 12v6q0 12 14 12h356q10 0 11 -12l-43 -352q-14 -129 -109.5 -198.5t-314.5 -69.5q-361 0 -361 221z" />
<glyph unicode="H" horiz-adv-x="1234" d="M221 12l168 1368q4 12 14 13h9q10 0 10 -13l-74 -608h727l74 608q0 12 14 13h8q12 0 11 -13l-168 -1368q0 -12 -13 -12h-8q-12 0 -12 12l90 729h-727l-90 -729q0 -12 -12 -12h-9q-12 0 -12 12z" />
<glyph unicode="I" horiz-adv-x="475" d="M221 12l168 1368q4 12 14 13h9q14 0 10 -13l-168 -1368q0 -12 -12 -12h-9q-12 0 -12 12z" />
<glyph unicode="J" horiz-adv-x="985" d="M113 201q0 14 4 51l8 65q0 12 14 13h8q10 0 11 -13l-8 -65q-4 -33 -5 -49q0 -90 63.5 -139.5t223.5 -49.5q180 0 254 61.5t88 176.5l139 1128q0 12 13 13h8q12 0 12 -13l-139 -1128q-16 -131 -98 -199.5t-281 -68.5q-172 0 -243.5 56.5t-71.5 160.5z" />
<glyph unicode="K" horiz-adv-x="1062" d="M221 12l168 1368q4 12 14 13h9q14 0 10 -13l-80 -663h84l651 665q10 10 23 11h14q9 0 9 -4q0 -3 -5 -9l-661 -675l555 -693q8 -12 -6 -12h-11q-12 0 -24 12l-543 674h-90l-84 -674q0 -12 -12 -12h-9q-12 0 -12 12z" />
<glyph unicode="L" horiz-adv-x="1026" d="M221 12l168 1368q4 12 14 13h9q14 0 10 -13l-166 -1349h674q10 0 10 -13v-6q0 -12 -12 -12h-697q-10 0 -10 12z" />
<glyph unicode="M" horiz-adv-x="1449" d="M221 12l168 1368q0 12 12 13h5q10 0 12 -9l317 -1067q14 -45 19 -73q0 4 34 73l576 1067q2 8 12 9h10q14 0 11 -13l-168 -1368q0 -12 -12 -12h-9q-12 0 -12 12l160 1295l-6 -13q-6 -14 -14.5 -31.5t-14.5 -27.5l-545 -1010q-6 -12 -18 -12h-17q-12 0 -14 12l-301 1016 q-8 27 -14 66l-160 -1295q0 -12 -12 -12h-7q-12 0 -12 12z" />
<glyph unicode="N" horiz-adv-x="1232" d="M221 12l168 1368q4 12 14 13h3q8 0 10 -7l526 -1208l45 -104l160 1306q4 12 14 13h6q12 0 11 -13l-168 -1368q0 -12 -13 -12h-4q-10 0 -12 6l-524 1208q-2 6 -43 107l-162 -1309q0 -12 -12 -12h-7q-12 0 -12 12z" />
<glyph unicode="O" horiz-adv-x="1185" d="M223 207q0 12 4 45l109 889q14 129 110.5 198.5t317.5 69.5q367 0 366 -227q0 -27 -2 -41l-108 -889q-14 -129 -111.5 -198.5t-318.5 -69.5q-367 0 -367 223zM258 215q0 -201 334 -201q367 0 395 238l109 889q2 12 2 37q0 201 -338 200q-362 0 -391 -237l-109 -889 q-2 -12 -2 -37z" />
<glyph unicode="P" horiz-adv-x="1136" d="M221 12l168 1368q4 12 12 13h385q367 0 367 -234q0 -27 -2 -41l-35 -278q-16 -127 -112.5 -194.5t-317.5 -67.5h-362l-70 -566q0 -12 -12 -12h-9q-12 0 -12 12zM328 608h362q203 0 291 60.5t102 171.5l35 278q2 12 2 37q0 207 -338 207h-362z" />
<glyph unicode="Q" horiz-adv-x="1183" d="M223 207q0 12 4 45l109 889q14 129 110.5 198.5t317.5 69.5q367 0 366 -227q0 -27 -2 -41l-108 -889q-14 -119 -97 -187.5t-266 -78.5l293 -305q8 -8 -2 -17l-6 -6q-4 -4 -8 -4l-8 4l-310 326h-26q-367 0 -367 223zM258 215q0 -201 334 -201q367 0 395 238l109 889 q2 12 2 37q0 201 -338 200q-362 0 -391 -237l-109 -889q-2 -12 -2 -37z" />
<glyph unicode="R" horiz-adv-x="1191" d="M221 12l168 1368q4 12 12 13h385q367 0 367 -234q0 -27 -2 -41l-31 -258q-12 -109 -83.5 -173t-229.5 -83l235 -592q4 -12 -10 -12h-8q-16 0 -20 12l-232 588q-27 -2 -84 -2h-362l-72 -586q0 -12 -12 -12h-9q-12 0 -12 12zM330 629h362q201 0 291 60.5t104 170.5l31 258 q2 12 2 37q0 207 -338 207h-362z" />
<glyph unicode="S" horiz-adv-x="1144" d="M207 207q0 12 4 45l12 96q0 12 13 12h8q12 0 12 -12l-12 -96q-2 -12 -2 -39q0 -199 333 -199q367 0 396 238l22 186q0 4 1 13.5t1 13.5q0 123 -145 182l-389 158q-145 59 -146 201q0 20 2 30l13 105q10 84 46 139t129 92t245 37q193 0 273.5 -58.5t80.5 -164.5 q0 -31 -2 -45l-12 -109q0 -12 -15 -12h-8q-12 0 -10 12l12 109q2 14 2 41q0 94 -72.5 145t-253.5 51q-201 0 -284.5 -62.5t-98.5 -174.5l-12 -105q-2 -10 -2 -28q0 -121 129 -174l389 -158q162 -66 162 -209q0 -18 -2 -29l-22 -186q-14 -129 -111.5 -198.5t-319.5 -69.5 q-366 0 -366 223z" />
<glyph unicode="T" horiz-adv-x="970" d="M215 1374v6q0 12 14 13h846q12 0 12 -13v-6q0 -12 -14 -12h-407l-166 -1350q0 -12 -13 -12h-8q-12 0 -12 12l166 1350h-406q-12 0 -12 12z" />
<glyph unicode="U" horiz-adv-x="1210" d="M236 211q0 27 2 41l139 1128q0 12 12 13h8q12 0 13 -13l-140 -1128q-2 -12 -2 -37q0 -201 336 -201q365 0 393 238l140 1128q0 12 12 13h8q12 0 12 -13l-139 -1128q-14 -129 -111.5 -198.5t-318.5 -69.5q-364 0 -364 227z" />
<glyph unicode="V" horiz-adv-x="1030" d="M231 1380q-2 12 13 13h8q10 0 12 -13l230 -1187l24 -148l60 141l522 1194q6 12 16 13h10q9 0 10 -7q0 -2 -1 -6l-598 -1368q-6 -12 -17 -12h-10q-14 0 -16 12z" />
<glyph unicode="W" horiz-adv-x="1576" d="M231 1380q-2 12 13 13h8q10 0 12 -13l160 -1192l14 -131q37 96 49 131l451 1192q6 12 16 13h9q8 0 12 -13l160 -1192q2 -18 5 -50t6 -53.5t3 -23.5q8 31 47 127l451 1192q6 12 16 13h10q9 0 9 -7q0 -2 -1 -6l-516 -1368q-2 -12 -16 -12h-10q-12 0 -17 12l-157 1207 l-15 108l-39 -108l-456 -1207q-4 -12 -17 -12h-10q-14 0 -16 12z" />
<glyph unicode="X" horiz-adv-x="1091" d="M113 12l495 690l-323 678q-4 12 8 13h12q12 0 17 -13l311 -649l452 649q8 12 21 13h14q8 0 9 -5q0 -3 -5 -8l-475 -680l328 -688q8 -12 -8 -12h-11q-12 0 -20 12l-313 658l-473 -658q-8 -12 -19 -12h-12q-12 0 -12 5q0 3 4 7z" />
<glyph unicode="Y" horiz-adv-x="1009" d="M221 1380q-4 12 10 13h11q8 0 14 -13l305 -704q14 -27 21 -51q18 33 30 51l475 704q6 12 19 13h12q10 0 10 -5q0 -3 -4 -8l-530 -782l-72 -586q0 -12 -12 -12h-8q-12 0 -13 12l72 584z" />
<glyph unicode="Z" horiz-adv-x="1040" d="M135 10v4q0 2 8 19l879 1329h-672q-10 0 -10 12v6q0 12 14 13h703q10 0 10 -13v-6q0 -4 -4 -12l-883 -1331h740q10 0 10 -13v-6q0 -12 -12 -12h-771q-12 0 -12 10z" />
<glyph unicode="[" horiz-adv-x="700" d="M168 -420l227 1839q2 12 15 13h305q10 0 10 -13v-6q0 -12 -12 -12h-287l-223 -1802h286q10 0 11 -13v-6q0 -12 -13 -12h-307q-12 0 -12 12z" />
<glyph unicode="\" horiz-adv-x="759" d="M299 1419q0 12 10 13h6q14 0 17 -13l260 -1708q4 -14 -10 -14h-9q-12 0 -14 12z" />
<glyph unicode="]" horiz-adv-x="700" d="M94 -414q0 12 12 13h287l223 1802h-286q-10 0 -11 12v6q0 12 13 13h307q12 0 12 -13l-227 -1839q-2 -12 -14 -12h-306q-10 0 -10 12v6z" />
<glyph unicode="^" horiz-adv-x="1105" d="M279 666l335 714q6 12 15 13h8q8 0 14 -13l336 -714q4 -12 -6 -13h-12q-8 0 -15 13l-321 690l-322 -690q-6 -12 -14 -13h-12q-10 1 -6 13z" />
<glyph unicode="_" horiz-adv-x="845" d="M20 -205q0 12 13 12h723q12 0 12 -12v-6q0 -12 -12 -12h-723q-12 0 -13 12v6z" />
<glyph unicode="`" horiz-adv-x="708" d="M426 1438q-6 12 8 12h12q10 0 15 -8l135 -256q6 -10 -4 -10h-10q-12 0 -15 6z" />
<glyph unicode="a" d="M193 178q0 23 2 35l71 578q12 106 88 167.5t215 61.5q205 0 353 -131l16 102q4 12 12 13h6q10 0 11 -13l-121 -979q0 -12 -15 -12h-4q-10 0 -10 12l8 101q-180 -129 -385 -129q-123 0 -185 52t-62 142zM225 184q0 -78 55.5 -124t163.5 -46q207 0 385 136l89 702 q-143 137 -353 137q-119 0 -186.5 -55t-79.5 -143l-72 -578q-2 -11 -2 -29z" />
<glyph unicode="b" d="M197 12l172 1407q2 12 14 13h8q10 0 10 -13l-63 -530q174 131 383 131q123 0 186.5 -53.5t63.5 -143.5q0 -18 -2 -32l-72 -578q-12 -106 -88 -167.5t-215 -61.5q-203 0 -354 129l-15 -101q-4 -12 -14 -12h-4q-10 0 -10 12zM246 150q150 -135 352 -136q119 0 186.5 55.5 t79.5 143.5l72 578q2 20 2 28q0 78 -55.5 124t-163.5 46q-209 0 -387 -137z" />
<glyph unicode="c" horiz-adv-x="958" d="M193 174q0 25 2 39l71 578q14 111 93 170t268 59q305 0 305 -191q0 -27 -2 -38l-6 -43q0 -12 -13 -13h-8q-12 0 -12 13l6 43q2 12 2 32q0 166 -276 166q-168 0 -240 -52t-84 -146l-72 -578q-2 -12 -2 -35q0 -164 277 -164q168 0 238.5 52.5t84.5 146.5l9 59q0 12 14 13h8 q10 0 10 -13l-8 -59q-16 -113 -94 -171t-266 -58q-305 0 -305 190z" />
<glyph unicode="d" d="M193 178q0 23 2 35l71 578q29 229 301 229q207 0 355 -131l63 530q0 12 14 13h9q12 0 10 -13l-172 -1407q0 -12 -15 -12h-4q-10 0 -10 12l8 101q-180 -129 -385 -129q-123 0 -185 52t-62 142zM225 184q0 -78 55.5 -124t163.5 -46q207 0 385 136l86 702q-137 137 -350 137 q-121 0 -187.5 -54t-78.5 -144l-72 -578q-2 -11 -2 -29z" />
<glyph unicode="e" horiz-adv-x="995" d="M193 176q0 25 2 37l71 578q14 111 96 170t271 59q311 0 311 -193q0 -25 -2 -36l-33 -259q-4 -12 -12 -12h-631l-39 -307q-2 -10 -2 -31q0 -168 283 -168q168 0 241.5 52.5t88.5 146.5l8 59q2 12 14 13h8q12 0 11 -13l-9 -59q-14 -111 -96 -170t-270 -59q-311 -1 -311 192 zM268 551h611l30 240q2 10 2 30q0 168 -282 168q-305 0 -330 -198z" />
<glyph unicode="f" horiz-adv-x="610" d="M190 -420l172 1391h-143q-12 0 -12 12v2q0 12 14 12l117 4h27l26 209q14 111 95 170.5t268 59.5h6q10 0 10 -13v-6q0 -12 -14 -12h-6q-168 0 -241 -52t-85 -147l-27 -209h269q12 0 12 -12v-6q0 -12 -14 -12h-269l-172 -1391q0 -12 -14 -12h-8q-11 0 -11 12z" />
<glyph unicode="g" d="M178 -414q0 12 15 13h270q303 0 325 198l37 316q-172 -129 -383 -129q-125 0 -187 53t-62 145q0 16 2 31l71 578q12 106 88 167.5t215 61.5q211 0 353 -131l16 102q2 12 14 13h4q10 0 11 -13l-146 -1194q-14 -111 -94 -170t-268 -59h-271q-10 0 -10 12v6zM225 186 q0 -80 55.5 -126t165.5 -46q201 0 385 136l87 702q-143 137 -353 137q-119 0 -186.5 -55t-79.5 -143l-72 -578q-2 -17 -2 -27z" />
<glyph unicode="h" horiz-adv-x="1056" d="M199 12l172 1407q2 12 14 13h8q12 0 10 -13l-65 -530q174 131 385 131q125 0 186.5 -52.5t61.5 -142.5q0 -18 -2 -34l-95 -779q0 -12 -14 -12h-8q-12 0 -10 12l94 779q2 18 2 28q0 78 -55.5 124t-163.5 46q-207 0 -385 -137l-103 -840q0 -12 -14 -12h-8q-12 0 -10 12z " />
<glyph unicode="i" horiz-adv-x="425" d="M199 12l120 979q0 12 13 13h8q12 0 12 -13l-121 -979q-2 -12 -14 -12h-8q-12 0 -10 12zM346 1217l25 202q0 12 14 13h8q12 0 10 -13l-24 -202q0 -12 -14 -13h-9q-10 1 -10 13z" />
<glyph unicode="j" horiz-adv-x="423" d="M-176 -414q0 12 12 13h6q299 0 324 198l147 1194q0 12 15 13h8q10 0 10 -13l-147 -1194q-14 -111 -94 -170t-265 -59h-6q-10 0 -10 12v6zM340 1217l27 202q0 12 12 13h8q12 0 12 -13l-26 -202q0 -12 -13 -13h-8q-12 1 -12 13z" />
<glyph unicode="k" horiz-adv-x="878" d="M197 12l172 1407q4 12 14 13h8q10 0 10 -13l-102 -837h84l479 411q10 10 23 11h16q11 0 11 -5q0 -3 -5 -8l-491 -422l434 -557q4 -4 1 -8t-7 -4h-13q-14 0 -24 12l-420 539h-92l-66 -539q-4 -12 -14 -12h-8q-10 0 -10 12z" />
<glyph unicode="l" horiz-adv-x="425" d="M197 12l172 1407q4 12 14 13h8q10 0 10 -13l-172 -1407q0 -12 -12 -12h-10q-10 0 -10 12z" />
<glyph unicode="m" horiz-adv-x="1675" d="M199 12l120 979q0 12 13 13h4q12 0 12 -13l-10 -100q168 129 373 129q211 0 243 -141q180 141 387 141q125 0 187.5 -52.5t62.5 -142.5q0 -10 -2 -34l-96 -779q0 -12 -12 -12h-11q-12 0 -10 12l96 779q2 18 3 26q0 78 -54.5 125t-165.5 47q-209 0 -381 -141q2 -25 0 -57 l-96 -779q-2 -12 -12 -12h-10q-12 0 -11 12l95 762q4 33 4 43q0 78 -54.5 125t-164.5 47q-203 0 -375 -137l-103 -840q0 -12 -12 -12h-10q-12 0 -10 12z" />
<glyph unicode="n" horiz-adv-x="1056" d="M199 12l120 979q0 12 13 13h4q12 0 12 -13l-10 -102q174 131 385 131q125 0 187.5 -52.5t62.5 -142.5q0 -16 -2 -34l-97 -779q-2 -12 -14 -12h-8q-12 0 -10 12l96 779q2 18 2 26q0 78 -54.5 125t-164.5 47q-209 0 -387 -137l-103 -840q-2 -12 -14 -12h-8q-12 0 -10 12z " />
<glyph unicode="o" horiz-adv-x="1019" d="M193 176q0 20 2 37l71 578q14 111 96 170t271 59q311 0 311 -193q0 -14 -2 -36l-72 -578q-14 -111 -96 -170t-270 -59q-311 -1 -311 192zM225 182q0 -168 283 -168q305 0 330 199l71 578q2 18 2 30q0 168 -282 168q-305 0 -330 -198l-72 -578q-2 -17 -2 -31z" />
<glyph unicode="p" d="M145 -420l172 1411q0 12 15 13h4q10 0 10 -13l-10 -102q180 131 387 131q123 0 185.5 -52.5t62.5 -142.5q0 -14 -2 -34l-72 -578q-29 -229 -301 -229q-209 0 -354 129l-64 -533q-2 -12 -14 -12h-8q-13 0 -11 12zM248 150q141 -135 352 -136q119 0 185.5 54.5t78.5 144.5 l72 578q2 18 2 28q0 78 -55.5 124t-163.5 46q-213 0 -385 -137z" />
<glyph unicode="q" d="M193 182q0 14 2 31l71 578q12 106 88 167.5t215 61.5q211 0 353 -131l16 102q4 12 14 13h4q10 0 11 -13l-172 -1411q-4 -12 -15 -12h-8q-10 0 -10 12l63 533q-172 -129 -383 -129q-125 0 -187 53t-62 145zM225 186q0 -80 55.5 -126t165.5 -46q201 0 385 136l87 702 q-143 137 -353 137q-119 0 -186.5 -55t-79.5 -143l-72 -578q-2 -19 -2 -27z" />
<glyph unicode="r" horiz-adv-x="659" d="M199 12l120 979q4 12 13 13h4q12 0 12 -13l-12 -127q209 154 385 154q12 0 12 -12v-13q0 -8 -16 -8q-98 0 -208 -51t-177 -103l-101 -819q0 -12 -14 -12h-8q-12 0 -10 12z" />
<glyph unicode="s" horiz-adv-x="942" d="M164 162v18l2 13l6 55q0 10 14 10h11q10 0 8 -10l-6 -53q-2 -16 -2 -27q0 -154 282 -154q154 0 237 47.5t93 124.5l14 121v4q0 4 1 11.5t1 13.5q0 82 -127 119l-321 96q-53 16 -95 57t-42 97q0 14 2 28l12 88q29 199 348 199q150 0 225.5 -48t75.5 -124q0 -20 -2 -41 l-8 -62q0 -10 -12 -10h-11q-10 0 -10 10l8 60q2 18 2 41q0 61 -65.5 103t-206.5 42q-150 0 -226.5 -46t-84.5 -124l-11 -86q-2 -16 -2 -28q0 -45 34 -79t87 -48l322 -95q141 -41 141 -145l-2 -31l-14 -125q-10 -90 -102.5 -145t-264.5 -55q-154 0 -232.5 49t-78.5 129z" />
<glyph unicode="t" horiz-adv-x="681" d="M190 983v2q0 12 15 12l141 4h2l29 234q0 12 14 12h8q10 0 11 -12l-29 -234h268q10 0 10 -12v-8q0 -10 -14 -10h-268l-90 -742q-2 -18 -2 -32q0 -166 278 -166h27q10 0 10 -13v-6q-2 -12 -14 -12h-27q-307 0 -307 190q0 20 2 39l90 742h-143q-11 0 -11 12z" />
<glyph unicode="u" d="M205 178q0 14 2 35l96 778q4 12 14 13h9q12 0 10 -13l-96 -778q-2 -16 -2 -27q0 -80 54 -126t167 -46q197 0 372 136l103 841q0 12 14 13h8q12 0 11 -13l-121 -979q0 -12 -10 -12h-7q-12 0 -12 12l8 101q-162 -129 -370 -129q-125 0 -187.5 52t-62.5 142z" />
<glyph unicode="v" horiz-adv-x="811" d="M172 989q0 14 8 15h13q8 0 12 -13l192 -862l15 -74l6 15q4 12 11 29.5t13 29.5l404 862q6 12 16 13h10q12 0 9 -13l-457 -979q-6 -12 -16 -12h-9q-10 0 -12 12z" />
<glyph unicode="w" horiz-adv-x="1236" d="M170 991q0 12 10 13h13q8 0 12 -13l127 -862l8 -74q18 55 27 74l344 862q6 12 16 13h25q10 0 12 -13l127 -862l10 -70q18 57 25 70l344 862q6 12 16 13h12q8 0 9 -6q0 -3 -2 -7l-392 -979q-6 -12 -16 -12h-8q-8 0 -12 12l-132 869q-10 72 -10 90l-35 -92l-350 -867 q-6 -12 -16 -12h-8q-10 0 -13 12z" />
<glyph unicode="x" horiz-adv-x="929" d="M100 12l406 498l-277 481q-6 12 9 13h14q8 0 16 -13l264 -454l361 454q8 12 20 13h19q8 0 8 -4q0 -3 -6 -9l-387 -483l282 -492q8 -16 -6 -16h-12q-10 0 -18 12l-271 469l-379 -469q-8 -12 -22 -12h-15q-9 0 -9 5q0 3 3 7z" />
<glyph unicode="y" horiz-adv-x="811" d="M172 991q-1 3 -1 6q0 7 9 7h13q8 0 12 -13l192 -862l17 -76q16 43 30 76l402 862q6 12 16 13h10q10 0 10 -7q0 -3 -1 -6l-656 -1411q-6 -12 -16 -12h-12q-12 0 -7 12l199 426z" />
<glyph unicode="z" horiz-adv-x="942" d="M137 12v6q0 2 10 19l719 936h-577q-10 0 -10 12v6q0 12 14 13h608q10 0 10 -11v-6l-10 -18l-721 -938h623q10 0 10 -13v-6q0 -12 -14 -12h-652q-10 0 -10 12z" />
<glyph unicode="{" horiz-adv-x="913" d="M182 506v6q0 12 13 12h4q276 0 301 199l61 498q14 111 93 170t268 59h6q10 0 10 -12v-6q0 -12 -12 -13h-6q-168 0 -241 -52t-85 -146l-62 -498q-25 -182 -227 -215q176 -31 176 -180q0 -6 -6 -62l-57 -469q-4 -20 -4 -43q0 -170 280 -170h6q8 0 9 -12v-6q0 -12 -13 -12 h-6q-309 0 -309 192q0 29 4 53l57 467q6 55 7 62q0 166 -254 166h-2q-11 0 -11 12z" />
<glyph unicode="|" horiz-adv-x="475" d="M250 -420v1839q0 12 12 13h8q12 0 13 -13v-1839q0 -12 -13 -12h-8q-12 0 -12 12z" />
<glyph unicode="}" horiz-adv-x="913" d="M92 -428q0 12 14 12h7q168 0 239.5 52.5t83.5 146.5l64 512q20 180 227 213q-176 31 -176 180q0 29 4 53l57 463q4 29 4 47q0 168 -278 168h-6q-10 0 -10 13v6q0 12 12 12h6q309 0 309 -193q0 -16 -4 -53l-57 -465q-4 -25 -4 -49q0 -166 254 -166h2q10 0 10 -12v-8 q0 -10 -14 -10h-2q-276 0 -302 -199l-63 -512q-14 -111 -94 -170t-266 -59h-7q-10 0 -10 12v6z" />
<glyph unicode="~" horiz-adv-x="964" d="M252 475v21q0 94 28.5 132t86.5 38q37 0 102 -41l162 -103q45 -29 82 -28q47 0 62.5 27.5t15.5 111.5v20q0 12 12 13h8q12 0 12 -13v-20q0 -96 -26.5 -133t-83.5 -37q-41 0 -111 43l-162 102q-47 27 -73 27q-49 0 -65.5 -27.5t-16.5 -111.5v-21q0 -12 -13 -12h-8 q-12 0 -12 12z" />
<glyph unicode="&#xa1;" horiz-adv-x="479" d="M174 -377l70 582l65 489q2 12 15 13h4q10 0 10 -13l-57 -489l-70 -582q-2 -12 -14 -12h-13q-10 0 -10 12zM324 838l20 153q4 12 14 13h7q16 0 12 -13l-21 -153q-4 -12 -14 -13h-8q-10 1 -10 13z" />
<glyph unicode="&#xa2;" horiz-adv-x="1056" d="M240 367q0 25 2 39l71 577q14 109 90 168t256 61l21 168q4 12 14 13h8q10 0 11 -13l-21 -168q287 -6 287 -190q0 -27 -2 -39l-6 -43q0 -12 -13 -12h-8q-12 0 -12 12l6 43q2 12 2 33q0 166 -276 166q-168 0 -240 -52.5t-84 -146.5l-72 -577q-2 -12 -2 -35q0 -164 277 -164 q168 0 238.5 52t84.5 147l9 59q0 12 14 12h8q10 0 10 -12l-8 -59q-16 -109 -90 -168.5t-250 -61.5l-20 -164q-4 -12 -13 -12h-8q-12 0 -12 12l20 164q-292 3 -292 191z" />
<glyph unicode="&#xa3;" horiz-adv-x="1310" d="M197 12v6q0 12 14 13h125l82 661h-125q-10 0 -10 13v6q0 12 14 12h125l53 438q10 86 39 135.5t114 81t236 31.5q190 0 262 -47t72 -145q0 -14 -4 -56l-6 -49q-4 -12 -14 -12h-9q-10 0 -10 14l6 47q4 37 4 53q0 84 -65.5 124t-239.5 40q-104 0 -171.5 -14t-104.5 -45 t-53.5 -66.5t-22.5 -91.5l-53 -438h393q10 0 10 -12v-6q0 -12 -14 -13h-393l-82 -661h479q272 0 272 280v6q0 12 13 13h6q12 0 12 -13v-6q0 -311 -307 -311h-637q-10 0 -10 12z" />
<glyph unicode="&#xa5;" horiz-adv-x="1009" d="M209 608v6q0 12 12 13h326l-84 196h-215q-12 0 -12 13v6q0 12 14 12h199l-228 526q-4 12 10 13h11q8 0 14 -13l305 -704q10 -20 19 -49h2q2 2 13 21.5t17 27.5l475 704q6 12 19 13h12q16 0 6 -13l-358 -526h201q12 0 12 -12v-6q0 -12 -14 -13h-220l-133 -196h326 q12 0 12 -13v-6q0 -12 -14 -12h-342l-72 -584q0 -12 -12 -12h-8q-12 0 -13 12l72 584h-342q-10 0 -10 12z" />
<glyph unicode="&#xa7;" horiz-adv-x="1118" d="M190 -254q0 20 5 53l2 17q2 12 14 12h8q12 0 10 -14l-2 -15q-4 -29 -4 -47q0 -168 283 -168q305 0 330 199l20 164q4 33 4 47q0 98 -151 141l-279 82q-150 47 -149 172q0 29 2 43l28 232q4 12 15 12h8q10 0 10 -12l-27 -218q-4 -33 -4 -53q0 -102 129 -143l279 -82 q172 -49 172 -168q0 -20 -4 -53l-21 -164q-14 -111 -96 -170t-270 -59q-312 -1 -312 192zM340 963q0 20 4 53l21 164q14 111 96 170t270 59q311 0 311 -192q0 -20 -4 -54l-2 -16q-2 -12 -14 -12h-8q-12 0 -10 14l2 14q4 29 4 47q0 168 -283 168q-305 0 -330 -198l-20 -164 q-4 -33 -4 -47q0 -98 151 -142l279 -82q150 -47 149 -172q0 -29 -2 -43l-28 -231q-4 -12 -15 -12h-8q-10 0 -10 12l26 217q4 33 5 53q0 102 -129 144l-279 82q-172 49 -172 168z" />
<glyph unicode="&#xa8;" horiz-adv-x="563" d="M332 1217l24 204q4 12 15 13h8q10 0 10 -13l-24 -204q-4 -12 -15 -13h-8q-10 1 -10 13zM494 1217l24 204q2 12 14 13h9q10 0 10 -13l-25 -204q-2 -12 -14 -13h-8q-10 1 -10 13z" />
<glyph unicode="&#xa9;" horiz-adv-x="1400" d="M248 252v889q0 131 102.5 199.5t376.5 68.5t376.5 -68.5t102.5 -199.5v-889q0 -131 -102.5 -199.5t-376.5 -68.5t-376.5 68.5t-102.5 199.5zM281 252q0 -55 19 -95t67.5 -74t138.5 -51.5t221 -17.5t221 17.5t138.5 51.5t68 74t19.5 95v889q0 55 -19.5 95t-68 73.5 t-138.5 51t-221 17.5t-221 -17.5t-138.5 -51t-67.5 -73.5t-19 -95v-889zM477 487v416q0 115 49 172.5t201 57.5t201 -57.5t49 -172.5v-43q0 -12 -12 -12h-9q-12 0 -12 12v43q0 100 -41 149.5t-176 49.5q-137 0 -177 -49t-40 -150v-416q0 -100 40 -149t177 -49q135 0 176 49 t41 149v60q0 12 12 12h9q12 0 12 -12v-60q0 -115 -49 -172t-201 -57t-201 57t-49 172z" />
<glyph unicode="&#xaa;" horiz-adv-x="710" d="M260 903q0 2 4 39l41 330q18 137 182 137q123 0 211 -78l11 53q2 14 12 15h4q8 0 8 -10l-71 -586q0 -6 -11 -6h-8q-6 0 -6 6l4 61q-111 -78 -231 -78q-150 0 -150 117zM289 907q0 -94 123 -94q129 0 233 84l49 401q-90 84 -211 84q-137 0 -151 -110l-39 -316q0 -8 -1 -18 t-2 -16.5t-1 -14.5z" />
<glyph unicode="&#xab;" horiz-adv-x="1234" d="M246 502v2q0 8 14 18l418 295q10 4 12 -4l-2 -16q0 -8 -14 -19l-395 -276l327 -273q10 -8 10 -16l-2 -18q0 -4 -4 -6.5t-8 1.5l-348 295q-8 9 -8 17zM625 502v2q0 8 14 18l418 295q10 4 12 -4l-2 -16q0 -8 -14 -19l-396 -276l328 -273q10 -8 10 -16l-2 -18q0 -4 -5 -6.5 t-7 1.5l-348 295q-8 9 -8 17z" />
<glyph unicode="&#xac;" horiz-adv-x="737" d="M160 633q0 86 60.5 147.5t146.5 61.5t147 -61.5t61 -147.5t-61 -146.5t-147 -60.5t-146.5 60.5t-60.5 146.5z" />
<glyph unicode="&#xad;" horiz-adv-x="968" d="M266 590v6q0 12 13 12h550q12 0 13 -12v-6q0 -12 -13 -12h-550q-13 0 -13 12z" />
<glyph unicode="&#xae;" horiz-adv-x="1232" d="M319 821v355q0 43 15.5 78.5t55.5 73.5t123 59.5t204 21.5q393 0 393 -233v-355q0 -233 -393 -233q-121 0 -204 21.5t-123 59.5t-55.5 73.5t-15.5 78.5zM352 819q0 -80 80 -140.5t285 -60.5q207 0 284.5 59.5t77.5 141.5v359q0 82 -77.5 141t-284.5 59q-205 0 -285 -60.5 t-80 -139.5v-359zM547 729v516q0 10 10 10h174q98 0 141 -38.5t43 -94.5v-57q0 -106 -120 -127l92 -209q4 -8 -8 -8h-17q-8 0 -12 8l-88 203h-182v-203q0 -8 -9 -8h-16q-8 0 -8 8zM580 961h151q80 0 116 31.5t36 76.5v49q0 45 -36 77t-116 32h-151v-266z" />
<glyph unicode="&#xaf;" horiz-adv-x="870" d="M303 1280v6q0 12 14 12h549q12 0 13 -10v-8q0 -12 -15 -12h-549q-12 0 -12 12z" />
<glyph unicode="&#xb0;" horiz-adv-x="776" d="M272 1016q0 20 4 41l23 184q10 80 68.5 122t193.5 42q219 0 219 -143q0 -29 -2 -41l-22 -181q-10 -80 -68.5 -121.5t-191.5 -41.5q-224 0 -224 139zM305 1018q0 -113 195 -113q205 0 223 135l22 181q2 10 3 34q0 121 -191 121q-211 0 -225 -135l-23 -186q-4 -29 -4 -37z " />
<glyph unicode="&#xb1;" horiz-adv-x="1218" d="M231 295v6q0 12 13 12h800q12 0 13 -12v-6q0 -12 -13 -12h-800q-13 0 -13 12zM231 774v6q0 12 13 13h383v301q0 12 12 12h6q12 0 12 -12v-301h387q12 0 13 -13v-6q0 -12 -13 -12h-387v-305q0 -12 -12 -13h-6q-12 0 -12 13v305h-383q-13 0 -13 12z" />
<glyph unicode="&#xb4;" horiz-adv-x="708" d="M395 1186l201 256q8 8 14 8h15q16 0 4 -12l-203 -256q-6 -6 -12 -6h-15q-10 0 -4 10z" />
<glyph unicode="&#xb5;" d="M131 -420l174 1411q2 12 14 13h9q12 0 10 -13l-92 -741q-6 -43 -6 -64q0 -80 54 -126t167 -46q197 0 373 136l102 841q0 12 14 13h8q12 0 11 -13l-121 -979q0 -12 -12 -12h-5q-12 0 -12 12l8 101q-162 -129 -370 -129q-184 0 -234 112l-59 -516q0 -12 -12 -12h-9 q-12 0 -12 12z" />
<glyph unicode="&#xb6;" horiz-adv-x="1234" d="M319 805q0 31 5 59l32 260q16 129 110.5 199t317.5 70h150q10 0 10 -11l-221 -1802q-2 -12 -14 -12h-9q-10 0 -10 12l123 998h-129q-365 0 -365 227zM926 -418l221 1798q4 12 14 13h8q10 0 11 -13l-222 -1800q-2 -12 -14 -12h-8q-12 0 -10 14z" />
<glyph unicode="&#xb7;" horiz-adv-x="401" d="M238 444l18 154q0 12 12 12h11q10 0 10 -12l-19 -154q0 -12 -12 -12h-8q-14 0 -12 12z" />
<glyph unicode="&#xb8;" horiz-adv-x="243" d="M-92 -412q0 12 14 13h248q53 0 98 32.5t45 114.5q0 55 -34.5 80t-77.5 25h-109q-18 0 -12 16l55 133q6 10 15 8l8 -2q8 -2 4 -16l-43 -107h86q55 0 99 -32.5t44 -100.5q0 -100 -56 -142t-126 -42h-248q-10 0 -10 12v8z" />
<glyph unicode="&#xba;" horiz-adv-x="708" d="M258 905q0 12 6 56l39 309q16 139 223 139q193 0 193 -119q0 -14 -4 -39l-41 -325q-8 -68 -58.5 -104t-164.5 -36q-193 0 -193 119zM287 909q0 -98 166 -98q178 0 192 117l41 323q4 25 4 37q0 96 -166 96q-178 0 -192 -114l-39 -307q-6 -50 -6 -54z" />
<glyph unicode="&#xbb;" horiz-adv-x="1234" d="M248 207l2 16q0 8 14 19l395 276l-327 273q-10 8 -10 16l2 18q0 4 4 6.5t8 -2.5l348 -294q8 -8 8 -17v-2q0 -8 -14 -18l-418 -295q-10 -4 -12 4zM627 207l2 16q0 8 14 19l395 276l-327 273q-10 8 -11 16l2 18q0 4 5.5 6.5t7.5 -2.5l348 -294q8 -8 8 -17v-2q0 -8 -14 -18 l-418 -295q-10 -4 -12 4z" />
<glyph unicode="&#xbf;" horiz-adv-x="1165" d="M176 -182q0 31 2 45l27 207q20 145 178 221l109 53q123 59 137 172l22 178q4 12 15 13h8q10 0 10 -13l-22 -178q-16 -135 -166 -205l-109 -53q-133 -63 -149 -188l-27 -207q-2 -14 -2 -41q0 -94 72.5 -145.5t255.5 -51.5q199 0 282.5 62.5t98.5 175.5l14 110q2 12 14 13 h8q10 0 11 -13l-15 -110q-16 -131 -107 -200t-311 -69q-195 0 -275.5 59t-80.5 165zM670 838l18 153q0 12 14 13h9q10 0 10 -13l-19 -151q0 -14 -14 -15h-8q-10 1 -10 13z" />
<glyph unicode="&#xc0;" horiz-adv-x="1030" d="M63 12l599 1368q6 12 18 13h10q10 0 15 -13l262 -1368q4 -12 -9 -12h-10q-10 0 -14 12l-90 463h-545l-203 -463q-6 -12 -14 -12h-8q-15 0 -11 12zM313 506h527l-133 694l-29 148q-18 -51 -57 -142zM504 1786q-6 12 8 12h12q10 0 15 -8l135 -256q6 -10 -4 -10h-11 q-12 0 -14 6z" />
<glyph unicode="&#xc1;" horiz-adv-x="1030" d="M63 12l599 1368q6 12 18 13h10q10 0 15 -13l262 -1368q4 -12 -9 -12h-10q-10 0 -14 12l-90 463h-545l-203 -463q-6 -12 -14 -12h-8q-15 0 -11 12zM313 506h527l-133 694l-29 148q-18 -51 -57 -142zM670 1534l200 256q8 8 15 8h14q16 0 4 -12l-203 -256q-6 -6 -12 -6h-14 q-10 0 -4 10z" />
<glyph unicode="&#xc2;" horiz-adv-x="1030" d="M63 12l599 1368q6 12 18 13h10q10 0 15 -13l262 -1368q4 -12 -9 -12h-10q-10 0 -14 12l-90 463h-545l-203 -463q-6 -12 -14 -12h-8q-15 0 -11 12zM313 506h527l-133 694l-29 148q-18 -51 -57 -142zM496 1536l194 250q8 12 21 12h14q10 0 16 -10l136 -252q8 -12 -7 -12h-8 q-10 0 -18 12l-127 233l-187 -233q-10 -12 -16 -12h-12q-14 0 -6 12z" />
<glyph unicode="&#xc3;" horiz-adv-x="1030" d="M63 12l599 1368q6 12 18 13h10q10 0 15 -13l262 -1368q4 -12 -9 -12h-10q-10 0 -14 12l-90 463h-545l-203 -463q-6 -12 -14 -12h-8q-15 0 -11 12zM313 506h527l-133 694l-29 148q-18 -51 -57 -142zM438 1577l2 20q12 96 42 133t87 37q51 0 95 -49l77 -88q31 -35 66 -35 q47 0 66.5 28t29.5 112l2 20q0 12 15 12h8q10 0 10 -12l-2 -20q-12 -96 -42 -133t-87 -37q-49 0 -94 49l-78 86q-37 37 -66 37q-47 0 -67.5 -30t-28.5 -110l-2 -20q0 -12 -14 -12h-8q-11 0 -11 12z" />
<glyph unicode="&#xc4;" horiz-adv-x="1030" d="M63 12l599 1368q6 12 18 13h10q10 0 15 -13l262 -1368q4 -12 -9 -12h-10q-10 0 -14 12l-90 463h-545l-203 -463q-6 -12 -14 -12h-8q-15 0 -11 12zM313 506h527l-133 694l-29 148q-18 -51 -57 -142zM594 1556l24 205q4 12 15 13h8q10 0 10 -13l-24 -205q-4 -12 -15 -12h-8 q-10 0 -10 12zM756 1556l24 205q2 12 15 13h8q10 0 10 -13l-25 -205q-2 -12 -14 -12h-8q-10 0 -10 12z" />
<glyph unicode="&#xc5;" horiz-adv-x="1030" d="M63 12l599 1368q6 12 18 13h10q10 0 15 -13l262 -1368q4 -12 -9 -12h-10q-10 0 -14 12l-90 463h-545l-203 -463q-6 -12 -14 -12h-8q-15 0 -11 12zM313 506h527l-133 694l-29 148q-18 -51 -57 -142zM524 1608q0 27 2 43l2 24q14 125 193 125q78 0 117 -34.5t39 -88.5 q0 -25 -3 -43l-2 -22q-16 -121 -192 -121q-78 0 -117 33t-39 84zM557 1610q0 -88 127 -88q141 0 156 90l2 22q2 20 2 41q0 94 -127 94q-145 0 -156 -94l-2 -24q-2 -16 -2 -41z" />
<glyph unicode="&#xc6;" horiz-adv-x="1724" d="M66 12l952 1368q8 12 26 13h693q10 0 10 -13v-6q0 -12 -14 -12h-678l-74 -608h639q10 0 10 -13v-6q0 -12 -14 -12h-639l-86 -692h704q10 0 11 -13v-6q0 -12 -13 -12h-714q-8 0 -11.5 1t-7.5 4t-4 11l57 459h-487l-324 -463q-8 -12 -18 -12h-8q-18 0 -10 12zM449 506h469 l100 819q-10 -16 -80 -119z" />
<glyph unicode="&#xc7;" horiz-adv-x="1099" d="M223 205q0 14 4 47l109 889q14 129 108.5 198.5t313.5 69.5q197 0 278.5 -58.5t81.5 -166.5q0 -29 -2 -43l-14 -111q0 -12 -12 -12h-9q-12 0 -12 12l14 111q2 12 2 39q0 199 -331 198q-199 0 -285 -62.5t-100 -174.5l-109 -889q-2 -14 -2 -41q0 -94 74 -145.5t254 -51.5 q201 0 288 62.5t101 175.5l16 133q0 12 13 12h8q12 0 12 -12l-16 -133q-14 -129 -109.5 -198.5t-314.5 -69.5h-31l-39 -99h86q55 0 99 -32.5t44 -100.5q0 -100 -56 -142t-126 -42h-248q-10 0 -10 12v8q0 12 14 13h248q53 0 98.5 32.5t45.5 114.5q0 55 -35 80t-78 25h-109 q-18 0 -12 16l47 117q-299 16 -299 219z" />
<glyph unicode="&#xc8;" horiz-adv-x="1093" d="M221 12l168 1368q4 12 14 13h699q10 0 10 -13v-6q0 -12 -14 -12h-678l-74 -608h639q10 0 10 -13v-6q0 -12 -14 -12h-639l-86 -692h705q10 0 10 -13v-6q0 -12 -13 -12h-727q-10 0 -10 12zM594 1786q-6 12 8 12h12q10 0 15 -8l135 -256q6 -10 -4 -10h-10q-12 0 -15 6z" />
<glyph unicode="&#xc9;" horiz-adv-x="1093" d="M221 12l168 1368q4 12 14 13h699q10 0 10 -13v-6q0 -12 -14 -12h-678l-74 -608h639q10 0 10 -13v-6q0 -12 -14 -12h-639l-86 -692h705q10 0 10 -13v-6q0 -12 -13 -12h-727q-10 0 -10 12zM731 1534l201 256q8 8 14 8h15q16 0 4 -12l-203 -256q-6 -6 -12 -6h-15 q-10 0 -4 10z" />
<glyph unicode="&#xca;" horiz-adv-x="1093" d="M221 12l168 1368q4 12 14 13h699q10 0 10 -13v-6q0 -12 -14 -12h-678l-74 -608h639q10 0 10 -13v-6q0 -12 -14 -12h-639l-86 -692h705q10 0 10 -13v-6q0 -12 -13 -12h-727q-10 0 -10 12zM569 1536l195 250q8 12 20 12h15q10 0 16 -10l135 -252q8 -12 -6 -12h-8 q-10 0 -18 12l-127 233l-187 -233q-10 -12 -16 -12h-13q-14 0 -6 12z" />
<glyph unicode="&#xcb;" horiz-adv-x="1093" d="M221 12l168 1368q4 12 14 13h699q10 0 10 -13v-6q0 -12 -14 -12h-678l-74 -608h639q10 0 10 -13v-6q0 -12 -14 -12h-639l-86 -692h705q10 0 10 -13v-6q0 -12 -13 -12h-727q-10 0 -10 12zM682 1556l25 205q2 12 14 13h8q10 0 10 -13l-24 -205q-2 -12 -15 -12h-8 q-10 0 -10 12zM844 1556l24 205q4 12 15 13h8q10 0 10 -13l-24 -205q-4 -12 -15 -12h-8q-10 0 -10 12z" />
<glyph unicode="&#xcc;" horiz-adv-x="475" d="M221 12l168 1368q4 12 14 13h9q14 0 10 -13l-168 -1368q0 -12 -12 -12h-9q-12 0 -12 12zM258 1786q-6 12 8 12h13q10 0 14 -8l135 -256q6 -10 -4 -10h-10q-12 0 -15 6z" />
<glyph unicode="&#xcd;" horiz-adv-x="475" d="M221 12l168 1368q4 12 14 13h9q14 0 10 -13l-168 -1368q0 -12 -12 -12h-9q-12 0 -12 12zM408 1534l200 256q8 8 15 8h14q16 0 4 -12l-203 -256q-6 -6 -12 -6h-14q-10 0 -4 10z" />
<glyph unicode="&#xce;" horiz-adv-x="475" d="M221 12l168 1368q4 12 14 13h9q14 0 10 -13l-168 -1368q0 -12 -12 -12h-9q-12 0 -12 12zM227 1536l195 250q8 12 20 12h15q10 0 16 -10l135 -252q8 -12 -6 -12h-8q-10 0 -19 12l-126 233l-187 -233q-8 -12 -16 -12h-13q-14 0 -6 12z" />
<glyph unicode="&#xcf;" horiz-adv-x="475" d="M221 12l168 1368q4 12 14 13h9q14 0 10 -13l-168 -1368q0 -12 -12 -12h-9q-12 0 -12 12zM332 1556l24 205q4 12 15 13h8q10 0 10 -13l-24 -205q-4 -12 -15 -12h-8q-10 0 -10 12zM494 1556l24 205q2 12 14 13h9q10 0 10 -13l-25 -205q-2 -12 -14 -12h-8q-10 0 -10 12z" />
<glyph unicode="&#xd0;" horiz-adv-x="1210" d="M119 705v6q0 12 14 12h176l80 657q4 12 12 13h385q367 0 367 -228q0 -27 -2 -41l-104 -856q-14 -129 -111.5 -198.5t-319.5 -69.5h-383q-12 0 -12 12l84 680h-176q-14 1 -10 13zM256 31h362q367 0 396 237l104 856q2 12 2 37q0 201 -338 201h-362l-80 -639h344 q10 0 10 -12v-6q-2 -12 -14 -13h-344z" />
<glyph unicode="&#xd1;" horiz-adv-x="1232" d="M221 12l168 1368q4 12 14 13h3q8 0 10 -7l526 -1208l45 -104l160 1306q4 12 14 13h6q12 0 11 -13l-168 -1368q0 -12 -13 -12h-4q-10 0 -12 6l-524 1208q-2 6 -43 107l-162 -1309q0 -12 -12 -12h-7q-12 0 -12 12zM561 1577l2 20q12 96 42 133t87 37q51 0 94 -49l78 -88 q31 -35 66 -35q47 0 66.5 28t29.5 112l2 20q0 12 14 12h9q10 0 10 -12l-2 -20q-12 -96 -42 -133t-87 -37q-49 0 -94 49l-78 86q-37 37 -66 37q-47 0 -67.5 -30t-28.5 -110l-2 -20q0 -12 -14 -12h-9q-10 0 -10 12z" />
<glyph unicode="&#xd2;" horiz-adv-x="1185" d="M223 207q0 12 4 45l109 889q14 129 110.5 198.5t317.5 69.5q367 0 366 -227q0 -27 -2 -41l-108 -889q-14 -129 -111.5 -198.5t-318.5 -69.5q-367 0 -367 223zM258 215q0 -201 334 -201q367 0 395 238l109 889q2 12 2 37q0 201 -338 200q-362 0 -391 -237l-109 -889 q-2 -12 -2 -37zM623 1786q-6 12 8 12h12q10 0 14 -8l136 -256q6 -10 -5 -10h-10q-12 0 -14 6z" />
<glyph unicode="&#xd3;" horiz-adv-x="1185" d="M223 207q0 12 4 45l109 889q14 129 110.5 198.5t317.5 69.5q367 0 366 -227q0 -27 -2 -41l-108 -889q-14 -129 -111.5 -198.5t-318.5 -69.5q-367 0 -367 223zM258 215q0 -201 334 -201q367 0 395 238l109 889q2 12 2 37q0 201 -338 200q-362 0 -391 -237l-109 -889 q-2 -12 -2 -37zM760 1534l201 256q8 8 14 8h14q16 0 4 -12l-202 -256q-6 -6 -13 -6h-14q-10 0 -4 10z" />
<glyph unicode="&#xd4;" horiz-adv-x="1185" d="M223 207q0 12 4 45l109 889q14 129 110.5 198.5t317.5 69.5q367 0 366 -227q0 -27 -2 -41l-108 -889q-14 -129 -111.5 -198.5t-318.5 -69.5q-367 0 -367 223zM258 215q0 -201 334 -201q367 0 395 238l109 889q2 12 2 37q0 201 -338 200q-362 0 -391 -237l-109 -889 q-2 -12 -2 -37zM578 1536l194 250q8 12 21 12h14q10 0 16 -10l135 -252q8 -12 -6 -12h-8q-10 0 -18 12l-127 233l-187 -233q-10 -12 -16 -12h-12q-14 0 -6 12z" />
<glyph unicode="&#xd5;" horiz-adv-x="1185" d="M223 207q0 12 4 45l109 889q14 129 110.5 198.5t317.5 69.5q367 0 366 -227q0 -27 -2 -41l-108 -889q-14 -129 -111.5 -198.5t-318.5 -69.5q-367 0 -367 223zM258 215q0 -201 334 -201q367 0 395 238l109 889q2 12 2 37q0 201 -338 200q-362 0 -391 -237l-109 -889 q-2 -12 -2 -37zM541 1577l2 20q12 96 41.5 133t87.5 37q51 0 94 -49l78 -88q31 -35 65 -35q47 0 66.5 28t30.5 112l2 20q0 12 14 12h8q10 0 10 -12l-2 -20q-12 -96 -41.5 -133t-87.5 -37q-49 0 -94 49l-78 86q-37 37 -65 37q-47 0 -67.5 -30t-29.5 -110l-2 -20 q0 -12 -14 -12h-8q-10 0 -10 12z" />
<glyph unicode="&#xd6;" horiz-adv-x="1185" d="M223 207q0 12 4 45l109 889q14 129 110.5 198.5t317.5 69.5q367 0 366 -227q0 -27 -2 -41l-108 -889q-14 -129 -111.5 -198.5t-318.5 -69.5q-367 0 -367 223zM258 215q0 -201 334 -201q367 0 395 238l109 889q2 12 2 37q0 201 -338 200q-362 0 -391 -237l-109 -889 q-2 -12 -2 -37zM680 1556l25 205q4 12 14 13h8q10 0 10 -13l-24 -205q-4 -12 -15 -12h-8q-10 0 -10 12zM842 1556l24 205q2 12 15 13h8q10 0 10 -13l-25 -205q-2 -12 -14 -12h-8q-10 0 -10 12z" />
<glyph unicode="&#xd8;" horiz-adv-x="1185" d="M223 207q0 12 4 45l109 889q14 129 110.5 198.5t317.5 69.5q186 0 276 -57l43 73q8 12 19 13h12q14 0 6 -13l-55 -92q66 -53 65 -151q0 -27 -2 -41l-108 -889q-14 -129 -111.5 -198.5t-318.5 -69.5q-186 0 -277 55l-39 -68q-10 -16 -18 -16h-14q-14 0 -4 16l49 86 q-64 56 -64 150zM258 215q0 -80 47 -127l719 1235q-84 55 -264 55q-362 0 -391 -237l-109 -889q-2 -12 -2 -37zM330 68q78 -53 262 -54q367 0 395 238l109 889q2 12 2 37q0 78 -49 125z" />
<glyph unicode="&#xd9;" horiz-adv-x="1210" d="M236 211q0 27 2 41l139 1128q0 12 12 13h8q12 0 13 -13l-140 -1128q-2 -12 -2 -37q0 -201 336 -201q365 0 393 238l140 1128q0 12 12 13h8q12 0 12 -13l-139 -1128q-14 -129 -111.5 -198.5t-318.5 -69.5q-364 0 -364 227zM621 1786q-6 12 8 12h12q10 0 14 -8l136 -256 q6 -10 -5 -10h-10q-10 0 -14 6z" />
<glyph unicode="&#xda;" horiz-adv-x="1210" d="M236 211q0 27 2 41l139 1128q0 12 12 13h8q12 0 13 -13l-140 -1128q-2 -12 -2 -37q0 -201 336 -201q365 0 393 238l140 1128q0 12 12 13h8q12 0 12 -13l-139 -1128q-14 -129 -111.5 -198.5t-318.5 -69.5q-364 0 -364 227zM764 1534l201 256q8 8 14 8h14q16 0 4 -12 l-202 -256q-6 -6 -13 -6h-14q-10 0 -4 10z" />
<glyph unicode="&#xdb;" horiz-adv-x="1210" d="M236 211q0 27 2 41l139 1128q0 12 12 13h8q12 0 13 -13l-140 -1128q-2 -12 -2 -37q0 -201 336 -201q365 0 393 238l140 1128q0 12 12 13h8q12 0 12 -13l-139 -1128q-14 -129 -111.5 -198.5t-318.5 -69.5q-364 0 -364 227zM596 1536l195 250q8 12 20 12h14q10 0 17 -10 l135 -252q8 -12 -6 -12h-8q-10 0 -19 12l-127 233l-186 -233q-8 -12 -17 -12h-12q-14 0 -6 12z" />
<glyph unicode="&#xdc;" horiz-adv-x="1210" d="M236 211q0 27 2 41l139 1128q0 12 12 13h8q12 0 13 -13l-140 -1128q-2 -12 -2 -37q0 -201 336 -201q365 0 393 238l140 1128q0 12 12 13h8q12 0 12 -13l-139 -1128q-14 -129 -111.5 -198.5t-318.5 -69.5q-364 0 -364 227zM686 1556l25 205q2 12 14 13h8q10 0 10 -13 l-24 -205q-2 -12 -14 -12h-9q-10 0 -10 12zM848 1556l24 205q4 12 15 13h8q10 0 10 -13l-24 -205q-4 -12 -15 -12h-8q-10 0 -10 12z" />
<glyph unicode="&#xdd;" horiz-adv-x="1009" d="M221 1380q-4 12 10 13h11q8 0 14 -13l305 -704q14 -27 21 -51q18 33 30 51l475 704q6 12 19 13h12q16 0 6 -13l-530 -782l-72 -586q0 -12 -12 -12h-8q-12 0 -13 12l72 584zM668 1534l200 256q8 8 15 8h14q16 0 4 -12l-203 -256q-6 -6 -12 -6h-14q-10 0 -4 10z" />
<glyph unicode="&#xde;" horiz-adv-x="1136" d="M221 12l168 1368q4 12 14 13h9q12 0 10 -13l-45 -376h362q367 0 367 -228q0 -27 -2 -41l-31 -237q-16 -129 -111.5 -199t-318.5 -70h-362l-27 -217q0 -12 -12 -12h-9q-12 0 -12 12zM285 260h362q201 0 290 62.5t103 175.5l31 237q2 12 2 37q0 201 -338 201h-362z" />
<glyph unicode="&#xdf;" horiz-adv-x="1167" d="M190 979v6q0 12 15 12l141 4h2l27 220q29 229 375 229q319 0 319 -199q0 -10 -4 -51l-6 -57q-14 -133 -191 -166l-127 -25q-111 -20 -145 -71q-14 -23 -18 -54l-3 -14q-2 -16 -2 -27q0 -41 28 -72.5t53.5 -44t50.5 -20.5l237 -82q172 -59 172 -166q0 -27 -2 -39l-18 -149 q-14 -113 -87 -171t-259 -58q-162 0 -226.5 47t-64.5 137q0 29 2 45l4 33q4 12 14 12h6q12 0 13 -12l-4 -33q-2 -14 -3 -41q0 -76 57.5 -117t205.5 -41q166 0 231.5 51.5t77.5 147.5l16 133q4 41 4 51q0 88 -143 135q-6 2 -8 3l-238 81q-29 10 -58.5 26.5t-61 55.5t-31.5 84 q0 16 2 31l2 14q6 37 24.5 65t36 43t50 27.5t42.5 14.5l39 8l127 25q150 25 162 135l6 55q4 37 4 47q0 172 -291 172q-313 0 -337 -198l-148 -1209q-2 -12 -14 -12h-8q-12 0 -11 12l117 959h-143q-11 0 -11 8z" />
<glyph unicode="&#xe0;" d="M193 178q0 23 2 35l71 578q12 106 88 167.5t215 61.5q205 0 353 -131l16 102q4 12 12 13h6q10 0 11 -13l-121 -979q0 -12 -15 -12h-4q-10 0 -10 12l8 101q-180 -129 -385 -129q-123 0 -185 52t-62 142zM225 184q0 -78 55.5 -124t163.5 -46q207 0 385 136l89 702 q-143 137 -353 137q-119 0 -186.5 -55t-79.5 -143l-72 -578q-2 -11 -2 -29zM483 1438q-6 12 9 12h12q10 0 14 -8l135 -256q6 -10 -4 -10h-10q-12 0 -14 6z" />
<glyph unicode="&#xe1;" d="M193 178q0 23 2 35l71 578q12 106 88 167.5t215 61.5q205 0 353 -131l16 102q4 12 12 13h6q10 0 11 -13l-121 -979q0 -12 -15 -12h-4q-10 0 -10 12l8 101q-180 -129 -385 -129q-123 0 -185 52t-62 142zM225 184q0 -78 55.5 -124t163.5 -46q207 0 385 136l89 702 q-143 137 -353 137q-119 0 -186.5 -55t-79.5 -143l-72 -578q-2 -11 -2 -29zM604 1186l201 256q8 8 14 8h15q16 0 4 -12l-203 -256q-6 -6 -12 -6h-15q-10 0 -4 10z" />
<glyph unicode="&#xe2;" d="M193 178q0 23 2 35l71 578q12 106 88 167.5t215 61.5q205 0 353 -131l16 102q4 12 12 13h6q10 0 11 -13l-121 -979q0 -12 -15 -12h-4q-10 0 -10 12l8 101q-180 -129 -385 -129q-123 0 -185 52t-62 142zM225 184q0 -78 55.5 -124t163.5 -46q207 0 385 136l89 702 q-143 137 -353 137q-119 0 -186.5 -55t-79.5 -143l-72 -578q-2 -11 -2 -29zM428 1188l195 250q8 12 20 12h14q10 0 17 -10l135 -252q8 -12 -6 -12h-8q-10 0 -19 12l-127 233l-186 -233q-8 -12 -17 -12h-12q-14 0 -6 12z" />
<glyph unicode="&#xe3;" d="M193 178q0 23 2 35l71 578q12 106 88 167.5t215 61.5q205 0 353 -131l16 102q4 12 12 13h6q10 0 11 -13l-121 -979q0 -12 -15 -12h-4q-10 0 -10 12l8 101q-180 -129 -385 -129q-123 0 -185 52t-62 142zM225 184q0 -78 55.5 -124t163.5 -46q207 0 385 136l89 702 q-143 137 -353 137q-119 0 -186.5 -55t-79.5 -143l-72 -578q-2 -11 -2 -29zM387 1223l2 20q12 96 42 133t87 37q51 0 94 -49l78 -88q31 -35 66 -35q47 0 66.5 27.5t29.5 111.5l2 21q0 12 14 12h9q10 0 10 -12l-2 -21q-12 -96 -42 -133t-87 -37q-47 0 -94 50l-78 86 q-37 37 -66 36q-47 0 -67.5 -29.5t-28.5 -109.5l-2 -20q0 -12 -14 -13h-9q-10 1 -10 13z" />
<glyph unicode="&#xe4;" d="M193 178q0 23 2 35l71 578q12 106 88 167.5t215 61.5q205 0 353 -131l16 102q4 12 12 13h6q10 0 11 -13l-121 -979q0 -12 -15 -12h-4q-10 0 -10 12l8 101q-180 -129 -385 -129q-123 0 -185 52t-62 142zM225 184q0 -78 55.5 -124t163.5 -46q207 0 385 136l89 702 q-143 137 -353 137q-119 0 -186.5 -55t-79.5 -143l-72 -578q-2 -11 -2 -29zM526 1217l25 204q2 12 14 13h8q10 0 11 -13l-25 -204q-2 -12 -14 -13h-8q-11 1 -11 13zM688 1217l25 204q4 12 14 13h8q10 0 10 -13l-24 -204q-4 -12 -14 -13h-9q-10 1 -10 13z" />
<glyph unicode="&#xe5;" d="M193 178q0 23 2 35l71 578q12 106 88 167.5t215 61.5q205 0 353 -131l16 102q4 12 12 13h6q10 0 11 -13l-121 -979q0 -12 -15 -12h-4q-10 0 -10 12l8 101q-180 -129 -385 -129q-123 0 -185 52t-62 142zM225 184q0 -78 55.5 -124t163.5 -46q207 0 385 136l89 702 q-143 137 -353 137q-119 0 -186.5 -55t-79.5 -143l-72 -578q-2 -11 -2 -29zM489 1266q0 27 3 43l2 24q14 125 192 125q78 0 117 -34.5t39 -88.5q0 -25 -2 -43l-2 -22q-16 -121 -193 -121q-78 0 -117 33t-39 84zM522 1268q0 -88 127 -88q141 0 156 90l2 22q2 20 2 41 q0 94 -127 94q-145 0 -156 -94l-2 -24q-2 -16 -2 -41z" />
<glyph unicode="&#xe6;" horiz-adv-x="1619" d="M174 176q0 25 2 37l10 86q12 104 80 165.5t180 61.5h412l31 248q4 33 4 49q0 166 -277 166q-168 0 -238.5 -52t-84.5 -146l-6 -43q-4 -12 -13 -13h-8q-16 0 -12 13l6 43q16 111 94 170t267 59q262 0 299 -137q68 137 337 137q311 0 312 -193q0 -25 -2 -36l-33 -259 q-2 -12 -12 -12h-631l-37 -293q-4 -33 -4 -45q0 -168 283 -168q168 0 241.5 52.5t87.5 146.5l8 59q4 12 15 13h8q14 0 10 -13l-8 -59q-14 -111 -96 -170t-271 -59q-285 0 -309 157q-195 -158 -397 -157q-121 0 -184.5 52t-63.5 140zM207 182q0 -76 54 -122t165 -46 q188 0 389 162l39 320h-412q-96 0 -154.5 -54.5t-68.5 -142.5l-10 -86q-2 -17 -2 -31zM893 551h610l31 240q2 10 2 30q0 168 -283 168q-305 0 -329 -198z" />
<glyph unicode="&#xe7;" horiz-adv-x="958" d="M193 174q0 25 2 39l71 578q14 111 93 170t268 59q305 0 305 -191q0 -27 -2 -38l-6 -43q0 -12 -13 -13h-8q-12 0 -12 13l6 43q2 12 2 32q0 166 -276 166q-168 0 -240 -52t-84 -146l-72 -578q-2 -12 -2 -35q0 -164 277 -164q168 0 238.5 52.5t84.5 146.5l9 59q0 12 14 13h8 q10 0 10 -13l-8 -59q-16 -111 -92 -169t-258 -60l-39 -99h86q55 0 99 -32.5t44 -100.5q0 -100 -56 -142t-126 -42h-248q-10 0 -10 12v8q0 12 14 13h248q53 0 98.5 32.5t45.5 114.5q0 55 -35 80t-78 25h-109q-18 0 -12 16l47 115q-154 2 -219 51t-65 139z" />
<glyph unicode="&#xe8;" horiz-adv-x="995" d="M193 176q0 25 2 37l71 578q14 111 96 170t271 59q311 0 311 -193q0 -25 -2 -36l-33 -259q-4 -12 -12 -12h-631l-39 -307q-2 -10 -2 -31q0 -168 283 -168q168 0 241.5 52.5t88.5 146.5l8 59q2 12 14 13h8q12 0 11 -13l-9 -59q-14 -111 -96 -170t-270 -59q-311 -1 -311 192 zM268 551h611l30 240q2 10 2 30q0 168 -282 168q-305 0 -330 -198zM496 1438q-6 12 8 12h12q10 0 14 -8l136 -256q6 -10 -4 -10h-11q-12 0 -14 6z" />
<glyph unicode="&#xe9;" horiz-adv-x="995" d="M193 176q0 25 2 37l71 578q14 111 96 170t271 59q311 0 311 -193q0 -25 -2 -36l-33 -259q-4 -12 -12 -12h-631l-39 -307q-2 -10 -2 -31q0 -168 283 -168q168 0 241.5 52.5t88.5 146.5l8 59q2 12 14 13h8q12 0 11 -13l-9 -59q-14 -111 -96 -170t-270 -59q-311 -1 -311 192 zM268 551h611l30 240q2 10 2 30q0 168 -282 168q-305 0 -330 -198zM629 1186l200 256q8 8 15 8h14q16 0 4 -12l-203 -256q-6 -6 -12 -6h-14q-10 0 -4 10z" />
<glyph unicode="&#xea;" horiz-adv-x="995" d="M193 176q0 25 2 37l71 578q14 111 96 170t271 59q311 0 311 -193q0 -25 -2 -36l-33 -259q-4 -12 -12 -12h-631l-39 -307q-2 -10 -2 -31q0 -168 283 -168q168 0 241.5 52.5t88.5 146.5l8 59q2 12 14 13h8q12 0 11 -13l-9 -59q-14 -111 -96 -170t-270 -59q-311 -1 -311 192 zM268 551h611l30 240q2 10 2 30q0 168 -282 168q-305 0 -330 -198zM451 1188l194 250q8 12 21 12h14q10 0 16 -10l135 -252q8 -12 -6 -12h-8q-10 0 -18 12l-127 233l-187 -233q-10 -12 -16 -12h-12q-14 0 -6 12z" />
<glyph unicode="&#xeb;" horiz-adv-x="995" d="M193 176q0 25 2 37l71 578q14 111 96 170t271 59q311 0 311 -193q0 -25 -2 -36l-33 -259q-4 -12 -12 -12h-631l-39 -307q-2 -10 -2 -31q0 -168 283 -168q168 0 241.5 52.5t88.5 146.5l8 59q2 12 14 13h8q12 0 11 -13l-9 -59q-14 -111 -96 -170t-270 -59q-311 -1 -311 192 zM268 551h611l30 240q2 10 2 30q0 168 -282 168q-305 0 -330 -198zM545 1217l24 204q4 12 15 13h8q10 0 10 -13l-24 -204q-4 -12 -15 -13h-8q-10 1 -10 13zM707 1217l24 204q2 12 14 13h9q10 0 10 -13l-25 -204q-2 -12 -14 -13h-8q-10 1 -10 13z" />
<glyph unicode="&#xec;" horiz-adv-x="425" d="M190 1438q-6 12 9 12h12q10 0 14 -8l135 -256q6 -10 -4 -10h-10q-10 0 -14 6zM199 12l120 979q0 12 13 13h8q12 0 12 -13l-121 -979q-2 -12 -14 -12h-8q-12 0 -10 12z" />
<glyph unicode="&#xed;" horiz-adv-x="425" d="M199 12l120 979q0 12 13 13h8q12 0 12 -13l-121 -979q-2 -12 -14 -12h-8q-12 0 -10 12zM340 1186l201 256q8 8 14 8h14q16 0 4 -12l-202 -256q-6 -6 -13 -6h-14q-10 0 -4 10z" />
<glyph unicode="&#xee;" horiz-adv-x="425" d="M164 1188l194 250q8 12 21 12h14q10 0 17 -10l135 -252q8 -12 -6 -12h-9q-10 0 -18 12l-127 233l-186 -233q-10 -12 -17 -12h-12q-14 0 -6 12zM199 12l120 979q0 12 13 13h8q12 0 12 -13l-121 -979q-2 -12 -14 -12h-8q-12 0 -10 12z" />
<glyph unicode="&#xef;" horiz-adv-x="425" d="M199 12l120 979q0 12 13 13h8q12 0 12 -13l-121 -979q-2 -12 -14 -12h-8q-12 0 -10 12zM268 1217l25 204q2 12 14 13h8q10 0 11 -13l-25 -204q-2 -12 -14 -13h-8q-11 1 -11 13zM430 1217l25 204q4 12 14 13h8q10 0 10 -13l-24 -204q-4 -12 -14 -13h-9q-10 1 -10 13z" />
<glyph unicode="&#xf0;" horiz-adv-x="1114" d="M193 176q0 25 2 37l69 578q12 106 88 167.5t215 61.5q205 0 353 -131l41 332q0 4 1 15t1 15q0 41 -15 72l-223 -88q-16 -8 -16 6v10q0 10 8 13l217 84q-59 72 -250 71h-170q-10 0 -10 8v11q0 12 14 12h170q217 0 279 -88l125 49q10 4 12 -4l4 -10q4 -10 -10 -15l-117 -47 q14 -31 14 -73q0 -29 -2 -41l-123 -1008q-14 -111 -96 -170t-270 -59q-311 -1 -311 192zM225 182q0 -168 283 -168q305 0 330 199l77 639q-137 137 -352 137q-119 0 -186.5 -55t-79.5 -143l-70 -578q-2 -11 -2 -31z" />
<glyph unicode="&#xf1;" horiz-adv-x="1056" d="M199 12l120 979q0 12 13 13h4q12 0 12 -13l-10 -102q174 131 385 131q125 0 187.5 -52.5t62.5 -142.5q0 -16 -2 -34l-97 -779q-2 -12 -14 -12h-8q-12 0 -10 12l96 779q2 18 2 26q0 78 -54.5 125t-164.5 47q-209 0 -387 -137l-103 -840q-2 -12 -14 -12h-8q-12 0 -10 12z M432 1223l2 20q12 96 42 133t87 37q51 0 94 -49l78 -88q31 -35 66 -35q47 0 66.5 27.5t29.5 111.5l2 21q0 12 14 12h9q10 0 10 -12l-2 -21q-12 -96 -42 -133t-87 -37q-47 0 -94 50l-78 86q-37 37 -66 36q-47 0 -67.5 -29.5t-28.5 -109.5l-2 -20q0 -12 -14 -13h-9 q-10 1 -10 13z" />
<glyph unicode="&#xf2;" horiz-adv-x="1019" d="M193 176q0 20 2 37l71 578q14 111 96 170t271 59q311 0 311 -193q0 -14 -2 -36l-72 -578q-14 -111 -96 -170t-270 -59q-311 -1 -311 192zM225 182q0 -168 283 -168q305 0 330 199l71 578q2 18 2 30q0 168 -282 168q-305 0 -330 -198l-72 -578q-2 -17 -2 -31zM469 1438 q-6 12 8 12h12q10 0 15 -8l135 -256q6 -10 -4 -10h-10q-10 0 -15 6z" />
<glyph unicode="&#xf3;" horiz-adv-x="1019" d="M193 176q0 20 2 37l71 578q14 111 96 170t271 59q311 0 311 -193q0 -14 -2 -36l-72 -578q-14 -111 -96 -170t-270 -59q-311 -1 -311 192zM225 182q0 -168 283 -168q305 0 330 199l71 578q2 18 2 30q0 168 -282 168q-305 0 -330 -198l-72 -578q-2 -17 -2 -31zM627 1186 l200 256q8 8 15 8h14q16 0 4 -12l-203 -256q-6 -6 -12 -6h-14q-10 0 -4 10z" />
<glyph unicode="&#xf4;" horiz-adv-x="1019" d="M193 176q0 20 2 37l71 578q14 111 96 170t271 59q311 0 311 -193q0 -14 -2 -36l-72 -578q-14 -111 -96 -170t-270 -59q-311 -1 -311 192zM225 182q0 -168 283 -168q305 0 330 199l71 578q2 18 2 30q0 168 -282 168q-305 0 -330 -198l-72 -578q-2 -17 -2 -31zM455 1188 l194 250q8 12 21 12h14q10 0 16 -10l136 -252q8 -12 -7 -12h-8q-10 0 -18 12l-127 233l-187 -233q-10 -12 -16 -12h-12q-14 0 -6 12z" />
<glyph unicode="&#xf5;" horiz-adv-x="1019" d="M193 176q0 20 2 37l71 578q14 111 96 170t271 59q311 0 311 -193q0 -14 -2 -36l-72 -578q-14 -111 -96 -170t-270 -59q-311 -1 -311 192zM225 182q0 -168 283 -168q305 0 330 199l71 578q2 18 2 30q0 168 -282 168q-305 0 -330 -198l-72 -578q-2 -17 -2 -31zM401 1223 l2 20q12 96 42 133t87 37q51 0 95 -49l78 -88q31 -35 65 -35q47 0 66.5 27.5t29.5 111.5l2 21q0 12 15 12h8q10 0 10 -12l-2 -21q-12 -96 -42 -133t-87 -37q-49 0 -94 50l-78 86q-37 37 -66 36q-47 0 -67.5 -29.5t-28.5 -109.5l-2 -20q0 -12 -14 -13h-8q-11 1 -11 13z" />
<glyph unicode="&#xf6;" horiz-adv-x="1019" d="M193 176q0 20 2 37l71 578q14 111 96 170t271 59q311 0 311 -193q0 -14 -2 -36l-72 -578q-14 -111 -96 -170t-270 -59q-311 -1 -311 192zM225 182q0 -168 283 -168q305 0 330 199l71 578q2 18 2 30q0 168 -282 168q-305 0 -330 -198l-72 -578q-2 -17 -2 -31zM543 1217 l24 204q2 12 15 13h8q10 0 10 -13l-25 -204q-2 -12 -14 -13h-8q-10 1 -10 13zM705 1217l24 204q4 12 14 13h9q10 0 10 -13l-25 -204q-4 -12 -14 -13h-8q-10 1 -10 13z" />
<glyph unicode="&#xf7;" horiz-adv-x="1218" d="M281 692v6q0 12 10 13h803q12 0 12 -11v-8q0 -12 -12 -12h-801q-12 0 -12 12zM676 297v154q0 12 12 12h8q12 0 13 -12v-154q0 -12 -13 -12h-8q-12 0 -12 12zM676 944v154q0 12 12 12h8q12 0 13 -12v-154q0 -12 -13 -12h-8q-12 0 -12 12z" />
<glyph unicode="&#xf8;" horiz-adv-x="1019" d="M174 -33l62 90q-43 43 -43 119q0 25 2 37l71 578q14 111 96 170t271 59q162 0 241 -53l54 75q8 12 18 13h12q12 0 5 -13l-66 -94q47 -47 47 -121q0 -25 -2 -36l-72 -578q-14 -111 -96 -170t-270 -59q-168 0 -246 55l-49 -72q-8 -12 -19 -12h-12q-12 0 -4 12zM225 182 q0 -59 31 -96l598 852q-68 51 -225 51q-305 0 -330 -198l-72 -578q-2 -11 -2 -31zM279 66q68 -51 229 -52q305 0 330 199l71 578q2 10 2 30q0 57 -34 99z" />
<glyph unicode="&#xf9;" d="M205 178q0 14 2 35l96 778q4 12 14 13h9q12 0 10 -13l-96 -778q-2 -16 -2 -27q0 -80 54 -126t167 -46q197 0 372 136l103 841q0 12 14 13h8q12 0 11 -13l-121 -979q0 -12 -10 -12h-7q-12 0 -12 12l8 101q-162 -129 -370 -129q-125 0 -187.5 52t-62.5 142zM489 1438 q-6 12 9 12h12q10 0 14 -8l135 -256q6 -10 -4 -10h-10q-10 0 -14 6z" />
<glyph unicode="&#xfa;" d="M205 178q0 14 2 35l96 778q4 12 14 13h9q12 0 10 -13l-96 -778q-2 -16 -2 -27q0 -80 54 -126t167 -46q197 0 372 136l103 841q0 12 14 13h8q12 0 11 -13l-121 -979q0 -12 -10 -12h-7q-12 0 -12 12l8 101q-162 -129 -370 -129q-125 0 -187.5 52t-62.5 142zM616 1186 l201 256q8 8 14 8h15q16 0 4 -12l-203 -256q-6 -6 -12 -6h-14q-11 0 -5 10z" />
<glyph unicode="&#xfb;" d="M205 178q0 14 2 35l96 778q4 12 14 13h9q12 0 10 -13l-96 -778q-2 -16 -2 -27q0 -80 54 -126t167 -46q197 0 372 136l103 841q0 12 14 13h8q12 0 11 -13l-121 -979q0 -12 -10 -12h-7q-12 0 -12 12l8 101q-162 -129 -370 -129q-125 0 -187.5 52t-62.5 142zM451 1188 l194 250q8 12 21 12h14q10 0 16 -10l135 -252q8 -12 -6 -12h-8q-10 0 -18 12l-127 233l-187 -233q-10 -12 -16 -12h-12q-14 0 -6 12z" />
<glyph unicode="&#xfc;" d="M205 178q0 14 2 35l96 778q4 12 14 13h9q12 0 10 -13l-96 -778q-2 -16 -2 -27q0 -80 54 -126t167 -46q197 0 372 136l103 841q0 12 14 13h8q12 0 11 -13l-121 -979q0 -12 -10 -12h-7q-12 0 -12 12l8 101q-162 -129 -370 -129q-125 0 -187.5 52t-62.5 142zM557 1217 l25 204q4 12 14 13h8q10 0 10 -13l-24 -204q-4 -12 -15 -13h-8q-10 1 -10 13zM719 1217l24 204q2 12 15 13h8q10 0 10 -13l-24 -204q-2 -12 -15 -13h-8q-10 1 -10 13z" />
<glyph unicode="&#xfd;" horiz-adv-x="811" d="M172 991q-4 12 8 13h13q8 0 12 -13l192 -862l17 -76q16 43 30 76l402 862q6 12 16 13h10q14 0 9 -13l-656 -1411q-6 -12 -16 -12h-12q-12 0 -7 12l199 426zM508 1186l201 256q8 8 14 8h14q16 0 4 -12l-202 -256q-6 -6 -13 -6h-14q-10 0 -4 10z" />
<glyph unicode="&#xfe;" d="M143 -420l228 1839q0 12 12 13h8q12 0 12 -13l-65 -530q174 131 385 131q123 0 185.5 -52.5t62.5 -142.5q0 -18 -4 -51l-70 -561q-29 -229 -301 -229q-215 0 -354 129l-66 -533q0 -12 -12 -12h-8q-13 0 -13 12zM246 150q150 -135 352 -136q119 0 186.5 55.5t79.5 143.5 l70 561q4 41 4 45q0 78 -55.5 124t-163.5 46q-213 0 -385 -137z" />
<glyph unicode="&#xff;" horiz-adv-x="811" d="M172 991q-4 12 8 13h13q8 0 12 -13l192 -862l17 -76q16 43 30 76l402 862q6 12 16 13h10q14 0 9 -13l-656 -1411q-6 -12 -16 -12h-12q-12 0 -7 12l199 426zM434 1217l25 204q4 12 14 13h8q10 0 11 -13l-25 -204q-4 -12 -14 -13h-9q-10 1 -10 13zM596 1217l25 204 q2 12 14 13h8q10 0 10 -13l-24 -204q-2 -12 -15 -13h-8q-10 1 -10 13z" />
<glyph unicode="&#x10c;" horiz-adv-x="1099" d="M223 205q0 14 4 47l109 889q14 129 108.5 198.5t313.5 69.5q197 0 278.5 -58.5t81.5 -166.5q0 -29 -2 -43l-14 -111q0 -12 -12 -12h-9q-12 0 -12 12l14 111q2 12 2 39q0 199 -331 198q-199 0 -285 -62.5t-100 -174.5l-109 -889q-2 -14 -2 -41q0 -94 74 -145.5t254 -51.5 q201 0 288 62.5t101 175.5l16 133q0 12 13 12h8q12 0 12 -12l-16 -133q-14 -129 -109.5 -198.5t-314.5 -69.5q-361 0 -361 221zM602 1786q-8 12 8 12h11q8 0 14 -12l127 -234l186 234q10 12 19 12h12q16 0 4 -12l-197 -252q-6 -10 -18 -10h-12q-10 0 -19 12z" />
<glyph unicode="&#x10d;" horiz-adv-x="958" d="M193 174q0 25 2 39l71 578q14 111 93 170t268 59q305 0 305 -191q0 -27 -2 -38l-6 -43q0 -12 -13 -13h-8q-12 0 -12 13l6 43q2 12 2 32q0 166 -276 166q-168 0 -240 -52t-84 -146l-72 -578q-2 -12 -2 -35q0 -164 277 -164q168 0 238.5 52.5t84.5 146.5l9 59q0 12 14 13h8 q10 0 10 -13l-8 -59q-16 -113 -94 -171t-266 -58q-305 0 -305 190zM481 1438q-8 12 8 12h11q8 0 14 -12l127 -234l186 234q10 12 19 12h12q16 0 4 -12l-196 -252q-6 -10 -19 -10h-12q-10 0 -19 12z" />
<glyph unicode="&#x10e;" horiz-adv-x="1210" d="M221 12l168 1368q4 12 12 13h385q367 0 367 -228q0 -27 -2 -41l-104 -856q-14 -129 -111.5 -198.5t-319.5 -69.5h-383q-12 0 -12 12zM256 31h362q367 0 396 237l104 856q2 12 2 37q0 201 -338 201h-362zM610 1786q-8 12 8 12h11q8 0 14 -12l127 -234l186 234q10 12 19 12 h12q16 0 4 -12l-196 -252q-6 -10 -19 -10h-12q-10 0 -19 12z" />
<glyph unicode="&#x10f;" d="M193 178q0 23 2 35l71 578q29 229 301 229q207 0 355 -131l63 530q0 12 14 13h9q12 0 10 -13l-172 -1407q0 -12 -15 -12h-4q-10 0 -10 12l8 101q-180 -129 -385 -129q-123 0 -185 52t-62 142zM225 184q0 -78 55.5 -124t163.5 -46q207 0 385 136l86 702q-137 137 -350 137 q-121 0 -187.5 -54t-78.5 -144l-72 -578q-2 -11 -2 -29zM1112 1167l45 72q12 20 25.5 55t17.5 74l6 51q0 12 15 13h8q10 0 10 -13l-6 -51q-10 -88 -94 -215q-8 -10 -17 -6l-8 4q-8 4 -2 16z" />
<glyph unicode="&#x11a;" horiz-adv-x="1093" d="M221 12l168 1368q4 12 14 13h699q10 0 10 -13v-6q0 -12 -14 -12h-678l-74 -608h639q10 0 10 -13v-6q0 -12 -14 -12h-639l-86 -692h705q10 0 10 -13v-6q0 -12 -13 -12h-727q-10 0 -10 12zM590 1786q-8 12 8 12h10q8 0 15 -12l127 -234l186 234q10 12 18 12h13q16 0 4 -12 l-197 -252q-6 -10 -18 -10h-13q-10 0 -18 12z" />
<glyph unicode="&#x11b;" horiz-adv-x="995" d="M193 176q0 25 2 37l71 578q14 111 96 170t271 59q311 0 311 -193q0 -25 -2 -36l-33 -259q-4 -12 -12 -12h-631l-39 -307q-2 -10 -2 -31q0 -168 283 -168q168 0 241.5 52.5t88.5 146.5l8 59q2 12 14 13h8q12 0 11 -13l-9 -59q-14 -111 -96 -170t-270 -59q-311 -1 -311 192 zM268 551h611l30 240q2 10 2 30q0 168 -282 168q-305 0 -330 -198zM471 1438q-8 12 8 12h10q8 0 15 -12l127 -234l186 234q10 12 19 12h12q16 0 4 -12l-197 -252q-6 -10 -18 -10h-12q-10 0 -19 12z" />
<glyph unicode="&#x131;" horiz-adv-x="425" d="M199 12l120 979q0 12 13 13h8q12 0 12 -13l-121 -979q-2 -12 -14 -12h-8q-12 0 -10 12z" />
<glyph unicode="&#x139;" horiz-adv-x="1026" d="M221 12l168 1368q4 12 14 13h9q14 0 10 -13l-166 -1349h674q10 0 10 -13v-6q0 -12 -12 -12h-697q-10 0 -10 12zM410 1534l200 256q8 8 15 8h14q16 0 4 -12l-203 -256q-6 -6 -12 -6h-14q-10 0 -4 10z" />
<glyph unicode="&#x13a;" horiz-adv-x="425" d="M197 12l172 1407q4 12 14 13h8q10 0 10 -13l-172 -1407q0 -12 -12 -12h-10q-10 0 -10 12zM387 1534l201 256q8 8 14 8h14q16 0 5 -12l-203 -256q-6 -6 -12 -6h-15q-10 0 -4 10z" />
<glyph unicode="&#x13d;" horiz-adv-x="1026" d="M221 12l168 1368q4 12 14 13h9q14 0 10 -13l-166 -1349h674q10 0 10 -13v-6q0 -12 -12 -12h-697q-10 0 -10 12zM733 1128l45 72q12 20 25.5 55t17.5 74l6 51q0 12 15 13h8q10 0 10 -13l-6 -51q-10 -88 -94 -215q-6 -10 -17 -6l-8 4q-8 4 -2 16z" />
<glyph unicode="&#x13e;" horiz-adv-x="425" d="M197 12l172 1407q4 12 14 13h8q10 0 10 -13l-172 -1407q0 -12 -12 -12h-10q-10 0 -10 12zM496 1167l45 72q12 20 25.5 55t17.5 74l6 51q0 12 14 13h8q10 0 11 -13l-7 -51q-10 -88 -94 -215q-6 -10 -16 -6l-8 4q-8 4 -2 16z" />
<glyph unicode="&#x147;" horiz-adv-x="1232" d="M221 12l168 1368q4 12 14 13h3q8 0 10 -7l526 -1208q18 -53 45 -104l160 1306q4 12 14 13h6q12 0 11 -13l-168 -1368q0 -12 -13 -12h-4q-10 0 -12 6l-524 1208q-2 6 -43 107l-162 -1309q0 -12 -12 -12h-7q-12 0 -12 12zM627 1786q-8 12 8 12h10q8 0 14 -12l127 -234 l187 234q10 12 18 12h13q16 0 4 -12l-197 -252q-6 -10 -18 -10h-13q-10 0 -18 12z" />
<glyph unicode="&#x148;" horiz-adv-x="1056" d="M199 12l120 979q0 12 13 13h4q12 0 12 -13l-10 -102q174 131 385 131q125 0 187.5 -52.5t62.5 -142.5q0 -16 -2 -34l-97 -779q-2 -12 -14 -12h-8q-12 0 -10 12l96 779q2 18 2 26q0 78 -54.5 125t-164.5 47q-209 0 -387 -137l-103 -840q-2 -12 -14 -12h-8q-12 0 -10 12z M526 1438q-8 12 9 12h10q8 0 14 -12l127 -234l186 234q10 12 19 12h12q16 0 4 -12l-196 -252q-6 -10 -19 -10h-12q-10 0 -18 12z" />
<glyph unicode="&#x152;" horiz-adv-x="1828" d="M223 207q0 12 4 45l109 889q14 129 110.5 198.5t317.5 69.5q283 0 346 -135l14 106q2 12 15 13h698q10 0 10 -13v-6q0 -12 -14 -12h-678l-25 -201q0 -2 -1 -10t-1 -10l-10 -72l-37 -315h637q12 0 13 -11v-8q0 -12 -15 -12h-639l-61 -487l-25 -205h705q10 0 10 -13v-6 q0 -12 -12 -12h-727q-10 0 -11 12l13 97q-92 -125 -379 -125q-367 0 -367 223zM258 215q0 -201 334 -201q203 0 291 61.5t102 172.5l49 399l64 516v15q0 201 -338 200q-362 0 -391 -237l-109 -889q-2 -12 -2 -37z" />
<glyph unicode="&#x153;" horiz-adv-x="1638" d="M193 176q0 25 2 37l71 578q14 111 96 170t271 59q274 0 301 -150q66 150 342 150q311 0 311 -193q0 -25 -2 -36l-33 -259q0 -12 -12 -12h-631l-39 -307q-2 -14 -2 -31q0 -168 283 -168q168 0 241.5 52.5t88.5 146.5l8 59q0 12 14 13h8q10 0 11 -13l-9 -59 q-14 -111 -96 -170t-270 -59q-270 0 -305 145q-63 -145 -338 -145q-311 -1 -311 192zM225 182q0 -168 283 -168q305 0 330 199l71 578q2 10 2 30q0 168 -282 168q-305 0 -330 -198l-72 -578q-2 -11 -2 -31zM911 551h611l30 240q2 10 2 30q0 168 -282 168q-305 0 -330 -198z " />
<glyph unicode="&#x154;" horiz-adv-x="1191" d="M221 12l168 1368q4 12 12 13h385q367 0 367 -234q0 -27 -2 -41l-31 -258q-12 -109 -83.5 -173t-229.5 -83l235 -592q4 -12 -10 -12h-8q-16 0 -20 12l-232 588q-27 -2 -84 -2h-362l-72 -586q0 -12 -12 -12h-9q-12 0 -12 12zM330 629h362q201 0 291 60.5t104 170.5l31 258 q2 12 2 37q0 207 -338 207h-362zM723 1534l201 256q8 8 14 8h14q16 0 4 -12l-202 -256q-6 -6 -13 -6h-14q-10 0 -4 10z" />
<glyph unicode="&#x155;" horiz-adv-x="659" d="M199 12l120 979q4 12 13 13h4q12 0 12 -13l-12 -127q209 154 385 154q12 0 12 -12v-13q0 -8 -16 -8q-98 0 -208 -51t-177 -103l-101 -819q0 -12 -14 -12h-8q-12 0 -10 12zM479 1186l201 256q8 8 14 8h15q16 0 4 -12l-203 -256q-6 -6 -12 -6h-15q-10 0 -4 10z" />
<glyph unicode="&#x158;" horiz-adv-x="1191" d="M221 12l168 1368q4 12 12 13h385q367 0 367 -234q0 -27 -2 -41l-31 -258q-12 -109 -83.5 -173t-229.5 -83l235 -592q4 -12 -10 -12h-8q-16 0 -20 12l-232 588q-27 -2 -84 -2h-362l-72 -586q0 -12 -12 -12h-9q-12 0 -12 12zM330 629h362q201 0 291 60.5t104 170.5l31 258 q2 12 2 37q0 207 -338 207h-362zM588 1786q-8 12 8 12h10q8 0 15 -12l127 -234l186 234q10 12 18 12h13q16 0 4 -12l-197 -252q-6 -10 -18 -10h-13q-10 0 -18 12z" />
<glyph unicode="&#x159;" horiz-adv-x="659" d="M199 12l120 979q4 12 13 13h4q12 0 12 -13l-12 -127q209 154 385 154q12 0 12 -12v-13q0 -8 -16 -8q-98 0 -208 -51t-177 -103l-101 -819q0 -12 -14 -12h-8q-12 0 -10 12zM338 1438q-8 12 8 12h10q8 0 15 -12l127 -234l186 234q10 12 18 12h13q16 0 4 -12l-197 -252 q-6 -10 -18 -10h-12q-10 0 -19 12z" />
<glyph unicode="&#x160;" horiz-adv-x="1144" d="M207 207q0 12 4 45l12 96q0 12 13 12h8q12 0 12 -12l-12 -96q-2 -12 -2 -39q0 -199 333 -199q367 0 396 238l22 186q0 4 1 13.5t1 13.5q0 123 -145 182l-389 158q-145 59 -146 201q0 20 2 30l13 105q10 84 46 139t129 92t245 37q193 0 273.5 -58.5t80.5 -164.5 q0 -31 -2 -45l-12 -109q0 -12 -15 -12h-8q-12 0 -10 12l12 109q2 14 2 41q0 94 -72.5 145t-253.5 51q-201 0 -284.5 -62.5t-98.5 -174.5l-12 -105q-2 -10 -2 -28q0 -121 129 -174l389 -158q162 -66 162 -209q0 -18 -2 -29l-22 -186q-14 -129 -111.5 -198.5t-319.5 -69.5 q-366 0 -366 223zM582 1786q-8 12 8 12h10q8 0 14 -12l127 -234l187 234q10 12 18 12h12q16 0 5 -12l-197 -252q-6 -10 -18 -10h-13q-10 0 -18 12z" />
<glyph unicode="&#x161;" horiz-adv-x="942" d="M164 162v18l2 13l6 55q0 10 14 10h11q10 0 8 -10l-6 -53q-2 -16 -2 -27q0 -154 282 -154q154 0 237 47.5t93 124.5l14 121v4q0 4 1 11.5t1 13.5q0 82 -127 119l-321 96q-53 16 -95 57t-42 97q0 14 2 28l12 88q29 199 348 199q150 0 225.5 -48t75.5 -124q0 -20 -2 -41 l-8 -62q0 -10 -12 -10h-11q-10 0 -10 10l8 60q2 18 2 41q0 61 -65.5 103t-206.5 42q-150 0 -226.5 -46t-84.5 -124l-11 -86q-2 -16 -2 -28q0 -45 34 -79t87 -48l322 -95q141 -41 141 -145l-2 -31l-14 -125q-10 -90 -102.5 -145t-264.5 -55q-154 0 -232.5 49t-78.5 129z M428 1438q-8 12 8 12h10q8 0 15 -12l127 -234l186 234q10 12 19 12h12q16 0 4 -12l-197 -252q-6 -10 -18 -10h-12q-10 0 -19 12z" />
<glyph unicode="&#x164;" horiz-adv-x="970" d="M215 1374v6q0 12 14 13h846q12 0 12 -13v-6q0 -12 -14 -12h-407l-166 -1350q0 -12 -13 -12h-8q-12 0 -12 12l166 1350h-406q-12 0 -12 12zM506 1786q-8 12 8 12h10q8 0 15 -12l127 -234l186 234q10 12 18 12h13q16 0 4 -12l-197 -252q-6 -10 -18 -10h-13q-10 0 -18 12z " />
<glyph unicode="&#x165;" horiz-adv-x="681" d="M190 983v2q0 12 15 12l141 4h2l29 234q0 12 14 12h8q10 0 11 -12l-29 -234h268q10 0 10 -12v-8q0 -10 -14 -10h-268l-90 -742q-2 -18 -2 -32q0 -166 278 -166h27q10 0 10 -13v-6q-2 -12 -14 -12h-27q-307 0 -307 190q0 20 2 39l90 742h-143q-11 0 -11 12zM528 1167l45 72 q12 20 25.5 55t17.5 74l7 51q0 12 14 13h8q10 0 10 -13l-6 -51q-10 -88 -94 -215q-6 -10 -16 -6l-9 4q-8 4 -2 16z" />
<glyph unicode="&#x16e;" horiz-adv-x="1210" d="M236 211q0 27 2 41l139 1128q0 12 12 13h8q12 0 13 -13l-140 -1128q-2 -12 -2 -37q0 -201 336 -201q365 0 393 238l140 1128q0 12 12 13h8q12 0 12 -13l-139 -1128q-14 -129 -111.5 -198.5t-318.5 -69.5q-364 0 -364 227zM623 1608q0 27 2 43l2 24q14 125 192 125 q78 0 117 -34.5t39 -88.5q0 -25 -2 -43l-2 -22q-16 -121 -193 -121q-78 0 -116.5 33t-38.5 84zM655 1610q0 -88 127 -88q141 0 156 90l2 22q2 20 2 41q0 94 -127 94q-145 0 -156 -94l-2 -24q-2 -16 -2 -41z" />
<glyph unicode="&#x16f;" d="M205 178q0 14 2 35l96 778q4 12 14 13h9q12 0 10 -13l-96 -778q-2 -16 -2 -27q0 -80 54 -126t167 -46q197 0 372 136l103 841q0 12 14 13h8q12 0 11 -13l-121 -979q0 -12 -10 -12h-7q-12 0 -12 12l8 101q-162 -129 -370 -129q-125 0 -187.5 52t-62.5 142zM479 1266 q0 27 2 43l2 24q14 125 193 125q78 0 116.5 -34.5t38.5 -88.5q0 -25 -2 -43l-2 -22q-16 -121 -192 -121q-78 0 -117 33t-39 84zM512 1268q0 -88 127 -88q141 0 156 90l2 22q2 20 2 41q0 94 -127 94q-145 0 -156 -94l-2 -24q-2 -16 -2 -41z" />
<glyph unicode="&#x178;" horiz-adv-x="1009" d="M221 1380q-4 12 10 13h11q8 0 14 -13l305 -704q14 -27 21 -51q18 33 30 51l475 704q6 12 19 13h12q16 0 6 -13l-530 -782l-72 -586q0 -12 -12 -12h-8q-12 0 -13 12l72 584zM575 1556l25 205q2 12 14 13h9q10 0 10 -13l-25 -205q-2 -12 -14 -12h-8q-11 0 -11 12zM737 1556 l25 205q4 12 14 13h8q10 0 11 -13l-25 -205q-4 -12 -14 -12h-8q-11 0 -11 12z" />
<glyph unicode="&#x17d;" horiz-adv-x="1040" d="M135 10v4q0 2 8 19l879 1329h-672q-10 0 -10 12v6q0 12 14 13h703q10 0 10 -13v-6q0 -4 -4 -12l-883 -1331h740q10 0 10 -13v-6q0 -12 -12 -12h-771q-12 0 -12 10zM543 1786q-8 12 8 12h10q8 0 14 -12l127 -234l187 234q10 12 18 12h13q16 0 4 -12l-197 -252 q-6 -10 -18 -10h-13q-10 0 -18 12z" />
<glyph unicode="&#x17e;" horiz-adv-x="942" d="M123 12v6q0 2 10 19l719 936h-578q-10 0 -10 12v6q0 12 15 13h608q10 0 10 -11v-6l-10 -18l-721 -938h622q10 0 11 -13v-6q0 -12 -15 -12h-651q-10 0 -10 12zM420 1438q-8 12 8 12h10q8 0 15 -12l127 -234l186 234q10 12 18 12h13q16 0 4 -12l-197 -252q-6 -10 -18 -10 h-13q-10 0 -18 12z" />
<glyph unicode="&#x192;" horiz-adv-x="1087" d="M27 -428q0 12 12 12h8q301 0 348 199l250 1005h-233q-12 0 -13 13v6q0 12 15 12h239l99 402q25 109 112.5 169t274.5 60h6q10 0 10 -12v-6q0 -12 -12 -13h-8q-303 0 -351 -198l-100 -402h240q10 0 10 -12v-6q0 -12 -12 -13h-246l-248 -1005q-27 -111 -116 -170t-271 -59 h-6q-8 0 -8 12v6z" />
<glyph unicode="&#x2c6;" horiz-adv-x="696" d="M299 1188l195 250q8 12 20 12h14q10 0 17 -10l135 -252q8 -12 -6 -12h-8q-10 0 -19 12l-127 233l-186 -233q-10 -12 -17 -12h-12q-14 0 -6 12z" />
<glyph unicode="&#x2c7;" horiz-adv-x="696" d="M332 1438q-8 12 8 12h10q8 0 15 -12l127 -234l186 234q10 12 18 12h13q16 0 4 -12l-197 -252q-6 -10 -18 -10h-13q-10 0 -18 12z" />
<glyph unicode="&#x2d8;" horiz-adv-x="784" d="M350 1307q0 14 2 36l4 54q0 12 15 12h8q10 0 10 -12l-4 -54q-2 -23 -2 -36q0 -66 35 -96.5t127 -30.5q109 0 146.5 47t47.5 145l2 25q0 12 15 12h8q10 0 10 -12l-2 -25q-12 -115 -58 -169t-173 -54q-104 0 -147.5 38t-43.5 120z" />
<glyph unicode="&#x2d9;" horiz-adv-x="475" d="M373 1227l18 153q0 12 12 13h11q10 0 10 -13l-18 -153q0 -12 -13 -13h-8q-14 1 -12 13z" />
<glyph unicode="&#x2da;" horiz-adv-x="598" d="M213 1266q0 27 2 43l2 24q14 125 193 125q78 0 116.5 -34.5t38.5 -88.5q0 -25 -2 -43l-2 -22q-16 -121 -192 -121q-78 0 -117 33t-39 84zM246 1268q0 -88 127 -88q141 0 155 90l2 22q2 20 2 41q0 94 -126 94q-145 0 -156 -94l-2 -24q-2 -16 -2 -41z" />
<glyph unicode="&#x2db;" horiz-adv-x="452" d="M115 -160q0 51 41 102.5t125 86.5q14 4 20 0l8 -9q10 -10 -2 -14q-84 -27 -122 -75t-38 -93q0 -92 134 -92h36q12 0 13 -12v-6q0 -12 -13 -13h-36q-166 0 -166 125z" />
<glyph unicode="&#x2dc;" horiz-adv-x="888" d="M350 1223l2 20q12 96 42 133t87 37q51 0 94 -49l78 -88q31 -35 66 -35q47 0 66.5 27.5t29.5 111.5l2 21q0 12 14 12h9q10 0 10 -12l-2 -21q-12 -96 -42 -133t-87 -37q-47 0 -94 50l-78 86q-37 37 -66 36q-47 0 -67.5 -29.5t-28.5 -109.5l-2 -20q0 -12 -14 -13h-9 q-10 1 -10 13z" />
<glyph unicode="&#x2dd;" horiz-adv-x="684" d="M322 1188l165 250q8 12 19 12h12q14 0 6 -12l-172 -250q-8 -12 -18 -12h-8q-10 0 -4 12zM449 1188l194 250q8 12 21 12h12q12 0 4 -12l-203 -254q-8 -8 -16 -8h-8q-12 0 -4 12z" />
<glyph unicode="&#x3a9;" horiz-adv-x="737" d="M143 633q0 92 65.5 158.5t158 66.5t159 -66.5t66.5 -158.5t-66.5 -157.5t-159 -65.5t-158 65.5t-65.5 157.5zM176 633q0 -80 55.5 -135.5t135 -55.5t136 55.5t56.5 135.5t-56.5 136t-136 56t-135 -56t-55.5 -136z" />
<glyph unicode="&#x3c0;" horiz-adv-x="737" d="M117 830.5q2 19.5 22 19.5h453q20 0 23 -19.5t-9 -37.5l-211 -342q-10 -16 -28.5 -16.5t-28.5 16.5l-211 342q-12 18 -10 37.5z" />
<glyph unicode="&#x2000;" horiz-adv-x="899" />
<glyph unicode="&#x2001;" horiz-adv-x="1800" />
<glyph unicode="&#x2002;" horiz-adv-x="899" />
<glyph unicode="&#x2003;" horiz-adv-x="1800" />
<glyph unicode="&#x2004;" horiz-adv-x="600" />
<glyph unicode="&#x2005;" horiz-adv-x="448" />
<glyph unicode="&#x2006;" horiz-adv-x="299" />
<glyph unicode="&#x2007;" horiz-adv-x="299" />
<glyph unicode="&#x2008;" horiz-adv-x="223" />
<glyph unicode="&#x2009;" horiz-adv-x="358" />
<glyph unicode="&#x200a;" horiz-adv-x="98" />
<glyph unicode="&#x2010;" horiz-adv-x="968" d="M266 590v6q0 12 13 12h550q12 0 13 -12v-6q0 -12 -13 -12h-550q-13 0 -13 12z" />
<glyph unicode="&#x2011;" horiz-adv-x="968" d="M266 590v6q0 12 13 12h550q12 0 13 -12v-6q0 -12 -13 -12h-550q-13 0 -13 12z" />
<glyph unicode="&#x2012;" horiz-adv-x="968" d="M266 590v6q0 12 13 12h550q12 0 13 -12v-6q0 -12 -13 -12h-550q-13 0 -13 12z" />
<glyph unicode="&#x2013;" horiz-adv-x="1140" d="M266 590v6q0 12 13 12h722q12 0 13 -12v-6q0 -12 -13 -12h-722q-13 0 -13 12z" />
<glyph unicode="&#x2014;" horiz-adv-x="1771" d="M266 590v6q0 12 13 12h1353q12 0 13 -12v-6q0 -12 -13 -12h-1353q-13 0 -13 12z" />
<glyph unicode="&#x2018;" horiz-adv-x="401" d="M307 1137l15 112q16 145 151 199q10 4 14 -4l5 -8q4 -10 -9 -17q-66 -31 -93.5 -70.5t-35.5 -99.5l-14 -112q-4 -12 -14 -13h-9q-14 1 -10 13z" />
<glyph unicode="&#x2019;" horiz-adv-x="401" d="M217 1139q-4 10 8 16q66 31 93.5 71t35.5 99l15 113q4 12 14 12h8q14 0 10 -12l-14 -113q-16 -145 -151 -199q-10 -4 -15 4z" />
<glyph unicode="&#x201a;" horiz-adv-x="401" d="M53 -133q-4 10 8 16q66 31 93.5 71t35.5 99l15 113q4 12 14 12h8q14 0 11 -12l-15 -113q-16 -145 -151 -198q-10 -4 -15 4z" />
<glyph unicode="&#x201c;" horiz-adv-x="618" d="M307 1137l15 112q16 145 151 199q10 4 14 -4l5 -8q4 -10 -9 -17q-66 -31 -93.5 -70.5t-35.5 -99.5l-14 -112q-4 -12 -14 -13h-9q-14 1 -10 13zM524 1137l15 112q16 145 151 199q10 4 15 -4l4 -8q4 -10 -9 -17q-66 -31 -93 -70.5t-36 -99.5l-14 -112q-4 -12 -14 -13h-8 q-15 1 -11 13z" />
<glyph unicode="&#x201d;" horiz-adv-x="618" d="M217 1139q-4 10 8 16q66 31 93.5 71t35.5 99l15 113q4 12 14 12h8q14 0 10 -12l-14 -113q-16 -145 -151 -199q-10 -4 -15 4zM434 1139q-4 10 8 16q66 31 93.5 71t35.5 99l15 113q4 12 14 12h8q14 0 10 -12l-14 -113q-16 -145 -151 -199q-10 -4 -15 4z" />
<glyph unicode="&#x201e;" horiz-adv-x="618" d="M53 -133q-4 10 8 16q66 31 93.5 71t35.5 99l15 113q4 12 14 12h8q14 0 11 -12l-15 -113q-16 -145 -151 -198q-10 -4 -15 4zM270 -133q-4 10 9 16q66 31 93 71t36 99l14 113q4 12 14 12h8q14 0 11 -12l-15 -113q-16 -145 -151 -198q-10 -4 -15 4z" />
<glyph unicode="&#x2020;" horiz-adv-x="1015" d="M340 985v6q0 12 12 13h213q12 0 13 -13v-6q0 -12 -13 -12h-213q-12 0 -12 12zM494 12l172 1407q2 12 14 13h8q12 0 10 -13l-172 -1407q-2 -12 -14 -12h-8q-12 0 -10 12zM676 985v6q0 12 12 13h213q12 0 12 -13v-6q0 -12 -12 -12h-213q-12 0 -12 12z" />
<glyph unicode="&#x2021;" horiz-adv-x="1015" d="M274 444v7q0 12 13 12h213q12 0 12 -12v-7q0 -12 -12 -12h-213q-13 0 -13 12zM342 985v6q0 12 12 13h213q12 0 13 -13v-6q0 -12 -13 -12h-213q-12 0 -12 12zM496 12l172 1407q4 12 14 13h8q14 0 10 -13l-172 -1407q-4 -12 -14 -12h-8q-14 0 -10 12zM610 444v7q0 12 13 12 h213q12 0 12 -12v-7q0 -12 -12 -12h-213q-13 0 -13 12zM678 985v6q0 12 12 13h213q12 0 12 -13v-6q0 -12 -12 -12h-213q-12 0 -12 12z" />
<glyph unicode="&#x2022;" horiz-adv-x="475" d="M268 403l29 236q2 12 14 12h8q10 0 11 -12l-29 -236q-2 -12 -14 -12h-8q-11 0 -11 12z" />
<glyph unicode="&#x2026;" horiz-adv-x="1415" d="M186 12l19 154q0 12 12 12h10q10 0 11 -12l-19 -154q0 -12 -12 -12h-8q-15 0 -13 12zM694 12l19 154q0 12 12 12h10q10 0 10 -12l-18 -154q0 -12 -12 -12h-8q-15 0 -13 12zM1200 12l19 154q0 12 12 12h10q10 0 10 -12l-18 -154q0 -12 -12 -12h-9q-14 0 -12 12z" />
<glyph unicode="&#x202f;" horiz-adv-x="358" />
<glyph unicode="&#x2030;" horiz-adv-x="2023" d="M315 973q0 16 4 41l27 227q8 78 67.5 121t194.5 43q221 0 221 -137q0 -6 -4 -43l-26 -226q-10 -80 -68.5 -121.5t-191.5 -41.5q-224 0 -224 137zM348 977q0 -113 195 -113q209 0 223 135l27 228q4 29 4 35q0 115 -193 114q-211 0 -225 -135l-29 -237l-2 -11v-16zM397 12 l760 1368q10 12 19 13h10q14 0 6 -13l-760 -1368q-6 -12 -16 -12h-13q-10 0 -6 12zM764 121q0 16 4 41l27 227q8 78 67.5 121t194.5 43q221 0 221 -137q0 -6 -4 -43l-27 -226q-10 -80 -68.5 -121.5t-191.5 -41.5q-223 0 -223 137zM797 125q0 -113 194 -113q209 0 223 135 l27 228q4 29 4 35q0 115 -192 114q-211 0 -226 -135l-28 -237v-11q-2 -10 -2 -16zM1360 121q0 16 4 41l27 227q8 78 67.5 121t194.5 43q221 0 221 -137q0 -6 -4 -43l-27 -226q-10 -80 -68.5 -121.5t-191.5 -41.5q-223 0 -223 137zM1393 125q0 -113 194 -113q209 0 223 135 l27 228q4 29 4 35q0 115 -192 114q-211 0 -226 -135l-28 -237l-2 -11v-16z" />
<glyph unicode="&#x2039;" horiz-adv-x="856" d="M246 502v2q0 8 14 18l418 295q10 4 12 -4l-2 -16q0 -8 -14 -19l-395 -276l327 -273q10 -8 10 -16l-2 -18q0 -4 -4 -6.5t-8 1.5l-348 295q-8 9 -8 17z" />
<glyph unicode="&#x203a;" horiz-adv-x="856" d="M248 193l2 16q0 8 14 18l395 277l-327 272q-10 8 -10 17l2 18q0 4 4 6t8 -2l348 -295q8 -8 8 -16v-2q0 -8 -14 -19l-418 -295q-10 -3 -12 5z" />
<glyph unicode="&#x2044;" horiz-adv-x="876" d="M125 12l760 1368q8 12 18 13h10q14 0 7 -13l-760 -1368q-6 -12 -17 -12h-12q-10 0 -6 12z" />
<glyph unicode="&#x205f;" horiz-adv-x="448" />
<glyph unicode="&#x20ac;" horiz-adv-x="1067" d="M129 582v6q0 12 14 12h191l22 197h-190q-10 0 -10 12v6q0 12 14 12h190l39 314q14 129 108.5 198.5t313.5 69.5q197 0 279 -58.5t82 -166.5q0 -29 -2 -43l-15 -111q0 -12 -12 -12h-8q-12 0 -12 12l14 111q2 12 2 39q0 199 -332 198q-199 0 -285 -62.5t-100 -174.5 l-39 -314h348q12 0 13 -12v-6q0 -12 -15 -12h-350l-22 -197h348q10 0 10 -12v-6q0 -12 -12 -13h-351l-38 -317q-2 -14 -2 -41q0 -94 73.5 -145.5t253.5 -51.5q201 0 288 62.5t101 175.5l17 133q0 12 12 12h8q12 0 12 -12l-16 -133q-14 -129 -109.5 -198.5t-314.5 -69.5 q-360 0 -360 221q0 14 4 47l39 317h-189q-12 1 -12 13z" />
<glyph unicode="&#x2122;" horiz-adv-x="1783" d="M326 1372v10q0 10 12 11h549q10 0 10 -11v-10q0 -8 -12 -8h-260l-99 -797q0 -10 -10 -10h-12q-10 0 -10 10l98 797h-254q-12 0 -12 8zM901 567l100 815q0 10 11 11h10q6 0 10 -13l209 -616q6 -20 10 -45q0 4 25 45l354 618q6 10 15 11h14q8 0 8 -11l-100 -815 q0 -10 -11 -10h-12q-10 0 -10 10l92 748l-4 -10q-6 -10 -11 -21.5t-9 -17.5l-330 -572q-6 -10 -17 -10h-14q-8 0 -12 10l-195 576l-10 45l-92 -748q0 -10 -10 -10h-13q-8 0 -8 10z" />
<glyph unicode="&#x2202;" horiz-adv-x="737" d="M180 412v452q0 20 19.5 23.5t38.5 -8.5l342 -211q16 -10 16 -28.5t-16 -29.5l-342 -211q-18 -12 -38 -9.5t-20 22.5z" />
<glyph unicode="&#x2206;" horiz-adv-x="737" d="M178 485v299q0 41 41 41h299q41 0 41 -41v-299q0 -41 -41 -41h-299q-41 0 -41 41z" />
<glyph unicode="&#x220f;" horiz-adv-x="737" d="M120 447.5q-3 19.5 9 37.5l211 342q10 16 28.5 16.5t28.5 -16.5l211 -342q12 -18 10 -37.5t-22 -19.5h-453q-20 0 -23 19.5z" />
<glyph unicode="&#x2211;" horiz-adv-x="737" d="M141 639q0 18 17 29l342 211q12 8 25.5 10t22.5 -4t9 -21v-452q0 -20 -19.5 -22.5t-37.5 9.5l-342 211q-17 11 -17 29z" />
<glyph unicode="&#x221a;" horiz-adv-x="737" d="M162 485v299q0 57 57 58h299q57 0 57 -58v-299q0 -57 -57 -57h-299q-57 0 -57 57zM195 485q0 -25 24 -24h299q25 0 25 24v299q0 25 -25 25h-299q-25 0 -24 -25v-299z" />
<glyph unicode="&#x221e;" horiz-adv-x="737" d="M94 634.5q0 18.5 23 41.5l211 211q20 20 40.5 20t41.5 -20l211 -211q20 -20 20 -41t-20 -41l-211 -211q-23 -23 -41.5 -23t-40.5 23l-211 211q-23 22 -23 40.5zM131 635q0 -10 8 -17l213 -212q6 -8 17 -9q8 0 16 9l213 212q8 8 8 17q0 4 -8 16l-213 213q-12 8 -16 8 q-8 0 -17 -8l-213 -213q-8 -8 -8 -16z" />
<glyph unicode="&#x222b;" horiz-adv-x="737" d="M70 633q0 125 86 213t211 88t213 -88t88 -213t-88 -211t-213 -86t-211 86t-86 211z" />
<glyph unicode="&#x2248;" horiz-adv-x="964" d="M252 438v21q0 94 28.5 132t86.5 38q37 0 102 -41l162 -103q45 -29 82 -28q47 0 62.5 27.5t15.5 111.5v20q0 12 12 13h8q12 0 12 -13v-20q0 -96 -26.5 -133t-83.5 -37q-41 0 -111 43l-162 102q-47 27 -73 27q-49 0 -65.5 -27.5t-16.5 -111.5v-21q0 -12 -13 -12h-8 q-12 0 -12 12zM252 713v20q0 94 28.5 132t86.5 38q37 0 102 -41l162 -102q45 -29 82 -29q47 0 62.5 27.5t15.5 111.5v21q0 12 12 12h8q12 0 12 -12v-21q0 -96 -26.5 -133t-83.5 -37q-41 0 -111 43l-162 103q-47 27 -73 26q-49 0 -65.5 -27.5t-16.5 -111.5v-20q0 -12 -13 -13 h-8q-12 1 -12 13z" />
<glyph unicode="&#x2260;" horiz-adv-x="1216" d="M260 535v6q0 12 12 12h322l115 287h-437q-12 0 -12 12v6q0 12 12 12h449l67 164q4 12 17 13h6q14 0 8 -13l-65 -164h317q12 0 12 -12v-6q0 -12 -12 -12h-330l-116 -287h446q12 0 12 -12v-6q0 -12 -12 -13h-459l-65 -164q-6 -12 -19 -12h-6q-10 0 -6 12l66 164h-310 q-12 1 -12 13z" />
<glyph unicode="&#x2264;" horiz-adv-x="1132" d="M236 797v8q0 8 12 14l715 295q12 4 12 -6v-12q0 -8 -12 -15l-691 -280l691 -281q12 -6 12 -14v-12q0 -10 -12 -7l-715 295q-12 7 -12 15zM238 315v7q0 12 12 12h713q12 0 12 -12v-7q0 -12 -12 -12h-713q-12 0 -12 12z" />
<glyph unicode="&#x2265;" horiz-adv-x="1132" d="M233 315v7q0 12 13 12h712q12 0 13 -12v-7q0 -12 -13 -12h-712q-13 0 -13 12zM233 494v12q0 8 13 14l690 281l-690 280q-12 6 -13 15v12q0 10 13 6l715 -295q12 -6 12 -14v-8q0 -8 -12 -15l-715 -295q-13 -3 -13 7z" />
<glyph unicode="&#x25ca;" horiz-adv-x="737" d="M113 635q0 12 16 29l211 210q14 14 28.5 14.5t28.5 -14.5l211 -210q14 -14 14.5 -28.5t-14.5 -29.5l-211 -211q-16 -16 -28.5 -16t-28.5 16l-211 211q-16 17 -16 29z" />
<glyph unicode="&#xe000;" horiz-adv-x="1004" d="M0 1005h1005v-1005h-1005v1005z" />
<glyph unicode="&#xfb01;" horiz-adv-x="999" d="M190 -420l172 1391h-143q-10 0 -10 12v2q0 12 12 12l119 4h27l24 201q14 111 94 170.5t267 59.5h202q10 0 11 -13v-6q0 -12 -13 -12h-202q-168 0 -241 -52.5t-85 -146.5l-25 -201h566q14 0 12 -14l-121 -975q0 -12 -12 -12h-8q-12 0 -13 12l119 959h-547l-172 -1391 q0 -12 -12 -12h-8q-13 0 -13 12z" />
<glyph unicode="&#xfb02;" horiz-adv-x="1054" d="M190 -420l172 1391h-143q-10 0 -10 12v2q0 12 12 12l119 4h27l24 201q14 111 93 170.5t268 59.5h264q14 0 14 -13l-174 -1407q0 -12 -12 -12h-8q-12 0 -13 12l172 1389h-245q-168 0 -241 -52.5t-85 -146.5l-25 -201h267q10 0 10 -12v-6q0 -12 -12 -12h-269l-172 -1391 q0 -12 -12 -12h-8q-13 0 -13 12z" />
<glyph horiz-adv-x="0" />
</font>
</defs>
</svg>
