<?xml version="1.0" standalone="no"?>
<!DOCTYPE svg PUBLIC "-//W3C//DTD SVG 1.1//EN" "http://www.w3.org/Graphics/SVG/1.1/DTD/svg11.dtd" >
<svg xmlns="http://www.w3.org/2000/svg">
<metadata>
This is a custom SVG webfont generated by Font Squirrel.
Copyright   : Copyright c 2009 by Eduardo Manso All rights reserved
Designer    : Eduardo Manso
Foundry     : Eduardo Manso
Foundry URL : httpwwwemtypenet
</metadata>
<defs>
<font id="GeogrotesqueLightItalic" horiz-adv-x="1062" >
<font-face units-per-em="2048" ascent="1536" descent="-512" />
<missing-glyph horiz-adv-x="475" />
<glyph unicode=" "  horiz-adv-x="475" />
<glyph unicode="&#x09;" horiz-adv-x="475" />
<glyph unicode="&#xa0;" horiz-adv-x="475" />
<glyph unicode="!" horiz-adv-x="507" d="M201 25l20 157q4 25 29 25h59q23 0 21 -25l-21 -157q-2 -25 -26 -25h-60q-24 0 -22 25zM252 346l45 453l68 569q4 25 28 25h64q23 0 20 -25l-67 -569l-68 -453q-2 -25 -29 -24h-41q-22 -1 -20 24z" />
<glyph unicode="&#x22;" horiz-adv-x="716" d="M305 1014l35 354q4 25 27 25h61q23 0 18 -25l-53 -354q-4 -27 -24 -27h-41q-25 0 -23 27zM567 1014l35 354q4 25 27 25h59q25 0 21 -25l-54 -354q-4 -27 -24 -27h-41q-25 0 -23 27z" />
<glyph unicode="#" horiz-adv-x="1323" d="M238 496l2 32q2 25 28 25h174l99 244h-160q-25 0 -21 24l2 33q2 25 29 25h182l82 206q10 25 35 25h45q23 0 15 -25l-84 -206h329l84 206q10 25 33 25h47q20 0 12 -25l-81 -206h137q27 0 22 -25l-4 -33q-4 -25 -28 -24h-160l-99 -244h146q25 0 22 -25l-2 -32 q-2 -25 -28 -25h-170l-82 -203q-10 -25 -31 -24h-47q-27 0 -16 24l81 203h-327l-82 -203q-8 -25 -31 -24h-49q-25 0 -14 24l82 203h-152q-24 0 -20 25zM537 553h327l101 244h-330z" />
<glyph unicode="$" horiz-adv-x="1079" d="M254 369q0 12 2 32l6 52q2 23 27 22h55q18 0 16 -22l-4 -47q-2 -18 -2 -27q0 -123 242 -123q262 0 283 141l10 88q2 20 2 31q0 66 -113 102l-303 99q-61 18 -102 65t-41 107q0 14 2 31l10 79q23 199 322 215l18 154q4 25 29 25h57q20 0 18 -25l-20 -154 q133 -10 200.5 -64t67.5 -130q0 -16 -2 -37l-6 -53q-2 -23 -27 -23h-53q-25 0 -20 23l6 47q2 16 2 39q0 51 -57.5 86t-171.5 35q-246 0 -263 -140l-8 -61q-2 -14 -2 -25q0 -80 98 -110l312 -96q150 -49 149 -162q0 -2 -4 -39l-12 -115q-12 -90 -94 -147.5t-242 -65.5 l-18 -151q-4 -25 -25 -25h-57q-25 0 -23 25l19 149q-141 8 -212 62.5t-71 132.5z" />
<glyph unicode="%" horiz-adv-x="1538" d="M295 963q0 14 4 38l25 218q20 186 286 186q246 0 246 -156q0 -25 -2 -43l-27 -215q-12 -90 -76.5 -137t-207.5 -47q-248 0 -248 156zM387 975q0 -94 164 -94q170 0 184 112l27 213q2 20 2 27q0 94 -162 94q-172 0 -186 -110l-25 -205zM410 25l774 1343q14 25 39 25h55 q27 0 10 -25l-776 -1343q-16 -25 -37 -25h-57q-22 0 -8 25zM846 139q0 14 4 39l24 217q20 186 287 187q246 0 246 -156q0 -25 -2 -43l-27 -215q-12 -90 -76.5 -137t-207.5 -47q-248 -1 -248 155zM938 152q0 -94 164 -95q170 0 184 113l27 213q2 20 2 27q0 94 -162 94 q-172 0 -186 -111l-25 -205z" />
<glyph unicode="&#x26;" horiz-adv-x="1361" d="M219 233q0 23 2 37l29 236q12 100 61 156.5t168 80.5q-162 37 -162 183q0 16 5 49l18 151q16 135 108.5 209t311.5 74q362 0 362 -233v-25l-6 -66q-2 -25 -26 -24h-60q-25 0 -20 24l4 52v20q0 160 -262 160q-137 0 -215 -45t-93 -160l-14 -123q-4 -37 -4 -47 q0 -78 58.5 -116t205.5 -38h653q25 0 21 -24l-4 -45q-2 -23 -29 -23h-160l-53 -428q-37 -285 -481 -284q-418 -1 -418 249zM328 252q0 -176 317 -176q340 0 367 205l53 415h-397q-170 0 -234.5 -49t-77.5 -153l-26 -211q-2 -15 -2 -31z" />
<glyph unicode="'" horiz-adv-x="454" d="M305 1014l35 354q4 25 27 25h61q23 0 18 -25l-53 -354q-4 -27 -24 -27h-41q-25 0 -23 27z" />
<glyph unicode="(" horiz-adv-x="722" d="M164 -225q0 18 2 39l172 1384q14 127 100 189.5t285 62.5h22q23 0 21 -25l-4 -43q-4 -25 -27 -24h-10q-143 0 -205.5 -44t-73.5 -126l-167 -1362q-4 -33 -5 -35q0 -72 54.5 -108.5t185.5 -36.5h10q25 0 21 -25l-6 -43q-2 -25 -25 -24h-10q-340 0 -340 221z" />
<glyph unicode=")" horiz-adv-x="722" d="M78 -422l4 43q4 25 27 25h10q258 0 278 170l168 1362q0 8 1 16t2 13t1 10q0 141 -241 141h-9q-25 0 -20 24l4 43q2 25 27 25h10q340 0 340 -221q0 -10 -4 -39l-170 -1385q-16 -127 -102.5 -189t-284.5 -62h-21q-22 -1 -20 24z" />
<glyph unicode="*" horiz-adv-x="1028" d="M315 936q-6 20 15 33l250 133l-218 135q-18 10 -6 31l17 28q12 23 37 9l213 -150l26 275q2 25 27 24h33q25 0 20 -24l-43 -275l246 152q23 12 33 -9l14 -28q12 -20 -12 -33l-252 -135l219 -135q16 -12 4 -31l-16 -29q-16 -25 -37 -8l-211 148l-25 -267q-2 -27 -26 -26 h-33q-23 0 -21 26l41 269l-250 -152q-25 -14 -32 8z" />
<glyph unicode="+" horiz-adv-x="1196" d="M254 672v45q0 25 25 24h352v355q0 25 24 24h41q25 0 25 -24v-355h358q25 0 25 -24v-45q0 -23 -25 -23h-358v-354q0 -25 -25 -25h-41q-25 0 -24 25v354h-352q-25 0 -25 23z" />
<glyph unicode="," horiz-adv-x="458" d="M53 -119q-4 20 19 31q63 29 88.5 62.5t32.5 86.5l16 121q4 25 27 25h61q23 0 20 -25l-16 -125q-10 -88 -59 -144t-150 -89q-23 -8 -29 14z" />
<glyph unicode="-" horiz-adv-x="946" d="M240 571v43q0 23 24 23h551q25 0 25 -23v-43q0 -25 -25 -24h-551q-24 -1 -24 24z" />
<glyph unicode="." horiz-adv-x="436" d="M166 25l18 157q4 25 27 25h63q20 0 19 -25l-19 -157q-2 -25 -26 -25h-60q-24 0 -22 25z" />
<glyph unicode="/" horiz-adv-x="757" d="M61 -279l658 1686q10 25 31 25h67q27 0 17 -25l-658 -1686q-8 -25 -35 -24h-65q-25 -1 -15 24z" />
<glyph unicode="0" horiz-adv-x="1097" d="M170 223q0 20 4 53l105 844q8 66 30.5 114t69.5 90t132 63.5t206 21.5q379 0 379 -244q0 -16 -4 -49l-103 -844q-16 -135 -113.5 -211.5t-326.5 -76.5q-379 -1 -379 239zM283 248q0 -82 62.5 -126t211.5 -44q168 0 239.5 54t84.5 157l100 811q2 20 2 43q0 84 -62.5 128 t-211.5 44q-168 0 -240 -54.5t-84 -156.5l-96 -793q-6 -55 -6 -63z" />
<glyph unicode="1" horiz-adv-x="1097" d="M156 25l6 45q2 25 24 24h340l150 1192l-350 -96q-10 -4 -17.5 2t-5.5 20l4 45q2 23 29 29l438 111q8 2 15.5 -3t5.5 -18l-158 -1282h338q25 0 22 -24l-6 -45q-2 -25 -26 -25h-789q-22 0 -20 25z" />
<glyph unicode="2" horiz-adv-x="1097" d="M180 25l51 401q16 135 199 186l387 113q133 41 146 149l28 228q2 23 2 45q0 82 -60.5 126t-209.5 44q-168 0 -236.5 -53.5t-83.5 -157.5l-12 -100q-2 -27 -26 -27h-60q-25 0 -20 27l14 114q8 66 30.5 114t68.5 90t130 63.5t203 21.5q373 0 373 -240q0 -20 -4 -53 l-29 -242q-20 -180 -209 -235l-362 -102q-152 -45 -164 -142l-39 -301h657q25 0 23 -24l-4 -45q-2 -25 -29 -25h-743q-25 0 -21 25z" />
<glyph unicode="3" horiz-adv-x="1097" d="M164 225q0 20 2 43l4 39q2 25 29 25h57q25 0 20 -25l-2 -26q-2 -14 -2 -39q0 -166 273 -166q164 0 235.5 52t83.5 153l25 213q4 41 4 47q0 78 -58.5 116.5t-203.5 38.5h-191q-27 0 -22 23l4 45q4 25 29 24h178q168 0 232.5 49.5t76.5 151.5l14 123q2 16 2 39 q0 80 -58 123t-202 43q-160 0 -230.5 -53.5t-78.5 -151.5l-2 -27q-2 -25 -27 -24h-57q-25 0 -23 24l5 39q14 133 108 209t316 76q360 0 360 -235q0 -12 -4 -54l-19 -147q-12 -96 -56 -150.5t-152 -79.5q168 -39 167 -188q0 -18 -4 -55l-28 -234q-16 -135 -110.5 -208.5 t-319.5 -73.5q-375 -1 -375 241z" />
<glyph unicode="4" horiz-adv-x="1097" d="M162 481l6 41q0 6 16 45l394 801q12 25 34 25h64q27 0 12 -25l-399 -815h585l101 815q4 25 26 25h62q23 0 20 -25l-163 -1343q-2 -25 -27 -25h-62q-25 0 -22 25l55 434h-680q-24 -1 -22 22z" />
<glyph unicode="5" horiz-adv-x="1097" d="M193 223q0 29 2 45l4 39q2 25 26 25h60q23 0 20 -25l-2 -24q-2 -12 -2 -45q0 -80 55.5 -121t202.5 -41q164 0 227.5 50t75.5 155l31 264q4 41 4 43q0 158 -262 157h-330q-23 0 -20 25l73 598q2 25 27 25h664q23 0 20 -25l-4 -45q-2 -25 -27 -25h-579l-58 -460h244 q174 0 269.5 -60.5t95.5 -169.5q0 -20 -4 -49l-37 -291q-12 -90 -46 -147.5t-127.5 -97t-246.5 -39.5q-199 0 -277.5 62t-78.5 177z" />
<glyph unicode="6" horiz-adv-x="1097" d="M182 221q0 18 4 51l107 861q14 125 106.5 200.5t317.5 75.5q362 0 362 -235q0 -16 -2 -41l-4 -33q-4 -25 -26 -25h-60q-25 0 -20 25l2 20q0 2 1 14.5t1 16.5q0 166 -262 166q-287 0 -310 -197l-51 -409q78 113 318 112q358 0 358 -239q0 -20 -4 -54l-31 -258 q-10 -88 -47 -147t-134 -100t-253 -41q-373 -1 -373 237zM293 244q0 -82 60.5 -125t209.5 -43q166 0 236.5 53t83.5 156l26 237q4 33 4 41q0 82 -61 125t-211 43q-293 0 -315 -190l-29 -250q-4 -37 -4 -47z" />
<glyph unicode="7" horiz-adv-x="1097" d="M272 1323l7 45q2 25 26 25h828q23 0 20 -25l-4 -41q-2 -12 -10 -29l-688 -1273q-14 -25 -33 -25h-74q-27 0 -14 25l690 1273h-723q-27 0 -25 25z" />
<glyph unicode="8" horiz-adv-x="1097" d="M178 223q0 29 2 49l29 232q12 100 64.5 158.5t170.5 82.5q-166 37 -165 191q0 14 4 55l14 129q8 68 27.5 114t62.5 89t125 64.5t201 21.5q199 0 278.5 -62.5t79.5 -172.5q0 -16 -4 -54l-16 -133q-14 -102 -61.5 -159.5t-164.5 -82.5q184 -41 185 -198q0 -14 -4 -47 l-27 -228q-16 -137 -109.5 -212.5t-322.5 -75.5q-369 -1 -369 239zM287 242q0 -82 59.5 -124t208.5 -42q166 0 235.5 53t81.5 156l25 200q2 16 2 45q0 84 -59.5 127t-208.5 43q-166 0 -234.5 -53t-81.5 -158l-24 -204q-4 -33 -4 -43zM387 954q0 -82 54.5 -122.5t199.5 -40.5 q166 0 228.5 52t76.5 158l15 107q4 37 4 45q0 82 -56.5 123t-203.5 41q-164 0 -225.5 -52.5t-76.5 -156.5l-14 -107q-2 -18 -2 -47z" />
<glyph unicode="9" horiz-adv-x="1097" d="M184 219q0 16 2 41l4 33q2 25 27 24h59q23 0 21 -24l-2 -21q0 -4 -1 -15t-1 -15q0 -166 266 -166q162 0 229.5 53t77.5 143l52 410q-82 -113 -318 -113q-358 0 -358 240q0 20 4 53l30 258q16 137 110.5 213t322.5 76q373 0 372 -238q0 -18 -4 -51l-104 -860 q-6 -57 -26.5 -102t-64.5 -87t-127 -64.5t-202 -22.5q-369 -1 -369 235zM350 829q0 -82 61.5 -124.5t211.5 -42.5q293 0 315 190l29 250q4 37 4 47q0 82 -59.5 125t-209.5 43q-168 0 -237.5 -53.5t-81.5 -155.5l-29 -238q-4 -33 -4 -41z" />
<glyph unicode=":" horiz-adv-x="436" d="M166 25l18 157q4 25 29 25h59q23 0 21 -25l-19 -157q-2 -25 -28 -25h-60q-22 0 -20 25zM264 825l21 158q2 27 26 27h60q23 0 20 -27l-18 -158q-4 -25 -27 -24h-61q-23 -1 -21 24z" />
<glyph unicode=";" horiz-adv-x="540" d="M137 -119q-6 20 19 31q109 49 120 149l15 121q2 25 26 25h64q20 0 18 -25l-16 -125q-23 -176 -207 -233q-20 -6 -26 12zM371 825l18 158q2 27 29 27h59q23 0 21 -27l-19 -158q-4 -25 -26 -24h-62q-22 -1 -20 24z" />
<glyph unicode="&#x3c;" horiz-adv-x="1114" d="M254 666v63q0 18 22 29l719 327q25 10 25 -18v-59q0 -20 -25 -29l-635 -283l635 -280q25 -10 25 -29v-59q0 -29 -25 -19l-719 328q-22 11 -22 29z" />
<glyph unicode="=" horiz-adv-x="1208" d="M229 487v43q0 25 25 25h813q25 0 25 -25v-43q0 -25 -25 -24h-813q-25 -1 -25 24zM229 838v43q0 25 25 24h813q25 0 25 -24v-43q0 -25 -25 -25h-813q-25 0 -25 25z" />
<glyph unicode="&#x3e;" horiz-adv-x="1112" d="M211 328v59q0 18 25 29l634 280l-634 283q-25 8 -25 27v61q0 33 25 20l718 -329q23 -10 23 -27v-65q0 -18 -23 -29l-718 -330q-25 -12 -25 21z" />
<glyph unicode="?" horiz-adv-x="1163" d="M291 1006l14 114q16 135 115.5 212t329.5 77q383 0 383 -248q0 -29 -3 -45l-20 -172q-23 -170 -195 -248l-112 -53q-111 -53 -125 -154l-21 -143q-2 -25 -26 -24h-60q-23 0 -22 24l22 166q18 131 160 199l137 65q117 55 133 168l21 162q2 16 2 39q0 172 -285 172 q-166 0 -240.5 -54.5t-88.5 -156.5l-15 -100q-2 -27 -24 -27h-60q-22 0 -20 27zM510 25l18 155q2 27 29 27h61q20 0 19 -25l-19 -157q-2 -25 -26 -25h-62q-22 0 -20 25z" />
<glyph unicode="@" horiz-adv-x="1687" d="M205 57q0 20 6 76l98 799q18 156 167 243t517 87q231 0 371.5 -40t191 -100.5t50.5 -146.5q0 -8 -4 -53l-74 -603q-31 -252 -264 -251q-84 0 -134.5 34.5t-60.5 98.5q-174 -133 -346 -133q-213 0 -213 176q0 41 8 73l82 369q29 125 97.5 189.5t205.5 64.5q147 0 285 -121 l20 80q6 25 29 25h49q27 0 21 -25l-129 -563q-8 -33 -9 -74q0 -113 109 -112q123 0 147 182l72 586q4 29 4 40q0 102 -117.5 159t-398.5 57q-301 0 -429 -63.5t-142 -180.5l-101 -803q-4 -33 -4 -53q0 -106 115 -160.5t399 -54.5h381q25 0 21 -25l-2 -43q-4 -23 -29 -22 h-379q-336 0 -473 76.5t-137 211.5zM618 279q0 -115 152 -115q139 0 295 112q0 4 6 41l92 412q-115 115 -243 115q-180 0 -218 -174l-75 -336q-9 -41 -9 -55z" />
<glyph unicode="A" d="M55 25l580 1343q12 25 35 25h63q25 0 27 -25l250 -1343q1 -5 1 -9q0 -16 -20 -16h-63q-23 0 -27 25l-76 397h-493l-170 -397q-12 -25 -31 -25h-59q-19 0 -20 13q0 5 3 12zM371 510h442l-104 549l-25 219q-2 -6 -16.5 -53l-29.5 -92.5t-26 -69.5z" />
<glyph unicode="B" horiz-adv-x="1185" d="M199 25l166 1343q4 25 26 25h344q397 0 398 -246q0 -20 -3 -43l-14 -133q-18 -186 -225 -244q219 -45 219 -219q0 -27 -2 -41l-23 -184q-16 -133 -121.5 -208t-338.5 -75h-404q-24 0 -22 25zM317 92h314q322 0 348 207l20 162q2 14 2 37q0 178 -296 178h-316zM399 764 h285q299 0 324 207l14 121q2 20 2 36q0 172 -295 172h-264z" />
<glyph unicode="C" horiz-adv-x="1120" d="M203 227q0 16 4 49l102 844q16 135 116.5 212t334.5 77q389 0 389 -246q0 -14 -4 -47l-12 -102q-2 -27 -25 -27h-59q-27 0 -23 27l12 86q2 12 2 39q0 176 -288 176q-170 0 -246 -54.5t-90 -156.5l-99 -811q-2 -14 -2 -41q0 -174 285 -174q313 0 338 211l14 117 q2 23 27 22h57q27 0 23 -22l-17 -134q-16 -135 -118.5 -211.5t-333.5 -76.5q-387 -1 -387 243z" />
<glyph unicode="D" horiz-adv-x="1224" d="M199 25l166 1343q4 25 26 25h400q399 0 399 -250q0 -35 -2 -49l-98 -805q-37 -289 -461 -289h-410q-22 0 -20 25zM317 94h318q317 0 346 211l96 776q2 14 2 39q0 178 -297 178h-317z" />
<glyph unicode="E" horiz-adv-x="1079" d="M199 25l166 1343q4 25 26 25h701q23 0 20 -25l-6 -45q-2 -25 -27 -25h-614l-64 -520h578q23 0 20 -24l-4 -43q-4 -25 -28 -25h-576l-74 -592h637q25 0 23 -24l-6 -45q-2 -25 -25 -25h-725q-24 0 -22 25z" />
<glyph unicode="F" horiz-adv-x="1087" d="M199 25l166 1343q4 25 26 25h754q23 0 20 -25l-6 -45q-2 -25 -26 -25h-668l-66 -524h631q23 0 21 -24l-4 -45q-2 -25 -27 -25h-629l-84 -655q-4 -25 -24 -25h-62q-24 0 -22 25z" />
<glyph unicode="G" horiz-adv-x="1153" d="M203 227q0 16 4 49l102 844q16 135 116.5 212t334.5 77q389 0 389 -248q0 -14 -4 -47l-12 -96q-2 -25 -25 -25h-59q-25 0 -21 25l10 86q2 20 2 37q0 174 -286 174q-170 0 -248 -54.5t-90 -156.5l-99 -811q-4 -37 -4 -41q0 -174 285 -174q172 0 248 53t90 154l35 274h-293 q-23 0 -21 25l5 45q2 25 26 24h377q25 0 20 -24l-43 -357q-33 -289 -452 -288q-387 -1 -387 243z" />
<glyph unicode="H" horiz-adv-x="1249" d="M199 25l166 1343q4 25 26 25h62q23 0 20 -25l-70 -577h637l70 577q4 25 29 25h61q25 0 21 -25l-166 -1343q-2 -25 -25 -25h-61q-27 0 -23 25l84 671h-639l-84 -671q-4 -25 -24 -25h-62q-24 0 -22 25z" />
<glyph unicode="I" horiz-adv-x="501" d="M199 25l166 1343q4 25 26 25h62q23 0 20 -25l-166 -1343q-4 -25 -24 -25h-62q-24 0 -22 25z" />
<glyph unicode="J" horiz-adv-x="1005" d="M98 225q0 18 4 56l9 75q2 25 28 25h60q23 0 20 -25l-8 -65q-4 -29 -4 -47q0 -82 55 -124t193 -42q152 0 214 53t76 158l134 1079q2 25 26 25h62q25 0 20 -25l-133 -1096q-18 -137 -106.5 -212.5t-301.5 -75.5q-348 -1 -348 241z" />
<glyph unicode="K" horiz-adv-x="1103" d="M199 25l163 1343q2 25 29 25h62q23 0 20 -25l-76 -629h66l584 631q18 23 43 23h69q17 0 17 -9q0 -6 -9 -16l-612 -661l508 -682q6 -8 1 -16.5t-15 -8.5h-78q-20 0 -39 25l-473 630h-74l-78 -630q-4 -25 -24 -25h-62q-24 0 -22 25z" />
<glyph unicode="L" horiz-adv-x="1009" d="M199 25l166 1343q4 25 26 25h62q23 0 20 -25l-156 -1274h605q25 0 22 -24l-6 -45q-2 -25 -27 -25h-692q-22 0 -20 25z" />
<glyph unicode="M" horiz-adv-x="1474" d="M199 25l163 1343q4 25 27 25h53q18 0 21 -15l289 -956q20 -63 24 -96q12 33 45 94l518 960q6 12 25 13h61q20 0 19 -25l-164 -1343q-2 -25 -25 -25h-59q-25 0 -22 25l139 1134q-18 -51 -49 -108l-439 -813q-12 -25 -34 -25h-56q-25 0 -30 25l-246 827q-8 31 -19 92 l-139 -1132q-2 -25 -25 -25h-55q-24 0 -22 25z" />
<glyph unicode="N" horiz-adv-x="1247" d="M199 25l163 1343q2 25 29 25h49q16 0 21 -11l463 -1050q41 -96 47 -117l141 1153q2 25 29 25h53q23 0 20 -25l-163 -1343q-2 -25 -27 -25h-51q-16 0 -23 12l-458 1043l-48 125l-143 -1155q-2 -25 -25 -25h-55q-24 0 -22 25z" />
<glyph unicode="O" horiz-adv-x="1202" d="M203 229q0 14 4 47l102 844q33 289 459 289q399 0 399 -250q0 -29 -2 -43l-104 -844q-33 -289 -461 -288q-397 -1 -397 245zM313 256q0 -178 295 -178q317 0 346 211l101 811q2 12 2 37q0 178 -297 178q-315 0 -344 -211l-99 -811q-4 -33 -4 -37z" />
<glyph unicode="P" horiz-adv-x="1153" d="M199 25l166 1343q4 25 26 25h395q395 0 396 -258q0 -29 -2 -48l-31 -256q-16 -135 -120.5 -207.5t-340.5 -72.5h-315l-66 -526q-4 -25 -24 -25h-62q-24 0 -22 25zM385 645h313q172 0 252 51.5t92 151.5l29 227q2 14 2 39q0 184 -293 184h-315z" />
<glyph unicode="Q" horiz-adv-x="1200" d="M203 229q0 14 4 47l102 844q33 289 459 289q399 0 399 -250q0 -29 -2 -43l-104 -844q-29 -248 -346 -282l260 -269q14 -16 -2 -32l-37 -35q-10 -10 -18 -10t-15 8l-317 332q-383 5 -383 245zM313 256q0 -178 295 -178q317 0 346 211l101 811q2 12 2 37q0 178 -297 178 q-315 0 -344 -211l-99 -811q-4 -33 -4 -37z" />
<glyph unicode="R" horiz-adv-x="1202" d="M199 25l166 1343q4 25 26 25h393q209 0 304.5 -71t95.5 -189q0 -27 -2 -43l-29 -232q-29 -223 -295 -268l209 -565q10 -25 -23 -25h-61q-20 0 -29 25l-202 555q-20 -2 -62 -2h-313l-70 -553q-4 -25 -24 -25h-62q-24 0 -22 25zM387 670h313q324 0 347 202l24 203 q2 20 2 37q0 186 -293 186h-315z" />
<glyph unicode="S" horiz-adv-x="1153" d="M184 231q0 8 4 45l13 103q2 27 24 27h60q25 0 22 -27l-12 -90q-2 -14 -2 -39q0 -174 293 -174q317 0 344 209l20 149q2 14 2 27q0 98 -149 160l-344 139q-168 70 -168 219q0 23 2 37l12 104q16 135 114.5 212t330.5 77q383 0 383 -246q0 -29 -3 -43l-12 -100 q-4 -25 -26 -25h-60q-23 0 -20 25l10 88q2 16 2 37q0 172 -283 172q-168 0 -242.5 -53.5t-86.5 -153.5l-11 -82q-2 -12 -2 -29q0 -94 111 -139l371 -149q178 -74 178 -230q0 -14 -2 -37l-19 -172q-29 -289 -458 -288q-396 -1 -396 247z" />
<glyph unicode="T" horiz-adv-x="983" d="M201 1323l4 45q2 25 28 25h850q25 0 23 -25l-4 -45q-2 -25 -29 -25h-371l-157 -1273q-4 -25 -25 -25h-61q-25 0 -23 25l158 1273h-371q-24 0 -22 25z" />
<glyph unicode="U" horiz-adv-x="1224" d="M213 233q0 18 4 48l133 1087q2 25 27 25h61q23 0 21 -25l-131 -1067q-4 -37 -4 -45q0 -178 294 -178q317 0 347 211l133 1079q4 25 24 25h62q25 0 22 -25l-135 -1096q-33 -289 -461 -288q-397 -1 -397 249z" />
<glyph unicode="V" d="M219 1368q-1 4 -1 8q0 17 24 17h65q25 0 27 -25l192 -1034q14 -68 21 -195q45 137 69 191l449 1038q8 25 31 25h65q17 0 18 -13q0 -5 -3 -12l-580 -1343q-10 -25 -33 -25h-63q-25 0 -29 25z" />
<glyph unicode="W" horiz-adv-x="1619" d="M219 1368q-2 25 23 25h61q25 0 27 -25l137 -1036q12 -78 12 -146q6 35 51 146l394 1036q10 25 30 25h60q23 0 24 -25l138 -1036q12 -102 12 -150q2 14 51 150l391 1036q8 25 33 25h55q18 0 19 -14q0 -5 -2 -11l-506 -1343q-8 -25 -33 -25h-61q-25 0 -29 25l-135 1052 q-12 104 -13 131q-2 -6 -10 -34.5t-17 -54.5l-16 -42l-397 -1052q-10 -25 -33 -25h-61q-27 0 -29 25z" />
<glyph unicode="X" horiz-adv-x="1118" d="M98 27l482 682l-310 657q-12 27 15 27h71q23 0 33 -25l268 -567l394 567q18 25 41 25h69q16 0 16 -9q0 -6 -8 -16l-467 -663l320 -680q10 -25 -14 -25h-70q-27 0 -37 25l-276 583l-410 -583q-16 -25 -37 -25h-69q-17 0 -18 10q0 7 7 17z" />
<glyph unicode="Y" horiz-adv-x="1042" d="M213 1368q-2 5 -2 10q0 15 22 15h70q16 0 27 -25l252 -631q14 -39 20 -67q4 14 37 67l412 631q18 25 34 25h64q20 0 20 -11q0 -6 -6 -14l-516 -790l-67 -553q-2 -25 -27 -25h-61q-25 0 -23 25l68 540z" />
<glyph unicode="Z" horiz-adv-x="1032" d="M115 23l6 45q2 12 12 26l801 1204h-600q-25 0 -23 25l6 45q2 25 27 25h713q23 0 20 -25l-4 -43q-2 -14 -14 -33l-799 -1198h668q25 0 22 -24l-6 -45q-2 -25 -26 -25h-779q-14 0 -20 5.5t-4 17.5z" />
<glyph unicode="[" horiz-adv-x="733" d="M139 -408l226 1815q2 25 26 25h357q23 0 20 -25l-4 -45q-2 -25 -27 -25h-272l-209 -1675h274q23 0 21 -24l-4 -46q-2 -25 -27 -24h-358q-25 -1 -23 24z" />
<glyph unicode="\" horiz-adv-x="757" d="M268 1407q-4 25 21 25h61q27 0 29 -25l242 -1683q4 -27 -21 -27h-63q-25 0 -27 24z" />
<glyph unicode="]" horiz-adv-x="733" d="M84 -408l6 46q2 25 27 24h272l207 1675h-272q-23 0 -21 25l4 45q2 25 27 25h356q25 0 23 -25l-224 -1815q-2 -25 -26 -24h-357q-24 -1 -22 24z" />
<glyph unicode="^" horiz-adv-x="1128" d="M254 649l328 721q12 23 26 23h66q18 0 28 -23l328 -721q10 -25 -18 -24h-60q-18 0 -28 24l-283 635l-281 -635q-10 -25 -28 -24h-60q-28 -1 -18 24z" />
<glyph unicode="_" horiz-adv-x="874" d="M14 -203q0 23 25 23h729q25 0 25 -23v-43q0 -25 -25 -24h-729q-25 0 -25 24v43z" />
<glyph unicode="`" horiz-adv-x="688" d="M385 1425q-12 25 16 25h62q20 0 31 -20l116 -240q12 -23 -14 -23h-47q-20 0 -29 15z" />
<glyph unicode="a" horiz-adv-x="1064" d="M172 195q0 12 4 41l68 538q31 252 309 252q199 0 342 -127l14 84q6 27 27 27h53q23 0 21 -27l-119 -958q-2 -25 -27 -25h-53q-20 0 -20 25l6 84q-174 -125 -369 -125q-125 0 -190.5 56.5t-65.5 154.5zM281 219q0 -139 184 -139q174 0 342 121l76 606q-143 123 -314 123 q-100 0 -155.5 -47t-65.5 -123l-65 -512q-2 -11 -2 -29z" />
<glyph unicode="b" horiz-adv-x="1064" d="M176 25l168 1382q2 25 29 25h59q23 0 19 -25l-62 -506q174 125 367 125q125 0 190.5 -57.5t65.5 -157.5q0 -25 -2 -37l-68 -538q-31 -252 -311 -252q-195 0 -342 125l-13 -84q-2 -25 -28 -25h-51q-25 0 -21 25zM303 201q135 -121 313 -121q199 0 222 168l63 512 q2 12 2 28q0 141 -182 142q-174 0 -344 -123z" />
<glyph unicode="c" horiz-adv-x="972" d="M172 197q0 25 2 39l68 536q14 123 102 188.5t287 65.5q332 0 332 -215q0 -25 -2 -41l-7 -37q-2 -25 -26 -24h-56q-25 0 -20 22l4 35q2 14 2 33q0 137 -235 137q-141 0 -203 -44t-72 -126l-65 -514q-2 -14 -2 -39q0 -139 235 -139q141 0 202.5 43t74.5 127l6 49 q2 25 26 24h56q25 0 20 -24l-8 -57q-14 -121 -101 -186.5t-286 -65.5q-334 0 -334 213z" />
<glyph unicode="d" horiz-adv-x="1064" d="M172 195q0 12 4 41l68 538q31 252 307 252q195 0 342 -125l61 506q4 25 27 25h59q25 0 21 -25l-170 -1382q-2 -25 -27 -25h-53q-25 0 -20 25l6 84q-174 -125 -369 -125q-125 0 -190.5 56.5t-65.5 154.5zM281 219q0 -63 46 -101t138 -38q174 0 342 121l74 606 q-137 123 -312 123q-102 0 -156.5 -47t-64.5 -123l-63 -508q-4 -29 -4 -33z" />
<glyph unicode="e" horiz-adv-x="1003" d="M172 199q0 25 2 37l68 536q14 121 104 187.5t287 66.5q336 0 336 -215q0 -27 -2 -39l-33 -254q-4 -23 -25 -22h-598l-30 -248q-4 -29 -5 -35q0 -143 242 -143q260 0 281 168l6 47q2 25 29 24h51q25 0 20 -24l-6 -49q-14 -121 -101 -186.5t-288 -65.5q-338 0 -338 215z M322 578h518l24 186q2 10 2 33q0 143 -239 143q-260 0 -281 -170z" />
<glyph unicode="f" horiz-adv-x="643" d="M176 -399l164 1317h-133q-25 0 -23 24l4 33q2 25 27 24l113 7h20l23 182q31 252 397 252h12q23 0 21 -25l-4 -43q-2 -25 -29 -24h-8q-262 0 -283 -170l-22 -172h237q14 0 20.5 -5.5t4.5 -17.5l-6 -41q-2 -25 -27 -24h-238l-163 -1317q-2 -27 -27 -27h-59q-23 0 -21 27z " />
<glyph unicode="g" horiz-adv-x="1064" d="M172 199q0 12 4 37l68 538q31 252 309 252q199 0 342 -127l14 84q6 27 27 27h53q25 0 21 -27l-142 -1155q-14 -123 -105 -188.5t-292 -65.5h-276q-27 0 -23 25l6 43q2 25 27 24h276q260 0 281 170l33 270q-170 -123 -365 -122q-127 0 -192.5 57.5t-65.5 157.5zM281 221 q0 -141 184 -141q174 0 342 121l76 606q-143 123 -314 123q-102 0 -156.5 -47t-64.5 -123l-63 -506q-4 -25 -4 -33z" />
<glyph unicode="h" horiz-adv-x="1075" d="M176 25l170 1382q2 25 27 25h59q23 0 21 -25l-64 -506q166 125 367 125q125 0 190.5 -57.5t65.5 -153.5q0 -14 -2 -35l-92 -755q-4 -25 -27 -25h-60q-25 0 -20 25l90 735q2 16 2 28q0 141 -182 142q-180 0 -342 -123l-96 -782q-4 -25 -27 -25h-59q-23 0 -21 25z" />
<glyph unicode="i" horiz-adv-x="452" d="M176 25l119 958q4 27 27 27h57q25 0 22 -27l-118 -958q-4 -25 -27 -25h-59q-23 0 -21 25zM322 1212l24 195q2 25 27 25h59q23 0 21 -25l-25 -195q-2 -25 -27 -24h-59q-22 -1 -20 24z" />
<glyph unicode="j" horiz-adv-x="450" d="M-172 -401l6 43q2 25 27 24h10q258 0 279 170l141 1147q4 27 26 27h60q25 0 20 -27l-143 -1155q-14 -123 -104.5 -188.5t-286.5 -65.5h-13q-26 0 -22 25zM319 1212l25 195q4 25 25 25h59q27 0 23 -25l-27 -195q-2 -25 -25 -24h-57q-27 -1 -23 24z" />
<glyph unicode="k" horiz-adv-x="921" d="M174 25l170 1382q4 25 27 25h59q25 0 21 -25l-99 -797h70l422 375q29 25 41 25h71q17 0 17 -12q0 -7 -6 -13l-457 -412l391 -548q6 -8 1 -16.5t-15 -8.5h-68q-18 0 -37 25l-362 501h-78l-61 -501q-2 -25 -27 -25h-59q-25 0 -21 25z" />
<glyph unicode="l" horiz-adv-x="452" d="M176 25l168 1382q4 25 29 25h59q23 0 19 -25l-168 -1382q-4 -25 -27 -25h-59q-25 0 -21 25z" />
<glyph unicode="m" horiz-adv-x="1685" d="M176 25l119 960q4 25 27 25h51q25 0 22 -25l-8 -84q164 125 356 125q100 0 165 -38t83 -103q180 141 375 141q125 0 191.5 -57.5t66.5 -151.5q0 -14 -2 -37l-94 -755q-4 -25 -27 -25h-59q-23 0 -21 25l90 731q4 29 5 30q0 66 -45.5 105t-137.5 39q-182 0 -336 -125v-45 l-92 -735q-4 -25 -24 -25h-62q-23 0 -20 25l90 723q4 33 4 38q0 66 -45 105t-137 39q-176 0 -332 -123l-96 -782q-4 -25 -25 -25h-61q-23 0 -21 25z" />
<glyph unicode="n" horiz-adv-x="1075" d="M176 25l119 960q4 25 27 25h51q25 0 22 -25l-6 -86q164 127 367 127q125 0 191.5 -57.5t66.5 -153.5q0 -18 -2 -39l-94 -751q-4 -25 -27 -25h-60q-23 0 -20 25l90 731q4 29 4 30q0 143 -182 143.5t-344 -122.5l-96 -782q-4 -25 -27 -25h-59q-23 0 -21 25z" />
<glyph unicode="o" horiz-adv-x="1040" d="M172 201q0 23 2 35l68 536q31 254 399 254q344 0 344 -217q0 -18 -2 -37l-68 -536q-31 -252 -399 -252q-344 0 -344 217zM281 217q0 -72 56 -107.5t189 -35.5q264 0 285 170l66 522q2 16 2 25q0 145 -246 145q-264 0 -285 -170l-65 -522q-2 -11 -2 -27z" />
<glyph unicode="p" horiz-adv-x="1064" d="M125 -399l170 1382q2 27 27 27h51q25 0 22 -27l-8 -84q176 127 369 127q125 0 190.5 -57.5t65.5 -155.5q0 -18 -2 -39l-68 -538q-31 -252 -307 -252q-203 0 -342 122l-62 -505q-2 -27 -26 -27h-60q-22 0 -20 27zM305 201q127 -121 311 -121q199 0 222 168l63 510 q2 18 2 30q0 141 -182 142q-178 0 -342 -123z" />
<glyph unicode="q" horiz-adv-x="1064" d="M172 199q0 12 4 37l68 538q31 252 309 252q199 0 342 -127l14 84q6 27 27 27h53q25 0 21 -27l-170 -1382q-2 -27 -27 -27h-59q-25 0 -21 27l62 505q-170 -123 -365 -122q-127 0 -192.5 57.5t-65.5 157.5zM281 221q0 -141 184 -141q174 0 342 121l76 606 q-143 123 -314 123q-102 0 -156.5 -47t-64.5 -123l-63 -506q-4 -29 -4 -33z" />
<glyph unicode="r" horiz-adv-x="690" d="M176 25l119 960q4 25 27 25h51q25 0 22 -25l-8 -111q184 150 363 150q25 0 22 -25l-6 -51q-4 -23 -29 -22q-104 -2 -201.5 -47t-158.5 -95l-94 -759q-4 -25 -27 -25h-59q-23 0 -21 25z" />
<glyph unicode="s" horiz-adv-x="950" d="M145 178q0 12 2 33l7 51q2 23 26 23h56q18 0 16 -23l-4 -47q-2 -18 -2 -27q0 -123 241 -122q262 0 283 141l10 88q2 20 2 31q0 66 -112 102l-303 98q-61 18 -102.5 65.5t-41.5 106.5q0 14 2 31l11 80q27 217 368 217q162 0 243 -56.5t81 -140.5q0 -16 -2 -36l-6 -54 q-2 -23 -27 -22h-53q-25 0 -21 22l6 47q2 16 2 39q0 51 -57 86t-172 35q-246 0 -262 -139l-8 -62q-2 -14 -2 -24q0 -80 98 -111l311 -96q150 -49 150 -162q0 -2 -4 -39l-13 -114q-12 -96 -107 -155.5t-280 -59.5q-166 0 -251 54t-85 140z" />
<glyph unicode="t" horiz-adv-x="702" d="M172 942l4 33q2 25 29 24l127 7h2l28 221q2 27 27 26h60q20 0 20 -26l-29 -221h244q25 0 21 -23l-5 -43q-2 -23 -28 -22h-242l-80 -652q-2 -12 -2 -33q0 -141 238 -141h32q27 0 23 -24l-4 -43q-2 -25 -29 -25h-45q-174 0 -248.5 53t-74.5 154q0 31 2 45l82 666h-131 q-25 -1 -21 24z" />
<glyph unicode="u" d="M184 193q0 16 2 34l93 756q2 27 28 27h58q23 0 20 -27l-90 -733q-2 -16 -2 -31q0 -139 182 -139q172 0 332 121l94 782q2 27 27 27h59q23 0 21 -27l-119 -958q-4 -25 -25 -25h-53q-25 0 -23 25l7 81q-156 -123 -355 -122q-125 0 -190.5 57.5t-65.5 151.5z" />
<glyph unicode="v" horiz-adv-x="862" d="M162 983q-2 6 -2 10q0 17 24 17h62q18 0 24 -25l162 -739q8 -35 14 -109q12 53 41 109l344 739q10 25 31 25h58q23 0 23 -14q0 -5 -3 -11l-448 -962q-12 -23 -29 -23h-68q-16 0 -22 23z" />
<glyph unicode="w" horiz-adv-x="1308" d="M158 985q-4 25 24 25h60q20 0 24 -25l111 -762q8 -66 8 -82q6 35 27 82l305 762q10 25 31 25h67q20 0 25 -25l106 -762q8 -66 8 -78q8 31 27 78l301 762q10 25 31 25h53q18 0 18 -14q0 -5 -2 -11l-385 -962q-8 -23 -30 -23h-68q-20 0 -25 23l-106 749q-8 66 -8 94 l-17 -41q-16 -41 -20 -55l-303 -747q-10 -23 -31 -23h-67q-18 0 -23 23z" />
<glyph unicode="x" horiz-adv-x="942" d="M72 13q0 6 6 12l395 489l-264 469q-12 27 14 27h68q16 0 31 -27l229 -393l307 393q18 27 41 27h64q16 0 15 -10q0 -6 -7 -17l-379 -475l272 -481q4 -6 4 -12.5t-4 -10.5t-14 -4h-66q-20 0 -32 25l-234 409l-328 -409q-20 -25 -40 -25h-62q-16 0 -16 13z" />
<glyph unicode="y" horiz-adv-x="862" d="M162 985q-1 4 -1 8q0 17 23 17h62q18 0 24 -25l162 -739q12 -61 17 -107q18 53 40 103l345 743q10 25 30 25h56q24 0 23 -13q0 -5 -3 -12l-643 -1386q-10 -25 -31 -25h-49q-29 0 -16 25l180 397z" />
<glyph unicode="z" horiz-adv-x="933" d="M117 25l6 41q2 16 16 32l643 822h-506q-23 0 -20 24l4 41q2 25 29 25h612q25 0 21 -23l-4 -41q0 -4 -13 -26l-651 -830h559q25 0 23 -24l-5 -41q-4 -25 -28 -25h-664q-24 0 -22 25z" />
<glyph unicode="{" horiz-adv-x="915" d="M176 487l4 43q4 25 27 25h4q240 0 260 170l57 473q31 252 392 252h16q25 0 20 -25l-4 -43q-2 -25 -26 -24h-11q-143 0 -205.5 -44t-72.5 -126l-59 -471q-20 -170 -201 -209q154 -33 153 -172q0 -12 -6 -55l-55 -447q-4 -29 -4 -47q0 -141 240 -141h10q25 0 20 -25l-6 -43 q-2 -25 -24 -24h-9q-342 0 -342 219q0 27 4 55l56 444q6 43 6 52q0 139 -221 139h-2q-25 -1 -21 24z" />
<glyph unicode="|" horiz-adv-x="501" d="M236 -408v1815q0 25 24 25h62q23 0 22 -25v-1815q0 -25 -22 -24h-62q-24 -1 -24 24z" />
<glyph unicode="}" horiz-adv-x="915" d="M80 -422l2 43q0 25 29 25h12q256 0 276 170l60 485q20 170 203 207q-154 33 -154 174q0 14 6 57l53 437q4 37 4 43q0 139 -239 139h-10q-20 0 -21 24l4 43q2 25 27 25h10q338 0 338 -219q0 -18 -4 -51l-53 -439q-4 -41 -5 -45q0 -141 220 -141h2q20 0 20 -25l-2 -43 q0 -25 -29 -24h-2q-240 0 -260 -170l-59 -488q-31 -252 -391 -251h-17q-20 -1 -20 24z" />
<glyph unicode="~" horiz-adv-x="985" d="M229 475l2 43q8 174 136 174q49 0 100 -30l172 -95q61 -31 84 -30q39 0 49 21.5t14 88.5v19q0 23 27 22h33q23 0 20 -26l-2 -46q-8 -174 -131 -174q-51 0 -110 33l-174 96q-47 27 -74 27q-39 0 -51.5 -21.5t-14.5 -87.5v-20q0 -23 -26 -23h-33q-25 0 -21 29z" />
<glyph unicode="&#xa1;" horiz-adv-x="507" d="M152 -358l67 569l68 453q4 25 28 24h41q25 0 21 -24l-45 -453l-68 -569q-2 -25 -28 -25h-64q-24 0 -20 25zM299 827l20 158q2 25 27 25h60q25 0 22 -25l-20 -158q-2 -25 -29 -24h-60q-24 -1 -20 24z" />
<glyph unicode="&#xa2;" horiz-adv-x="1075" d="M223 387q0 25 2 39l68 537q14 115 90 179t248 72l18 154q2 25 27 25h59q23 0 21 -25l-19 -154q276 -16 277 -213q0 -25 -2 -40l-6 -37q-2 -25 -27 -25h-55q-25 0 -21 23l4 34q2 14 2 33q0 137 -235 137q-141 0 -202.5 -44t-72.5 -126l-65 -514q-2 -14 -2 -39 q0 -139 235 -139q141 0 202.5 43t74.5 127l6 49q2 25 27 25h55q23 0 20 -25l-8 -57q-14 -113 -90 -177.5t-246 -72.5l-18 -151q-4 -25 -25 -25h-59q-27 0 -23 25l19 149q-279 16 -279 213z" />
<glyph unicode="&#xa3;" horiz-adv-x="1341" d="M180 25l4 43q2 25 27 24h123l69 563h-120q-25 0 -21 25l4 43q2 23 27 22h121l49 390q16 137 104 205.5t316 68.5q199 0 281.5 -57.5t82.5 -165.5q0 -23 -4 -51l-8 -56q-2 -25 -27 -24h-57q-25 0 -21 26l7 39q2 16 2 45q0 76 -58.5 113t-206.5 37q-166 0 -228 -46 t-77 -149l-45 -375h340q25 0 21 -22l-4 -43q-2 -25 -29 -25h-340l-70 -563h426q96 0 163 54.5t69 189.5v10q2 25 26 25h56q25 0 20 -25v-10q-8 -336 -321 -336h-680q-25 0 -21 25z" />
<glyph unicode="&#xa5;" horiz-adv-x="1052" d="M197 582l2 26q2 25 26 25h287l-68 170h-196q-25 0 -23 22l2 27q2 25 29 25h158l-197 491q-8 25 21 25h69q16 0 27 -25l252 -631q14 -39 20 -67q4 12 37 67l412 631q18 25 35 25h63q31 0 14 -25l-321 -491h164q25 0 22 -25l-2 -27q-2 -23 -29 -22h-204l-111 -170h293 q25 0 22 -25l-2 -26q-4 -25 -28 -25h-322l-65 -532q-2 -25 -27 -25h-61q-25 0 -23 25l66 532h-322q-24 0 -20 25z" />
<glyph unicode="&#xa7;" horiz-adv-x="1122" d="M170 -225q0 16 4 45l2 22q2 25 27 25h53q23 0 20 -27l-2 -18q-4 -25 -4 -37q0 -145 244 -145q260 0 281 170l18 147q4 29 4 39q0 86 -131 123l-270 80q-61 16 -107.5 62t-46.5 122q0 31 2 47l27 205q2 25 26 24h52q25 0 22 -24l-22 -186q-4 -29 -4 -46q0 -88 108 -120 l272 -82q178 -51 179 -189q0 -16 -4 -49l-19 -149q-31 -250 -393 -250q-338 0 -338 211zM315 961q0 16 4 49l19 149q31 250 393 250q338 0 338 -213q0 -2 -4 -43l-2 -23q-2 -25 -27 -24h-53q-23 0 -20 27l2 18l4 37q0 143 -242 143q-262 0 -283 -168l-18 -147q-4 -29 -4 -39 q0 -84 131 -123l270 -80q61 -16 107.5 -62t46.5 -122q0 -31 -2 -47l-27 -207q-2 -25 -26 -25h-54q-25 0 -20 25l24 188q2 14 2 45q0 86 -108 119l-272 82q-179 52 -179 191z" />
<glyph unicode="&#xa8;" horiz-adv-x="630" d="M319 1212l25 201q4 25 27 25h37q23 0 20 -25l-25 -201q-2 -25 -26 -24h-37q-25 -1 -21 24zM520 1212l25 201q4 25 26 25h37q23 0 21 -25l-25 -201q-2 -25 -26 -24h-37q-25 -1 -21 24z" />
<glyph unicode="&#xa9;" horiz-adv-x="1462" d="M229 319v756q0 74 21.5 128t76 104.5t165 76t272.5 25.5t272.5 -25.5t164.5 -76t75.5 -104.5t21.5 -128v-756q0 -74 -21.5 -129t-75.5 -105t-164.5 -75.5t-272.5 -25.5t-272.5 25.5t-165 75.5t-76 105t-21.5 129zM313 307q0 -119 100.5 -184.5t350.5 -65.5t350 65.5 t100 184.5v780q0 117 -101 182.5t-349 65.5q-250 0 -350.5 -65.5t-100.5 -184.5v-778zM483 510v371q0 123 59.5 185t221.5 62q164 0 222 -61t58 -186v-35q0 -25 -24 -25h-47q-25 0 -25 25v33q0 88 -35.5 130t-148.5 42t-147.5 -42t-34.5 -130v-367q0 -86 34.5 -128 t147.5 -42t148.5 42t35.5 128v49q0 25 25 25h47q25 0 24 -25v-51q0 -125 -58 -186.5t-222 -61.5q-162 0 -221.5 62.5t-59.5 185.5z" />
<glyph unicode="&#xaa;" horiz-adv-x="718" d="M244 909q0 20 2 37l39 311q20 152 192 152q119 0 205 -76l10 45q6 20 19 21h45q16 0 12 -17l-70 -575q-2 -14 -16 -14h-49q-12 0 -12 14l2 51q-102 -76 -220 -76q-76 0 -117.5 35t-41.5 92zM330 928q0 -80 102 -80q100 0 199 76l41 342q-84 76 -178 75q-117 0 -127 -96 l-35 -276q-2 -21 -2 -41z" />
<glyph unicode="&#xab;" horiz-adv-x="1234" d="M217 475l8 55q2 18 27 35l414 287q6 4 12 5t9 -4t3 -13l-10 -66q-2 -20 -27 -37l-344 -235l285 -236q23 -18 20 -35l-8 -65q-2 -12 -10 -15.5t-14 3.5l-346 288q-21 17 -19 33zM625 475l8 55q2 18 26 35l414 287q6 4 12.5 5t9.5 -4t3 -13l-11 -66q-2 -20 -26 -37 l-344 -235l284 -236q23 -18 21 -35l-8 -65q-2 -12 -10.5 -15.5t-14.5 3.5l-346 288q-20 17 -18 33z" />
<glyph unicode="&#xac;" horiz-adv-x="763" d="M158 641q0 92 64.5 157.5t156.5 65.5q94 0 159.5 -65.5t65.5 -157.5q0 -94 -65.5 -158.5t-159.5 -64.5q-92 0 -156.5 64.5t-64.5 158.5z" />
<glyph unicode="&#xad;" horiz-adv-x="946" d="M240 571v43q0 23 24 23h551q25 0 25 -23v-43q0 -25 -25 -24h-551q-24 -1 -24 24z" />
<glyph unicode="&#xae;" horiz-adv-x="1261" d="M289 780v363q0 266 436 266q432 0 432 -266v-363q0 -266 -432 -266q-436 0 -436 266zM367 774q0 -190 358 -190q354 0 354 188v377q0 188 -354 188q-358 0 -358 -188v-375zM535 700v506q0 18 16 19h192q197 0 197 -146v-49q0 -104 -104 -133l82 -197q8 -18 -17 -18h-45 q-10 0 -18 18l-78 185h-148v-185q0 -18 -16 -18h-45q-16 0 -16 18zM612 946h125q61 0 93 25.5t32 62.5v41q0 37 -30.5 62.5t-94.5 25.5h-125v-217z" />
<glyph unicode="&#xaf;" horiz-adv-x="858" d="M295 1262l4 36q4 25 29 25h524q27 0 22 -23l-4 -38q-2 -25 -28 -25h-525q-26 0 -22 25z" />
<glyph unicode="&#xb0;" horiz-adv-x="813" d="M260 995q0 29 2 41l23 185q12 90 75.5 137t214.5 47q250 0 250 -160q0 -20 -2 -39l-22 -184q-12 -90 -77 -137t-214 -47q-250 -1 -250 157zM354 1008q0 -94 164 -95q174 0 189 113l22 178q2 16 2 27q0 100 -164 100q-176 0 -190 -112l-21 -183q-2 -18 -2 -28z" />
<glyph unicode="&#xb1;" horiz-adv-x="1196" d="M201 246v43q0 25 24 24h801q25 0 25 -24v-43q0 -25 -25 -25h-801q-24 0 -24 25zM201 758v43q0 23 24 22h355v269q0 25 22 24h43q25 0 25 -24v-269h356q25 0 25 -22v-43q0 -25 -25 -25h-356v-268q0 -27 -25 -27h-43q-23 0 -22 27v268h-355q-24 0 -24 25z" />
<glyph unicode="&#xb4;" horiz-adv-x="688" d="M362 1190l179 240q14 20 32 20h68q29 0 8 -25l-192 -243q-14 -14 -31 -15h-53q-27 0 -11 23z" />
<glyph unicode="&#xb5;" d="M111 -401l172 1384q2 27 26 27h58q25 0 22 -27l-88 -707q-6 -39 -6 -57q0 -143 184 -143q168 0 330 123l96 784q2 27 27 27h57q23 0 21 -27l-117 -958q-2 -25 -27 -25h-53q-23 0 -20 25l6 84q-156 -125 -344 -125q-150 0 -189 77l-49 -462q-4 -25 -24 -25h-60 q-26 0 -22 25z" />
<glyph unicode="&#xb6;" horiz-adv-x="1292" d="M289 807q0 25 4 53l33 264q16 129 109 199t319 70h190q25 0 21 -23l-217 -1769q-2 -27 -29 -27h-60q-23 0 -20 27l119 977h-105q-364 0 -364 229zM930 -399l217 1767q4 25 27 25h61q25 0 20 -25l-217 -1767q-2 -27 -26 -27h-62q-22 0 -20 27z" />
<glyph unicode="&#xb7;" horiz-adv-x="436" d="M217 457l19 157q2 25 26 25h64q23 0 18 -25l-18 -157q-2 -25 -27 -25h-59q-25 0 -23 25z" />
<glyph unicode="&#xb8;" horiz-adv-x="335" d="M-68 -408l2 23q4 25 27 25h227q111 0 111 102q0 76 -88 76h-121q-41 0 -29 30l64 160q10 23 31 21l28 -4q23 -2 13 -31l-43 -105h79q61 0 104.5 -34.5t43.5 -104.5q0 -96 -55.5 -139t-132.5 -43h-240q-25 -1 -21 24z" />
<glyph unicode="&#xba;" horiz-adv-x="724" d="M246 918q0 23 4 51l35 282q20 158 247 158q217 0 218 -135q0 -12 -5 -41l-36 -295q-20 -156 -248 -156q-215 1 -215 136zM330 930q0 -82 137 -82q143 0 158 98l37 289q2 18 2 29q0 80 -138 79q-147 0 -157 -94l-35 -278q-4 -37 -4 -41z" />
<glyph unicode="&#xbb;" horiz-adv-x="1247" d="M219 180l10 66q2 20 27 37l344 235l-285 236q-23 18 -20 34l8 66q2 12 10.5 15t14.5 -3l346 -288q20 -16 18 -33l-8 -56q-2 -18 -27 -34l-413 -287q-6 -4 -12.5 -5t-9.5 4t-3 13zM639 180l10 66q2 20 27 37l344 235l-285 236q-23 18 -20 34l8 66q2 12 10 15t15 -3 l346 -288q20 -16 18 -33l-8 -56q-2 -18 -27 -34l-413 -287q-6 -4 -12.5 -5t-9.5 4t-3 13z" />
<glyph unicode="&#xbf;" horiz-adv-x="1163" d="M152 -152q0 29 2 46l20 172q23 170 195 247l112 54q111 53 125 153l21 144q2 25 26 24h60q23 0 22 -24l-22 -166q-18 -131 -160 -199l-137 -66q-117 -55 -133 -167l-21 -162q-2 -16 -2 -39q0 -172 285 -172q166 0 240.5 54t88.5 157l15 100q2 27 24 27h60q23 0 20 -27 l-14 -115q-16 -135 -115.5 -211.5t-328.5 -76.5q-383 -1 -383 247zM647 827l19 158q2 25 26 25h62q23 0 20 -25l-18 -156q-2 -27 -29 -26h-61q-23 -1 -19 24z" />
<glyph unicode="&#xc0;" d="M55 25l580 1343q12 25 35 25h63q25 0 27 -25l250 -1343q6 -25 -19 -25h-63q-23 0 -27 25l-76 397h-493l-170 -397q-12 -25 -31 -25h-59q-27 0 -17 25zM371 510h442l-104 549l-25 219q-2 -6 -16.5 -53l-29.5 -92.5t-26 -69.5zM498 1774q-12 25 14 24h63q20 0 31 -20 l115 -240q12 -23 -12 -22h-47q-23 0 -31 14z" />
<glyph unicode="&#xc1;" d="M55 25l580 1343q12 25 35 25h63q25 0 27 -25l250 -1343q6 -25 -19 -25h-63q-23 0 -27 25l-76 397h-493l-170 -397q-12 -25 -31 -25h-59q-27 0 -17 25zM371 510h442l-104 549l-25 219q-2 -6 -16.5 -53l-29.5 -92.5t-26 -69.5zM666 1538l176 240q14 20 32 20h68q29 0 8 -24 l-192 -244q-14 -14 -31 -14h-53q-22 -1 -8 22z" />
<glyph unicode="&#xc2;" d="M55 25l580 1343q12 25 35 25h63q25 0 27 -25l250 -1343q6 -25 -19 -25h-63q-23 0 -27 25l-76 397h-493l-170 -397q-12 -25 -31 -25h-59q-27 0 -17 25zM371 510h442l-104 549l-25 219q-2 -6 -16.5 -53l-29.5 -92.5t-26 -69.5zM483 1540l187 234q20 25 43 24h39 q20 0 34 -22l134 -236q14 -25 -17 -24h-45q-20 0 -33 24l-100 189l-147 -189q-20 -25 -35 -24h-49q-29 -1 -11 24z" />
<glyph unicode="&#xc3;" d="M55 25l580 1343q12 25 35 25h63q25 0 27 -25l250 -1343q6 -25 -19 -25h-63q-23 0 -27 25l-76 397h-493l-170 -397q-12 -25 -31 -25h-59q-27 0 -17 25zM371 510h442l-104 549l-25 219q-2 -6 -16.5 -53l-29.5 -92.5t-26 -69.5zM412 1573l8 41q27 166 151 166q57 0 107 -43 l82 -74q37 -33 65 -33q37 0 51.5 22.5t24.5 88.5l2 18q2 23 29 23h33q23 0 18 -27l-6 -41q-27 -168 -154 -168q-55 0 -106 45l-84 74q-39 31 -64 31q-37 0 -51 -21.5t-22 -79.5l-4 -28q-6 -23 -29 -23h-33q-22 0 -18 29z" />
<glyph unicode="&#xc4;" d="M55 25l580 1343q12 25 35 25h63q25 0 27 -25l250 -1343q6 -25 -19 -25h-63q-23 0 -27 25l-76 397h-493l-170 -397q-12 -25 -31 -25h-59q-27 0 -17 25zM371 510h442l-104 549l-25 219q-2 -6 -16.5 -53l-29.5 -92.5t-26 -69.5zM565 1554l23 201q2 25 28 25h37q23 0 21 -25 l-25 -201q-2 -25 -26 -24h-37q-25 -1 -21 24zM766 1554l22 201q2 25 29 25h37q23 0 20 -25l-24 -201q-2 -25 -27 -24h-37q-24 -1 -20 24z" />
<glyph unicode="&#xc5;" d="M55 25l580 1343q12 25 35 25h63q25 0 27 -25l250 -1343q6 -25 -19 -25h-63q-23 0 -27 25l-76 397h-493l-170 -397q-12 -25 -31 -25h-59q-27 0 -17 25zM371 510h442l-104 549l-25 219q-2 -6 -16.5 -53l-29.5 -92.5t-26 -69.5zM528 1597q0 14 2 35l5 45q10 133 198 133 q82 0 126 -33.5t44 -86.5q0 -12 -2 -35l-4 -43q-14 -131 -197 -131q-84 0 -128 32.5t-44 83.5zM596 1614q0 -72 106 -72q123 0 129 80l3 23q2 16 2 32q0 72 -109 72q-121 0 -127 -82l-2 -25q-2 -18 -2 -28z" />
<glyph unicode="&#xc6;" horiz-adv-x="1720" d="M57 25l944 1343q14 25 46 25h688q25 0 22 -23l-6 -45q-2 -23 -27 -22h-614l-63 -525h575q25 0 23 -24l-7 -41q-4 -25 -26 -25h-578l-73 -596h638q27 0 23 -24l-6 -43q-2 -25 -27 -25h-710q-16 0 -24.5 6t-6.5 23l49 393h-453l-276 -397q-16 -25 -35 -25h-59q-33 0 -17 25 zM510 510h399l84 698q-41 -66 -82 -123z" />
<glyph unicode="&#xc7;" horiz-adv-x="1120" d="M203 227q0 16 4 49l102 844q16 135 116.5 212t334.5 77q389 0 389 -246q0 -14 -4 -47l-12 -102q-2 -27 -25 -27h-59q-27 0 -23 27l12 86q2 12 2 39q0 176 -288 176q-170 0 -246 -54.5t-90 -156.5l-99 -811q-2 -14 -2 -41q0 -174 285 -174q313 0 338 211l14 117 q2 23 27 22h57q27 0 23 -22l-17 -134q-16 -135 -118.5 -211.5t-333.5 -76.5h-12l-39 -95h79q61 0 104.5 -34.5t43.5 -104.5q0 -96 -55.5 -139t-132.5 -43h-240q-25 0 -21 24l2 23q4 25 27 25h227q111 0 111 102q0 76 -88 76h-121q-41 0 -29 30l56 140q-299 24 -299 239z" />
<glyph unicode="&#xc8;" horiz-adv-x="1079" d="M199 25l166 1343q4 25 26 25h701q23 0 20 -25l-6 -45q-2 -25 -27 -25h-614l-64 -520h578q23 0 20 -24l-4 -43q-4 -25 -28 -25h-576l-74 -592h637q25 0 23 -24l-6 -45q-2 -25 -25 -25h-725q-24 0 -22 25zM557 1774q-12 25 14 24h64q20 0 31 -20l114 -240q10 -23 -12 -22 h-47q-25 0 -31 14z" />
<glyph unicode="&#xc9;" horiz-adv-x="1079" d="M199 25l166 1343q4 25 26 25h701q23 0 20 -25l-6 -45q-2 -25 -27 -25h-614l-64 -520h578q23 0 20 -24l-4 -43q-4 -25 -28 -25h-576l-74 -592h637q25 0 23 -24l-6 -45q-2 -25 -25 -25h-725q-24 0 -22 25zM694 1538l176 240q14 20 33 20h68q29 0 8 -24l-193 -244 q-14 -14 -30 -14h-54q-22 -1 -8 22z" />
<glyph unicode="&#xca;" horiz-adv-x="1079" d="M199 25l166 1343q4 25 26 25h701q23 0 20 -25l-6 -45q-2 -25 -27 -25h-614l-64 -520h578q23 0 20 -24l-4 -43q-4 -25 -28 -25h-576l-74 -592h637q25 0 23 -24l-6 -45q-2 -25 -25 -25h-725q-24 0 -22 25zM530 1540l187 234q20 25 43 24h39q20 0 35 -22l133 -236 q14 -25 -17 -24h-45q-20 0 -33 24l-100 189l-147 -189q-20 -25 -35 -24h-49q-29 -1 -11 24z" />
<glyph unicode="&#xcb;" horiz-adv-x="1079" d="M199 25l166 1343q4 25 26 25h701q23 0 20 -25l-6 -45q-2 -25 -27 -25h-614l-64 -520h578q23 0 20 -24l-4 -43q-4 -25 -28 -25h-576l-74 -592h637q25 0 23 -24l-6 -45q-2 -25 -25 -25h-725q-24 0 -22 25zM623 1554l22 201q2 25 29 25h37q23 0 20 -25l-24 -201 q-2 -25 -27 -24h-37q-24 -1 -20 24zM823 1554l23 201q2 25 28 25h37q23 0 21 -25l-25 -201q-2 -25 -26 -24h-37q-25 -1 -21 24z" />
<glyph unicode="&#xcc;" horiz-adv-x="501" d="M199 25l166 1343q4 25 26 25h62q23 0 20 -25l-166 -1343q-4 -25 -24 -25h-62q-24 0 -22 25zM244 1774q-12 25 14 24h64q20 0 30 -20l115 -240q12 -23 -12 -22h-47q-23 0 -31 14z" />
<glyph unicode="&#xcd;" horiz-adv-x="501" d="M199 25l166 1343q4 25 26 25h62q23 0 20 -25l-166 -1343q-4 -25 -24 -25h-62q-24 0 -22 25zM395 1538l176 240q14 20 33 20h68q29 0 8 -24l-193 -244q-14 -14 -30 -14h-54q-22 -1 -8 22z" />
<glyph unicode="&#xce;" horiz-adv-x="501" d="M199 25l166 1343q4 25 26 25h62q23 0 20 -25l-166 -1343q-4 -25 -24 -25h-62q-24 0 -22 25zM215 1540l186 234q20 25 43 24h39q20 0 35 -22l133 -236q14 -25 -16 -24h-45q-20 0 -33 24l-100 189l-148 -189q-20 -25 -35 -24h-49q-28 -1 -10 24z" />
<glyph unicode="&#xcf;" horiz-adv-x="501" d="M199 25l166 1343q4 25 26 25h62q23 0 20 -25l-166 -1343q-4 -25 -24 -25h-62q-24 0 -22 25zM301 1554l23 201q4 25 28 25h37q25 0 21 -25l-25 -201q-4 -25 -27 -24h-36q-23 -1 -21 24zM502 1554l22 201q4 25 29 25h37q25 0 20 -25l-24 -201q-4 -25 -27 -24h-37 q-22 -1 -20 24z" />
<glyph unicode="&#xd0;" horiz-adv-x="1226" d="M102 688l4 37q2 23 29 23h152l78 620q4 25 26 25h400q399 0 399 -250q0 -35 -2 -49l-98 -805q-37 -289 -461 -289h-410q-23 0 -20 25l77 639h-153q-23 -1 -21 24zM317 94h318q317 0 346 211l96 776q2 14 2 39q0 178 -297 178h-317l-68 -550h287q20 0 21 -23l-3 -37 q-2 -25 -28 -24h-287z" />
<glyph unicode="&#xd1;" horiz-adv-x="1247" d="M199 25l163 1343q2 25 29 25h49q16 0 21 -11l463 -1050l47 -117l141 1153q2 25 29 25h53q23 0 20 -25l-163 -1343q-2 -25 -27 -25h-51q-16 0 -23 12l-458 1043l-48 125l-143 -1155q-2 -25 -25 -25h-55q-24 0 -22 25zM537 1573l8 41q14 90 52 128t99 38q57 0 107 -43 l82 -74q37 -33 65 -33q37 0 51.5 22.5t24.5 88.5l2 18q2 23 29 23h33q23 0 18 -27l-6 -41q-27 -168 -154 -168q-55 0 -106 45l-84 74q-39 31 -64 31q-37 0 -51 -21.5t-22 -79.5l-5 -28q-6 -23 -28 -23h-33q-22 0 -18 29z" />
<glyph unicode="&#xd2;" horiz-adv-x="1202" d="M203 229q0 14 4 47l102 844q33 289 459 289q399 0 399 -250q0 -29 -2 -43l-104 -844q-33 -289 -461 -288q-397 -1 -397 245zM313 256q0 -178 295 -178q317 0 346 211l101 811q2 12 2 37q0 178 -297 178q-315 0 -344 -211l-99 -811q-4 -33 -4 -37zM596 1774q-12 25 14 24 h64q20 0 31 -20l114 -240q12 -23 -12 -22h-47q-23 0 -31 14z" />
<glyph unicode="&#xd3;" horiz-adv-x="1202" d="M203 229q0 14 4 47l102 844q33 289 459 289q399 0 399 -250q0 -29 -2 -43l-104 -844q-33 -289 -461 -288q-397 -1 -397 245zM313 256q0 -178 295 -178q317 0 346 211l101 811q2 12 2 37q0 178 -297 178q-315 0 -344 -211l-99 -811q-4 -33 -4 -37zM737 1538l176 240 q14 20 33 20h68q29 0 8 -24l-193 -244q-14 -14 -30 -14h-54q-22 -1 -8 22z" />
<glyph unicode="&#xd4;" horiz-adv-x="1202" d="M203 229q0 14 4 47l102 844q33 289 459 289q399 0 399 -250q0 -29 -2 -43l-104 -844q-33 -289 -461 -288q-397 -1 -397 245zM313 256q0 -178 295 -178q317 0 346 211l101 811q2 12 2 37q0 178 -297 178q-315 0 -344 -211l-99 -811q-4 -33 -4 -37zM563 1540l187 234 q20 25 43 24h38q20 0 35 -22l133 -236q14 -25 -16 -24h-45q-20 0 -33 24l-100 189l-148 -189q-20 -25 -34 -24h-50q-28 -1 -10 24z" />
<glyph unicode="&#xd5;" horiz-adv-x="1202" d="M203 229q0 14 4 47l102 844q33 289 459 289q399 0 399 -250q0 -29 -2 -43l-104 -844q-33 -289 -461 -288q-397 -1 -397 245zM313 256q0 -178 295 -178q317 0 346 211l101 811q2 12 2 37q0 178 -297 178q-315 0 -344 -211l-99 -811q-4 -33 -4 -37zM512 1573l8 41 q14 90 52 128t100 38q57 0 106 -43l82 -74q37 -33 66 -33q37 0 51 22.5t24 88.5l3 18q2 23 28 23h33q23 0 18 -27l-6 -41q-27 -168 -153 -168q-55 0 -107 45l-84 74q-39 31 -63 31q-37 0 -51.5 -21.5t-22.5 -79.5l-4 -28q-6 -23 -29 -23h-33q-22 0 -18 29z" />
<glyph unicode="&#xd6;" horiz-adv-x="1202" d="M203 229q0 14 4 47l102 844q33 289 459 289q399 0 399 -250q0 -29 -2 -43l-104 -844q-33 -289 -461 -288q-397 -1 -397 245zM313 256q0 -178 295 -178q317 0 346 211l101 811q2 12 2 37q0 178 -297 178q-315 0 -344 -211l-99 -811q-4 -33 -4 -37zM645 1554l23 201 q4 25 28 25h37q25 0 21 -25l-25 -201q-4 -25 -27 -24h-36q-23 -1 -21 24zM846 1554l22 201q4 25 29 25h37q25 0 20 -25l-24 -201q-4 -25 -27 -24h-37q-22 -1 -20 24z" />
<glyph unicode="&#xd8;" horiz-adv-x="1202" d="M203 227q0 14 4 47l102 844q33 289 459 289q176 0 274 -51l37 63q16 25 33 25h31q20 0 8 -25l-57 -96q74 -66 73 -166q0 -29 -2 -43l-104 -844q-37 -289 -461 -288q-172 0 -274 49l-33 -58q-18 -29 -35 -28h-31q-25 0 -6 28l53 90q-71 60 -71 164zM313 254q0 -53 23 -86 l651 1096q-76 49 -227 49q-319 0 -344 -211l-99 -811q-4 -25 -4 -37zM381 123q72 -47 227 -47q317 0 346 211l101 811q2 12 2 37q0 49 -25 86z" />
<glyph unicode="&#xd9;" horiz-adv-x="1226" d="M213 233q0 18 4 48l133 1087q2 25 27 25h61q23 0 21 -25l-131 -1067q-4 -37 -4 -45q0 -178 294 -178q317 0 347 211l133 1079q4 25 24 25h62q25 0 22 -25l-135 -1096q-33 -289 -461 -288q-397 -1 -397 249zM604 1774q-12 25 14 24h64q20 0 31 -20l114 -240 q12 -23 -12 -22h-47q-23 0 -31 14z" />
<glyph unicode="&#xda;" horiz-adv-x="1226" d="M213 233q0 18 4 48l133 1087q2 25 27 25h61q23 0 21 -25l-131 -1067q-4 -37 -4 -45q0 -178 294 -178q317 0 347 211l133 1079q4 25 24 25h62q25 0 22 -25l-135 -1096q-33 -289 -461 -288q-397 -1 -397 249zM748 1538l176 240q14 20 32 20h68q29 0 8 -24l-192 -244 q-14 -14 -31 -14h-53q-22 -1 -8 22z" />
<glyph unicode="&#xdb;" horiz-adv-x="1226" d="M213 233q0 18 4 48l133 1087q2 25 27 25h61q23 0 21 -25l-131 -1067q-4 -37 -4 -45q0 -178 294 -178q317 0 347 211l133 1079q4 25 24 25h62q25 0 22 -25l-135 -1096q-33 -289 -461 -288q-397 -1 -397 249zM575 1540l187 234q20 25 43 24h39q20 0 35 -22l133 -236 q14 -25 -17 -24h-45q-20 0 -32 24l-101 189l-147 -189q-20 -25 -35 -24h-49q-29 -1 -11 24z" />
<glyph unicode="&#xdc;" horiz-adv-x="1226" d="M213 233q0 18 4 48l133 1087q2 25 27 25h61q23 0 21 -25l-131 -1067q-4 -37 -4 -45q0 -178 294 -178q317 0 347 211l133 1079q4 25 24 25h62q25 0 22 -25l-135 -1096q-33 -289 -461 -288q-397 -1 -397 249zM651 1554l23 201q2 25 28 25h37q23 0 21 -25l-25 -201 q-2 -25 -26 -24h-37q-25 -1 -21 24zM852 1554l22 201q2 25 29 25h37q23 0 21 -25l-25 -201q-2 -25 -27 -24h-37q-24 -1 -20 24z" />
<glyph unicode="&#xdd;" horiz-adv-x="1042" d="M213 1368q-8 25 20 25h70q16 0 27 -25l252 -631q14 -39 20 -67q4 12 37 67l412 631q18 25 34 25h64q31 0 14 -25l-516 -790l-67 -553q-2 -25 -27 -25h-61q-25 0 -23 25l68 540zM664 1538l176 240q14 20 32 20h68q29 0 8 -24l-192 -244q-14 -14 -31 -14h-53q-22 -1 -8 22z " />
<glyph unicode="&#xde;" horiz-adv-x="1153" d="M199 25l163 1343q2 25 29 25h62q23 0 20 -25l-43 -358h309q209 0 303.5 -69t94.5 -181q0 -27 -2 -41l-27 -217q-16 -135 -120.5 -212t-340.5 -77h-315l-25 -188q-4 -25 -24 -25h-62q-24 0 -22 25zM342 305h313q322 0 346 213l23 187q2 12 2 32q0 180 -295 181h-313z" />
<glyph unicode="&#xdf;" horiz-adv-x="1212" d="M176 938l4 37q2 25 27 24l131 7h2l25 192q31 252 411 252q352 0 352 -219q0 -4 -4 -49l-6 -60q-8 -76 -64.5 -117.5t-117.5 -58.5l-133 -35q-41 -10 -61.5 -18t-43 -30.5t-26.5 -55.5l-2 -21v-12q0 -66 106 -108l234 -91q166 -66 166 -176q0 -14 -2 -37l-15 -129 q-14 -123 -92 -186t-268 -63q-166 0 -233.5 50t-67.5 148q0 12 2 43l2 31q2 25 28 25h41q23 0 21 -25l-2 -29q-2 -25 -2 -34q0 -66 47 -100t168 -34q135 0 190.5 43t65.5 125l12 107q4 41 4 43q0 35 -28.5 62.5t-45 34.5t-51.5 20l-227 84q-55 20 -102.5 64t-47.5 112 q0 18 2 32l5 23q23 127 180 168l119 31q129 33 139 120l6 50q2 20 2 41q0 150 -258 149q-279 0 -299 -176l-141 -1167q-4 -25 -29 -25h-59q-23 0 -21 25l111 893h-133q-23 0 -21 20z" />
<glyph unicode="&#xe0;" horiz-adv-x="1064" d="M172 195q0 12 4 41l68 538q31 252 309 252q199 0 342 -127l14 84q6 27 27 27h53q23 0 21 -27l-119 -958q-2 -25 -27 -25h-53q-20 0 -20 25l6 84q-174 -125 -369 -125q-125 0 -190.5 56.5t-65.5 154.5zM281 219q0 -139 184 -139q174 0 342 121l76 606q-143 123 -314 123 q-100 0 -155.5 -47t-65.5 -123l-65 -512q-2 -11 -2 -29zM471 1425q-12 25 16 25h62q20 0 31 -20l116 -240q12 -23 -14 -23h-47q-20 0 -29 15z" />
<glyph unicode="&#xe1;" horiz-adv-x="1064" d="M172 195q0 12 4 41l68 538q31 252 309 252q199 0 342 -127l14 84q6 27 27 27h53q23 0 21 -27l-119 -958q-2 -25 -27 -25h-53q-20 0 -20 25l6 84q-174 -125 -369 -125q-125 0 -190.5 56.5t-65.5 154.5zM281 219q0 -139 184 -139q174 0 342 121l76 606q-143 123 -314 123 q-100 0 -155.5 -47t-65.5 -123l-65 -512q-2 -11 -2 -29zM592 1190l178 240q14 20 33 20h67q29 0 9 -25l-193 -243q-14 -14 -31 -15h-53q-26 0 -10 23z" />
<glyph unicode="&#xe2;" horiz-adv-x="1064" d="M172 195q0 12 4 41l68 538q31 252 309 252q199 0 342 -127l14 84q6 27 27 27h53q23 0 21 -27l-119 -958q-2 -25 -27 -25h-53q-20 0 -20 25l6 84q-174 -125 -369 -125q-125 0 -190.5 56.5t-65.5 154.5zM281 219q0 -139 184 -139q174 0 342 121l76 606q-143 123 -314 123 q-100 0 -155.5 -47t-65.5 -123l-65 -512q-2 -11 -2 -29zM420 1192l188 233q18 25 41 25h41q20 0 35 -23l131 -235q14 -25 -14 -25h-45q-20 0 -33 25l-100 188l-148 -188q-20 -25 -35 -25h-49q-30 0 -12 25z" />
<glyph unicode="&#xe3;" horiz-adv-x="1064" d="M172 195q0 12 4 41l68 538q31 252 309 252q199 0 342 -127l14 84q6 27 27 27h53q23 0 21 -27l-119 -958q-2 -25 -27 -25h-53q-20 0 -20 25l6 84q-174 -125 -369 -125q-125 0 -190.5 56.5t-65.5 154.5zM281 219q0 -139 184 -139q174 0 342 121l76 606q-143 123 -314 123 q-100 0 -155.5 -47t-65.5 -123l-65 -512q-2 -11 -2 -29zM369 1214l8 41q29 168 151 168q55 0 107 -45l82 -73q41 -33 65 -33q37 0 51.5 22.5t24.5 87.5l2 19q2 23 29 22h33q25 0 18 -26l-6 -39q-25 -168 -152 -168q-55 0 -108 43l-84 74q-41 33 -64 32q-37 0 -51 -21.5 t-22 -80.5l-4 -27q-2 -23 -29 -22h-33q-22 -1 -18 26z" />
<glyph unicode="&#xe4;" horiz-adv-x="1064" d="M172 195q0 12 4 41l68 538q31 252 309 252q199 0 342 -127l14 84q6 27 27 27h53q23 0 21 -27l-119 -958q-2 -25 -27 -25h-53q-20 0 -20 25l6 84q-174 -125 -369 -125q-125 0 -190.5 56.5t-65.5 154.5zM281 219q0 -139 184 -139q174 0 342 121l76 606q-143 123 -314 123 q-100 0 -155.5 -47t-65.5 -123l-65 -512q-2 -11 -2 -29zM502 1212l24 201q2 25 27 25h37q25 0 20 -25l-24 -201q-4 -25 -27 -24h-37q-22 -1 -20 24zM702 1212l25 201q2 25 27 25h37q25 0 20 -25l-25 -201q-4 -25 -26 -24h-37q-23 -1 -21 24z" />
<glyph unicode="&#xe5;" horiz-adv-x="1064" d="M172 195q0 12 4 41l68 538q31 252 309 252q199 0 342 -127l14 84q6 27 27 27h53q23 0 21 -27l-119 -958q-2 -25 -27 -25h-53q-20 0 -20 25l6 84q-174 -125 -369 -125q-125 0 -190.5 56.5t-65.5 154.5zM281 219q0 -139 184 -139q174 0 342 121l76 606q-143 123 -314 123 q-100 0 -155.5 -47t-65.5 -123l-65 -512q-2 -11 -2 -29zM492 1255q0 14 2 35l4 45q10 133 198 133q82 0 126 -33.5t44 -86.5q0 -12 -2 -35l-4 -43q-14 -131 -196 -131q-84 0 -128 32.5t-44 83.5zM559 1272q0 -72 107 -72q123 0 129 80l2 23q2 16 2 32q0 72 -109 72 q-121 0 -127 -82l-2 -25q-2 -18 -2 -28z" />
<glyph unicode="&#xe6;" horiz-adv-x="1615" d="M156 186q0 16 2 35l12 96q12 102 86 167t199 65h370l25 207q4 33 4 43q0 143 -233 143q-143 0 -206 -44t-71 -124l-4 -37q-2 -25 -27 -24h-51q-25 0 -22 24l4 37q14 121 101 186.5t284 65.5q236 0 291 -121q82 121 327 121q332 0 332 -215q0 -18 -2 -39l-31 -254 q-4 -23 -24 -22h-598l-31 -244q-4 -33 -4 -39q0 -143 241 -143q260 0 281 168l6 47q4 25 27 24h51q25 0 21 -24l-7 -52q-14 -121 -101 -185t-286 -64q-281 0 -323 147q-182 -147 -379 -147q-119 0 -191.5 53t-72.5 149zM262 213q0 -141 180 -141q162 0 342 139l31 254h-356 q-82 0 -130 -45t-57 -117l-6 -51q-4 -37 -4 -39zM932 578h520l25 192q2 16 2 27q0 143 -240 143q-262 0 -283 -170z" />
<glyph unicode="&#xe7;" horiz-adv-x="974" d="M172 197q0 25 2 39l68 536q14 123 102 188.5t287 65.5q332 0 332 -215q0 -25 -2 -41l-7 -37q-2 -25 -26 -24h-56q-25 0 -20 22l4 35q2 14 2 33q0 137 -235 137q-141 0 -203 -44t-72 -126l-65 -514q-2 -14 -2 -39q0 -139 235 -139q141 0 202.5 43t74.5 127l6 49 q2 25 26 24h56q25 0 20 -24l-8 -57q-14 -119 -99 -184.5t-276 -67.5l-39 -95h80q61 0 104.5 -34.5t43.5 -104.5q0 -96 -55.5 -139t-133.5 -43h-239q-25 0 -21 24l2 23q2 25 27 25h227q111 0 111 102q0 76 -88 76h-121q-41 0 -29 30l53 138q-268 21 -268 211z" />
<glyph unicode="&#xe8;" horiz-adv-x="1003" d="M172 199q0 25 2 37l68 536q14 121 104 187.5t287 66.5q336 0 336 -215q0 -27 -2 -39l-33 -254q-4 -23 -25 -22h-598l-30 -248q-4 -29 -5 -35q0 -143 242 -143q260 0 281 168l6 47q2 25 29 24h51q25 0 20 -24l-6 -49q-14 -121 -101 -186.5t-288 -65.5q-338 0 -338 215z M322 578h518l24 186q2 10 2 33q0 143 -239 143q-260 0 -281 -170zM467 1425q-12 25 16 25h62q20 0 30 -20l117 -240q12 -23 -14 -23h-47q-20 0 -29 15z" />
<glyph unicode="&#xe9;" horiz-adv-x="1003" d="M172 199q0 25 2 37l68 536q14 121 104 187.5t287 66.5q336 0 336 -215q0 -27 -2 -39l-33 -254q-4 -23 -25 -22h-598l-30 -248q-4 -29 -5 -35q0 -143 242 -143q260 0 281 168l6 47q2 25 29 24h51q25 0 20 -24l-6 -49q-14 -121 -101 -186.5t-288 -65.5q-338 0 -338 215z M322 578h518l24 186q2 10 2 33q0 143 -239 143q-260 0 -281 -170zM600 1190l178 240q14 20 33 20h68q29 0 8 -25l-193 -243q-14 -14 -30 -15h-54q-26 0 -10 23z" />
<glyph unicode="&#xea;" horiz-adv-x="1003" d="M172 199q0 25 2 37l68 536q14 121 104 187.5t287 66.5q336 0 336 -215q0 -27 -2 -39l-33 -254q-4 -23 -25 -22h-598l-30 -248q-4 -29 -5 -35q0 -143 242 -143q260 0 281 168l6 47q2 25 29 24h51q25 0 20 -24l-6 -49q-14 -121 -101 -186.5t-288 -65.5q-338 0 -338 215z M322 578h518l24 186q2 10 2 33q0 143 -239 143q-260 0 -281 -170zM426 1192l188 233q18 25 41 25h41q20 0 35 -23l131 -235q14 -25 -14 -25h-45q-20 0 -33 25l-100 188l-148 -188q-20 -25 -35 -25h-49q-30 0 -12 25z" />
<glyph unicode="&#xeb;" horiz-adv-x="1003" d="M172 199q0 25 2 37l68 536q14 121 104 187.5t287 66.5q336 0 336 -215q0 -27 -2 -39l-33 -254q-4 -23 -25 -22h-598l-30 -248q-4 -29 -5 -35q0 -143 242 -143q260 0 281 168l6 47q2 25 29 24h51q25 0 20 -24l-6 -49q-14 -121 -101 -186.5t-288 -65.5q-338 0 -338 215z M322 578h518l24 186q2 10 2 33q0 143 -239 143q-260 0 -281 -170zM500 1212l24 201q4 25 27 25h37q23 0 20 -25l-24 -201q-2 -25 -27 -24h-37q-24 -1 -20 24zM700 1212l25 201q4 25 27 25h36q23 0 21 -25l-25 -201q-2 -25 -26 -24h-37q-25 -1 -21 24z" />
<glyph unicode="&#xec;" horiz-adv-x="452" d="M176 25l119 960q4 25 27 25h57q27 0 22 -25l-118 -960q-4 -25 -27 -25h-59q-23 0 -21 25zM176 1425q-12 25 17 25h61q20 0 31 -20l116 -240q12 -23 -14 -23h-47q-20 0 -29 15z" />
<glyph unicode="&#xed;" horiz-adv-x="452" d="M176 25l119 960q4 25 27 25h57q27 0 22 -25l-118 -960q-4 -25 -27 -25h-59q-23 0 -21 25zM326 1190l178 240q14 20 33 20h67q29 0 8 -25l-192 -243q-14 -14 -31 -15h-53q-26 0 -10 23z" />
<glyph unicode="&#xee;" horiz-adv-x="452" d="M150 1192l188 233q18 25 41 25h41q20 0 35 -23l131 -235q14 -25 -15 -25h-45q-20 0 -32 25l-101 188l-147 -188q-20 -25 -35 -25h-49q-30 0 -12 25zM176 25l119 960q4 25 27 25h57q27 0 22 -25l-118 -960q-4 -25 -27 -25h-59q-23 0 -21 25z" />
<glyph unicode="&#xef;" horiz-adv-x="452" d="M176 25l119 960q4 25 27 25h57q27 0 22 -25l-118 -960q-4 -25 -27 -25h-59q-23 0 -21 25zM236 1212l24 201q2 25 27 25h37q25 0 20 -25l-25 -201q-4 -25 -26 -24h-37q-22 -1 -20 24zM436 1212l25 201q2 25 26 25h37q25 0 21 -25l-25 -201q-4 -25 -26 -24h-37 q-23 -1 -21 24z" />
<glyph unicode="&#xf0;" horiz-adv-x="1130" d="M174 199q0 25 2 37l64 538q31 252 311 252q193 0 340 -125l35 279q0 4 1 12t1 12q0 27 -10 53l-179 -71q-27 -12 -32 10l-5 16q-8 23 15 31l180 72q-51 55 -209 55h-178q-23 0 -21 23l3 32q2 25 28 25h178q219 0 291 -88l117 49q20 8 29 -8l8 -17q10 -20 -17 -30 l-106 -47q12 -31 12 -68q0 -29 -2 -43l-119 -962q-14 -121 -104 -186.5t-289 -65.5q-344 0 -344 215zM281 217q0 -145 245 -145q264 0 285 172l70 565q-137 123 -314 123q-102 0 -156.5 -47t-64.5 -123l-63 -518q-2 -11 -2 -27z" />
<glyph unicode="&#xf1;" horiz-adv-x="1075" d="M176 25l119 960q4 25 27 25h51q25 0 22 -25l-6 -86q164 127 367 127q125 0 191.5 -57.5t66.5 -153.5q0 -18 -2 -39l-94 -751q-4 -25 -27 -25h-60q-23 0 -20 25l90 731q4 29 4 30q0 143 -182 143.5t-344 -122.5l-96 -782q-4 -25 -27 -25h-59q-23 0 -21 25zM408 1214l8 41 q29 168 151 168q55 0 107 -45l82 -73q41 -33 65 -33q37 0 51.5 22.5t24.5 87.5l2 19q2 23 29 22h33q25 0 18 -26l-6 -39q-25 -168 -152 -168q-55 0 -108 43l-84 74q-41 33 -64 32q-37 0 -51 -21.5t-22 -80.5l-5 -27q-2 -23 -28 -22h-33q-22 -1 -18 26z" />
<glyph unicode="&#xf2;" horiz-adv-x="1040" d="M172 201q0 23 2 35l68 536q31 254 399 254q344 0 344 -217q0 -18 -2 -37l-68 -536q-31 -252 -399 -252q-344 0 -344 217zM281 217q0 -72 56 -107.5t189 -35.5q264 0 285 170l66 522q2 16 2 25q0 145 -246 145q-264 0 -285 -170l-65 -522q-2 -11 -2 -27zM457 1425 q-12 25 16 25h62q20 0 30 -20l117 -240q10 -23 -14 -23h-47q-23 0 -29 15z" />
<glyph unicode="&#xf3;" horiz-adv-x="1040" d="M172 201q0 23 2 35l68 536q31 254 399 254q344 0 344 -217q0 -18 -2 -37l-68 -536q-31 -252 -399 -252q-344 0 -344 217zM281 217q0 -72 56 -107.5t189 -35.5q264 0 285 170l66 522q2 16 2 25q0 145 -246 145q-264 0 -285 -170l-65 -522q-2 -11 -2 -27zM606 1190l178 240 q14 20 33 20h68q29 0 8 -25l-193 -243q-14 -14 -30 -15h-54q-26 0 -10 23z" />
<glyph unicode="&#xf4;" horiz-adv-x="1040" d="M172 201q0 23 2 35l68 536q31 254 399 254q344 0 344 -217q0 -18 -2 -37l-68 -536q-31 -252 -399 -252q-344 0 -344 217zM281 217q0 -72 56 -107.5t189 -35.5q264 0 285 170l66 522q2 16 2 25q0 145 -246 145q-264 0 -285 -170l-65 -522q-2 -11 -2 -27zM438 1192l189 233 q18 25 41 25h41q20 0 34 -23l131 -235q14 -25 -14 -25h-45q-20 0 -33 25l-100 188l-147 -188q-20 -25 -35 -25h-49q-31 0 -13 25z" />
<glyph unicode="&#xf5;" horiz-adv-x="1040" d="M172 201q0 23 2 35l68 536q31 254 399 254q344 0 344 -217q0 -18 -2 -37l-68 -536q-31 -252 -399 -252q-344 0 -344 217zM281 217q0 -72 56 -107.5t189 -35.5q264 0 285 170l66 522q2 16 2 25q0 145 -246 145q-264 0 -285 -170l-65 -522q-2 -11 -2 -27zM371 1214l8 41 q29 168 151 168q55 0 107 -45l82 -73q41 -33 65 -33q37 0 51.5 22.5t24.5 87.5l2 19q2 23 29 22h33q25 0 18 -26l-6 -39q-25 -168 -152 -168q-55 0 -108 43l-84 74q-41 33 -64 32q-37 0 -51 -21.5t-22 -80.5l-4 -27q-2 -23 -29 -22h-33q-22 -1 -18 26z" />
<glyph unicode="&#xf6;" horiz-adv-x="1040" d="M172 201q0 23 2 35l68 536q31 254 399 254q344 0 344 -217q0 -18 -2 -37l-68 -536q-31 -252 -399 -252q-344 0 -344 217zM281 217q0 -72 56 -107.5t189 -35.5q264 0 285 170l66 522q2 16 2 25q0 145 -246 145q-264 0 -285 -170l-65 -522q-2 -11 -2 -27zM512 1212l25 201 q4 25 26 25h37q23 0 21 -25l-25 -201q-2 -25 -27 -24h-37q-24 -1 -20 24zM713 1212l24 201q4 25 27 25h37q23 0 20 -25l-24 -201q-2 -25 -27 -24h-37q-24 -1 -20 24z" />
<glyph unicode="&#xf7;" horiz-adv-x="1208" d="M250 647v43q0 23 22 23h818q25 0 24 -23v-43q0 -25 -24 -24h-816q-24 -1 -24 24zM627 256v158q0 25 24 24h62q23 0 22 -24v-158q0 -25 -22 -25h-62q-24 0 -24 25zM627 928v159q0 23 24 23h62q23 0 22 -23v-159q0 -25 -22 -25h-62q-24 0 -24 25z" />
<glyph unicode="&#xf8;" horiz-adv-x="1040" d="M172 201q0 23 2 35l68 536q31 254 399 254q145 0 231 -43l41 59q16 25 33 25h31q23 0 6 -25l-61 -90q63 -55 63 -143q0 -25 -2 -37l-68 -536q-31 -252 -399 -252q-145 0 -235 43l-37 -56q-18 -25 -35 -24h-29q-20 0 -6 24l59 86q-61 54 -61 144zM281 217q0 -43 16 -67 l518 751q-59 35 -182 35q-264 0 -285 -170l-65 -522q-2 -11 -2 -27zM338 109q59 -35 188 -35q264 0 285 170l63 516q4 20 5 31q0 37 -21 71z" />
<glyph unicode="&#xf9;" d="M184 193q0 16 2 34l93 756q2 27 28 27h58q23 0 20 -27l-90 -733q-2 -16 -2 -31q0 -139 182 -139q172 0 332 121l94 782q2 27 27 27h59q23 0 21 -27l-119 -958q-4 -25 -25 -25h-53q-25 0 -23 25l7 81q-156 -123 -355 -122q-125 0 -190.5 57.5t-65.5 151.5zM473 1425 q-12 25 16 25h62q20 0 31 -20l116 -240q10 -23 -14 -23h-47q-23 0 -29 15z" />
<glyph unicode="&#xfa;" d="M184 193q0 16 2 34l93 756q2 27 28 27h58q23 0 20 -27l-90 -733q-2 -16 -2 -31q0 -139 182 -139q172 0 332 121l94 782q2 27 27 27h59q23 0 21 -27l-119 -958q-4 -25 -25 -25h-53q-25 0 -23 25l7 81q-156 -123 -355 -122q-125 0 -190.5 57.5t-65.5 151.5zM604 1190 l178 240q14 20 33 20h68q29 0 8 -25l-193 -243q-14 -14 -30 -15h-54q-26 0 -10 23z" />
<glyph unicode="&#xfb;" d="M184 193q0 16 2 34l93 756q2 27 28 27h58q23 0 20 -27l-90 -733q-2 -16 -2 -31q0 -139 182 -139q172 0 332 121l94 782q2 27 27 27h59q23 0 21 -27l-119 -958q-4 -25 -25 -25h-53q-25 0 -23 25l7 81q-156 -123 -355 -122q-125 0 -190.5 57.5t-65.5 151.5zM436 1192 l189 233q18 25 41 25h41q20 0 34 -23l131 -235q14 -25 -14 -25h-45q-20 0 -33 25l-100 188l-148 -188q-20 -25 -34 -25h-49q-31 0 -13 25z" />
<glyph unicode="&#xfc;" d="M184 193q0 16 2 34l93 756q2 27 28 27h58q23 0 20 -27l-90 -733q-2 -16 -2 -31q0 -139 182 -139q172 0 332 121l94 782q2 27 27 27h59q23 0 21 -27l-119 -958q-4 -25 -25 -25h-53q-25 0 -23 25l7 81q-156 -123 -355 -122q-125 0 -190.5 57.5t-65.5 151.5zM522 1212 l25 201q2 25 26 25h37q25 0 21 -25l-25 -201q-4 -25 -26 -24h-37q-23 -1 -21 24zM723 1212l25 201q2 25 26 25h37q25 0 20 -25l-24 -201q-4 -25 -27 -24h-37q-22 -1 -20 24z" />
<glyph unicode="&#xfd;" horiz-adv-x="862" d="M162 985q-6 25 22 25h62q18 0 24 -25l162 -739q12 -61 17 -107q18 53 40 103l345 743q10 25 30 25h56q33 0 20 -25l-643 -1386q-10 -25 -31 -25h-49q-29 0 -16 25l180 397zM512 1190l178 240q14 20 33 20h68q29 0 8 -25l-193 -243q-14 -14 -31 -15h-53q-26 0 -10 23z" />
<glyph unicode="&#xfe;" horiz-adv-x="1064" d="M123 -401l223 1808q2 25 27 25h57q25 0 23 -25l-64 -506q174 125 367 125q125 0 190.5 -57.5t65.5 -153.5q0 -20 -4 -53l-66 -526q-31 -252 -309 -252q-203 0 -342 122l-62 -507q-4 -25 -24 -25h-60q-24 0 -22 25zM303 199q135 -121 311 -121q102 0 157.5 47t66.5 123 l61 502q4 33 4 41q0 141 -182 141q-178 0 -342 -123z" />
<glyph unicode="&#xff;" horiz-adv-x="862" d="M162 985q-6 25 22 25h62q18 0 24 -25l162 -739q12 -61 17 -107q18 53 40 103l345 743q10 25 30 25h56q33 0 20 -25l-643 -1386q-10 -25 -31 -25h-49q-29 0 -16 25l180 397zM416 1212l24 201q2 25 27 25h37q25 0 20 -25l-24 -201q-4 -25 -27 -24h-37q-22 -1 -20 24z M616 1212l25 201q2 25 27 25h37q25 0 20 -25l-25 -201q-4 -25 -26 -24h-37q-23 -1 -21 24z" />
<glyph unicode="&#x10c;" horiz-adv-x="1120" d="M203 227q0 16 4 49l102 844q16 135 116.5 212t334.5 77q389 0 389 -246q0 -14 -4 -47l-12 -102q-2 -27 -25 -27h-59q-27 0 -23 27l12 86q2 12 2 39q0 176 -288 176q-170 0 -246 -54.5t-90 -156.5l-99 -811q-2 -14 -2 -41q0 -174 285 -174q313 0 338 211l14 117 q2 23 27 22h57q27 0 23 -22l-17 -134q-16 -135 -118.5 -211.5t-333.5 -76.5q-387 -1 -387 243zM580 1774q-14 25 16 24h47q16 0 29 -24l100 -189l148 189q20 25 36 24h50q29 0 10 -24l-191 -236q-18 -23 -39 -22h-38q-23 0 -37 24z" />
<glyph unicode="&#x10d;" horiz-adv-x="974" d="M172 197q0 25 2 39l68 536q14 123 102 188.5t287 65.5q332 0 332 -215q0 -25 -2 -41l-7 -37q-2 -25 -26 -24h-56q-25 0 -20 22l4 35q2 14 2 33q0 137 -235 137q-141 0 -203 -44t-72 -126l-65 -514q-2 -14 -2 -39q0 -139 235 -139q141 0 202.5 43t74.5 127l6 49 q2 25 26 24h56q25 0 20 -24l-8 -57q-14 -121 -101 -186.5t-286 -65.5q-334 0 -334 213zM457 1425q-14 25 16 25h47q16 0 31 -25l100 -188l148 188q20 25 37 25h49q29 0 8 -25l-188 -235q-18 -23 -41 -23h-39q-20 0 -35 25z" />
<glyph unicode="&#x10e;" horiz-adv-x="1226" d="M199 25l166 1343q4 25 26 25h400q399 0 399 -250q0 -35 -2 -49l-98 -805q-37 -289 -461 -289h-410q-22 0 -20 25zM317 94h318q317 0 346 211l96 776q2 14 2 39q0 178 -297 178h-317zM582 1774q-14 25 16 24h47q16 0 29 -24l100 -189l148 189q20 25 36 24h50q29 0 10 -24 l-191 -236q-18 -23 -39 -22h-38q-23 0 -37 24z" />
<glyph unicode="&#x10f;" horiz-adv-x="1134" d="M172 195q0 12 4 41l68 538q31 252 307 252q195 0 342 -125l61 506q4 25 27 25h59q25 0 21 -25l-170 -1382q-2 -25 -27 -25h-53q-25 0 -20 25l6 84q-174 -125 -369 -125q-125 0 -190.5 56.5t-65.5 154.5zM281 219q0 -63 46 -101t138 -38q174 0 342 121l74 606 q-137 123 -312 123q-102 0 -156.5 -47t-64.5 -123l-63 -508q-4 -29 -4 -33zM1141 1171q72 119 84 209l8 56q4 25 27 24h45q23 0 20 -24l-6 -60q-10 -98 -105 -233q-12 -18 -32 -13l-35 11q-20 5 -6 30z" />
<glyph unicode="&#x11a;" horiz-adv-x="1079" d="M199 25l166 1343q4 25 26 25h701q23 0 20 -25l-6 -45q-2 -25 -27 -25h-614l-64 -520h578q23 0 20 -24l-4 -43q-4 -25 -28 -25h-576l-74 -592h637q25 0 23 -24l-6 -45q-2 -25 -25 -25h-725q-24 0 -22 25zM553 1774q-14 25 16 24h47q16 0 29 -24l100 -189l148 189 q20 25 37 24h49q29 0 10 -24l-190 -236q-18 -23 -39 -22h-39q-23 0 -37 24z" />
<glyph unicode="&#x11b;" horiz-adv-x="1003" d="M172 199q0 25 2 37l68 536q14 121 104 187.5t287 66.5q336 0 336 -215q0 -27 -2 -39l-33 -254q-4 -23 -25 -22h-598l-30 -248q-4 -29 -5 -35q0 -143 242 -143q260 0 281 168l6 47q2 25 29 24h51q25 0 20 -24l-6 -49q-14 -121 -101 -186.5t-288 -65.5q-338 0 -338 215z M322 578h518l24 186q2 10 2 33q0 143 -239 143q-260 0 -281 -170zM444 1425q-14 25 17 25h47q16 0 31 -25l100 -188l147 188q20 25 37 25h49q29 0 9 -25l-189 -235q-18 -23 -41 -23h-39q-20 0 -34 25z" />
<glyph unicode="&#x131;" horiz-adv-x="452" d="M176 25l119 960q4 25 27 25h57q27 0 22 -25l-118 -960q-4 -25 -27 -25h-59q-23 0 -21 25z" />
<glyph unicode="&#x139;" horiz-adv-x="1011" d="M199 25l166 1343q4 25 26 25h62q23 0 20 -25l-156 -1274h605q25 0 22 -24l-6 -45q-2 -25 -27 -25h-692q-22 0 -20 25zM397 1538l176 240q14 20 33 20h68q29 0 8 -24l-193 -244q-14 -14 -30 -14h-53q-23 -1 -9 22z" />
<glyph unicode="&#x13a;" horiz-adv-x="452" d="M176 25l168 1382q4 25 29 25h59q23 0 19 -25l-168 -1382q-4 -25 -27 -25h-59q-25 0 -21 25zM373 1538l176 240q14 20 33 20h67q29 0 8 -24l-192 -244q-14 -14 -31 -14h-53q-22 -1 -8 22z" />
<glyph unicode="&#x13d;" horiz-adv-x="1011" d="M199 25l166 1343q4 25 26 25h62q23 0 20 -25l-156 -1274h605q25 0 22 -24l-6 -45q-2 -25 -27 -25h-692q-22 0 -20 25zM731 1141q72 119 84 209l8 55q4 25 27 25h45q23 0 20 -25l-6 -59q-10 -98 -104 -234q-12 -18 -33 -12l-35 10q-20 6 -6 31z" />
<glyph unicode="&#x13e;" horiz-adv-x="522" d="M176 25l168 1382q4 25 29 25h59q23 0 19 -25l-168 -1382q-4 -25 -27 -25h-59q-25 0 -21 25zM530 1171q72 119 84 209l9 56q4 25 26 24h45q23 0 21 -24l-6 -60q-10 -98 -105 -233q-12 -18 -33 -13l-34 11q-21 5 -7 30z" />
<glyph unicode="&#x147;" horiz-adv-x="1247" d="M199 25l163 1343q2 25 29 25h49q16 0 21 -11l463 -1050l47 -117l141 1153q2 25 29 25h53q23 0 20 -25l-163 -1343q-2 -25 -27 -25h-51q-16 0 -23 12l-458 1043l-48 125l-143 -1155q-2 -25 -25 -25h-55q-24 0 -22 25zM606 1774q-14 25 17 24h47q16 0 28 -24l101 -189 l147 189q20 25 37 24h49q29 0 10 -24l-190 -236q-18 -23 -39 -22h-39q-23 0 -37 24z" />
<glyph unicode="&#x148;" horiz-adv-x="1075" d="M176 25l119 960q4 25 27 25h51q25 0 22 -25l-6 -86q164 127 367 127q125 0 191.5 -57.5t66.5 -153.5q0 -18 -2 -39l-94 -751q-4 -25 -27 -25h-60q-23 0 -20 25l90 731q4 29 4 30q0 143 -182 143.5t-344 -122.5l-96 -782q-4 -25 -27 -25h-59q-23 0 -21 25zM500 1425 q-14 25 16 25h47q16 0 31 -25l100 -188l148 188q20 25 37 25h49q29 0 8 -25l-188 -235q-18 -23 -41 -23h-39q-20 0 -35 25z" />
<glyph unicode="&#x152;" horiz-adv-x="1802" d="M203 229q0 14 4 47l102 844q33 289 449 289q223 0 321 -92l6 51q6 25 29 25h698q23 0 23 -23l-6 -45q-2 -25 -27 -25h-614l-64 -522h576q23 0 22 -22l-6 -43q0 -25 -26 -25h-578l-74 -596h639q23 0 23 -22l-6 -45q-2 -25 -27 -25h-725q-25 0 -20 25l6 51 q-119 -92 -330 -92q-395 -1 -395 245zM315 254q0 -178 293 -178q319 0 344 209l35 278l70 570v6q0 178 -297 178q-317 0 -342 -211l-101 -813q-2 -14 -2 -39z" />
<glyph unicode="&#x153;" horiz-adv-x="1638" d="M174 199q0 25 2 37l66 538q31 252 395 252q240 0 303 -115q90 115 330 115q334 0 334 -215q0 -25 -2 -37l-31 -252q-4 -23 -25 -22h-598l-33 -260q-2 -14 -2 -29q0 -143 242 -143q141 0 202.5 44t76.5 124l8 49q2 23 26 22h52q23 0 20 -22l-8 -52q-18 -121 -102 -185 t-283 -64q-236 0 -307 104q-84 -104 -322 -104q-344 0 -344 215zM281 215q0 -143 245 -143q264 0 285 172l66 522v27q0 145 -244 145q-264 0 -285 -172l-65 -522q-2 -11 -2 -29zM956 575h521l24 195q2 8 2 27q0 145 -241 145q-260 0 -281 -172z" />
<glyph unicode="&#x154;" horiz-adv-x="1204" d="M199 25l166 1343q4 25 26 25h393q209 0 304.5 -71t95.5 -189q0 -27 -2 -43l-29 -232q-29 -223 -295 -268l209 -565q10 -25 -23 -25h-61q-20 0 -29 25l-202 555q-20 -2 -62 -2h-313l-70 -553q-4 -25 -24 -25h-62q-24 0 -22 25zM387 670h313q324 0 347 202l24 203 q2 20 2 37q0 186 -293 186h-315zM692 1538l176 240q14 20 33 20h68q29 0 8 -24l-193 -244q-14 -14 -30 -14h-54q-22 -1 -8 22z" />
<glyph unicode="&#x155;" horiz-adv-x="690" d="M176 25l119 960q4 25 27 25h51q25 0 22 -25l-8 -111q184 150 363 150q25 0 22 -25l-6 -51q-4 -23 -29 -22q-104 -2 -201.5 -47t-158.5 -95l-94 -759q-4 -25 -27 -25h-59q-23 0 -21 25zM463 1190l178 240q14 20 33 20h67q29 0 9 -25l-193 -243q-14 -14 -31 -15h-53 q-26 0 -10 23z" />
<glyph unicode="&#x158;" horiz-adv-x="1204" d="M199 25l166 1343q4 25 26 25h393q209 0 304.5 -71t95.5 -189q0 -27 -2 -43l-29 -232q-29 -223 -295 -268l209 -565q10 -25 -23 -25h-61q-20 0 -29 25l-202 555q-20 -2 -62 -2h-313l-70 -553q-4 -25 -24 -25h-62q-24 0 -22 25zM387 670h313q324 0 347 202l24 203 q2 20 2 37q0 186 -293 186h-315zM551 1774q-14 25 16 24h47q16 0 29 -24l100 -189l148 189q20 25 37 24h49q29 0 10 -24l-190 -236q-18 -23 -39 -22h-39q-23 0 -37 24z" />
<glyph unicode="&#x159;" horiz-adv-x="690" d="M176 25l119 960q4 25 27 25h51q25 0 22 -25l-8 -111q184 150 363 150q25 0 22 -25l-6 -51q-4 -23 -29 -22q-104 -2 -201.5 -47t-158.5 -95l-94 -759q-4 -25 -27 -25h-59q-23 0 -21 25zM315 1425q-14 25 17 25h47q16 0 31 -25l100 -188l147 188q20 25 37 25h49q29 0 9 -25 l-189 -235q-18 -23 -41 -23h-39q-20 0 -34 25z" />
<glyph unicode="&#x160;" horiz-adv-x="1153" d="M184 231q0 8 4 45l13 103q2 27 24 27h60q25 0 22 -27l-12 -90q-2 -14 -2 -39q0 -174 293 -174q317 0 344 209l20 149q2 14 2 27q0 98 -149 160l-344 139q-168 70 -168 219q0 23 2 37l12 104q16 135 114.5 212t330.5 77q383 0 383 -246q0 -29 -3 -43l-12 -100 q-4 -25 -26 -25h-60q-23 0 -20 25l10 88q2 16 2 37q0 172 -283 172q-168 0 -242.5 -53.5t-86.5 -153.5l-11 -82q-2 -12 -2 -29q0 -94 111 -139l371 -149q178 -74 178 -230q0 -14 -2 -37l-19 -172q-29 -289 -458 -288q-396 -1 -396 247zM557 1774q-14 25 16 24h48 q16 0 28 -24l101 -189l147 189q20 25 37 24h49q29 0 10 -24l-190 -236q-18 -23 -39 -22h-39q-23 0 -37 24z" />
<glyph unicode="&#x161;" horiz-adv-x="950" d="M145 178q0 12 2 33l7 51q2 23 26 23h56q18 0 16 -23l-4 -47q-2 -18 -2 -27q0 -123 241 -122q262 0 283 141l10 88q2 20 2 31q0 66 -112 102l-303 98q-61 18 -102.5 65.5t-41.5 106.5q0 14 2 31l11 80q27 217 368 217q162 0 243 -56.5t81 -140.5q0 -16 -2 -36l-6 -54 q-2 -23 -27 -22h-53q-25 0 -21 22l6 47q2 16 2 39q0 51 -57 86t-172 35q-246 0 -262 -139l-8 -62q-2 -14 -2 -24q0 -80 98 -111l311 -96q150 -49 150 -162q0 -2 -4 -39l-13 -114q-12 -96 -107 -155.5t-280 -59.5q-166 0 -251 54t-85 140zM403 1425q-14 25 17 25h47 q16 0 31 -25l100 -188l147 188q20 25 37 25h49q29 0 9 -25l-189 -235q-18 -23 -41 -23h-39q-20 0 -34 25z" />
<glyph unicode="&#x164;" horiz-adv-x="983" d="M201 1323l4 45q2 25 28 25h850q25 0 23 -25l-4 -45q-2 -25 -29 -25h-371l-157 -1273q-4 -25 -25 -25h-61q-25 0 -23 25l158 1273h-371q-24 0 -22 25zM479 1774q-14 25 17 24h47q16 0 28 -24l101 -189l147 189q20 25 37 24h49q29 0 10 -24l-190 -236q-18 -23 -39 -22h-39 q-23 0 -37 24z" />
<glyph unicode="&#x165;" horiz-adv-x="720" d="M172 942l4 33q2 25 29 24l127 7h2l28 221q2 27 27 26h60q20 0 20 -26l-29 -221h244q25 0 21 -23l-5 -43q-2 -23 -28 -22h-242l-80 -652q-2 -12 -2 -33q0 -141 238 -141h32q27 0 23 -24l-4 -43q-2 -25 -29 -25h-45q-174 0 -248.5 53t-74.5 154q0 31 2 45l82 666h-131 q-25 -1 -21 24zM575 1171q72 119 84 209l9 56q4 25 26 24h45q23 0 21 -24l-6 -60q-10 -98 -105 -233q-12 -18 -33 -13l-34 11q-21 5 -7 30z" />
<glyph unicode="&#x16e;" horiz-adv-x="1226" d="M213 233q0 18 4 48l133 1087q2 25 27 25h61q23 0 21 -25l-131 -1067q-4 -37 -4 -45q0 -178 294 -178q317 0 347 211l133 1079q4 25 24 25h62q25 0 22 -25l-135 -1096q-33 -289 -461 -288q-397 -1 -397 249zM618 1597q0 14 3 35l4 45q10 133 198 133q82 0 126 -33.5 t44 -86.5q0 -12 -2 -35l-4 -43q-14 -131 -196 -131q-84 0 -128.5 32.5t-44.5 83.5zM686 1614q0 -72 107 -72q123 0 129 80l2 23q2 16 2 32q0 72 -109 72q-121 0 -127 -82l-2 -25q-2 -18 -2 -28z" />
<glyph unicode="&#x16f;" d="M184 193q0 16 2 34l93 756q2 27 28 27h58q23 0 20 -27l-90 -733q-2 -16 -2 -31q0 -139 182 -139q172 0 332 121l94 782q2 27 27 27h59q23 0 21 -27l-119 -958q-4 -25 -25 -25h-53q-25 0 -23 25l7 81q-156 -123 -355 -122q-125 0 -190.5 57.5t-65.5 151.5zM483 1255 q0 14 2 35l4 45q10 133 199 133q82 0 126 -33.5t44 -86.5q0 -12 -2 -35l-4 -43q-14 -131 -197 -131q-84 0 -128 32.5t-44 83.5zM551 1272q0 -72 106 -72q123 0 129 80l2 23q2 16 3 32q0 72 -109 72q-121 0 -127 -82l-2 -25q-2 -18 -2 -28z" />
<glyph unicode="&#x178;" horiz-adv-x="1042" d="M213 1368q-8 25 20 25h70q16 0 27 -25l252 -631q14 -39 20 -67q4 12 37 67l412 631q18 25 34 25h64q31 0 14 -25l-516 -790l-67 -553q-2 -25 -27 -25h-61q-25 0 -23 25l68 540zM551 1554l22 201q4 25 29 25h37q25 0 20 -25l-24 -201q-4 -25 -27 -24h-37q-22 -1 -20 24z M752 1554l22 201q4 25 29 25h37q25 0 20 -25l-24 -201q-4 -25 -27 -24h-37q-22 -1 -20 24z" />
<glyph unicode="&#x17d;" horiz-adv-x="1034" d="M115 23l6 45q2 12 12 26l801 1204h-600q-25 0 -23 25l6 45q2 25 27 25h713q23 0 20 -25l-4 -43q-2 -14 -14 -33l-799 -1198h668q25 0 22 -24l-6 -45q-2 -25 -26 -25h-779q-14 0 -20 5.5t-4 17.5zM512 1774q-14 25 16 24h47q16 0 29 -24l101 -189l147 189q20 25 37 24h49 q29 0 10 -24l-190 -236q-18 -23 -39 -22h-39q-23 0 -37 24z" />
<glyph unicode="&#x17e;" horiz-adv-x="933" d="M106 25l7 41q2 16 16 32l643 822h-506q-23 0 -20 24l4 41q4 25 29 25h612q25 0 20 -23l-4 -41q0 -4 -12 -26l-651 -830h559q25 0 22 -24l-4 -41q-2 -25 -28 -25h-664q-27 0 -23 25zM389 1425q-14 25 17 25h47q16 0 30 -25l101 -188l147 188q20 25 37 25h49q29 0 8 -25 l-188 -235q-18 -23 -41 -23h-39q-20 0 -35 25z" />
<glyph unicode="&#x192;" horiz-adv-x="1116" d="M39 -418l6 41q2 27 25 27h18q260 0 301 170l227 932h-198q-25 0 -23 24l4 41q2 25 27 25h211l86 356q29 121 125 186.5t291 65.5h20q23 0 21 -25l-4 -43q-4 -25 -27 -24h-19q-260 0 -301 -170l-86 -346h211q25 0 21 -25l-4 -41q-4 -25 -27 -24h-221l-229 -940 q-31 -121 -126.5 -187.5t-287.5 -66.5h-21q-22 -1 -20 24z" />
<glyph unicode="&#x2c6;" horiz-adv-x="706" d="M276 1192l189 233q18 25 41 25h41q20 0 35 -23l131 -235q14 -25 -15 -25h-45q-20 0 -32 25l-101 188l-147 -188q-20 -25 -35 -25h-49q-31 0 -13 25z" />
<glyph unicode="&#x2c7;" horiz-adv-x="706" d="M307 1425q-14 25 17 25h47q16 0 30 -25l101 -188l147 188q20 25 37 25h49q29 0 8 -25l-188 -235q-18 -23 -41 -23h-39q-20 0 -35 25z" />
<glyph unicode="&#x2d8;" horiz-adv-x="806" d="M297 1315q0 6 4 47l4 37q2 23 25 22h37q23 0 20 -22l-4 -39q-2 -18 -2 -39q0 -57 30.5 -84t106.5 -27q90 0 125 41t41 121l2 27q2 23 27 22h35q25 0 20 -22l-2 -25q-10 -117 -65.5 -175t-188.5 -58q-215 0 -215 174z" />
<glyph unicode="&#x2d9;" horiz-adv-x="485" d="M340 1225l18 157q2 25 27 25h61q25 0 21 -25l-18 -157q-2 -25 -27 -25h-60q-24 0 -22 25z" />
<glyph unicode="&#x2da;" horiz-adv-x="667" d="M270 1255q0 14 2 35l4 45q10 133 199 133q82 0 126 -33.5t44 -86.5q0 -12 -2 -35l-4 -43q-14 -131 -197 -131q-84 0 -128 32.5t-44 83.5zM338 1272q0 -72 106 -72q123 0 129 80l2 23q2 16 3 32q0 72 -109 72q-121 0 -127 -82l-2 -25q-2 -18 -2 -28z" />
<glyph unicode="&#x2db;" horiz-adv-x="460" d="M72 -184q0 131 157 227q20 14 35 6l33 -18q23 -14 2 -29q-131 -76 -131 -166q0 -72 100 -72h64q31 0 24 -24l-6 -35q-2 -25 -26 -24h-84q-76 0 -122 34.5t-46 100.5z" />
<glyph unicode="&#x2dc;" horiz-adv-x="872" d="M305 1214l8 41q29 168 152 168q55 0 106 -45l82 -73q41 -33 66 -33q37 0 51 22.5t25 87.5l2 19q2 23 28 22h33q25 0 19 -26l-7 -39q-25 -168 -151 -168q-55 0 -109 43l-84 74q-41 33 -63 32q-37 0 -51.5 -21.5t-22.5 -80.5l-4 -27q-2 -23 -29 -22h-32q-23 -1 -19 26z" />
<glyph unicode="&#x2dd;" horiz-adv-x="729" d="M288 1175.5q-3 8.5 3 16.5l149 233q14 25 35 25h55q33 0 15 -25l-162 -233q-14 -25 -35 -25h-45q-12 0 -15 8.5zM466 1175.5q-3 8.5 5 16.5l178 233q18 25 41 25h55q27 0 9 -25l-191 -237q-14 -20 -37 -21h-45q-12 0 -15 8.5z" />
<glyph unicode="&#x3a9;" horiz-adv-x="763" d="M139 641q0 98 71 170t169 72q100 0 172 -72t72 -170q0 -100 -72 -171t-172 -71q-98 0 -169 71t-71 171zM174 641q0 -86 59.5 -145.5t145.5 -59.5t146.5 59.5t60.5 145.5q0 84 -60.5 145.5t-146.5 61.5t-145.5 -60.5t-59.5 -146.5z" />
<glyph unicode="&#x3c0;" horiz-adv-x="763" d="M112 839.5q-3 14.5 3 24.5t20 10h488q14 0 20 -10t4 -24.5t-10 -28.5l-225 -367q-12 -18 -32 -18t-30 18l-227 367q-8 14 -11 28.5z" />
<glyph unicode="&#x2000;" horiz-adv-x="905" />
<glyph unicode="&#x2001;" horiz-adv-x="1810" />
<glyph unicode="&#x2002;" horiz-adv-x="905" />
<glyph unicode="&#x2003;" horiz-adv-x="1810" />
<glyph unicode="&#x2004;" horiz-adv-x="602" />
<glyph unicode="&#x2005;" horiz-adv-x="452" />
<glyph unicode="&#x2006;" horiz-adv-x="301" />
<glyph unicode="&#x2007;" horiz-adv-x="301" />
<glyph unicode="&#x2008;" horiz-adv-x="225" />
<glyph unicode="&#x2009;" horiz-adv-x="360" />
<glyph unicode="&#x200a;" horiz-adv-x="100" />
<glyph unicode="&#x2010;" horiz-adv-x="946" d="M240 571v43q0 23 24 23h551q25 0 25 -23v-43q0 -25 -25 -24h-551q-24 -1 -24 24z" />
<glyph unicode="&#x2011;" horiz-adv-x="946" d="M240 571v43q0 23 24 23h551q25 0 25 -23v-43q0 -25 -25 -24h-551q-24 -1 -24 24z" />
<glyph unicode="&#x2012;" horiz-adv-x="946" d="M240 571v43q0 23 24 23h551q25 0 25 -23v-43q0 -25 -25 -24h-551q-24 -1 -24 24z" />
<glyph unicode="&#x2013;" horiz-adv-x="1126" d="M240 571v43q0 23 24 23h731q25 0 25 -23v-43q0 -25 -25 -24h-731q-24 -1 -24 24z" />
<glyph unicode="&#x2014;" horiz-adv-x="1757" d="M240 571v43q0 23 24 23h1364q25 0 25 -23v-43q0 -25 -25 -24h-1364q-24 -1 -24 24z" />
<glyph unicode="&#x2018;" horiz-adv-x="458" d="M295 1120l16 125q10 88 59.5 144.5t149.5 89.5q23 8 29 -15l10 -43q4 -20 -18 -30q-63 -29 -89 -63t-32 -87l-17 -121q-2 -25 -26 -24h-62q-24 -1 -20 24z" />
<glyph unicode="&#x2019;" horiz-adv-x="458" d="M217 1153q-4 20 19 31q63 29 88.5 62.5t31.5 86.5l17 121q4 25 26 25h62q23 0 20 -25l-16 -125q-10 -88 -59.5 -144.5t-149.5 -88.5q-23 -8 -29 14z" />
<glyph unicode="&#x201a;" horiz-adv-x="458" d="M53 -119q-4 20 19 31q63 29 88.5 62.5t32.5 86.5l16 121q4 25 27 25h61q23 0 20 -25l-16 -125q-10 -88 -59 -144t-150 -89q-23 -8 -29 14z" />
<glyph unicode="&#x201c;" horiz-adv-x="747" d="M295 1120l16 125q10 88 59.5 144.5t149.5 89.5q23 8 29 -15l10 -43q4 -20 -18 -30q-63 -29 -89 -63t-32 -87l-17 -121q-2 -25 -26 -24h-62q-24 -1 -20 24zM584 1120l16 125q10 88 59.5 144.5t149.5 89.5q23 8 29 -15l10 -43q4 -20 -19 -30q-63 -29 -88.5 -63t-31.5 -87 l-17 -121q-4 -25 -26 -24h-62q-22 -1 -20 24z" />
<glyph unicode="&#x201d;" horiz-adv-x="747" d="M217 1153q-4 20 19 31q63 29 88.5 62.5t31.5 86.5l17 121q4 25 26 25h62q23 0 20 -25l-16 -125q-10 -88 -59.5 -144.5t-149.5 -88.5q-23 -8 -29 14zM506 1153q-4 20 18 31q63 29 89 62.5t32 86.5l17 121q2 25 26 25h62q25 0 20 -25l-16 -125q-10 -88 -59.5 -144.5 t-149.5 -88.5q-23 -8 -29 14z" />
<glyph unicode="&#x201e;" horiz-adv-x="747" d="M53 -119q-4 20 19 31q63 29 88.5 62.5t32.5 86.5l16 121q4 25 27 25h61q23 0 20 -25l-16 -125q-10 -88 -59 -144t-150 -89q-23 -8 -29 14zM342 -119q-4 20 18 31q63 29 89 62.5t32 86.5l17 121q2 25 26 25h62q25 0 20 -25l-16 -125q-10 -88 -59.5 -144t-149.5 -89 q-23 -8 -29 14z" />
<glyph unicode="&#x2020;" horiz-adv-x="1132" d="M311 952l6 43q2 25 25 25h227q25 0 23 -25l-4 -43q-2 -25 -25 -24h-229q-27 -1 -23 24zM516 25l168 1382q4 25 29 25h57q25 0 21 -25l-168 -1382q-4 -25 -29 -25h-57q-25 0 -21 25zM776 952l2 43q0 25 27 25h229q27 0 23 -25l-6 -43q-2 -25 -27 -24h-225q-23 -1 -23 24z " />
<glyph unicode="&#x2021;" horiz-adv-x="1132" d="M250 438l4 43q0 23 27 23h227q25 0 22 -23l-6 -43q-2 -27 -24 -26h-228q-24 -1 -22 26zM313 952l4 43q2 25 27 25h227q27 0 23 -25l-4 -43q-4 -25 -27 -24h-227q-25 -1 -23 24zM516 25l170 1382q2 25 27 25h59q23 0 21 -25l-170 -1382q-4 -25 -27 -25h-59q-25 0 -21 25z M713 438l4 43q2 23 26 23h228q25 0 22 -23l-4 -43q-2 -27 -26 -26h-228q-24 -1 -22 26zM776 952l4 43q2 25 27 25h227q27 0 23 -25l-4 -43q-4 -25 -27 -24h-227q-25 -1 -23 24z" />
<glyph unicode="&#x2022;" horiz-adv-x="501" d="M246 403l30 256q2 25 27 25h62q25 0 20 -25l-33 -256q-2 -23 -26 -22h-60q-22 -1 -20 22z" />
<glyph unicode="&#x2026;" horiz-adv-x="1449" d="M166 25l18 157q4 25 27 25h63q20 0 19 -25l-19 -157q-2 -25 -26 -25h-60q-24 0 -22 25zM674 25l18 157q4 25 27 25h63q20 0 19 -25l-19 -157q-2 -25 -26 -25h-60q-24 0 -22 25zM1180 25l18 157q2 25 27 25h63q23 0 19 -25l-19 -157q-2 -25 -26 -25h-60q-24 0 -22 25z" />
<glyph unicode="&#x202f;" horiz-adv-x="360" />
<glyph unicode="&#x2030;" horiz-adv-x="2181" d="M295 963q0 14 4 38l25 218q20 186 286 186q246 0 246 -156q0 -25 -2 -43l-27 -215q-12 -90 -76.5 -137t-207.5 -47q-248 0 -248 156zM387 975q0 -94 164 -94q170 0 184 112l27 213q2 20 2 27q0 94 -162 94q-172 0 -186 -110l-25 -205zM410 25l774 1343q14 25 39 25h55 q27 0 10 -25l-776 -1343q-16 -25 -37 -25h-57q-22 0 -8 25zM846 139q0 14 4 39l24 217q20 186 287 187q246 0 246 -156q0 -25 -2 -43l-27 -215q-12 -90 -76.5 -137t-207.5 -47q-248 -1 -248 155zM938 152q0 -94 164 -95q170 0 184 113l27 213q2 20 2 27q0 94 -162 94 q-172 0 -186 -111l-25 -205zM1489 139q0 14 4 39l25 217q20 186 286 187q246 0 246 -156q0 -25 -2 -43l-27 -215q-12 -90 -76.5 -137t-207.5 -47q-248 -1 -248 155zM1581 152q0 -94 164 -95q170 0 184 113l27 213q2 20 2 27q0 94 -162 94q-172 0 -186 -111l-25 -205z" />
<glyph unicode="&#x2039;" horiz-adv-x="827" d="M217 475l8 55q2 18 27 35l414 287q6 4 12 5t9 -4t3 -13l-10 -66q-2 -20 -27 -37l-344 -235l285 -236q23 -18 20 -35l-8 -65q-2 -12 -10 -15.5t-14 3.5l-346 288q-21 17 -19 33z" />
<glyph unicode="&#x203a;" horiz-adv-x="827" d="M219 166l10 65q2 20 27 37l344 236l-285 235q-23 18 -20 35l8 66q2 12 10.5 15t14.5 -3l346 -289q20 -16 18 -33l-8 -55q-2 -18 -27 -35l-413 -286q-6 -4 -12.5 -5.5t-9.5 4t-3 13.5z" />
<glyph unicode="&#x2044;" horiz-adv-x="890" d="M92 25l774 1343q14 25 39 25h56q27 0 10 -25l-776 -1343q-14 -25 -37 -25h-58q-22 0 -8 25z" />
<glyph unicode="&#x205f;" horiz-adv-x="452" />
<glyph unicode="&#x20ac;" horiz-adv-x="1140" d="M154 561l2 27q2 25 28 24h154l20 170h-155q-23 0 -21 25l2 27q2 23 29 22h154l32 264q16 135 116.5 212t334.5 77q389 0 389 -246q0 -14 -4 -47l-12 -102q-2 -27 -25 -27h-59q-27 0 -23 27l12 86q2 12 2 39q0 176 -288 176q-170 0 -246 -54.5t-90 -156.5l-31 -248h299 q25 0 23 -22l-2 -27q-2 -25 -29 -25h-299l-21 -170h299q23 0 21 -24l-2 -27q-2 -23 -27 -22h-301l-28 -246q-2 -14 -2 -41q0 -174 284 -174q313 0 338 211l14 117q2 23 27 22h57q27 0 23 -22l-16 -134q-16 -135 -119 -211.5t-334 -76.5q-387 0 -387 243q0 16 4 49l31 263 h-152q-24 -1 -22 22z" />
<glyph unicode="&#x2122;" horiz-adv-x="1816" d="M303 1333l4 41q2 18 25 19h553q20 0 18 -19l-4 -41q-2 -18 -22 -18h-232l-90 -737q-2 -20 -23 -21h-53q-20 0 -18 21l90 737h-227q-12 0 -17.5 4t-3.5 14zM905 578l99 794q2 20 22 21h47q12 0 17 -15l190 -540q10 -37 12 -54q4 10 29 52l317 544q6 12 23 13h53 q18 0 17 -21l-99 -794q-2 -20 -20 -21h-51q-20 0 -19 21l78 632q-14 -33 -27 -53l-260 -452q-14 -20 -30 -21h-39q-20 0 -27 21l-156 456q0 2 -10 53l-78 -636q-2 -20 -20 -21h-49q-21 1 -19 21z" />
<glyph unicode="&#x2202;" horiz-adv-x="763" d="M178 403v486q0 23 21.5 27t42.5 -11l366 -227q18 -12 18.5 -31.5t-18.5 -30.5l-366 -227q-20 -14 -42 -11.5t-22 25.5z" />
<glyph unicode="&#x2206;" horiz-adv-x="763" d="M176 481v322q0 43 45 43h322q43 0 43 -43v-322q0 -45 -43 -45h-322q-45 0 -45 45z" />
<glyph unicode="&#x220f;" horiz-adv-x="763" d="M115 453.5q2 13.5 10 27.5l225 369q10 18 30.5 17t31.5 -17l227 -369q8 -14 11 -27.5t-3 -23.5t-20 -10h-488q-14 0 -20 10t-4 23.5z" />
<glyph unicode="&#x2211;" horiz-adv-x="763" d="M137 646.5q0 19.5 19 31.5l366 227q14 8 27.5 10.5t24 -5t10.5 -21.5v-486q0 -23 -20.5 -25.5t-41.5 11.5l-366 227q-19 11 -19 30.5z" />
<glyph unicode="&#x221a;" horiz-adv-x="763" d="M160 481v322q0 33 14 47t47 14h322q61 0 61 -61v-322q0 -61 -61 -61h-322q-61 0 -61 61zM195 481q0 -27 26 -26h322q27 0 26 26v322q0 27 -26 26h-322q-27 0 -26 -26v-322z" />
<glyph unicode="&#x221e;" horiz-adv-x="763" d="M86 643q0 14 25 43l227 227q27 23 43 23q18 0 45 -23l227 -227q20 -23 21 -43q0 -23 -21 -45l-227 -227q-27 -23 -45 -23q-16 0 -43 23l-227 227q-25 29 -25 45zM127 641q0 -10 8 -16l230 -230q6 -8 16 -8t18 8l230 230q8 8 8 16q0 6 -8 18l-230 230q-12 8 -18 8 q-8 0 -16 -8l-230 -230q-8 -8 -8 -18z" />
<glyph unicode="&#x222b;" horiz-adv-x="763" d="M63 641q0 133 92.5 226.5t223.5 93.5q133 0 227 -93.5t94 -226.5t-94 -225t-227 -92t-224.5 92t-91.5 225z" />
<glyph unicode="&#x2248;" horiz-adv-x="985" d="M229 401l2 43q8 174 136 174q49 0 100 -30l172 -94q61 -31 84 -31q39 0 49 21.5t14 88.5v19q0 23 27 22h33q23 0 20 -26l-2 -45q-8 -174 -131 -174q-51 0 -110 32l-174 97q-47 27 -74 26q-39 0 -51.5 -21.5t-14.5 -86.5v-21q0 -23 -26 -22h-33q-25 -1 -21 28zM229 711 l2 43q8 174 136 174q49 0 100 -31l172 -94q61 -31 84 -31q39 0 49 21.5t14 89.5v18q0 23 27 23h33q23 0 20 -27l-2 -45q-8 -174 -131 -174q-51 0 -110 33l-174 96q-47 27 -74 27q-39 0 -51.5 -21.5t-14.5 -87.5v-20q0 -23 -26 -23h-33q-25 0 -21 29z" />
<glyph unicode="&#x2260;" horiz-adv-x="1208" d="M229 487v43q0 25 25 25h303l100 258h-403q-25 0 -25 25v43q0 25 25 24h440l58 148q10 25 32 24h54q27 0 16 -24l-57 -148h270q25 0 25 -24v-43q0 -25 -25 -25h-307l-101 -258h408q25 0 25 -25v-43q0 -25 -25 -24h-442l-58 -148q-10 -25 -35 -24h-53q-25 0 -14 24l57 148 h-268q-25 -1 -25 24z" />
<glyph unicode="&#x2264;" horiz-adv-x="1114" d="M207 791v63q0 18 22 29l719 286q25 10 25 -18v-59q0 -18 -25 -29l-635 -242l635 -239q25 -8 25 -29v-59q0 -27 -25 -19l-719 287q-22 11 -22 29zM209 276v43q0 23 24 23h715q25 0 25 -23v-43q0 -23 -25 -22h-715q-24 -1 -24 22z" />
<glyph unicode="&#x2265;" horiz-adv-x="1112" d="M205 274v45q0 25 24 25h717q25 0 25 -25v-45q0 -23 -25 -22h-717q-24 -1 -24 22zM205 494v61q0 18 24 27l635 239l-635 242q-25 10 -24 29v59q0 29 24 20l719 -286q23 -10 23 -31v-63q0 -18 -23 -29l-719 -289q-24 -10 -24 21z" />
<glyph unicode="&#x25ca;" horiz-adv-x="763" d="M106 643q0 10 17 31l227 227q16 14 31 14q16 0 31 -14l227 -227q16 -16 16 -31q0 -16 -16 -31l-227 -227q-14 -18 -31 -18q-12 0 -31 18l-227 227q-17 17 -17 31z" />
<glyph unicode="&#xe000;" horiz-adv-x="1010" d="M0 1010h1010v-1010h-1010v1010z" />
<glyph unicode="&#xfb01;" horiz-adv-x="1073" d="M176 -399l164 1317h-133q-23 0 -21 24l2 33q2 25 27 24l115 7h20l21 174q29 252 391 252h268q23 0 21 -25l-4 -43q-2 -25 -27 -25h-262q-262 0 -283 -170l-18 -163h569q25 0 23 -25l-119 -956q-4 -25 -25 -25h-59q-27 0 -23 25l111 893h-488l-163 -1317q-2 -27 -27 -27 h-57q-25 0 -23 27z" />
<glyph unicode="&#xfb02;" horiz-adv-x="1103" d="M176 -399l164 1317h-133q-23 0 -21 24l2 33q2 23 27 24l115 7h20l21 174q31 252 391 252h315q25 0 23 -25l-170 -1382q-4 -25 -25 -25h-59q-27 0 -23 25l162 1314h-227q-262 0 -283 -170l-18 -163h235q25 0 23 -23l-6 -41q-2 -25 -25 -24h-238l-163 -1317q-2 -27 -27 -27 h-57q-25 0 -23 27z" />
<glyph horiz-adv-x="0" />
</font>
</defs>
</svg>
