<?xml version="1.0" standalone="no"?>
<!DOCTYPE svg PUBLIC "-//W3C//DTD SVG 1.1//EN" "http://www.w3.org/Graphics/SVG/1.1/DTD/svg11.dtd" >
<svg xmlns="http://www.w3.org/2000/svg">
<metadata>
This is a custom SVG webfont generated by Font Squirrel.
Copyright   : Copyright c 2009 by Eduardo Manso All rights reserved
Designer    : Eduardo Manso
Foundry     : Eduardo Manso
Foundry URL : httpwwwemtypenet
</metadata>
<defs>
<font id="GeogrotesqueMediumItalic" horiz-adv-x="1087" >
<font-face units-per-em="2048" ascent="1536" descent="-512" />
<missing-glyph horiz-adv-x="432" />
<glyph unicode=" "  horiz-adv-x="432" />
<glyph unicode="&#x09;" horiz-adv-x="432" />
<glyph unicode="&#xa0;" horiz-adv-x="432" />
<glyph unicode="!" horiz-adv-x="540" d="M172 39l21 164q6 39 43 39h124q39 0 33 -39l-20 -164q-6 -39 -43 -39h-123q-41 0 -35 39zM236 389l30 410l68 553q6 41 43 41h127q39 0 33 -41l-66 -553l-72 -410q-6 -39 -43 -39h-88q-34 0 -32 39z" />
<glyph unicode="&#x22;" horiz-adv-x="802" d="M285 1010l24 342q2 41 43 41h119q37 0 31 -41l-58 -342q-6 -41 -43 -41h-84q-34 0 -32 41zM602 1010l27 342q2 41 43 41h116q39 0 33 -41l-59 -342q-6 -41 -41 -41h-84q-37 0 -35 41z" />
<glyph unicode="#" horiz-adv-x="1357" d="M211 453l6 65q2 37 43 37h156l80 193h-119q-37 0 -35 38l6 66q2 37 45 37h160l74 180q16 41 53 41h88q37 0 23 -41l-74 -180h287l73 180q16 41 53 41h89q37 0 22 -41l-74 -180h107q37 0 35 -37l-6 -66q-2 -39 -46 -38h-145l-80 -193h111q37 0 35 -37l-7 -65 q-2 -39 -45 -39h-149l-74 -178q-16 -41 -51 -41h-90q-39 0 -23 41l72 178h-287l-71 -178q-16 -41 -52 -41h-90q-41 0 -24 41l73 178h-116q-35 0 -33 39zM582 555h286l80 193h-286z" />
<glyph unicode="$" horiz-adv-x="1089" d="M233 387q0 12 3 33l6 49q6 37 41 37h108q31 0 29 -37l-4 -39q-2 -14 -2 -27q0 -41 52 -64.5t142 -23.5q211 0 226 105l6 47q2 23 2 35q0 49 -97 84l-282 100q-147 51 -148 193q0 10 2 32l9 70q23 209 305 236l16 135q6 41 45 41h119q37 0 31 -41l-19 -140 q121 -18 182.5 -77.5t61.5 -137.5q0 -12 -2 -34l-4 -43q-2 -37 -41 -37h-109q-35 0 -30 37l4 34q2 14 2 33q0 92 -180 92q-188 0 -203 -100l-4 -31q-2 -18 -2 -22q0 -63 71 -88l297 -103q78 -27 119 -75t41 -105q0 -12 -4 -49l-10 -103q-10 -90 -87 -150t-229 -77l-16 -135 q-6 -41 -41 -41h-119q-41 0 -35 41l17 135q-133 16 -201 74.5t-68 136.5z" />
<glyph unicode="%" horiz-adv-x="1669" d="M272 952q0 12 4 37l25 207q12 102 85 156.5t230 54.5q137 0 207 -47t70 -129q0 -27 -2 -41l-27 -207q-12 -102 -84.5 -155.5t-228.5 -53.5q-279 0 -279 178zM421 23.5q1 9.5 7 17.5l795 1311q27 41 61 41h111q18 0 21 -12.5t-7 -28.5l-797 -1311q-23 -41 -59 -41h-111 q-12 0 -17 7t-4 16.5zM436 977q0 -72 127 -72q133 0 142 86l20 178q4 29 4 35q0 70 -125 70q-131 0 -141 -82l-23 -180q0 -8 -1 -15.5t-2 -12.5t-1 -7zM942 160q0 12 4 37l25 206q12 102 84.5 156.5t230.5 54.5q137 0 207 -47t70 -129q0 -27 -2 -41l-27 -207 q-12 -102 -85 -155t-228 -53q-279 0 -279 178zM1106 184q0 -72 127 -71q131 0 141 86l21 178q4 29 4 35q0 70 -125 69q-131 0 -141 -82l-23 -180q0 -8 -1 -15t-2 -12.5t-1 -7.5z" />
<glyph unicode="&#x26;" horiz-adv-x="1396" d="M186 256q0 27 2 43l27 199q12 94 59.5 150.5t153.5 84.5q-145 41 -145 176q0 16 4 45l18 148q16 143 116.5 225t340.5 82q193 0 296 -68.5t103 -195.5v-33l-6 -70q-6 -39 -43 -38h-121q-37 0 -33 38l5 41v25q0 135 -215 135q-115 0 -177.5 -39t-72.5 -135l-11 -86 q-4 -37 -4 -39q0 -133 222 -133h671q39 0 35 -39l-10 -88q-2 -39 -43 -39h-139l-43 -348q-43 -313 -529 -313q-242 0 -351.5 74.5t-109.5 197.5zM387 295q0 -145 279 -145q295 0 317 174l39 321h-352q-137 0 -193.5 -41t-68.5 -131l-19 -147q-2 -17 -2 -31z" />
<glyph unicode="'" horiz-adv-x="483" d="M285 1010l24 342q2 41 43 41h119q37 0 31 -41l-58 -342q-6 -41 -43 -41h-84q-34 0 -32 41z" />
<glyph unicode="(" horiz-adv-x="727" d="M131 -193q0 12 4 41l164 1321q18 147 110.5 214t305.5 67h39q41 0 34 -39l-10 -86q-6 -41 -45 -41h-14q-113 0 -163 -33.5t-58 -101.5l-160 -1288q-4 -16 -4 -27q0 -115 192 -115h15q41 0 34 -41l-10 -86q-6 -39 -43 -38h-14q-184 0 -280.5 67t-96.5 186z" />
<glyph unicode=")" horiz-adv-x="727" d="M59 -408l9 86q6 41 45 41h14q207 0 223 136l158 1288q4 25 4 28q0 113 -193 113h-14q-39 0 -33 41l11 86q2 39 43 39h12q186 0 281.5 -67.5t95.5 -186.5q0 -12 -4 -41l-162 -1321q-18 -147 -111.5 -213.5t-306.5 -66.5h-37q-41 -1 -35 38z" />
<glyph unicode="*" horiz-adv-x="1071" d="M283 883q-14 35 22 53l236 113l-207 116q-31 18 -10 52l32 55q23 39 58 14l207 -145l20 272q2 39 43 39h66q37 0 30 -39l-47 -268l234 143q37 23 51 -12l26 -59q14 -33 -22 -52l-240 -116l211 -115q33 -16 11 -51l-35 -58q-25 -37 -56 -14l-202 141l-19 -252 q-2 -41 -41 -41h-65q-39 0 -33 41l45 256l-242 -147q-35 -20 -51 16z" />
<glyph unicode="+" horiz-adv-x="1169" d="M221 649v88q0 39 39 39h318v318q0 41 36 41h86q39 0 39 -41v-318h322q39 0 39 -39v-88q0 -39 -39 -39h-322v-317q0 -39 -39 -39h-86q-37 0 -36 39v317h-318q-39 0 -39 39z" />
<glyph unicode="," horiz-adv-x="528" d="M51 -102q-8 35 33 49q57 23 81.5 51.5t31.5 73.5l16 131q6 39 43 39h123q39 0 33 -39l-19 -142q-27 -211 -276 -272q-37 -8 -45 25z" />
<glyph unicode="-" horiz-adv-x="917" d="M209 549v86q0 37 39 37h549q39 0 39 -37v-86q0 -37 -39 -37h-549q-39 0 -39 37z" />
<glyph unicode="." horiz-adv-x="477" d="M143 39l19 164q2 39 43 39h125q37 0 30 -39l-20 -164q-6 -39 -41 -39h-123q-39 0 -33 39z" />
<glyph unicode="/" horiz-adv-x="753" d="M27 -262l628 1653q16 41 50 41h135q43 0 26 -41l-630 -1653q-14 -41 -52 -41h-135q-38 0 -22 41z" />
<glyph unicode="0" horiz-adv-x="1126" d="M150 254q0 20 4 53l96 787q39 315 475 315q215 0 316.5 -76t101.5 -196q0 -14 -4 -52l-95 -786q-39 -315 -477 -315q-217 0 -317 74.5t-100 195.5zM354 301q0 -147 228 -147q242 0 264 178l90 719q2 16 2 41q0 147 -225 147q-244 0 -267 -178l-88 -711q-4 -33 -4 -49z " />
<glyph unicode="1" horiz-adv-x="1126" d="M147 39l11 94q6 37 43 37h305l127 1022l-311 -62q-18 -4 -27.5 5.5t-7.5 29.5l10 95q2 33 45 43l479 100q16 4 25.5 -4t7.5 -33l-147 -1196h301q41 0 34 -37l-10 -94q-6 -39 -45 -39h-807q-39 0 -33 39z" />
<glyph unicode="2" horiz-adv-x="1126" d="M158 39l49 395q6 57 40 97t61.5 54.5t76.5 32.5l416 150q109 39 119 131l20 156q2 16 2 45q0 141 -223 141q-131 0 -190.5 -44t-71.5 -134l-13 -88q-6 -41 -41 -41h-120q-37 0 -33 41l14 119q8 68 34 121t77 99t142 70.5t216 24.5q215 0 313.5 -74.5t98.5 -195.5 q0 -20 -4 -54l-23 -188q-27 -213 -221 -279l-365 -126q-39 -14 -60 -23.5t-45 -36t-28 -65.5l-26 -197h622q39 0 35 -37l-10 -94q-6 -39 -45 -39h-785q-38 0 -32 39z" />
<glyph unicode="3" horiz-adv-x="1126" d="M145 254q0 27 2 43l7 53q6 39 43 39h118q37 0 33 -39l-2 -26q-2 -14 -2 -35q0 -139 227 -139q242 0 265 174l18 149q2 20 2 39q0 133 -219 133h-174q-39 0 -35 39l10 88q6 39 45 39h156q133 0 190.5 42t69.5 130l12 86q2 16 2 35q0 139 -215 139q-240 0 -252 -174l-2 -27 q-2 -39 -43 -38h-118q-37 0 -33 38l4 54q23 313 465 313q397 0 397 -264q0 -14 -4 -55l-18 -140q-10 -88 -53.5 -139t-139.5 -78q156 -49 156 -194q0 -18 -4 -56l-25 -194q-16 -141 -121.5 -223t-347.5 -82q-217 0 -315.5 73.5t-98.5 196.5z" />
<glyph unicode="4" horiz-adv-x="1126" d="M139 451l11 86q2 27 14 51l354 764q18 41 53 41h127q39 0 23 -41l-354 -768h475l94 768q6 41 45 41h125q37 0 31 -41l-160 -1311q-6 -41 -41 -41h-125q-41 0 -35 41l47 373h-649q-41 0 -35 37z" />
<glyph unicode="5" horiz-adv-x="1126" d="M162 252q0 29 2 43l6 53q2 41 41 41h121q35 0 33 -41l-3 -22q0 -2 -1 -16.5t-1 -22.5q0 -139 220 -140q129 0 185 43t69 134l24 194q4 27 4 49q0 137 -219 138h-348q-37 0 -33 40l74 607q6 41 41 41h710q41 0 35 -39l-10 -92q-6 -39 -43 -39h-547l-45 -353h187 q199 0 301 -71.5t102 -192.5q0 -10 -4 -51l-31 -260q-18 -145 -121.5 -229t-345.5 -84q-403 0 -403 270z" />
<glyph unicode="6" horiz-adv-x="1126" d="M162 252q0 18 4 47l98 803q37 307 461 307q211 0 304 -74.5t93 -189.5q0 -20 -2 -43l-6 -45q-2 -39 -41 -39h-121q-39 0 -32 39l2 16q2 8 2 31q0 139 -213 139q-231 0 -252 -170l-41 -319q90 86 274 86q190 0 282.5 -76t92.5 -195q0 -18 -4 -55l-25 -215 q-8 -68 -33.5 -121t-76.5 -99t-142.5 -70.5t-216.5 -24.5q-213 0 -310 73.5t-97 194.5zM365 291q0 -141 219 -141q131 0 188 44t70 132l20 170q4 33 4 36q0 141 -223 142q-233 0 -254 -162l-20 -176q-4 -37 -4 -45z" />
<glyph unicode="7" horiz-adv-x="1126" d="M252 1262l12 92q6 39 43 39h860q43 0 37 -39l-10 -78q-4 -31 -29 -76l-645 -1159q-23 -41 -51 -41h-147q-45 0 -23 41l657 1182h-667q-43 0 -37 39z" />
<glyph unicode="8" horiz-adv-x="1126" d="M160 254q0 25 2 45l24 205q10 90 61.5 145.5t155.5 83.5q-145 45 -145 187q0 12 4 49l14 125q16 147 110.5 231t334.5 84q391 0 391 -266q0 -16 -4 -49l-16 -133q-10 -92 -55.5 -145.5t-145.5 -82.5q166 -49 166 -196q0 -10 -4 -43l-23 -195q-18 -145 -120.5 -230 t-344.5 -85q-215 0 -310 74.5t-95 195.5zM360 289q0 -139 218 -139q131 0 188 44t70 132l18 139q2 16 2 43q0 141 -219 141q-129 0 -186.5 -43t-69.5 -133l-19 -147q-2 -17 -2 -37zM457 952q0 -72 44 -105.5t156 -33.5q127 0 179.5 44t64.5 134l10 76q2 18 2 39 q0 70 -46 103.5t-158 33.5q-127 0 -177.5 -43t-62.5 -133l-10 -76q-2 -19 -2 -39z" />
<glyph unicode="9" horiz-adv-x="1126" d="M170 248q0 20 2 43l6 45q6 39 43 39h119q39 0 33 -39l-2 -17q-2 -14 -2 -30q0 -139 215 -139q127 0 183 44t67 125l40 320q-90 -86 -272 -86q-193 0 -285 76t-92 194q0 18 4 56l27 215q18 145 121.5 230t343.5 85q213 0 311 -74.5t98 -193.5q0 -18 -4 -47l-96 -803 q-37 -307 -457 -307q-213 0 -308 74.5t-95 189.5zM428 862q0 -143 221 -143q233 0 254 162l21 176q4 37 4 45q0 141 -217 141q-131 0 -189.5 -44t-70.5 -132l-21 -170q-2 -17 -2 -35z" />
<glyph unicode=":" horiz-adv-x="477" d="M143 39l19 164q6 39 45 39h123q37 0 30 -39l-18 -164q-6 -39 -43 -39h-123q-39 0 -33 39zM238 811l20 164q6 41 43 41h123q20 0 27.5 -9.5t5.5 -31.5l-21 -164q-2 -39 -43 -39h-123q-34 0 -32 39z" />
<glyph unicode=";" horiz-adv-x="569" d="M96 -102q-10 37 31 49q57 20 81.5 50t31.5 75l16 131q6 39 43 39h125q37 0 31 -39l-19 -142q-27 -211 -274 -272q-37 -8 -45 25zM332 811l18 164q6 41 45 41h123q37 0 31 -41l-19 -164q-2 -39 -43 -39h-122q-35 0 -33 39z" />
<glyph unicode="&#x3c;" horiz-adv-x="1089" d="M219 629v133q0 29 37 43l725 321q18 8 28.5 -3t10.5 -33v-115q0 -18 -8 -26.5t-31 -16.5l-569 -238l569 -233q39 -16 39 -45v-115q0 -23 -10.5 -33t-28.5 -2l-725 320q-37 18 -37 43z" />
<glyph unicode="=" horiz-adv-x="1198" d="M195 432v88q0 37 38 37h830q39 0 39 -37v-88q0 -39 -39 -39h-830q-38 0 -38 39zM195 821v88q0 37 38 37h830q39 0 39 -37v-88q0 -39 -39 -39h-830q-38 0 -38 39z" />
<glyph unicode="&#x3e;" horiz-adv-x="1089" d="M178 299v119q0 20 8.5 28.5t30.5 16.5l569 231l-569 234q-39 16 -39 45v119q0 23 10.5 34t28.5 2l725 -321q35 -14 35 -43v-137q0 -29 -35 -43l-725 -322q-18 -8 -28.5 3t-10.5 34z" />
<glyph unicode="?" horiz-adv-x="1159" d="M252 975l14 119q43 315 477 315q215 0 316.5 -79t101.5 -200q0 -27 -2 -45l-16 -129q-23 -195 -213 -280l-119 -53q-98 -45 -111 -131l-14 -103q-6 -39 -41 -39h-125q-39 0 -35 39l21 152q6 55 35.5 96t54.5 57.5t66 36.5l172 84q96 45 110 143l14 105q2 18 3 39 q0 139 -232 139q-248 0 -270 -178l-13 -88q-6 -41 -40 -41h-121q-39 0 -33 41zM444 39l19 162q6 41 43 41h127q35 0 31 -39l-19 -164q-6 -39 -43 -39h-125q-20 0 -27.5 8t-5.5 31z" />
<glyph unicode="@" horiz-adv-x="1832" d="M178 76q0 18 6 74l92 749q8 68 30 122t76 108.5t138 91t223.5 59.5t325.5 23q207 0 350.5 -28t219 -78t107.5 -108.5t32 -134.5q0 -16 -4 -61l-66 -531q-35 -295 -346 -294q-207 0 -248 129q-170 -129 -338 -129q-113 0 -169 51t-56 143q0 49 8 84l70 313 q31 137 103.5 208t207.5 71q145 0 279 -109l14 54q12 39 45 39h104q41 0 31 -39l-110 -484q-12 -61 -13 -88q0 -98 96 -98q113 0 136 176l61 496q2 14 2 41q0 106 -117.5 161.5t-412.5 55.5q-319 0 -447.5 -63.5t-142.5 -188.5l-92 -737q-4 -29 -4 -50q0 -109 117.5 -163 t414.5 -54h369q37 0 33 -39l-9 -84q-2 -39 -45 -38h-362q-166 0 -293 18t-205 50t-126 78t-66.5 95.5t-18.5 108.5zM750 326q0 -82 120 -82q109 0 230 82q0 16 4 32l74 318q-94 88 -195 88q-139 0 -172 -141l-53 -244q-8 -28 -8 -53z" />
<glyph unicode="A" horiz-adv-x="1101" d="M45 39l557 1315q18 39 53 39h127q37 0 43 -39l238 -1315q6 -39 -33 -39h-127q-37 0 -43 39l-55 317h-432l-135 -317q-16 -39 -50 -39h-118q-29 0 -30 20q0 8 5 19zM438 516h342l-67 373q-8 39 -13.5 114.5t-7.5 131.5v57q0 -2 -17 -64l-38 -130q-20 -69 -37 -105z" />
<glyph unicode="B" horiz-adv-x="1202" d="M172 41l162 1311q6 41 43 41h356q225 0 330.5 -73t105.5 -194q0 -14 -4 -47l-14 -116q-20 -170 -201 -234q98 -27 151.5 -88t53.5 -137q0 -27 -2 -41l-20 -164q-37 -299 -498 -299h-428q-39 0 -35 41zM389 166h258q268 0 291 168l14 117q2 14 2 34q0 152 -245 152h-263z M465 793h215q256 0 274 172l11 86q2 14 2 36q0 139 -244 140h-203z" />
<glyph unicode="C" horiz-adv-x="1144" d="M176 256q0 14 4 51l96 787q39 315 486 315q221 0 321.5 -74.5t100.5 -197.5q0 -14 -4 -52l-11 -92q-6 -41 -41 -41h-120q-39 0 -33 41l8 60q2 12 2 39q0 147 -235 147q-254 0 -277 -178l-88 -719q-2 -14 -2 -39q0 -150 233 -149q258 0 279 178l10 96q2 39 43 39h119 q37 0 33 -39l-15 -129q-35 -315 -487 -315q-221 0 -321.5 75.5t-100.5 196.5z" />
<glyph unicode="D" horiz-adv-x="1243" d="M172 41l162 1311q6 41 43 41h418q227 0 333.5 -78t106.5 -201q0 -27 -4 -55l-90 -744q-39 -315 -496 -315h-442q-32 0 -32 30q0 5 1 11zM389 170h266q264 0 287 178l84 680q4 37 4 43q0 152 -246 152h-264z" />
<glyph unicode="E" horiz-adv-x="1062" d="M172 41l162 1311q6 41 43 41h700q41 0 35 -39l-12 -92q-6 -39 -43 -39h-537l-51 -414h502q39 0 33 -39l-11 -88q-6 -39 -43 -39h-501l-60 -473h559q43 0 37 -37l-12 -94q-6 -39 -43 -39h-723q-41 0 -35 41z" />
<glyph unicode="F" horiz-adv-x="1073" d="M172 41l162 1311q6 41 43 41h751q41 0 35 -39l-12 -92q-6 -39 -43 -39h-588l-53 -416h553q41 0 35 -39l-13 -94q-6 -39 -43 -39h-550l-76 -594q-6 -41 -41 -41h-125q-41 0 -35 41z" />
<glyph unicode="G" horiz-adv-x="1173" d="M176 256q0 18 4 51l96 787q39 315 486 315q221 0 321.5 -76t100.5 -200q0 -12 -4 -50l-9 -79q-2 -39 -43 -39h-118q-37 0 -33 39l6 57q2 12 2 35q0 143 -233 143q-256 0 -279 -178l-88 -719q-4 -29 -4 -41q0 -147 233 -147q256 0 279 176l25 196h-244q-35 0 -33 39l10 94 q2 37 43 37h400q39 0 34 -37l-43 -360q-39 -315 -487 -315q-221 0 -321.5 75.5t-100.5 196.5z" />
<glyph unicode="H" horiz-adv-x="1265" d="M172 41l162 1311q6 41 43 41h125q39 0 33 -41l-66 -539h530l66 539q6 41 45 41h125q32 0 32 -30q0 -5 -1 -11l-162 -1311q-6 -41 -39 -41h-125q-41 0 -35 41l74 602h-530l-76 -602q-6 -41 -41 -41h-125q-41 0 -35 41z" />
<glyph unicode="I" horiz-adv-x="534" d="M172 41l162 1311q6 41 43 41h125q34 0 33 -31v-10l-162 -1311q-6 -41 -41 -41h-125q-41 0 -35 41z" />
<glyph unicode="J" horiz-adv-x="1032" d="M80 254q0 25 4 61l10 88q6 41 45 41h121q37 0 31 -41l-8 -65q-2 -12 -2 -45q0 -139 200 -139q117 0 167 44t63 134l127 1020q6 41 43 41h125q34 0 33 -31q0 -5 -1 -10l-129 -1053q-18 -145 -114.5 -230t-325.5 -85q-203 0 -296 74.5t-93 195.5z" />
<glyph unicode="K" horiz-adv-x="1155" d="M170 39l162 1315q6 39 43 39h125q39 0 32 -39l-71 -586h47l500 586q35 39 67 39h139q24 0 25 -16q0 -10 -12 -23l-553 -647l448 -668q10 -14 3 -26.5t-25 -12.5h-160q-27 0 -55 39l-387 579h-56l-71 -579q-6 -39 -41 -39h-125q-41 0 -35 39z" />
<glyph unicode="L" horiz-adv-x="991" d="M172 41l162 1311q6 41 43 41h125q39 0 33 -41l-146 -1182h524q41 0 35 -37l-12 -94q-6 -39 -43 -39h-690q-32 0 -32 30q0 5 1 11z" />
<glyph unicode="M" horiz-adv-x="1503" d="M170 39l162 1315q4 39 43 39h110q27 0 33 -23l254 -823q16 -53 31 -123q20 49 57 121l449 829q10 18 39 19h122q32 0 32 -29q0 -5 -1 -10l-162 -1315q-6 -39 -39 -39h-120q-41 0 -35 39l117 942q-45 -115 -68 -154l-309 -575q-23 -41 -56 -41h-100q-37 0 -51 41l-178 600 q-16 47 -25 125l-117 -938q-6 -39 -39 -39h-114q-41 0 -35 39z" />
<glyph unicode="N" horiz-adv-x="1265" d="M170 39l162 1315q6 39 43 39h106q27 0 33 -17l389 -862q37 -84 49 -131l119 971q6 39 43 39h113q39 0 33 -39l-162 -1315q-6 -39 -41 -39h-107q-29 0 -37 18l-378 844q-29 59 -56 150l-121 -973q-6 -39 -39 -39h-114q-41 0 -35 39z" />
<glyph unicode="O" horiz-adv-x="1222" d="M176 258q0 12 4 49l96 787q39 315 498 315q223 0 329.5 -77t106.5 -199q0 -31 -2 -48l-96 -786q-39 -315 -500 -315q-225 0 -330.5 75.5t-105.5 198.5zM381 305q0 -152 248 -151q262 0 284 178l91 719q4 29 4 36q0 152 -248 152q-264 0 -287 -178l-88 -719q-4 -29 -4 -37 z" />
<glyph unicode="P" horiz-adv-x="1171" d="M172 41l162 1311q6 41 43 41h409q223 0 328 -80t105 -209q0 -4 -5 -53l-24 -228q-16 -147 -130 -226t-368 -79h-260l-59 -477q-6 -41 -41 -41h-125q-41 0 -35 41zM455 688h252q266 0 288 168l21 168q2 16 2 41q0 80 -56.5 119t-185.5 39h-256z" />
<glyph unicode="Q" horiz-adv-x="1220" d="M176 258q0 12 4 49l96 787q39 315 498 315q223 0 329.5 -77t106.5 -199q0 -31 -2 -48l-96 -786q-33 -252 -334 -303l223 -227q27 -27 -2 -54l-71 -67q-15 -15 -29 -15q-13 0 -25 13l-327 340q-190 12 -280.5 85.5t-90.5 186.5zM381 305q0 -152 248 -151q262 0 284 178 l91 719q4 29 4 36q0 152 -248 152q-264 0 -287 -178l-88 -719q-4 -29 -4 -37z" />
<glyph unicode="R" horiz-adv-x="1216" d="M172 41l162 1311q6 41 43 41h405q223 0 330 -81t107 -210q0 -29 -2 -45l-23 -203q-25 -217 -274 -281l178 -532q6 -18 -6.5 -29.5t-32.5 -11.5h-125q-25 0 -39 41l-170 510h-289l-63 -510q-6 -41 -41 -41h-125q-39 0 -35 41zM457 721h254q268 0 288 168l17 135q2 14 2 37 q0 162 -242 162h-256z" />
<glyph unicode="S" horiz-adv-x="1163" d="M158 260q0 27 2 47l12 111q6 41 43 41h121q39 0 33 -41l-11 -84q-2 -18 -2 -39q0 -145 244 -145q260 0 283 174l14 104q2 14 2 27q0 47 -39 75.5t-115 59.5l-290 117q-193 80 -193 241q0 25 2 43l12 103q12 92 53.5 157.5t147 111.5t273.5 46q219 0 317 -76t98 -196 q0 -27 -2 -43l-10 -90q-2 -39 -43 -39h-121q-39 0 -33 39l9 65q2 16 2 31q0 143 -230 143q-250 0 -268 -172l-6 -53q-2 -14 -2 -27q0 -41 21.5 -61.5t66.5 -38.5l348 -139q201 -80 201 -254q0 -31 -2 -47l-17 -152q-35 -315 -491 -315q-223 0 -326.5 76.5t-103.5 199.5z" />
<glyph unicode="T" horiz-adv-x="997" d="M184 1262l11 92q6 39 43 39h856q41 0 34 -39l-10 -92q-6 -39 -43 -39h-327l-148 -1182q-6 -41 -41 -41h-125q-41 0 -35 41l148 1182h-328q-41 0 -35 39z" />
<glyph unicode="U" horiz-adv-x="1243" d="M186 262q0 20 4 53l129 1037q6 41 41 41h125q39 0 33 -41l-123 -992q-4 -49 -4 -55q0 -152 246 -151q264 0 287 178l127 1020q6 41 41 41h125q41 0 34 -41l-131 -1053q-39 -315 -495 -315q-221 0 -330 77.5t-109 200.5z" />
<glyph unicode="V" horiz-adv-x="1101" d="M205 1354q-6 39 35 39h135q35 0 41 -39l149 -850q16 -98 17 -250q35 139 80 246l360 854q16 39 51 39h127q30 0 30 -19q0 -8 -5 -20l-559 -1315q-14 -39 -52 -39h-127q-39 0 -45 39z" />
<glyph unicode="W" horiz-adv-x="1673" d="M205 1354q-6 39 35 39h127q33 0 39 -39l110 -852q12 -111 12 -160q39 117 56 160l321 852q12 39 51 39h117q35 0 41 -39l109 -852q12 -92 12 -180l6 22l13 48q7 26 17.5 57.5t18.5 52.5l320 852q16 39 51 39h113q28 0 28 -21q0 -8 -4 -18l-493 -1315q-14 -39 -54 -39 h-123q-35 0 -41 39l-110 868q-10 82 -10 162q-2 -4 -11 -35l-19 -69l-17 -60l-328 -866q-14 -39 -51 -39h-123q-37 0 -43 39z" />
<glyph unicode="X" horiz-adv-x="1148" d="M80 45l465 670l-293 635q-7 14 -7 23q0 20 29 20h142q35 0 53 -39l219 -471l322 471q27 39 63 39h135q26 0 26 -14q0 -9 -11 -25l-457 -643l311 -672q16 -39 -24 -39h-142q-35 0 -53 39l-231 496l-338 -496q-23 -39 -60 -39h-137q-24 0 -24 16q0 10 12 29z" />
<glyph unicode="Y" horiz-adv-x="1083" d="M203 1354q-4 10 -4 17q0 22 37 22h139q33 0 43 -39l190 -541q8 -27 21 -92q25 63 43 92l336 541q25 39 51 39h129q31 0 31 -17q0 -9 -9 -22l-499 -801l-64 -514q-6 -39 -41 -39h-125q-41 0 -35 39l60 491z" />
<glyph unicode="Z" horiz-adv-x="1024" d="M92 39l12 92q2 18 17 39l706 1053h-514q-41 0 -34 39l12 92q6 39 43 39h721q41 0 35 -39l-11 -92q-2 -16 -18 -39l-707 -1053h584q41 0 35 -37l-12 -94q-6 -39 -41 -39h-791q-43 0 -37 39z" />
<glyph unicode="[" horiz-adv-x="774" d="M106 -391l220 1782q6 41 43 41h417q41 0 35 -39l-12 -93q-6 -39 -43 -38h-254l-190 -1524h256q41 0 34 -39l-10 -92q-6 -39 -43 -39h-418q-41 0 -35 41z" />
<glyph unicode="\" horiz-adv-x="753" d="M229 1391q-6 41 35 41h127q37 0 43 -41l221 -1653q6 -41 -34 -41h-127q-35 0 -41 41z" />
<glyph unicode="]" horiz-adv-x="774" d="M74 -393l12 92q6 39 41 39h256l188 1524h-254q-41 0 -34 38l10 93q6 39 43 39h418q41 0 34 -41l-221 -1782q-6 -41 -41 -41h-417q-41 0 -35 39z" />
<glyph unicode="^" horiz-adv-x="1157" d="M223 631l320 725q18 37 43 37h133q29 0 43 -37l321 -725q8 -18 -3 -29.5t-31 -11.5h-117q-27 0 -43 41l-238 565l-233 -565q-16 -41 -43 -41h-117q-20 0 -31.5 11.5t-3.5 29.5z" />
<glyph unicode="_" horiz-adv-x="907" d="M6 -201q0 37 39 37h739q39 0 39 -37v-88q0 -39 -39 -39h-739q-39 0 -39 39v88z" />
<glyph unicode="`" horiz-adv-x="663" d="M334 1411q-18 39 26 39h123q35 0 49 -37l93 -219q14 -37 -25 -37h-90q-35 0 -47 25z" />
<glyph unicode="a" d="M150 215q0 14 4 47l61 492q35 279 317 278q193 0 332 -123l13 66q8 41 43 41h108q34 0 34 -31q0 -5 -1 -10l-115 -934q-6 -41 -43 -41h-110q-33 0 -33 41l4 61q-172 -119 -350 -118q-129 0 -196.5 61t-67.5 170zM348 262q0 -104 139 -104q135 0 291 104l62 490 q-125 106 -265 106q-152 0 -169 -133l-56 -434q-2 -11 -2 -29z" />
<glyph unicode="b" d="M150 41l165 1350q6 41 43 41h121q35 0 31 -41l-57 -476q164 117 344 117q127 0 195.5 -62.5t68.5 -172.5q0 -29 -2 -43l-62 -492q-35 -279 -321 -278q-186 0 -328 118l-12 -61q-8 -41 -43 -41h-111q-36 0 -32 41zM373 262q125 -104 264 -104q154 0 168 133l55 434 q2 12 2 27q0 106 -137 106q-143 0 -293 -106z" />
<glyph unicode="c" horiz-adv-x="991" d="M150 225q0 25 2 39l59 488q16 135 114.5 207.5t309.5 72.5q362 0 362 -241q0 -23 -2 -43l-4 -33q-6 -39 -43 -39h-110q-35 0 -33 37l2 24q2 16 2 31q0 104 -184 104q-113 0 -162 -33.5t-57 -101.5l-56 -438q-4 -33 -4 -45q0 -55 43 -83t143 -28q111 0 160 34t60 102l6 40 q6 39 41 39h110q37 0 33 -39l-6 -55q-31 -281 -422 -280q-364 -1 -364 241z" />
<glyph unicode="d" d="M150 215q0 14 4 47l61 492q35 279 317 278q188 0 326 -117l57 476q6 41 43 41h121q34 0 34 -31q0 -5 -1 -10l-166 -1350q-6 -41 -43 -41h-110q-33 0 -33 41l2 61q-172 -119 -348 -118q-129 0 -196.5 61t-67.5 170zM348 262q0 -104 139 -104q135 0 291 104l62 490 q-125 106 -265 106q-156 0 -169 -133l-54 -426q-4 -29 -4 -37z" />
<glyph unicode="e" horiz-adv-x="1013" d="M150 225q0 27 2 39l59 488q16 135 114.5 207.5t309.5 72.5q184 0 273 -64.5t89 -176.5q0 -27 -2 -39l-30 -250q-2 -37 -41 -37h-557l-23 -174q-4 -41 -4 -43q0 -113 190 -113q205 0 222 131l4 33q6 39 45 39h102q37 0 33 -39l-4 -35q-16 -137 -109.5 -208.5t-304.5 -71.5 q-368 -1 -368 241zM385 610h410l16 123q2 10 2 33q0 115 -190 115q-205 0 -222 -138z" />
<glyph unicode="f" horiz-adv-x="681" d="M158 893l8 72q2 37 43 39l108 8h13l18 147q35 281 436 281h21q41 0 35 -39l-11 -86q-6 -41 -45 -41h-14q-213 0 -229 -135l-17 -127h201q43 0 37 -37l-10 -82q-6 -41 -43 -41h-201l-154 -1229q-6 -41 -41 -41h-120q-39 0 -33 41l153 1229h-120q-41 0 -35 41z" />
<glyph unicode="g" d="M150 217q0 16 4 45l61 492q35 279 317 278q193 0 332 -123l13 66q8 41 41 41h110q37 0 33 -41l-135 -1112q-35 -281 -441 -281h-282q-43 0 -37 39l10 86q6 39 45 39h283q211 0 227 137l27 215q-166 -115 -342 -114q-129 0 -197.5 62t-68.5 171zM348 264q0 -106 139 -106 q135 0 291 104l62 490q-125 106 -265 106q-156 0 -169 -133l-54 -422q-4 -29 -4 -39z" />
<glyph unicode="h" horiz-adv-x="1097" d="M150 41l165 1350q6 41 43 41h121q37 0 31 -41l-57 -473q154 115 344 114q123 0 193.5 -62.5t70.5 -164.5q0 -23 -2 -35l-88 -729q-6 -41 -45 -41h-117q-39 0 -33 41l82 682q2 12 2 31q0 104 -137 104q-143 0 -291 -104l-86 -713q-6 -41 -43 -41h-121q-34 0 -33 31 q0 4 1 10z" />
<glyph unicode="i" horiz-adv-x="485" d="M150 41l116 934q6 41 41 41h119q41 0 35 -41l-115 -934q-6 -41 -43 -41h-121q-34 0 -33 31q0 4 1 10zM293 1206l22 185q6 41 43 41h121q32 0 32 -31q0 -5 -1 -10l-23 -185q-6 -39 -41 -39h-120q-39 0 -33 39z" />
<glyph unicode="j" horiz-adv-x="483" d="M-166 -379l10 86q6 39 45 39h15q209 0 225 137l135 1092q6 41 43 41h119q39 0 33 -41l-137 -1112q-16 -137 -118 -209t-313 -72h-22q-41 0 -35 39zM293 1206l22 185q6 41 43 41h119q34 0 34 -31q0 -5 -1 -10l-23 -185q-2 -39 -41 -39h-118q-41 0 -35 39z" />
<glyph unicode="k" horiz-adv-x="970" d="M147 39l166 1354q6 39 43 39h121q37 0 31 -39l-90 -750h51l350 334q39 39 68 39h135q25 0 25 -19q0 -11 -11 -22l-413 -400l338 -536q10 -14 2.5 -26.5t-27.5 -12.5h-131q-31 0 -53 39l-293 457h-60l-55 -457q-6 -39 -43 -39h-121q-39 0 -33 39z" />
<glyph unicode="l" horiz-adv-x="485" d="M150 41l165 1350q6 41 43 41h121q32 0 32 -31q0 -5 -1 -10l-164 -1350q-6 -41 -43 -41h-121q-34 0 -33 31q0 4 1 10z" />
<glyph unicode="m" horiz-adv-x="1699" d="M150 41l116 936q6 39 41 39h111q35 0 33 -39l-5 -64q150 119 338 119q94 0 161 -38t89 -101q162 139 363 139q123 0 194.5 -61.5t71.5 -161.5q0 -25 -2 -39l-90 -729q-6 -41 -43 -41h-119q-39 0 -33 41l82 672q4 33 4 39q0 106 -137 106q-152 0 -283 -106v-27l-84 -684 q-6 -41 -43 -41h-118q-39 0 -33 41l82 676q4 33 4 35q0 106 -137 106q-139 0 -281 -104l-86 -713q-6 -41 -43 -41h-121q-34 0 -33 31q0 4 1 10z" />
<glyph unicode="n" horiz-adv-x="1097" d="M150 41l116 936q6 39 41 39h111q37 0 35 -39l-4 -66q156 121 348 121q123 0 193.5 -62.5t70.5 -164.5q0 -29 -2 -45l-88 -719q-6 -41 -45 -41h-117q-39 0 -33 41l82 672q4 29 4 39q0 106 -137 106q-145 0 -293 -104l-86 -713q-6 -41 -43 -41h-121q-34 0 -33 31q0 4 1 10z " />
<glyph unicode="o" horiz-adv-x="1064" d="M150 229q0 23 2 35l59 488q35 281 440 280q188 0 284.5 -64.5t96.5 -179.5q0 -25 -2 -36l-59 -488q-35 -281 -439 -280q-190 0 -286 65t-96 180zM346 258q0 -115 201 -115q215 0 231 138l58 454v21q0 117 -199 116q-215 0 -231 -137l-58 -454q-2 -9 -2 -23z" />
<glyph unicode="p" d="M98 -377l168 1352q6 41 41 41h111q37 0 35 -41l-7 -64q176 121 351 121q129 0 196.5 -62.5t67.5 -170.5q0 -31 -2 -45l-62 -492q-35 -279 -317 -278q-193 0 -328 114l-57 -475q-6 -41 -43 -41h-119q-39 0 -35 41zM373 262q125 -104 264 -104q154 0 168 133l53 426 q4 29 4 37q0 104 -137 104q-147 0 -291 -106z" />
<glyph unicode="q" d="M150 217q0 16 4 45l61 492q35 279 317 278q186 0 330 -121l12 64q8 41 44 41h110q37 0 33 -41l-166 -1352q-6 -41 -43 -41h-119q-37 0 -33 41l58 475q-166 -115 -342 -114q-129 0 -197.5 62t-68.5 171zM348 264q0 -106 139 -106q135 0 291 104l62 490q-125 106 -265 106 q-156 0 -169 -133l-54 -422q-4 -29 -4 -39z" />
<glyph unicode="r" horiz-adv-x="729" d="M150 41l116 936q6 39 41 39h111q37 0 35 -39l-7 -88q162 141 336 141q43 0 37 -39l-12 -96q-6 -37 -45 -39q-180 -12 -332 -129l-84 -686q-6 -41 -43 -41h-121q-34 0 -33 31q0 4 1 10z" />
<glyph unicode="s" horiz-adv-x="958" d="M123 199q0 12 2 32l6 50q6 37 41 36h109q31 0 28 -36l-4 -39q-2 -14 -2 -27q0 -41 52.5 -64.5t142.5 -23.5q211 0 225 104l6 48q2 23 2 34q0 49 -96 84l-283 101q-147 51 -147 192q0 10 2 33l8 70q27 240 391 239q174 0 262 -64.5t88 -158.5q0 -12 -2 -35l-4 -43 q-2 -37 -41 -37h-108q-35 0 -31 37l4 35q2 14 2 33q0 92 -180 92q-188 0 -203 -100l-4 -31q-2 -18 -2 -23q0 -63 72 -88l297 -102q78 -27 118.5 -75t40.5 -105q0 -12 -4 -50l-10 -102q-10 -102 -110.5 -166.5t-301.5 -64.5q-180 0 -273 61.5t-93 153.5z" />
<glyph unicode="t" horiz-adv-x="724" d="M152 893l8 72q2 35 43 39l112 8h2l27 207q6 41 43 41h119q39 0 33 -41l-27 -207h213q37 0 33 -37l-8 -84q-2 -39 -45 -39h-211l-68 -541q-2 -14 -2 -35q0 -111 190 -110h39q39 0 35 -41l-8 -86q-2 -39 -45 -39h-68q-184 0 -263 56.5t-79 170.5q0 35 2 54l70 571h-113 q-36 0 -32 41z" />
<glyph unicode="u" horiz-adv-x="1085" d="M158 209q0 23 2 35l90 731q6 41 43 41h119q39 0 32 -41l-84 -682q-2 -12 -2 -33q0 -102 138 -102q135 0 280 102l86 715q6 41 43 41h121q34 0 34 -31q0 -5 -1 -10l-117 -936q-6 -39 -43 -39h-108q-37 0 -35 39l4 61q-147 -117 -336 -116q-125 0 -195.5 61.5t-70.5 163.5z " />
<glyph unicode="v" horiz-adv-x="921" d="M150 975q-1 5 -2 9q0 12 9 21q11 11 33 11h121q31 0 37 -41l123 -588q16 -74 16 -149q29 100 52 147l274 590q16 41 49 41h115q38 0 38 -22q0 -8 -5 -19l-439 -938q-16 -37 -45 -37h-135q-18 0 -25.5 7t-11.5 30z" />
<glyph unicode="w" horiz-adv-x="1394" d="M143 975q-6 41 41 41h115q33 0 39 -41l90 -637q8 -61 8 -88q2 18 31 88l256 637q16 41 47 41h121q35 0 39 -41l80 -637l8 -90q0 2 11 35l20 55l249 637q16 41 48 41h100q35 0 35 -23q0 -8 -4 -18l-381 -938q-14 -37 -45 -37h-142q-31 0 -37 37l-77 604q-8 70 -9 100 l-36 -100l-248 -604q-14 -37 -45 -37h-140q-18 0 -24 7t-10 30z" />
<glyph unicode="x" horiz-adv-x="958" d="M43 12q-1 3 -1 7q0 10 9 20l383 481l-252 455q-6 13 -6 21q0 19 31 20h129q29 0 51 -41l184 -322l246 322q31 41 64 41h120q22 0 23 -18q0 -10 -10 -23l-369 -465l262 -469q8 -16 2 -28.5t-26 -12.5h-129q-29 0 -52 39l-190 338l-264 -338q-31 -39 -64 -39h-118 q-19 0 -23 12z" />
<glyph unicode="y" horiz-adv-x="921" d="M150 975q-1 5 -2 9q0 12 10 21q12 11 32 11h119q29 0 39 -41l125 -592q16 -92 16 -141q18 66 54 137l274 596q18 41 49 41h111q38 0 38 -22q0 -8 -5 -19l-629 -1354q-20 -39 -47 -39h-92q-36 0 -36 21q0 8 5 18l160 363z" />
<glyph unicode="z" horiz-adv-x="923" d="M94 39l10 84q4 23 21 43l555 688h-418q-41 0 -35 39l11 84q6 39 45 39h616q41 0 35 -37l-10 -84q-4 -20 -21 -41l-559 -694h483q41 0 35 -37l-10 -84q-6 -39 -45 -39h-680q-39 0 -33 39z" />
<glyph unicode="{" horiz-adv-x="919" d="M168 467l10 84q6 41 43 41h4q195 0 211 137l53 440q35 281 429 281h26q39 0 35 -39l-10 -86q-2 -41 -43 -41h-15q-113 0 -164 -33.5t-59 -101.5l-55 -440q-10 -84 -52 -130.5t-120 -68.5q127 -43 127 -164q0 -12 -4 -49l-54 -418q-4 -41 -4 -51q0 -109 191 -109h16 q37 0 33 -41l-10 -86q-6 -39 -43 -38h-11q-186 0 -282 64.5t-96 184.5q0 29 4 58l53 418q4 33 4 40q0 109 -180 109h-2q-39 0 -35 39z" />
<glyph unicode="|" horiz-adv-x="534" d="M217 -391v1782q0 41 39 41h125q37 0 37 -41v-1782q0 -41 -37 -41h-125q-39 0 -39 41z" />
<glyph unicode="}" horiz-adv-x="919" d="M63 -408l9 86q2 41 45 41h16q111 0 162 34t59 102l56 454q10 82 53 129t121 72q-127 37 -127 166q0 10 6 59l49 406q4 33 4 37q0 106 -190 106h-17q-37 0 -33 41l11 86q6 39 43 39h14q186 0 279.5 -65.5t93.5 -184.5q0 -35 -2 -51l-51 -404q-4 -29 -5 -43 q0 -111 181 -110h2q37 0 32 -41l-8 -84q-2 -39 -45 -39h-2q-195 0 -211 -137l-55 -457q-35 -281 -428 -280h-27q-39 -1 -35 38z" />
<glyph unicode="~" horiz-adv-x="1011" d="M201 473l6 74q8 90 54 134t106 44q49 0 98 -23l184 -86q61 -29 88 -28q8 0 14.5 1t10.5 5t6 7t4 11.5t3 13.5t2 18t3 22l2 14q4 35 41 35h64q35 0 33 -45l-7 -74q-10 -94 -54 -137t-99 -43q-61 0 -115 26l-188 88q-41 23 -72 23q-27 0 -34 -14.5t-11 -57.5l-2 -18 q-2 -35 -43 -35h-62q-36 0 -32 45z" />
<glyph unicode="&#xa1;" horiz-adv-x="540" d="M125 -336l65 553l72 410q6 39 43 39h88q35 0 33 -39l-31 -410l-67 -553q-6 -41 -43 -41h-127q-39 0 -33 41zM268 813l21 164q6 39 43 39h123q41 0 34 -39l-20 -164q-6 -39 -43 -39h-125q-39 0 -33 39z" />
<glyph unicode="&#xa2;" horiz-adv-x="1097" d="M205 414q0 25 2 39l59 487q31 248 328 277l18 135q6 41 43 41h119q39 0 33 -41l-16 -138q262 -31 262 -235q0 -23 -2 -43l-4 -33q-6 -39 -43 -39h-111q-37 0 -33 37l2 25q2 16 2 30q0 104 -184 105q-113 0 -162 -34t-57 -101l-55 -439q-4 -33 -5 -45q0 -55 43 -82.5 t144 -27.5q111 0 160 33.5t59 101.5l6 41q6 39 41 39h111q37 0 32 -39l-6 -55q-29 -248 -329 -277l-17 -135q-6 -41 -41 -41h-119q-41 0 -34 41l16 135q-262 33 -262 238z" />
<glyph unicode="&#xa3;" horiz-adv-x="1376" d="M160 39l10 88q2 39 43 39h117l57 444h-119q-35 0 -32 39l10 88q6 37 43 37h117l40 330q12 92 51.5 154.5t141.5 106.5t266 44q209 0 304.5 -70.5t95.5 -187.5q0 -14 -5 -47l-8 -64q-6 -41 -41 -41h-116q-39 0 -33 41l4 29q2 14 2 39q0 68 -50 99.5t-167 31.5 q-127 0 -181.5 -41t-66.5 -129l-37 -295h277q39 0 35 -37l-11 -88q-2 -39 -45 -39h-274l-58 -444h363q76 0 130 49t54 150v14q0 41 43 41h113q37 0 33 -41v-14q0 -188 -98.5 -276.5t-243.5 -88.5h-731q-37 0 -33 39z" />
<glyph unicode="&#xa5;" horiz-adv-x="1101" d="M180 549l6 51q6 39 43 39h244l-49 137h-176q-41 0 -35 39l6 51q6 37 43 37h115l-166 451q-16 39 33 39h139q33 0 43 -39l190 -541q8 -27 21 -92q25 63 43 92l336 541q25 39 51 39h129q47 0 23 -39l-283 -451h123q43 0 37 -37l-6 -51q-6 -39 -46 -39h-186l-86 -137h254 q20 0 28.5 -8t6.5 -31l-4 -51q-2 -37 -45 -37h-299l-58 -473q-6 -39 -41 -39h-125q-41 0 -34 39l57 473h-297q-41 0 -35 37z" />
<glyph unicode="&#xa7;" horiz-adv-x="1126" d="M145 -190q0 6 1 18t1 16l3 29q2 39 45 39h104q35 0 33 -41l-2 -23q-2 -18 -2 -24q0 -59 45 -88t149 -29q207 0 223 135l17 129q2 10 2 27q0 66 -107 100l-258 80q-160 49 -159 199q0 12 4 49l20 176q6 39 43 39h105q41 0 34 -39l-18 -151q-2 -16 -2 -33q0 -66 84 -94 l264 -82q72 -23 128 -76t56 -139q0 -29 -2 -43l-16 -131q-35 -276 -424 -277q-371 1 -371 234zM287 958q0 14 4 43l16 132q35 276 424 276q369 0 369 -235q0 -6 -1 -17.5t-1 -15.5l-2 -29q-2 -39 -43 -39h-107q-35 0 -33 39l2 25q0 2 1.5 11t1.5 13q0 59 -44.5 87t-148.5 28 q-113 0 -165 -33t-60 -100l-17 -129q-2 -10 -2 -27q0 -70 107 -100l258 -80q160 -47 160 -199q0 -33 -2 -49l-23 -178q-6 -39 -43 -39h-104q-41 0 -35 39l20 154q2 10 2 32q0 63 -86 92l-262 82q-74 25 -130 78t-56 139z" />
<glyph unicode="&#xa8;" horiz-adv-x="712" d="M305 1208l23 195q6 39 45 39h69q39 0 33 -39l-24 -195q-6 -39 -41 -39h-72q-39 0 -33 39zM553 1208l22 195q6 39 43 39h72q39 0 33 -39l-25 -195q-6 -39 -43 -39h-69q-39 0 -33 39z" />
<glyph unicode="&#xa9;" horiz-adv-x="1533" d="M209 399v596q0 88 21.5 153.5t81 129t184.5 97.5t311 34q152 0 262.5 -24.5t175 -61.5t102 -94.5t49 -110.5t11.5 -123v-596q0 -88 -21.5 -153.5t-81 -130t-185.5 -98t-312 -33.5t-311 33.5t-184.5 98t-81 130t-21.5 153.5zM352 373q0 -262 455 -262q457 0 457 262v649 q0 262 -457 262q-455 0 -455 -264v-647zM492 537v317q0 135 70.5 201.5t246.5 66.5q178 0 247.5 -66.5t69.5 -201.5v-25q0 -39 -39 -38h-96q-39 0 -39 38v21q0 70 -30.5 103.5t-112.5 33.5t-111.5 -32.5t-29.5 -104.5v-307q0 -72 29.5 -104.5t111.5 -32.5t112.5 33.5 t30.5 103.5v35q0 41 39 40h96q39 0 39 -40v-41q0 -135 -69.5 -202t-247.5 -67q-176 0 -246.5 67t-70.5 202z" />
<glyph unicode="&#xaa;" horiz-adv-x="727" d="M223 918q0 20 2 34l37 289q10 78 62.5 123t142.5 45q109 0 197 -72l8 35q6 27 28 27h91q25 0 20 -25l-68 -563q-2 -25 -26 -25h-94q-20 0 -21 25v39q-100 -74 -207 -74q-78 0 -125 39.5t-47 102.5zM377 954q0 -63 78 -63q76 0 157 65l33 271q-66 66 -139 65 q-88 0 -98 -78l-29 -231q-2 -15 -2 -29z" />
<glyph unicode="&#xab;" horiz-adv-x="1234" d="M186 442l15 121q4 29 41 53l411 279q14 10 26.5 4t10.5 -27l-16 -127q-6 -35 -45 -59l-283 -186l236 -189q37 -31 32 -59l-16 -119q-2 -20 -15.5 -27.5t-25.5 5.5l-342 280q-31 22 -29 51zM627 442l14 121q4 29 41 53l412 279q14 10 26.5 4t9.5 -27l-16 -127 q-6 -35 -45 -59l-283 -186l236 -189q37 -31 33 -59l-17 -119q-2 -20 -15 -27.5t-26 5.5l-342 280q-30 22 -28 51z" />
<glyph unicode="&#xac;" horiz-adv-x="794" d="M154 649.5q0 100.5 70.5 171t171 70.5t171 -70.5t70.5 -171t-70.5 -171t-171 -70.5t-171 70.5t-70.5 171z" />
<glyph unicode="&#xad;" horiz-adv-x="917" d="M209 549v86q0 37 39 37h549q39 0 39 -37v-86q0 -37 -39 -37h-549q-39 0 -39 37z" />
<glyph unicode="&#xae;" horiz-adv-x="1294" d="M252 731v371q0 307 481 307q479 0 479 -307v-371q0 -307 -479 -307q-481 0 -481 307zM383 719q0 -178 350 -178q348 0 348 176v397q0 176 -348 176q-350 0 -350 -176v-395zM518 666v493q0 29 27 29h215q211 0 211 -160v-41q0 -102 -88 -139l73 -182q10 -29 -26 -29h-80 q-14 0 -27 29l-67 161h-105v-161q0 -29 -26 -29h-80q-27 0 -27 29zM651 928h94q39 0 65 17.5t26 45.5v31q0 66 -91 65h-94v-159z" />
<glyph unicode="&#xaf;" horiz-adv-x="843" d="M285 1239l8 74q2 37 45 37h496q37 0 34 -35l-8 -76q-2 -37 -45 -37h-496q-36 0 -34 37z" />
<glyph unicode="&#xb0;" horiz-adv-x="856" d="M242 971q0 27 2 39l22 188q14 104 85 156.5t243 52.5q285 0 285 -180q0 -25 -2 -37l-23 -189q-14 -104 -85 -156t-241 -52q-286 0 -286 178zM410 997q0 -74 131 -73q139 0 147 86l23 174v16q0 76 -131 76q-137 0 -148 -84l-20 -176q-2 -9 -2 -19z" />
<glyph unicode="&#xb1;" horiz-adv-x="1169" d="M166 188v86q0 39 39 39h801q39 0 38 -39v-86q0 -41 -38 -41h-801q-39 0 -39 41zM166 737v88q0 37 39 37h317v225q0 39 37 39h86q39 0 39 -39v-225h322q39 0 38 -37v-88q0 -39 -38 -39h-322v-225q0 -41 -39 -41h-86q-37 0 -37 41v225h-317q-39 0 -39 39z" />
<glyph unicode="&#xb4;" horiz-adv-x="663" d="M324 1194l149 219q27 37 55 37h131q47 0 15 -39l-182 -229q-16 -25 -54 -25h-98q-41 0 -16 37z" />
<glyph unicode="&#xb5;" horiz-adv-x="1085" d="M86 -379l168 1354q6 41 43 41h117q41 0 35 -41l-82 -668q-4 -45 -5 -49q0 -106 137.5 -106t278.5 104l88 719q6 41 43 41h119q39 0 33 -41l-115 -936q-6 -39 -43 -39h-110q-35 0 -33 39l4 63q-156 -119 -313 -118q-98 0 -134 34l-36 -397q-2 -39 -41 -39h-121 q-39 0 -33 39z" />
<glyph unicode="&#xb6;" horiz-adv-x="1361" d="M254 809q0 16 4 45l33 270q16 129 108.5 199t319.5 70h235q39 0 35 -39l-213 -1731q-6 -41 -43 -41h-125q-39 0 -33 41l117 955h-74q-364 0 -364 231zM934 -377l213 1729q6 41 43 41h125q37 0 33 -41l-213 -1729q-6 -41 -43 -41h-125q-37 0 -33 41z" />
<glyph unicode="&#xb7;" horiz-adv-x="477" d="M195 471l18 164q2 39 43 39h125q37 0 31 -39l-21 -164q-6 -39 -41 -39h-123q-38 0 -32 39z" />
<glyph unicode="&#xb8;" horiz-adv-x="444" d="M-37 -393l4 41q6 37 41 37h203q72 0 72 51q0 41 -60 41h-135q-63 0 -47 49l72 188q16 37 49 35l55 -6q39 -6 21 -47l-41 -102h69q68 0 112 -38t44 -110q0 -90 -54.5 -134t-142.5 -44h-231q-35 0 -31 39z" />
<glyph unicode="&#xba;" horiz-adv-x="745" d="M225 932q0 8 6 45l31 254q23 178 277 178q117 0 182 -42t65 -114q0 -8 -4 -41l-32 -258q-23 -178 -277 -178q-119 0 -183.5 42t-64.5 114zM379 954q0 -61 104 -61q106 0 119 74l31 247q0 4 1 10.5t1 8.5q0 59 -105 59q-111 0 -118 -69l-31 -242q-2 -9 -2 -27z" />
<glyph unicode="&#xbb;" horiz-adv-x="1263" d="M186 147l17 127q6 35 45 60l282 186l-235 189q-37 31 -33 59l17 119q2 20 15 27.5t25 -5.5l343 -280q31 -23 28 -51l-14 -121q-4 -29 -41 -54l-412 -278q-14 -10 -26.5 -4t-10.5 26zM655 147l17 127q6 35 45 60l282 186l-235 189q-37 31 -33 59l17 119q2 20 15 27.5 t25 -5.5l342 -280q31 -23 29 -51l-14 -121q-4 -29 -41 -54l-412 -278q-14 -10 -26.5 -4t-10.5 26z" />
<glyph unicode="&#xbf;" horiz-adv-x="1159" d="M119 -115q0 27 2 45l16 129q23 195 213 281l119 53q98 45 111 131l14 103q6 39 41 39h125q39 0 35 -39l-21 -152q-6 -55 -35.5 -96t-54.5 -57.5t-66 -36.5l-172 -84q-96 -45 -110 -144l-14 -104q-2 -18 -3 -39q0 -139 232 -139q248 0 270 178l13 88q6 41 40 41h121 q39 0 33 -41l-14 -119q-43 -315 -477 -315q-215 0 -316.5 78.5t-101.5 199.5zM616 813l19 164q6 39 43 39h125q20 0 27.5 -8.5t5.5 -30.5l-19 -162q-6 -41 -43 -41h-127q-35 0 -31 39z" />
<glyph unicode="&#xc0;" horiz-adv-x="1101" d="M45 39l557 1315q18 39 53 39h127q37 0 43 -39l238 -1315q6 -39 -33 -39h-127q-37 0 -43 39l-55 317h-432l-135 -317q-16 -39 -50 -39h-118q-41 0 -25 39zM438 516h342l-67 373q-8 39 -13.5 114.5t-7.5 131.5v57q0 -2 -17 -64l-38 -130q-20 -69 -37 -105zM486.5 1786 q7.5 12 27.5 12h123q33 0 49 -37l94 -219q14 -37 -24 -37h-92q-35 0 -48 25l-127 229q-10 15 -2.5 27z" />
<glyph unicode="&#xc1;" horiz-adv-x="1101" d="M45 39l557 1315q18 39 53 39h127q37 0 43 -39l238 -1315q6 -39 -33 -39h-127q-37 0 -43 39l-55 317h-432l-135 -317q-16 -39 -50 -39h-118q-41 0 -25 39zM438 516h342l-67 373q-8 39 -13.5 114.5t-7.5 131.5v57q0 -2 -17 -64l-38 -130q-20 -69 -37 -105zM659 1542 l148 219q27 37 57 37h129q47 0 15 -39l-183 -229q-16 -25 -53 -25h-98q-40 0 -15 37z" />
<glyph unicode="&#xc2;" horiz-adv-x="1101" d="M45 39l557 1315q18 39 53 39h127q37 0 43 -39l238 -1315q6 -39 -33 -39h-127q-37 0 -43 39l-55 317h-432l-135 -317q-16 -39 -50 -39h-118q-41 0 -25 39zM438 516h342l-67 373q-8 39 -13.5 114.5t-7.5 131.5v57q0 -2 -17 -64l-38 -130q-20 -69 -37 -105zM460 1516.5 q-5 11.5 9 25.5l180 217q33 39 66 39h71q31 0 56 -39l129 -217q10 -14 3 -25.5t-28 -11.5h-90q-33 0 -51 37l-68 137l-100 -137q-25 -37 -57 -37h-95q-20 0 -25 11.5z" />
<glyph unicode="&#xc3;" horiz-adv-x="1101" d="M45 39l557 1315q18 39 53 39h127q37 0 43 -39l238 -1315q6 -39 -33 -39h-127q-37 0 -43 39l-55 317h-432l-135 -317q-16 -39 -50 -39h-118q-41 0 -25 39zM379 1567l14 65q37 164 178 164q63 0 123 -37l86 -57q47 -31 66 -31q25 0 35 15.5t16 60.5l2 16q6 35 45 35h64 q39 0 28 -45l-12 -61q-16 -82 -65.5 -124t-115 -42t-124.5 39l-88 57q-41 27 -63.5 27t-31 -12.5t-14.5 -45.5l-8 -35q-8 -35 -45 -34h-61q-39 0 -29 45zM438 516h342l-67 373q-8 39 -13.5 114.5t-7.5 131.5v57q0 -2 -17 -64l-38 -130q-20 -69 -37 -105z" />
<glyph unicode="&#xc4;" horiz-adv-x="1101" d="M45 39l557 1315q18 39 53 39h127q37 0 43 -39l238 -1315q6 -39 -33 -39h-127q-37 0 -43 39l-55 317h-432l-135 -317q-16 -39 -50 -39h-118q-41 0 -25 39zM438 516h342l-67 373q-8 39 -13.5 114.5t-7.5 131.5v57q0 -2 -17 -64l-38 -130q-20 -69 -37 -105zM526 1552l23 195 q6 41 45 41h70q39 0 32 -41l-24 -195q-6 -39 -41 -39h-72q-39 0 -33 39zM774 1552l23 195q6 41 43 41h71q20 0 27.5 -9.5t5.5 -31.5l-24 -195q-6 -39 -41 -39h-72q-39 0 -33 39z" />
<glyph unicode="&#xc5;" horiz-adv-x="1101" d="M45 39l557 1315q18 39 53 39h127q37 0 43 -39l238 -1315q6 -39 -33 -39h-127q-37 0 -43 39l-55 317h-432l-135 -317q-16 -39 -50 -39h-118q-41 0 -25 39zM438 516h342l-67 373q-8 39 -13.5 114.5t-7.5 131.5v57q0 -2 -17 -64l-38 -130q-20 -69 -37 -105zM532 1587 q0 29 3 43l6 49q18 145 207 146q86 0 136 -34t50 -85q0 -4 -2 -27l-6 -67q-14 -143 -201 -144q-94 0 -143.5 33t-49.5 86zM641 1618q0 -53 84 -53q86 0 96 67l2 27v20q0 47 -84 47q-86 0 -96 -67l-2 -27v-14z" />
<glyph unicode="&#xc6;" horiz-adv-x="1714" d="M44 10q-7 10 3 29l934 1315q29 39 66 39h686q41 0 34 -37l-12 -88q-6 -39 -43 -39h-536l-54 -424h502q41 0 35 -37l-10 -82q-6 -39 -43 -39h-502l-60 -483h560q43 0 36 -37l-12 -88q-6 -39 -43 -39h-708q-45 0 -39 41l39 315h-410l-221 -317q-31 -39 -53 -39h-121 q-21 0 -28 10zM582 516h315l68 553q-14 -25 -84 -129z" />
<glyph unicode="&#xc7;" horiz-adv-x="1144" d="M176 256q0 14 4 51l96 787q39 315 486 315q221 0 321.5 -74.5t100.5 -197.5q0 -14 -4 -52l-11 -92q-6 -41 -41 -41h-120q-39 0 -33 41l8 60q2 12 2 39q0 147 -235 147q-254 0 -277 -178l-88 -719q-2 -14 -2 -39q0 -150 233 -149q258 0 279 178l10 96q2 39 43 39h119 q37 0 33 -39l-15 -129q-35 -313 -483 -315l-35 -90h70q68 0 112 -38t44 -110q0 -90 -54.5 -134t-142.5 -44h-231q-35 0 -31 39l4 41q6 37 41 37h203q72 0 71 51q0 41 -59 41h-135q-63 0 -47 49l61 166q-297 39 -297 264z" />
<glyph unicode="&#xc8;" horiz-adv-x="1062" d="M172 41l162 1311q6 41 43 41h700q41 0 35 -39l-12 -92q-6 -39 -43 -39h-537l-51 -414h502q39 0 33 -39l-11 -88q-6 -39 -43 -39h-501l-60 -473h559q43 0 37 -37l-12 -94q-6 -39 -43 -39h-723q-41 0 -35 41zM507 1786q7 12 28 12h122q33 0 50 -37l94 -219q14 -37 -25 -37 h-92q-35 0 -47 25l-127 229q-10 15 -3 27z" />
<glyph unicode="&#xc9;" horiz-adv-x="1062" d="M172 41l162 1311q6 41 43 41h700q41 0 35 -39l-12 -92q-6 -39 -43 -39h-537l-51 -414h502q39 0 33 -39l-11 -88q-6 -39 -43 -39h-501l-60 -473h559q43 0 37 -37l-12 -94q-6 -39 -43 -39h-723q-41 0 -35 41zM647 1542l148 219q27 37 57 37h129q47 0 14 -39l-182 -229 q-16 -25 -53 -25h-98q-40 0 -15 37z" />
<glyph unicode="&#xca;" horiz-adv-x="1062" d="M172 41l162 1311q6 41 43 41h700q41 0 35 -39l-12 -92q-6 -39 -43 -39h-537l-51 -414h502q39 0 33 -39l-11 -88q-6 -39 -43 -39h-501l-60 -473h559q43 0 37 -37l-12 -94q-6 -39 -43 -39h-723q-41 0 -35 41zM472 1516.5q-5 11.5 9 25.5l181 217q33 39 65 39h72 q31 0 55 -39l129 -217q10 -14 3 -25.5t-28 -11.5h-90q-33 0 -51 37l-67 137l-101 -137q-25 -37 -57 -37h-94q-21 0 -26 11.5z" />
<glyph unicode="&#xcb;" horiz-adv-x="1062" d="M172 41l162 1311q6 41 43 41h700q41 0 35 -39l-12 -92q-6 -39 -43 -39h-537l-51 -414h502q39 0 33 -39l-11 -88q-6 -39 -43 -39h-501l-60 -473h559q43 0 37 -37l-12 -94q-6 -39 -43 -39h-723q-41 0 -35 41zM549 1552l22 195q6 41 45 41h70q39 0 33 -41l-25 -195 q-6 -39 -41 -39h-71q-39 0 -33 39zM797 1552l22 195q6 41 43 41h72q20 0 27.5 -9.5t5.5 -31.5l-25 -195q-6 -39 -41 -39h-72q-38 0 -32 39z" />
<glyph unicode="&#xcc;" horiz-adv-x="534" d="M172 41l162 1311q6 41 43 41h125q39 0 33 -41l-162 -1311q-6 -41 -41 -41h-125q-41 0 -35 41zM222 1786q7 12 28 12h123q33 0 49 -37l94 -219q16 -37 -24 -37h-93q-35 0 -47 25l-127 229q-10 15 -3 27z" />
<glyph unicode="&#xcd;" horiz-adv-x="534" d="M172 41l162 1311q6 41 43 41h125q39 0 33 -41l-162 -1311q-6 -41 -41 -41h-125q-41 0 -35 41zM379 1542l147 219q27 37 58 37h129q47 0 14 -39l-182 -229q-16 -25 -53 -25h-99q-39 0 -14 37z" />
<glyph unicode="&#xce;" horiz-adv-x="534" d="M172 41l162 1311q6 41 43 41h125q39 0 33 -41l-162 -1311q-6 -41 -41 -41h-125q-41 0 -35 41zM191.5 1516.5q-5.5 11.5 9.5 25.5l180 217q33 39 65 39h72q31 0 55 -39l129 -217q10 -14 3 -25.5t-27 -11.5h-90q-33 0 -51 37l-68 137l-100 -137q-25 -37 -58 -37h-94 q-20 0 -25.5 11.5z" />
<glyph unicode="&#xcf;" horiz-adv-x="534" d="M172 41l162 1311q6 41 43 41h125q39 0 33 -41l-162 -1311q-6 -41 -41 -41h-125q-41 0 -35 41zM260 1552l23 195q6 41 45 41h69q39 0 33 -41l-24 -195q-6 -39 -41 -39h-72q-39 0 -33 39zM508 1552l22 195q6 41 43 41h72q20 0 27.5 -9.5t5.5 -31.5l-25 -195q-6 -39 -41 -39 h-71q-39 0 -33 39z" />
<glyph unicode="&#xd0;" horiz-adv-x="1245" d="M82 666l8 73q6 37 45 37h127l72 576q6 41 43 41h418q227 0 333.5 -78t106.5 -201q0 -27 -4 -55l-90 -744q-39 -315 -496 -315h-442q-37 0 -31 41l72 588h-127q-41 0 -35 37zM389 170h266q264 0 287 178l84 680q4 37 4 43q0 152 -246 152h-264l-55 -447h219q37 0 35 -37 l-8 -73q-6 -37 -45 -37h-220z" />
<glyph unicode="&#xd1;" horiz-adv-x="1265" d="M170 39l162 1315q6 39 43 39h106q27 0 33 -17l389 -862q37 -84 49 -131l119 971q6 39 43 39h113q39 0 33 -39l-162 -1315q-6 -39 -41 -39h-107q-29 0 -37 18l-378 844q-29 59 -56 150l-121 -973q-6 -39 -39 -39h-114q-41 0 -35 39zM506 1567l14 65q37 164 178 164 q63 0 123 -37l86 -57q47 -31 66 -31q25 0 35 15.5t16 60.5l2 16q6 35 45 35h64q39 0 28 -45l-12 -61q-16 -82 -65.5 -124t-115 -42t-124.5 39l-88 57q-41 27 -63.5 27t-31 -12.5t-14.5 -45.5l-8 -35q-8 -35 -45 -34h-61q-39 0 -29 45z" />
<glyph unicode="&#xd2;" horiz-adv-x="1222" d="M176 258q0 12 4 49l96 787q39 315 498 315q223 0 329.5 -77t106.5 -199q0 -31 -2 -48l-96 -786q-39 -315 -500 -315q-225 0 -330.5 75.5t-105.5 198.5zM381 305q0 -152 248 -151q262 0 284 178l91 719q4 29 4 36q0 152 -248 152q-264 0 -287 -178l-88 -719q-4 -29 -4 -37 zM560 1786q7 12 28 12h123q33 0 49 -37l94 -219q14 -37 -25 -37h-92q-35 0 -47 25l-127 229q-10 15 -3 27z" />
<glyph unicode="&#xd3;" horiz-adv-x="1222" d="M176 258q0 12 4 49l96 787q39 315 498 315q223 0 329.5 -77t106.5 -199q0 -31 -2 -48l-96 -786q-39 -315 -500 -315q-225 0 -330.5 75.5t-105.5 198.5zM381 305q0 -152 248 -151q262 0 284 178l91 719q4 29 4 36q0 152 -248 152q-264 0 -287 -178l-88 -719q-4 -29 -4 -37 zM711 1542l147 219q27 37 57 37h129q47 0 15 -39l-182 -229q-16 -25 -54 -25h-98q-39 0 -14 37z" />
<glyph unicode="&#xd4;" horiz-adv-x="1222" d="M176 258q0 12 4 49l96 787q39 315 498 315q223 0 329.5 -77t106.5 -199q0 -31 -2 -48l-96 -786q-39 -315 -500 -315q-225 0 -330.5 75.5t-105.5 198.5zM381 305q0 -152 248 -151q262 0 284 178l91 719q4 29 4 36q0 152 -248 152q-264 0 -287 -178l-88 -719q-4 -29 -4 -37 zM533.5 1516.5q-5.5 11.5 9.5 25.5l180 217q33 39 65 39h72q31 0 55 -39l129 -217q10 -14 3 -25.5t-27 -11.5h-90q-33 0 -51 37l-68 137l-100 -137q-25 -37 -58 -37h-94q-20 0 -25.5 11.5z" />
<glyph unicode="&#xd5;" horiz-adv-x="1222" d="M176 258q0 12 4 49l96 787q39 315 498 315q223 0 329.5 -77t106.5 -199q0 -31 -2 -48l-96 -786q-39 -315 -500 -315q-225 0 -330.5 75.5t-105.5 198.5zM381 305q0 -152 248 -151q262 0 284 178l91 719q4 29 4 36q0 152 -248 152q-264 0 -287 -178l-88 -719q-4 -29 -4 -37 zM479 1567l15 65q37 164 178 164q66 0 123 -37l86 -57q45 -31 65 -31q25 0 35 15.5t16 60.5l2 16q6 35 45 35h64q39 0 29 -45l-13 -61q-16 -82 -65 -124t-114.5 -42t-125.5 39l-88 57q-39 27 -63 27q-23 0 -31 -12.5t-14 -45.5l-9 -35q-8 -35 -45 -34h-61q-39 0 -29 45z" />
<glyph unicode="&#xd6;" horiz-adv-x="1222" d="M176 258q0 12 4 49l96 787q39 315 498 315q223 0 329.5 -77t106.5 -199q0 -31 -2 -48l-96 -786q-39 -315 -500 -315q-225 0 -330.5 75.5t-105.5 198.5zM381 305q0 -152 248 -151q262 0 284 178l91 719q4 29 4 36q0 152 -248 152q-264 0 -287 -178l-88 -719q-4 -29 -4 -37 zM602 1552l23 195q6 41 45 41h69q39 0 33 -41l-24 -195q-6 -39 -41 -39h-72q-39 0 -33 39zM850 1552l22 195q6 41 43 41h72q20 0 27.5 -9.5t5.5 -31.5l-25 -195q-6 -39 -41 -39h-71q-39 0 -33 39z" />
<glyph unicode="&#xd8;" horiz-adv-x="1222" d="M176 256q0 12 4 49l96 787q39 315 498 315q162 0 268 -45l31 51q23 41 53 41h50q35 0 10 -41l-62 -100q86 -72 86 -183q0 -31 -2 -47l-96 -786q-39 -315 -500 -315q-162 0 -268 43l-29 -48q-29 -43 -55 -43h-49q-10 0 -14 6.5t-2 16.5t8 20l57 97q-84 69 -84 182z M381 303q0 -20 2 -29l561 926q-61 37 -184 37q-264 0 -287 -178l-88 -719q-4 -29 -4 -37zM442 188q61 -37 187 -36q262 0 284 178l91 719q4 29 4 36q0 20 -2 29z" />
<glyph unicode="&#xd9;" horiz-adv-x="1245" d="M186 262q0 20 4 53l129 1037q6 41 41 41h125q39 0 33 -41l-123 -992q-4 -49 -4 -55q0 -152 246 -151q264 0 287 178l127 1020q6 41 41 41h125q41 0 34 -41l-131 -1053q-39 -315 -495 -315q-221 0 -330 77.5t-109 200.5zM578.5 1786q7.5 12 27.5 12h123q33 0 49 -37 l94 -219q16 -37 -24 -37h-92q-35 0 -47 25l-127 229q-11 15 -3.5 27z" />
<glyph unicode="&#xda;" horiz-adv-x="1245" d="M186 262q0 20 4 53l129 1037q6 41 41 41h125q39 0 33 -41l-123 -992q-4 -49 -4 -55q0 -152 246 -151q264 0 287 178l127 1020q6 41 41 41h125q41 0 34 -41l-131 -1053q-39 -315 -495 -315q-221 0 -330 77.5t-109 200.5zM725 1542l147 219q27 37 58 37h129q47 0 14 -39 l-182 -229q-16 -25 -53 -25h-99q-39 0 -14 37z" />
<glyph unicode="&#xdb;" horiz-adv-x="1245" d="M186 262q0 20 4 53l129 1037q6 41 41 41h125q39 0 33 -41l-123 -992q-4 -49 -4 -55q0 -152 246 -151q264 0 287 178l127 1020q6 41 41 41h125q41 0 34 -41l-131 -1053q-39 -315 -495 -315q-221 0 -330 77.5t-109 200.5zM540 1516.5q-5 11.5 9 25.5l180 217q33 39 66 39 h71q31 0 56 -39l129 -217q10 -14 3 -25.5t-28 -11.5h-90q-33 0 -51 37l-68 137l-100 -137q-25 -37 -58 -37h-94q-20 0 -25 11.5z" />
<glyph unicode="&#xdc;" horiz-adv-x="1245" d="M186 262q0 20 4 53l129 1037q6 41 41 41h125q39 0 33 -41l-123 -992q-4 -49 -4 -55q0 -152 246 -151q264 0 287 178l127 1020q6 41 41 41h125q41 0 34 -41l-131 -1053q-39 -315 -495 -315q-221 0 -330 77.5t-109 200.5zM606 1552l23 195q6 41 45 41h69q39 0 33 -41 l-24 -195q-6 -39 -41 -39h-72q-39 0 -33 39zM854 1552l23 195q6 41 43 41h71q20 0 27.5 -9.5t5.5 -31.5l-25 -195q-6 -39 -41 -39h-71q-39 0 -33 39z" />
<glyph unicode="&#xdd;" horiz-adv-x="1083" d="M203 1354q-16 39 33 39h139q33 0 43 -39l190 -541q8 -27 21 -92q25 63 43 92l336 541q25 39 51 39h129q47 0 22 -39l-499 -801l-64 -514q-6 -39 -41 -39h-125q-41 0 -35 39l60 491zM657 1542l148 219q27 37 57 37h129q47 0 15 -39l-183 -229q-16 -25 -53 -25h-98 q-40 0 -15 37z" />
<glyph unicode="&#xde;" horiz-adv-x="1171" d="M170 39l162 1315q6 39 43 39h125q39 0 32 -39l-40 -338h247q223 0 329 -78t106 -199q0 -29 -3 -41l-24 -192q-39 -311 -498 -311h-258l-20 -156q-6 -39 -41 -39h-125q-41 0 -35 39zM412 360h252q266 0 288 181l17 129v26q0 154 -244 154h-254z" />
<glyph unicode="&#xdf;" horiz-adv-x="1267" d="M158 891l8 74q6 37 43 39l119 8h2l20 157q35 281 459 281q197 0 293 -64.5t96 -177.5q0 -25 -2 -47l-8 -65q-16 -129 -170 -185l-139 -49q-2 0 -16 -5l-18 -7q-5 -2 -16.5 -8t-17.5 -10.5t-13 -11.5t-10.5 -16t-3.5 -20v-24q0 -39 78 -76l230 -100q160 -70 159 -187 q0 -18 -2 -35l-12 -106q-16 -133 -99 -202.5t-280 -69.5q-170 0 -241.5 55t-71.5 160q0 27 2 43l2 26q6 41 45 41h82q37 0 33 -41l-2 -24q-2 -16 -2 -27q0 -104 161 -104q98 0 141.5 33.5t49.5 97.5l8 73q2 12 2 33q0 10 -2 18.5t-7 15.5l-9 13q-4 6 -12.5 11.5t-12.5 9.5 t-14.5 8t-13.5 6t-13 6l-10 4l-215 90q-143 59 -144 187q0 20 2 37l5 32q14 125 167 179l107 37q109 37 115 104l4 43q2 25 2 35q0 123 -219 123q-236 0 -252 -150l-137 -1118q-6 -41 -43 -41h-121q-39 0 -33 41l100 811h-121q-34 0 -32 39z" />
<glyph unicode="&#xe0;" d="M150 215q0 14 4 47l61 492q35 279 317 278q193 0 332 -123l13 66q8 41 43 41h108q39 0 33 -41l-115 -934q-6 -41 -43 -41h-110q-33 0 -33 41l4 61q-172 -119 -350 -118q-129 0 -196.5 61t-67.5 170zM348 262q0 -104 139 -104q135 0 291 104l62 490q-125 106 -265 106 q-152 0 -169 -133l-56 -434q-2 -11 -2 -29zM453 1411q-18 39 26 39h123q35 0 49 -37l92 -219q14 -37 -24 -37h-90q-35 0 -47 25z" />
<glyph unicode="&#xe1;" d="M150 215q0 14 4 47l61 492q35 279 317 278q193 0 332 -123l13 66q8 41 43 41h108q39 0 33 -41l-115 -934q-6 -41 -43 -41h-110q-33 0 -33 41l4 61q-172 -119 -350 -118q-129 0 -196.5 61t-67.5 170zM348 262q0 -104 139 -104q135 0 291 104l62 490q-125 106 -265 106 q-152 0 -169 -133l-56 -434q-2 -11 -2 -29zM575 1194l150 219q27 37 55 37h131q47 0 15 -39l-183 -229q-16 -25 -53 -25h-98q-42 0 -17 37z" />
<glyph unicode="&#xe2;" d="M150 215q0 14 4 47l61 492q35 279 317 278q193 0 332 -123l13 66q8 41 43 41h108q39 0 33 -41l-115 -934q-6 -41 -43 -41h-110q-33 0 -33 41l4 61q-172 -119 -350 -118q-129 0 -196.5 61t-67.5 170zM348 262q0 -104 139 -104q135 0 291 104l62 490q-125 106 -265 106 q-152 0 -169 -133l-56 -434q-2 -11 -2 -29zM401.5 1168.5q-4.5 11.5 8.5 25.5l180 217q33 39 67 39h72q31 0 55 -39l129 -217q10 -14 2 -25.5t-28 -11.5h-90q-31 0 -49 37l-68 137l-100 -137q-25 -37 -60 -37h-94q-20 0 -24.5 11.5z" />
<glyph unicode="&#xe3;" d="M150 215q0 14 4 47l61 492q35 279 317 278q193 0 332 -123l13 66q8 41 43 41h108q39 0 33 -41l-115 -934q-6 -41 -43 -41h-110q-33 0 -33 41l4 61q-172 -119 -350 -118q-129 0 -196.5 61t-67.5 170zM348 262q0 -104 139 -104q135 0 291 104l62 490q-125 106 -265 106 q-152 0 -169 -133l-56 -434q-2 -11 -2 -29zM348 1204l14 66q37 164 179 164q66 0 123 -37l86 -58q45 -31 65 -30q25 0 35 15t16 60l2 17q6 35 45 35h64q39 0 29 -45l-13 -62q-16 -82 -65 -124t-114.5 -42t-125.5 39l-88 58q-39 27 -63 26q-23 0 -31 -12t-14 -45l-9 -35 q-8 -35 -45 -35h-61q-39 0 -29 45z" />
<glyph unicode="&#xe4;" d="M150 215q0 14 4 47l61 492q35 279 317 278q193 0 332 -123l13 66q8 41 43 41h108q39 0 33 -41l-115 -934q-6 -41 -43 -41h-110q-33 0 -33 41l4 61q-172 -119 -350 -118q-129 0 -196.5 61t-67.5 170zM348 262q0 -104 139 -104q135 0 291 104l62 490q-125 106 -265 106 q-152 0 -169 -133l-56 -434q-2 -11 -2 -29zM471 1208l23 195q6 39 45 39h69q39 0 33 -39l-25 -195q-6 -39 -41 -39h-71q-39 0 -33 39zM719 1208l22 195q6 39 43 39h72q39 0 33 -39l-25 -195q-6 -39 -43 -39h-69q-39 0 -33 39z" />
<glyph unicode="&#xe5;" d="M150 215q0 14 4 47l61 492q35 279 317 278q193 0 332 -123l13 66q8 41 43 41h108q39 0 33 -41l-115 -934q-6 -41 -43 -41h-110q-33 0 -33 41l4 61q-172 -119 -350 -118q-129 0 -196.5 61t-67.5 170zM348 262q0 -104 139 -104q135 0 291 104l62 490q-125 106 -265 106 q-152 0 -169 -133l-56 -434q-2 -11 -2 -29zM496 1245q0 29 2 43l6 49q18 145 207 146q86 0 136 -34t50 -85q0 -4 -2 -27l-6 -67q-14 -143 -201 -144q-94 0 -143 33t-49 86zM604 1276q0 -53 84 -53q86 0 96 67l2 27v20q0 47 -84 47q-86 0 -96 -67l-2 -27v-14z" />
<glyph unicode="&#xe6;" horiz-adv-x="1611" d="M135 199q0 14 2 32l13 109q12 98 93 168t220 70h321l21 157q4 29 4 35q0 115 -184 115q-111 0 -159 -32t-58 -99l-5 -29q-6 -41 -43 -41h-104q-39 0 -35 41l4 31q18 137 111.5 206.5t300.5 69.5q203 0 281 -98q102 98 315 98q360 0 360 -241q0 -27 -2 -39l-28 -250 q-2 -37 -41 -37h-557l-25 -184q0 -6 -1 -11.5t-2 -9.5t-1 -7v-5q0 -113 192 -113q111 0 159 33t61 98l6 33q6 39 43 39h100q35 0 33 -39l-4 -39q-14 -133 -106.5 -204.5t-303.5 -71.5q-272 0 -344 135q-168 -135 -356 -135q-115 0 -198 54.5t-83 160.5zM330 248 q0 -61 33.5 -84t99.5 -23q127 0 282 113l23 172h-289q-129 0 -143 -117l-4 -37zM979 610h412l18 133v23q0 115 -188 115q-203 0 -224 -138z" />
<glyph unicode="&#xe7;" horiz-adv-x="993" d="M150 225q0 25 2 39l59 488q16 135 114.5 207.5t309.5 72.5q362 0 362 -241q0 -23 -2 -43l-4 -33q-6 -39 -43 -39h-110q-35 0 -33 37l2 24q2 16 2 31q0 104 -184 104q-113 0 -162 -33.5t-57 -101.5l-56 -438q-4 -33 -4 -45q0 -55 43 -83t143 -28q111 0 160 34t60 102l6 40 q6 39 41 39h110q37 0 33 -39l-6 -55q-14 -131 -105.5 -203.5t-291.5 -76.5l-35 -90h69q68 0 112 -38t44 -110q0 -90 -54 -134t-143 -44h-231q-35 0 -31 39l4 41q6 37 41 37h203q72 0 72 51q0 41 -60 41h-135q-63 0 -47 49l62 164q-260 32 -260 235z" />
<glyph unicode="&#xe8;" horiz-adv-x="1013" d="M150 225q0 27 2 39l59 488q16 135 114.5 207.5t309.5 72.5q184 0 273 -64.5t89 -176.5q0 -27 -2 -39l-30 -250q-2 -37 -41 -37h-557l-23 -174q-4 -41 -4 -43q0 -113 190 -113q205 0 222 131l4 33q6 39 45 39h102q37 0 33 -39l-4 -35q-16 -137 -109.5 -208.5t-304.5 -71.5 q-368 -1 -368 241zM385 610h410l16 123q2 10 2 33q0 115 -190 115q-205 0 -222 -138zM428 1411q-18 39 27 39h123q35 0 49 -37l92 -219q14 -37 -25 -37h-90q-35 0 -47 25z" />
<glyph unicode="&#xe9;" horiz-adv-x="1013" d="M150 225q0 27 2 39l59 488q16 135 114.5 207.5t309.5 72.5q184 0 273 -64.5t89 -176.5q0 -27 -2 -39l-30 -250q-2 -37 -41 -37h-557l-23 -174q-4 -41 -4 -43q0 -113 190 -113q205 0 222 131l4 33q6 39 45 39h102q37 0 33 -39l-4 -35q-16 -137 -109.5 -208.5t-304.5 -71.5 q-368 -1 -368 241zM385 610h410l16 123q2 10 2 33q0 115 -190 115q-205 0 -222 -138zM565 1194l150 219q27 37 55 37h131q47 0 14 -39l-182 -229q-16 -25 -53 -25h-98q-42 0 -17 37z" />
<glyph unicode="&#xea;" horiz-adv-x="1013" d="M150 225q0 27 2 39l59 488q16 135 114.5 207.5t309.5 72.5q184 0 273 -64.5t89 -176.5q0 -27 -2 -39l-30 -250q-2 -37 -41 -37h-557l-23 -174q-4 -41 -4 -43q0 -113 190 -113q205 0 222 131l4 33q6 39 45 39h102q37 0 33 -39l-4 -35q-16 -137 -109.5 -208.5t-304.5 -71.5 q-368 -1 -368 241zM385 610h410l16 123q2 10 2 33q0 115 -190 115q-205 0 -222 -138zM387 1168.5q-4 11.5 8 25.5l180 217q33 39 68 39h72q31 0 55 -39l129 -217q10 -14 2 -25.5t-29 -11.5h-90q-31 0 -49 37l-67 137l-101 -137q-25 -37 -59 -37h-94q-21 0 -25 11.5z" />
<glyph unicode="&#xeb;" horiz-adv-x="1013" d="M150 225q0 27 2 39l59 488q16 135 114.5 207.5t309.5 72.5q184 0 273 -64.5t89 -176.5q0 -27 -2 -39l-30 -250q-2 -37 -41 -37h-557l-23 -174q-4 -41 -4 -43q0 -113 190 -113q205 0 222 131l4 33q6 39 45 39h102q37 0 33 -39l-4 -35q-16 -137 -109.5 -208.5t-304.5 -71.5 q-368 -1 -368 241zM385 610h410l16 123q2 10 2 33q0 115 -190 115q-205 0 -222 -138zM446 1208l23 195q6 39 45 39h70q39 0 32 -39l-24 -195q-6 -39 -41 -39h-72q-39 0 -33 39zM694 1208l23 195q6 39 43 39h71q39 0 33 -39l-24 -195q-6 -39 -43 -39h-70q-39 0 -33 39z" />
<glyph unicode="&#xec;" horiz-adv-x="485" d="M150 39l114 936q6 41 43 41h119q39 0 33 -41l-115 -936q-6 -39 -43 -39h-119q-38 0 -32 39zM154.5 1437.5q7.5 12.5 27.5 12.5h123q35 0 49 -37l92 -219q14 -37 -24 -37h-90q-35 0 -47 25l-129 229q-9 14 -1.5 26.5z" />
<glyph unicode="&#xed;" horiz-adv-x="485" d="M150 39l114 936q6 41 43 41h119q39 0 33 -41l-115 -936q-6 -39 -43 -39h-119q-38 0 -32 39zM309 1194l150 219q27 37 55 37h131q47 0 14 -39l-182 -229q-16 -25 -53 -25h-98q-42 0 -17 37z" />
<glyph unicode="&#xee;" horiz-adv-x="485" d="M127 1168.5q-4 11.5 8 25.5l180 217q33 39 68 39h72q31 0 55 -39l129 -217q10 -14 2 -25.5t-29 -11.5h-90q-31 0 -49 37l-67 137l-101 -137q-25 -37 -59 -37h-94q-21 0 -25 11.5zM150 39l114 936q6 41 43 41h119q39 0 33 -41l-115 -936q-6 -39 -43 -39h-119q-38 0 -32 39 z" />
<glyph unicode="&#xef;" horiz-adv-x="485" d="M150 39l114 936q6 41 43 41h119q39 0 33 -41l-115 -936q-6 -39 -43 -39h-119q-38 0 -32 39zM199 1208l22 195q6 39 45 39h70q39 0 33 -39l-25 -195q-6 -39 -41 -39h-72q-38 0 -32 39zM446 1208l23 195q6 39 43 39h72q39 0 32 -39l-24 -195q-6 -39 -43 -39h-70 q-39 0 -33 39z" />
<glyph unicode="&#xf0;" horiz-adv-x="1148" d="M150 227q0 23 2 35l59 492q35 279 319 278q190 0 326 -119l29 220v14q0 16 -6 33l-125 -52q-37 -14 -49 15l-11 24q-14 35 23 50l133 57q-43 39 -156 39h-190q-35 0 -33 37l6 61q2 39 45 39h191q217 0 305 -88l104 49q35 16 49 -14l13 -25q16 -31 -25 -49l-94 -45 q10 -23 10 -64q0 -29 -2 -43l-112 -909q-35 -279 -429 -278q-190 0 -286 64t-96 179zM346 256q0 -117 201 -117q215 0 231 140l60 477q-125 106 -265 106q-154 0 -170 -135l-55 -448q0 -2 -1 -10.5t-1 -12.5z" />
<glyph unicode="&#xf1;" horiz-adv-x="1097" d="M150 41l116 936q6 39 41 39h111q37 0 35 -39l-4 -66q156 121 348 121q123 0 193.5 -62.5t70.5 -164.5q0 -29 -2 -45l-88 -719q-6 -41 -45 -41h-117q-39 0 -33 41l82 672q4 29 4 39q0 106 -137 106q-145 0 -293 -104l-86 -713q-6 -41 -43 -41h-121q-38 0 -32 41zM377 1204 l14 66q37 164 178 164q66 0 123 -37l86 -58q45 -31 66 -30q25 0 35 15t16 60l2 17q6 35 45 35h64q39 0 28 -45l-12 -62q-16 -82 -65.5 -124t-115 -42t-124.5 39l-88 58q-39 27 -64 26q-23 0 -31 -12t-14 -45l-8 -35q-8 -35 -45 -35h-61q-39 0 -29 45z" />
<glyph unicode="&#xf2;" horiz-adv-x="1064" d="M150 229q0 23 2 35l59 488q35 281 440 280q188 0 284.5 -64.5t96.5 -179.5q0 -25 -2 -36l-59 -488q-35 -281 -439 -280q-190 0 -286 65t-96 180zM346 258q0 -115 201 -115q215 0 231 138l58 454v21q0 117 -199 116q-215 0 -231 -137l-58 -454q-2 -9 -2 -23zM440 1411 q-18 39 27 39h123q35 0 49 -37l92 -219q14 -37 -24 -37h-91q-35 0 -47 25z" />
<glyph unicode="&#xf3;" horiz-adv-x="1064" d="M150 229q0 23 2 35l59 488q35 281 440 280q188 0 284.5 -64.5t96.5 -179.5q0 -25 -2 -36l-59 -488q-35 -281 -439 -280q-190 0 -286 65t-96 180zM346 258q0 -115 201 -115q215 0 231 138l58 454v21q0 117 -199 116q-215 0 -231 -137l-58 -454q-2 -9 -2 -23zM582 1194 l149 219q27 37 55 37h132q47 0 14 -39l-182 -229q-16 -25 -54 -25h-98q-41 0 -16 37z" />
<glyph unicode="&#xf4;" horiz-adv-x="1064" d="M150 229q0 23 2 35l59 488q35 281 440 280q188 0 284.5 -64.5t96.5 -179.5q0 -25 -2 -36l-59 -488q-35 -281 -439 -280q-190 0 -286 65t-96 180zM346 258q0 -115 201 -115q215 0 231 138l58 454v21q0 117 -199 116q-215 0 -231 -137l-58 -454q-2 -9 -2 -23zM412 1168.5 q-4 11.5 8 25.5l180 217q33 39 68 39h71q31 0 56 -39l129 -217q10 -14 2 -25.5t-29 -11.5h-90q-31 0 -49 37l-68 137l-100 -137q-25 -37 -60 -37h-94q-20 0 -24 11.5z" />
<glyph unicode="&#xf5;" horiz-adv-x="1064" d="M150 229q0 23 2 35l59 488q35 281 440 280q188 0 284.5 -64.5t96.5 -179.5q0 -25 -2 -36l-59 -488q-35 -281 -439 -280q-190 0 -286 65t-96 180zM332 1204l14 66q37 164 178 164q66 0 123 -37l86 -58q45 -31 66 -30q25 0 35 15t16 60l2 17q6 35 45 35h64q39 0 28 -45 l-12 -62q-16 -82 -65.5 -124t-115 -42t-124.5 39l-88 58q-39 27 -64 26q-23 0 -31 -12t-14 -45l-8 -35q-8 -35 -45 -35h-62q-38 0 -28 45zM346 258q0 -115 201 -115q215 0 231 138l58 454v21q0 117 -199 116q-215 0 -231 -137l-58 -454q-2 -9 -2 -23z" />
<glyph unicode="&#xf6;" horiz-adv-x="1064" d="M150 229q0 23 2 35l59 488q35 281 440 280q188 0 284.5 -64.5t96.5 -179.5q0 -25 -2 -36l-59 -488q-35 -281 -439 -280q-190 0 -286 65t-96 180zM346 258q0 -115 201 -115q215 0 231 138l58 454v21q0 117 -199 116q-215 0 -231 -137l-58 -454q-2 -9 -2 -23zM473 1208 l23 195q6 39 45 39h69q39 0 33 -39l-25 -195q-6 -39 -40 -39h-72q-39 0 -33 39zM721 1208l22 195q6 39 43 39h72q39 0 33 -39l-25 -195q-6 -39 -43 -39h-69q-39 0 -33 39z" />
<glyph unicode="&#xf7;" horiz-adv-x="1198" d="M215 592v88q0 37 37 37h831q39 0 39 -37v-88q0 -39 -39 -39h-829q-39 0 -39 39zM569 205v164q0 39 39 39h123q37 0 37 -39v-164q0 -39 -37 -39h-123q-39 0 -39 39zM569 909v164q0 39 39 39h123q37 0 37 -39v-164q0 -39 -37 -39h-123q-39 0 -39 39z" />
<glyph unicode="&#xf8;" horiz-adv-x="1064" d="M150 229q0 23 2 35l59 488q35 281 440 280q125 0 217 -33l29 43q27 41 51 41h49q37 0 9 -41l-58 -84q84 -66 84 -170q0 -25 -2 -36l-59 -488q-35 -281 -439 -280q-129 0 -221 32l-26 -39q-29 -41 -56 -40h-45q-33 0 -8 40l55 82q-81 61 -81 170zM346 258q0 -18 2 -27 l420 621q-47 20 -131 20q-215 0 -231 -137l-58 -454q-2 -9 -2 -23zM410 162q49 -18 137 -19q215 0 231 138l56 440q4 29 4 35q0 12 -4 32z" />
<glyph unicode="&#xf9;" horiz-adv-x="1085" d="M158 209q0 23 2 35l90 731q6 41 43 41h119q39 0 32 -41l-84 -682q-2 -12 -2 -33q0 -102 138 -102q135 0 280 102l86 715q6 41 43 41h121q39 0 33 -41l-117 -936q-6 -39 -43 -39h-108q-37 0 -35 39l4 61q-147 -117 -336 -116q-125 0 -195.5 61.5t-70.5 163.5zM449 1411 q-18 39 26 39h123q35 0 49 -37l92 -219q14 -37 -24 -37h-90q-35 0 -47 25z" />
<glyph unicode="&#xfa;" horiz-adv-x="1085" d="M158 209q0 23 2 35l90 731q6 41 43 41h119q39 0 32 -41l-84 -682q-2 -12 -2 -33q0 -102 138 -102q135 0 280 102l86 715q6 41 43 41h121q39 0 33 -41l-117 -936q-6 -39 -43 -39h-108q-37 0 -35 39l4 61q-147 -117 -336 -116q-125 0 -195.5 61.5t-70.5 163.5zM592 1194 l149 219q27 37 56 37h131q47 0 14 -39l-182 -229q-16 -25 -53 -25h-99q-41 0 -16 37z" />
<glyph unicode="&#xfb;" horiz-adv-x="1085" d="M158 209q0 23 2 35l90 731q6 41 43 41h119q39 0 32 -41l-84 -682q-2 -12 -2 -33q0 -102 138 -102q135 0 280 102l86 715q6 41 43 41h121q39 0 33 -41l-117 -936q-6 -39 -43 -39h-108q-37 0 -35 39l4 61q-147 -117 -336 -116q-125 0 -195.5 61.5t-70.5 163.5zM410 1168.5 q-4 11.5 8 25.5l180 217q33 39 68 39h71q31 0 56 -39l129 -217q10 -14 1.5 -25.5t-28.5 -11.5h-90q-31 0 -49 37l-68 137l-100 -137q-25 -37 -60 -37h-94q-20 0 -24 11.5z" />
<glyph unicode="&#xfc;" horiz-adv-x="1085" d="M158 209q0 23 2 35l90 731q6 41 43 41h119q39 0 32 -41l-84 -682q-2 -12 -2 -33q0 -102 138 -102q135 0 280 102l86 715q6 41 43 41h121q39 0 33 -41l-117 -936q-6 -39 -43 -39h-108q-37 0 -35 39l4 61q-147 -117 -336 -116q-125 0 -195.5 61.5t-70.5 163.5zM481 1208 l23 195q6 39 45 39h69q39 0 33 -39l-24 -195q-6 -39 -41 -39h-72q-39 0 -33 39zM729 1208l23 195q6 39 43 39h71q39 0 33 -39l-25 -195q-6 -39 -43 -39h-69q-39 0 -33 39z" />
<glyph unicode="&#xfd;" horiz-adv-x="921" d="M150 975q-4 18 8 29.5t32 11.5h119q29 0 39 -41l125 -592q16 -92 16 -141q14 55 54 137l274 596q18 41 49 41h111q51 0 33 -41l-629 -1354q-20 -39 -47 -39h-92q-49 0 -31 39l160 363zM518 1194l150 219q27 37 55 37h131q47 0 14 -39l-182 -229q-16 -25 -53 -25h-98 q-42 0 -17 37z" />
<glyph unicode="&#xfe;" d="M96 -379l219 1772q6 39 43 39h119q37 0 33 -39l-57 -480q160 119 344 119q127 0 195.5 -61.5t68.5 -169.5q0 -20 -4 -53l-62 -488q-35 -276 -317 -276q-193 0 -328 114l-57 -477q-6 -39 -41 -39h-121q-41 0 -35 39zM371 258q127 -106 264 -106q152 0 170 137l53 430 q4 29 4 35q0 109 -139 108q-141 0 -291 -106z" />
<glyph unicode="&#xff;" horiz-adv-x="921" d="M150 975q-4 18 8 29.5t32 11.5h119q29 0 39 -41l125 -592q16 -92 16 -141q14 55 54 137l274 596q18 41 49 41h111q51 0 33 -41l-629 -1354q-20 -39 -47 -39h-92q-49 0 -31 39l160 363zM391 1208l23 195q6 39 45 39h69q39 0 33 -39l-24 -195q-6 -39 -41 -39h-72 q-39 0 -33 39zM639 1208l23 195q6 39 43 39h71q39 0 33 -39l-25 -195q-6 -39 -43 -39h-69q-39 0 -33 39z" />
<glyph unicode="&#x10c;" horiz-adv-x="1144" d="M176 256q0 14 4 51l96 787q39 315 486 315q221 0 321.5 -74.5t100.5 -197.5q0 -14 -4 -52l-11 -92q-6 -41 -41 -41h-120q-39 0 -33 41l8 60q2 12 2 39q0 147 -235 147q-254 0 -277 -178l-88 -719q-2 -14 -2 -39q0 -150 233 -149q258 0 279 178l10 96q2 39 43 39h119 q37 0 33 -39l-15 -129q-35 -315 -487 -315q-221 0 -321.5 75.5t-100.5 196.5zM549 1786q8 12 29 12h92q25 0 47 -39l67 -135l101 135q27 39 59 39h94q20 0 25.5 -11t-8.5 -28l-181 -217q-31 -37 -65 -37h-72q-33 0 -57 39l-129 215q-10 15 -2 27z" />
<glyph unicode="&#x10d;" horiz-adv-x="993" d="M150 225q0 25 2 39l59 488q16 135 114.5 207.5t309.5 72.5q362 0 362 -241q0 -23 -2 -43l-4 -33q-6 -39 -43 -39h-110q-35 0 -33 37l2 24q2 16 2 31q0 104 -184 104q-113 0 -162 -33.5t-57 -101.5l-56 -438q-4 -33 -4 -45q0 -55 43 -83t143 -28q111 0 160 34t60 102l6 40 q6 39 41 39h110q37 0 33 -39l-6 -55q-31 -281 -422 -280q-364 -1 -364 241zM425 1438.5q7 11.5 28 11.5h92q25 0 47 -39l67 -135l101 135q31 39 59 39h94q20 0 25.5 -11.5t-8.5 -27.5l-182 -217q-33 -37 -66 -37h-70q-33 0 -57 39l-129 215q-8 16 -1 27.5z" />
<glyph unicode="&#x10e;" horiz-adv-x="1245" d="M172 41l162 1311q6 41 43 41h418q227 0 333.5 -78t106.5 -201q0 -27 -4 -55l-90 -744q-39 -315 -496 -315h-442q-37 0 -31 41zM389 170h266q264 0 287 178l84 680q4 37 4 43q0 152 -246 152h-264zM543 1786q8 12 28 12h93q25 0 47 -39l67 -135l101 135q27 39 59 39h94 q20 0 25.5 -11t-8.5 -28l-181 -217q-31 -37 -65 -37h-72q-33 0 -57 39l-129 215q-10 15 -2 27z" />
<glyph unicode="&#x10f;" horiz-adv-x="1241" d="M150 215q0 14 4 47l61 492q35 279 317 278q188 0 326 -117l57 476q6 41 43 41h121q39 0 33 -41l-166 -1350q-6 -41 -43 -41h-110q-33 0 -33 41l2 61q-172 -119 -348 -118q-129 0 -196.5 61t-67.5 170zM348 262q0 -104 139 -104q135 0 291 104l62 490q-125 106 -265 106 q-156 0 -169 -133l-54 -426q-4 -29 -4 -37zM1171 1176q43 74 58.5 111.5t23.5 105.5l9 59q2 39 43 39h90q37 0 30 -39l-8 -70q-14 -117 -114 -254q-20 -27 -54 -20l-65 16q-38 9 -13 52z" />
<glyph unicode="&#x11a;" horiz-adv-x="1062" d="M172 41l162 1311q6 41 43 41h700q41 0 35 -39l-12 -92q-6 -39 -43 -39h-537l-51 -414h502q39 0 33 -39l-11 -88q-6 -39 -43 -39h-501l-60 -473h559q43 0 37 -37l-12 -94q-6 -39 -43 -39h-723q-41 0 -35 41zM502 1786q8 12 28 12h93q25 0 47 -39l67 -135l101 135 q27 39 59 39h94q20 0 25.5 -11t-8.5 -28l-181 -217q-31 -37 -65 -37h-72q-33 0 -57 39l-129 215q-10 15 -2 27z" />
<glyph unicode="&#x11b;" horiz-adv-x="1013" d="M150 225q0 27 2 39l59 488q16 135 114.5 207.5t309.5 72.5q184 0 273 -64.5t89 -176.5q0 -27 -2 -39l-30 -250q-2 -37 -41 -37h-557l-23 -174q-4 -41 -4 -43q0 -113 190 -113q205 0 222 131l4 33q6 39 45 39h102q37 0 33 -39l-4 -35q-16 -137 -109.5 -208.5t-304.5 -71.5 q-368 -1 -368 241zM385 610h410l16 123q2 10 2 33q0 115 -190 115q-205 0 -222 -138zM413 1438.5q7 11.5 27 11.5h92q25 0 48 -39l67 -135l101 135q31 39 59 39h94q20 0 25.5 -11.5t-8.5 -27.5l-183 -217q-33 -37 -65 -37h-70q-33 0 -57 39l-129 215q-8 16 -1 27.5z" />
<glyph unicode="&#x131;" horiz-adv-x="485" d="M150 39l114 936q6 41 43 41h119q39 0 33 -41l-115 -936q-6 -39 -43 -39h-119q-38 0 -32 39z" />
<glyph unicode="&#x139;" horiz-adv-x="993" d="M172 41l162 1311q6 41 43 41h125q39 0 33 -41l-146 -1182h524q41 0 35 -37l-12 -94q-6 -39 -43 -39h-690q-37 0 -31 41zM381 1542l147 219q27 37 58 37h129q47 0 14 -39l-182 -229q-16 -25 -53 -25h-99q-39 0 -14 37z" />
<glyph unicode="&#x13a;" horiz-adv-x="485" d="M150 41l165 1350q6 41 43 41h121q37 0 31 -41l-164 -1350q-6 -41 -43 -41h-121q-38 0 -32 41zM354 1542l148 219q27 37 57 37h129q47 0 14 -39l-182 -229q-16 -25 -53 -25h-98q-40 0 -15 37z" />
<glyph unicode="&#x13d;" horiz-adv-x="993" d="M172 41l162 1311q6 41 43 41h125q39 0 33 -41l-146 -1182h524q41 0 35 -37l-12 -94q-6 -39 -43 -39h-690q-37 0 -31 41zM729 1157q43 74 58.5 112t23.5 105l8 60q2 39 43 39h90q37 0 31 -39l-8 -70q-14 -117 -115 -254q-20 -27 -53 -20l-66 16q-37 8 -12 51z" />
<glyph unicode="&#x13e;" horiz-adv-x="638" d="M150 41l165 1350q6 41 43 41h121q37 0 31 -41l-164 -1350q-6 -41 -43 -41h-121q-38 0 -32 41zM569 1176q43 74 58.5 111.5t23.5 105.5l8 59q2 39 43 39h91q37 0 30 -39l-8 -70q-14 -117 -115 -254q-20 -27 -53 -20l-65 16q-38 9 -13 52z" />
<glyph unicode="&#x147;" horiz-adv-x="1265" d="M170 39l162 1315q6 39 43 39h106q27 0 33 -17l389 -862q37 -84 49 -131l119 971q6 39 43 39h113q39 0 33 -39l-162 -1315q-6 -39 -41 -39h-107q-29 0 -37 18l-378 844q-29 59 -56 150l-121 -973q-6 -39 -39 -39h-114q-41 0 -35 39zM575.5 1786q8.5 12 28.5 12h92 q25 0 47 -39l68 -135l100 135q27 39 60 39h94q20 0 25.5 -11t-9.5 -28l-180 -217q-31 -37 -65 -37h-72q-33 0 -57 39l-129 215q-11 15 -2.5 27z" />
<glyph unicode="&#x148;" horiz-adv-x="1097" d="M150 41l116 936q6 39 41 39h111q37 0 35 -39l-4 -66q156 121 348 121q123 0 193.5 -62.5t70.5 -164.5q0 -29 -2 -45l-88 -719q-6 -41 -45 -41h-117q-39 0 -33 41l82 672q4 29 4 39q0 106 -137 106q-145 0 -293 -104l-86 -713q-6 -41 -43 -41h-121q-38 0 -32 41z M468 1438.5q7 11.5 28 11.5h92q25 0 47 -39l67 -135l101 135q31 39 59 39h94q20 0 25.5 -11.5t-8.5 -27.5l-182 -217q-33 -37 -66 -37h-70q-33 0 -57 39l-129 215q-8 16 -1 27.5z" />
<glyph unicode="&#x152;" horiz-adv-x="1771" d="M176 256q0 12 4 49l96 791q18 139 129 227t345 88q178 0 288 -68l2 11q6 39 43 39h701q37 0 35 -37l-13 -90q-2 -39 -43 -39h-536l-51 -420h499q41 0 35 -37l-10 -86q-2 -37 -43 -37h-502l-59 -481h559q41 0 35 -37l-11 -90q-6 -39 -43 -39h-723q-41 0 -34 39v8 q-113 -63 -271 -63q-223 0 -327.5 75.5t-104.5 196.5zM383 301q0 -152 246 -151q262 0 284 178l72 581l19 144l2 14v25q0 152 -246 151q-262 0 -285 -180l-90 -723q-2 -14 -2 -39z" />
<glyph unicode="&#x153;" horiz-adv-x="1640" d="M150 227q0 23 2 35l61 490q35 281 428 280q219 0 303 -94q104 94 318 94q184 0 273 -63.5t89 -175.5q0 -27 -2 -41l-31 -240q-6 -37 -39 -37h-559l-24 -203q-2 -14 -2 -26q0 -115 190 -115q205 0 221 133l4 33q6 39 45 39h101q39 0 33 -39l-7 -37q-23 -135 -111.5 -205.5 t-297.5 -70.5q-213 0 -301 82q-94 -82 -312 -82q-190 0 -286 64t-96 179zM348 256q0 -117 199 -117q215 0 231 140l58 458v21q0 119 -199 119q-213 0 -231 -140l-58 -458v-23zM1010 604h411l17 139q2 8 2 25q0 117 -191 117q-205 0 -221 -142z" />
<glyph unicode="&#x154;" horiz-adv-x="1216" d="M172 41l162 1311q6 41 43 41h405q223 0 330 -81t107 -210q0 -29 -2 -45l-23 -203q-25 -217 -274 -281l178 -532q6 -18 -6.5 -29.5t-32.5 -11.5h-125q-25 0 -39 41l-170 510h-289l-63 -510q-6 -41 -41 -41h-125q-39 0 -35 41zM457 721h254q268 0 288 168l17 135q2 14 2 37 q0 162 -242 162h-256zM655 1542l148 219q27 37 57 37h129q47 0 15 -39l-183 -229q-16 -25 -53 -25h-98q-40 0 -15 37z" />
<glyph unicode="&#x155;" horiz-adv-x="729" d="M150 41l116 936q6 39 41 39h111q37 0 35 -39l-7 -88q162 141 336 141q43 0 37 -39l-12 -96q-6 -37 -45 -39q-180 -12 -332 -129l-84 -686q-6 -41 -43 -41h-121q-38 0 -32 41zM442 1194l150 219q27 37 55 37h131q47 0 15 -39l-183 -229q-16 -25 -53 -25h-98q-42 0 -17 37z " />
<glyph unicode="&#x158;" horiz-adv-x="1216" d="M172 41l162 1311q6 41 43 41h405q223 0 330 -81t107 -210q0 -29 -2 -45l-23 -203q-25 -217 -274 -281l178 -532q6 -18 -6.5 -29.5t-32.5 -11.5h-125q-25 0 -39 41l-170 510h-289l-63 -510q-6 -41 -41 -41h-125q-39 0 -35 41zM457 721h254q268 0 288 168l17 135q2 14 2 37 q0 162 -242 162h-256zM502 1786q8 12 28 12h93q25 0 47 -39l67 -135l101 135q27 39 59 39h94q20 0 25.5 -11t-8.5 -28l-181 -217q-31 -37 -65 -37h-72q-33 0 -57 39l-129 215q-10 15 -2 27z" />
<glyph unicode="&#x159;" horiz-adv-x="729" d="M150 41l116 936q6 39 41 39h111q37 0 35 -39l-7 -88q162 141 336 141q43 0 37 -39l-12 -96q-6 -37 -45 -39q-180 -12 -332 -129l-84 -686q-6 -41 -43 -41h-121q-38 0 -32 41zM288 1438.5q7 11.5 27 11.5h93q25 0 47 -39l67 -135l101 135q31 39 59 39h94q20 0 25.5 -11.5 t-8.5 -27.5l-183 -217q-33 -37 -65 -37h-70q-33 0 -57 39l-129 215q-8 16 -1 27.5z" />
<glyph unicode="&#x160;" horiz-adv-x="1163" d="M158 260q0 27 2 47l12 111q6 41 43 41h121q39 0 33 -41l-11 -84q-2 -18 -2 -39q0 -145 244 -145q260 0 283 174l14 104q2 14 2 27q0 47 -39 75.5t-115 59.5l-290 117q-193 80 -193 241q0 25 2 43l12 103q12 92 53.5 157.5t147 111.5t273.5 46q219 0 317 -76t98 -196 q0 -27 -2 -43l-10 -90q-2 -39 -43 -39h-121q-39 0 -33 39l9 65q2 16 2 31q0 143 -230 143q-250 0 -268 -172l-6 -53q-2 -14 -2 -27q0 -41 21.5 -61.5t66.5 -38.5l348 -139q201 -80 201 -254q0 -31 -2 -47l-17 -152q-35 -315 -491 -315q-223 0 -326.5 76.5t-103.5 199.5z M522 1786q8 12 29 12h92q25 0 47 -39l68 -135l100 135q27 39 60 39h94q20 0 25 -11t-9 -28l-180 -217q-31 -37 -66 -37h-71q-33 0 -58 39l-129 215q-10 15 -2 27z" />
<glyph unicode="&#x161;" horiz-adv-x="958" d="M123 199q0 12 2 32l6 50q6 37 41 36h109q31 0 28 -36l-4 -39q-2 -14 -2 -27q0 -41 52.5 -64.5t142.5 -23.5q211 0 225 104l6 48q2 23 2 34q0 49 -96 84l-283 101q-147 51 -147 192q0 10 2 33l8 70q27 240 391 239q174 0 262 -64.5t88 -158.5q0 -12 -2 -35l-4 -43 q-2 -37 -41 -37h-108q-35 0 -31 37l4 35q2 14 2 33q0 92 -180 92q-188 0 -203 -100l-4 -31q-2 -18 -2 -23q0 -63 72 -88l297 -102q78 -27 118.5 -75t40.5 -105q0 -12 -4 -50l-10 -102q-10 -102 -110.5 -166.5t-301.5 -64.5q-180 0 -273 61.5t-93 153.5zM372 1438.5 q7 11.5 27 11.5h93q25 0 47 -39l67 -135l101 135q31 39 59 39h94q20 0 25.5 -11.5t-8.5 -27.5l-183 -217q-33 -37 -65 -37h-70q-33 0 -57 39l-129 215q-8 16 -1 27.5z" />
<glyph unicode="&#x164;" horiz-adv-x="997" d="M184 1262l11 92q6 39 43 39h856q41 0 34 -39l-10 -92q-6 -39 -43 -39h-327l-148 -1182q-6 -41 -41 -41h-125q-41 0 -35 41l148 1182h-328q-41 0 -35 39zM442.5 1786q8.5 12 28.5 12h92q25 0 47 -39l68 -135l100 135q27 39 60 39h94q20 0 25.5 -11t-9.5 -28l-180 -217 q-31 -37 -66 -37h-71q-33 0 -58 39l-129 215q-10 15 -1.5 27z" />
<glyph unicode="&#x165;" horiz-adv-x="768" d="M152 893l8 72q2 35 43 39l112 8h2l27 207q6 41 43 41h119q39 0 33 -41l-27 -207h213q37 0 33 -37l-8 -84q-2 -39 -45 -39h-211l-68 -541q-2 -14 -2 -35q0 -111 190 -110h39q39 0 35 -41l-8 -86q-2 -39 -45 -39h-68q-184 0 -263 56.5t-79 170.5q0 35 2 54l70 571h-113 q-36 0 -32 41zM631 1176q43 74 58.5 111.5t23.5 105.5l8 59q2 39 43 39h90q37 0 31 -39l-8 -70q-14 -117 -115 -254q-20 -27 -53 -20l-66 16q-37 9 -12 52z" />
<glyph unicode="&#x16e;" horiz-adv-x="1245" d="M186 262q0 20 4 53l129 1037q6 41 41 41h125q39 0 33 -41l-123 -992q-4 -49 -4 -55q0 -152 246 -151q264 0 287 178l127 1020q6 41 41 41h125q41 0 34 -41l-131 -1053q-39 -315 -495 -315q-221 0 -330 77.5t-109 200.5zM612 1587q0 29 2 43l7 49q18 145 206 146 q86 0 136.5 -34t50.5 -85q0 -4 -2 -27l-6 -67q-14 -143 -201 -144q-94 0 -143.5 33t-49.5 86zM721 1618q0 -53 84 -53q86 0 96 67l2 27v20q0 47 -84 47q-86 0 -96 -67l-2 -27v-14z" />
<glyph unicode="&#x16f;" horiz-adv-x="1085" d="M158 209q0 23 2 35l90 731q6 41 43 41h119q39 0 32 -41l-84 -682q-2 -12 -2 -33q0 -102 138 -102q135 0 280 102l86 715q6 41 43 41h121q39 0 33 -41l-117 -936q-6 -39 -43 -39h-108q-37 0 -35 39l4 61q-147 -117 -336 -116q-125 0 -195.5 61.5t-70.5 163.5zM489 1245 q0 29 3 43l6 49q18 145 207 146q86 0 136 -34t50 -85q0 -4 -2 -27l-6 -67q-14 -143 -201 -144q-94 0 -143.5 33t-49.5 86zM598 1276q0 -53 84 -53q86 0 96 67l2 27v20q0 47 -84 47q-86 0 -96 -67l-2 -27v-14z" />
<glyph unicode="&#x178;" horiz-adv-x="1083" d="M203 1354q-16 39 33 39h139q33 0 43 -39l190 -541q8 -27 21 -92q25 63 43 92l336 541q25 39 51 39h129q47 0 22 -39l-499 -801l-64 -514q-6 -39 -41 -39h-125q-41 0 -35 39l60 491zM518 1552l23 195q6 41 45 41h69q39 0 33 -41l-24 -195q-6 -39 -41 -39h-72q-39 0 -33 39 zM766 1552l22 195q6 41 43 41h72q20 0 27.5 -9.5t5.5 -31.5l-25 -195q-6 -39 -41 -39h-71q-39 0 -33 39z" />
<glyph unicode="&#x17d;" horiz-adv-x="1024" d="M92 39l12 92q2 18 17 39l706 1053h-514q-41 0 -34 39l12 92q6 39 43 39h721q41 0 35 -39l-11 -92q-2 -16 -18 -39l-707 -1053h584q41 0 35 -37l-12 -94q-6 -39 -41 -39h-791q-43 0 -37 39zM469 1786q8 12 29 12h92q25 0 47 -39l68 -135l100 135q27 39 59 39h94 q20 0 25.5 -11t-8.5 -28l-180 -217q-31 -37 -66 -37h-72q-33 0 -57 39l-129 215q-10 15 -2 27z" />
<glyph unicode="&#x17e;" horiz-adv-x="923" d="M88 39l10 84q4 23 21 43l555 688h-418q-41 0 -35 39l10 84q6 39 45 39h617q41 0 35 -37l-10 -84q-4 -20 -21 -41l-559 -694h483q41 0 35 -37l-10 -84q-6 -39 -45 -39h-680q-39 0 -33 39zM349 1438.5q7 11.5 28 11.5h92q25 0 47 -39l68 -135l100 135q31 39 59 39h95 q20 0 25 -11.5t-9 -27.5l-182 -217q-33 -37 -66 -37h-69q-33 0 -58 39l-129 215q-8 16 -1 27.5z" />
<glyph unicode="&#x192;" horiz-adv-x="1150" d="M55 -397l11 84q2 41 43 41h28q211 0 244 137l203 844h-160q-35 0 -33 39l8 81q2 39 43 39h176l72 301q66 281 447 281h39q37 0 34 -39l-10 -86q-6 -41 -45 -41h-31q-209 0 -241 -135l-70 -281h176q41 0 35 -39l-10 -81q-6 -39 -43 -39h-193l-205 -865q-66 -281 -448 -280 h-37q-39 0 -33 39z" />
<glyph unicode="&#x2c6;" horiz-adv-x="716" d="M242 1168.5q-4 11.5 8 25.5l180 217q33 39 68 39h71q31 0 56 -39l129 -217q10 -14 2 -25.5t-29 -11.5h-90q-31 0 -49 37l-68 137l-100 -137q-25 -37 -60 -37h-94q-20 0 -24 11.5z" />
<glyph unicode="&#x2c7;" horiz-adv-x="716" d="M277.5 1438.5q7.5 11.5 27.5 11.5h92q25 0 47 -39l68 -135l100 135q31 39 60 39h94q20 0 25.5 -11.5t-9.5 -27.5l-182 -217q-33 -37 -65 -37h-70q-33 0 -57 39l-129 215q-9 16 -1.5 27.5z" />
<glyph unicode="&#x2d8;" horiz-adv-x="833" d="M233 1323q0 6 5 39l4 39q6 33 39 33h71q37 0 31 -33l-4 -43v-23q0 -88 108 -88q68 0 96.5 31t34.5 92l3 31q2 33 38 33h74q33 0 31 -33l-4 -25q-16 -125 -80 -186.5t-201 -61.5q-117 0 -181.5 50.5t-64.5 144.5z" />
<glyph unicode="&#x2d9;" horiz-adv-x="499" d="M301 1223l18 161q2 39 43 39h125q37 0 31 -39l-18 -161q-6 -39 -43 -39h-123q-39 0 -33 39z" />
<glyph unicode="&#x2da;" horiz-adv-x="749" d="M340 1245q0 29 2 43l6 49q18 145 207 146q86 0 136 -34t50 -85q0 -4 -2 -27l-6 -67q-14 -143 -201 -144q-94 0 -143 33t-49 86zM449 1276q0 -53 83 -53q86 0 97 67l2 27v20q0 47 -84 47q-86 0 -96 -67l-2 -27v-14z" />
<glyph unicode="&#x2db;" horiz-adv-x="468" d="M20 -215q0 152 146 274q37 27 55 17l62 -33q37 -20 8 -47q-66 -63 -83.5 -94t-17.5 -70q0 -47 64 -47h96q41 0 37 -37l-10 -72q-6 -39 -45 -38h-139q-72 0 -122.5 39.5t-50.5 107.5z" />
<glyph unicode="&#x2dc;" horiz-adv-x="851" d="M252 1204l14 66q37 164 178 164q63 0 123 -37l86 -58q47 -31 66 -30q25 0 35 15t16 60l2 17q6 35 45 35h64q39 0 28 -45l-12 -62q-16 -82 -65.5 -124t-115 -42t-124.5 39l-88 58q-41 27 -63.5 26.5t-31 -12.5t-14.5 -45l-8 -35q-8 -35 -45 -35h-61q-39 0 -29 45z" />
<glyph unicode="&#x2dd;" horiz-adv-x="782" d="M254 1194l127 217q23 39 59 39h107q45 0 20 -39l-147 -217q-27 -37 -58 -37h-88q-40 0 -20 37zM500 1194l157 217q27 39 64 39h106q47 0 15 -39l-178 -219q-31 -35 -62 -35h-88q-41 0 -14 37z" />
<glyph unicode="&#x3a9;" horiz-adv-x="794" d="M135 649.5q0 108.5 77 185t183 76.5q109 0 185.5 -76.5t76.5 -185.5q0 -106 -76.5 -183t-185 -77t-184.5 76t-76 184.5zM172 649q0 -94 64.5 -158.5t158.5 -64.5q92 0 157.5 64.5t65.5 158.5q0 92 -65.5 157.5t-157.5 65.5q-94 0 -158.5 -65.5t-64.5 -157.5z" />
<glyph unicode="&#x3c0;" horiz-adv-x="794" d="M104 863.5q-2 15.5 4.5 26.5t22.5 11h526q16 0 23.5 -10t6.5 -25.5t-11 -31.5l-246 -398q-12 -20 -33.5 -20t-34.5 20l-245 398q-11 14 -13 29.5z" />
<glyph unicode="&#x2000;" horiz-adv-x="911" />
<glyph unicode="&#x2001;" horiz-adv-x="1824" />
<glyph unicode="&#x2002;" horiz-adv-x="911" />
<glyph unicode="&#x2003;" horiz-adv-x="1824" />
<glyph unicode="&#x2004;" horiz-adv-x="608" />
<glyph unicode="&#x2005;" horiz-adv-x="454" />
<glyph unicode="&#x2006;" horiz-adv-x="303" />
<glyph unicode="&#x2007;" horiz-adv-x="303" />
<glyph unicode="&#x2008;" horiz-adv-x="227" />
<glyph unicode="&#x2009;" horiz-adv-x="364" />
<glyph unicode="&#x200a;" horiz-adv-x="100" />
<glyph unicode="&#x2010;" horiz-adv-x="917" d="M209 549v86q0 37 39 37h549q39 0 39 -37v-86q0 -37 -39 -37h-549q-39 0 -39 37z" />
<glyph unicode="&#x2011;" horiz-adv-x="917" d="M209 549v86q0 37 39 37h549q39 0 39 -37v-86q0 -37 -39 -37h-549q-39 0 -39 37z" />
<glyph unicode="&#x2012;" horiz-adv-x="917" d="M209 549v86q0 37 39 37h549q39 0 39 -37v-86q0 -37 -39 -37h-549q-39 0 -39 37z" />
<glyph unicode="&#x2013;" horiz-adv-x="1107" d="M209 549v86q0 37 39 37h739q39 0 39 -37v-86q0 -37 -39 -37h-739q-39 0 -39 37z" />
<glyph unicode="&#x2014;" horiz-adv-x="1740" d="M209 549v86q0 37 39 37h1374q39 0 39 -37v-86q0 -37 -39 -37h-1374q-39 0 -39 37z" />
<glyph unicode="&#x2018;" horiz-adv-x="528" d="M281 1100l18 141q27 211 276 272q37 8 46 -24l20 -84q8 -35 -33 -49q-57 -23 -81.5 -51.5t-30.5 -73.5l-17 -131q-6 -39 -43 -39h-123q-38 0 -32 39z" />
<glyph unicode="&#x2019;" horiz-adv-x="528" d="M215 1169q-8 35 33 50q57 23 81.5 51t30.5 73l17 132q6 39 43 38h123q39 0 32 -38l-18 -142q-27 -211 -276 -272q-37 -8 -45 24z" />
<glyph unicode="&#x201a;" horiz-adv-x="528" d="M51 -102q-8 35 33 49q57 23 81.5 51.5t31.5 73.5l16 131q6 39 43 39h123q39 0 33 -39l-19 -142q-27 -211 -276 -272q-37 -8 -45 25z" />
<glyph unicode="&#x201c;" horiz-adv-x="903" d="M281 1100l18 141q27 211 276 272q37 8 46 -24l20 -84q8 -35 -33 -49q-57 -23 -81.5 -51.5t-30.5 -73.5l-17 -131q-6 -39 -43 -39h-123q-38 0 -32 39zM655 1100l19 141q27 211 276 272q37 8 45 -24l21 -84q8 -35 -33 -49q-57 -23 -81.5 -51.5t-31.5 -73.5l-16 -131 q-6 -39 -43 -39h-123q-39 0 -33 39z" />
<glyph unicode="&#x201d;" horiz-adv-x="903" d="M215 1169q-8 35 33 50q57 23 81.5 51t30.5 73l17 132q6 39 43 38h123q39 0 32 -38l-18 -142q-27 -211 -276 -272q-37 -8 -45 24zM590 1169q-8 35 33 50q57 23 81.5 51t30.5 73l17 132q6 39 43 38h123q39 0 32 -38l-18 -142q-27 -211 -277 -272q-37 -8 -45 24z" />
<glyph unicode="&#x201e;" horiz-adv-x="903" d="M51 -102q-8 35 33 49q57 23 81.5 51.5t31.5 73.5l16 131q6 39 43 39h123q39 0 33 -39l-19 -142q-27 -211 -276 -272q-37 -8 -45 25zM426 -102q-8 35 33 49q57 23 81.5 51.5t30.5 73.5l17 131q6 39 43 39h123q39 0 32 -39l-18 -142q-27 -211 -276 -272q-37 -8 -46 25z" />
<glyph unicode="&#x2020;" horiz-adv-x="1271" d="M279 913l10 88q6 37 43 37h243q37 0 35 -37l-8 -88q-2 -39 -43 -39h-246q-40 0 -34 39zM543 41l164 1350q6 41 45 41h118q39 0 33 -41l-166 -1350q-6 -41 -43 -41h-119q-38 0 -32 41zM895 913l8 88q2 37 43 37h246q41 0 35 -37l-10 -88q-6 -39 -43 -39h-244 q-20 0 -28.5 8t-6.5 31z" />
<glyph unicode="&#x2021;" horiz-adv-x="1271" d="M219 430l8 86q6 39 45 39h244q41 0 35 -39l-10 -86q-6 -41 -43 -41h-244q-37 0 -35 41zM279 913l10 88q2 37 43 37h243q37 0 35 -37l-8 -88q-2 -39 -43 -39h-246q-40 0 -34 39zM543 41l164 1350q6 41 45 41h118q39 0 33 -41l-166 -1350q-6 -41 -43 -41h-119q-38 0 -32 41 zM834 430l10 86q6 39 43 39h246q41 0 34 -39l-10 -86q-6 -41 -43 -41h-246q-40 0 -34 41zM895 913l8 88q2 37 43 37h246q41 0 35 -37l-10 -88q-6 -39 -43 -39h-244q-20 0 -28.5 8t-6.5 31z" />
<glyph unicode="&#x2022;" horiz-adv-x="532" d="M217 406l35 280q6 39 43 39h123q35 0 33 -39l-35 -280q-6 -39 -43 -39h-123q-39 0 -33 39z" />
<glyph unicode="&#x2026;" horiz-adv-x="1490" d="M143 39l19 164q2 39 43 39h125q37 0 30 -39l-20 -164q-6 -39 -41 -39h-123q-39 0 -33 39zM651 39l19 164q2 39 43 39h125q37 0 30 -39l-20 -164q-6 -39 -41 -39h-123q-39 0 -33 39zM1157 39l19 164q2 39 43 39h124q37 0 31 -39l-20 -164q-6 -39 -41 -39h-123 q-39 0 -33 39z" />
<glyph unicode="&#x202f;" horiz-adv-x="364" />
<glyph unicode="&#x2030;" horiz-adv-x="2369" d="M272 952q0 12 4 37l25 207q12 102 85 156.5t230 54.5q137 0 207 -47t70 -129q0 -27 -2 -41l-27 -207q-12 -102 -84.5 -155.5t-228.5 -53.5q-279 0 -279 178zM421 23.5q1 9.5 7 17.5l795 1311q27 41 61 41h111q18 0 21 -12.5t-7 -28.5l-797 -1311q-23 -41 -59 -41h-111 q-12 0 -17 7t-4 16.5zM436 977q0 -72 127 -72q133 0 142 86l20 178q4 29 4 35q0 70 -125 70q-131 0 -141 -82l-23 -180q0 -8 -1 -15.5t-2 -12.5t-1 -7zM942 160q0 12 4 37l25 206q12 102 84.5 156.5t230.5 54.5q137 0 207 -47t70 -129q0 -27 -2 -41l-27 -207 q-12 -102 -85 -155t-228 -53q-279 0 -279 178zM1106 184q0 -72 127 -71q131 0 141 86l21 178q4 29 4 35q0 70 -125 69q-131 0 -141 -82l-23 -180q0 -8 -1 -15t-2 -12.5t-1 -7.5zM1642 160q0 12 5 37l24 206q12 102 85 156.5t231 54.5q137 0 206.5 -47t69.5 -129 q0 -27 -2 -41l-27 -207q-12 -102 -84.5 -155t-228.5 -53q-279 0 -279 178zM1806 184q0 -72 127 -71q131 0 142 86l20 178q4 29 4 35q0 70 -125 69q-131 0 -141 -82l-23 -180q0 -8 -1 -15t-2 -12.5t-1 -7.5z" />
<glyph unicode="&#x2039;" horiz-adv-x="794" d="M186 442l15 121q4 29 41 53l411 279q14 10 26.5 4t10.5 -27l-16 -127q-6 -35 -45 -59l-283 -186l236 -189q37 -31 32 -59l-16 -119q-2 -20 -15.5 -27.5t-25.5 5.5l-342 280q-31 22 -29 51z" />
<glyph unicode="&#x203a;" horiz-adv-x="794" d="M186 133l17 127q6 35 45 59l282 187l-235 188q-37 31 -33 60l17 118q2 20 15 27.5t25 -4.5l343 -281q31 -23 28 -51l-14 -121q-4 -29 -41 -53l-412 -278q-14 -10 -26.5 -4t-10.5 26z" />
<glyph unicode="&#x2044;" horiz-adv-x="909" d="M44 23.5q1 9.5 7 17.5l795 1311q27 41 61 41h111q18 0 21 -12.5t-7 -28.5l-796 -1311q-23 -41 -60 -41h-110q-12 0 -17.5 7t-4.5 16.5z" />
<glyph unicode="&#x205f;" horiz-adv-x="454" />
<glyph unicode="&#x20ac;" horiz-adv-x="1228" d="M180 539l6 51q6 37 45 37h109l16 137h-108q-41 0 -35 39l6 51q2 37 43 37h109l26 203q39 315 486 315q221 0 321.5 -74.5t100.5 -197.5q0 -14 -5 -52l-10 -92q-6 -41 -41 -41h-121q-39 0 -32 41l8 60q2 12 2 39q0 147 -236 147q-254 0 -276 -178l-23 -170h242 q39 0 37 -37l-6 -51q-6 -39 -45 -39h-242l-16 -137h241q37 0 35 -37l-6 -51q-6 -39 -45 -39h-242l-18 -158q-2 -14 -2 -39q0 -150 233 -149q258 0 279 178l10 96q2 39 43 39h119q37 0 33 -39l-15 -129q-35 -315 -487 -315q-221 0 -321.5 75.5t-100.5 196.5q0 14 4 51l23 193 h-109q-37 0 -35 39z" />
<glyph unicode="&#x2122;" horiz-adv-x="1853" d="M276 1286l11 76q2 31 37 31h557q33 0 30 -31l-10 -76q-2 -31 -37 -31h-196l-80 -665q-2 -33 -35 -33h-104q-31 0 -29 33l82 665h-195q-18 0 -25.5 6.5t-5.5 24.5zM911 590l95 770q2 33 36 33h91q20 0 26 -19l166 -448l18 -62q12 29 31 60l273 452q10 16 32 17h99 q31 0 28 -33l-96 -770q-2 -33 -35 -33h-96q-31 0 -29 33l62 495q-18 -43 -27 -57l-180 -313q-16 -31 -47 -31h-70q-31 0 -41 31l-108 317q-6 20 -11 60l-63 -502q-2 -33 -33 -33h-92q-31 0 -29 33z" />
<glyph unicode="&#x2202;" horiz-adv-x="794" d="M176 391v527q0 25 22.5 28.5t45.5 -10.5l399 -248q18 -12 18.5 -32.5t-18.5 -32.5l-399 -246q-23 -14 -45.5 -12.5t-22.5 26.5z" />
<glyph unicode="&#x2206;" horiz-adv-x="794" d="M174 477v348q0 47 49 47h348q47 0 47 -47v-348q0 -49 -47 -49h-348q-49 0 -49 49z" />
<glyph unicode="&#x220f;" horiz-adv-x="794" d="M106.5 445.5q2.5 15.5 12.5 31.5l246 397q12 20 32.5 20.5t32.5 -20.5l246 -397q10 -14 12 -29.5t-4 -26.5t-22 -11h-527q-16 0 -23.5 10t-5 25.5z" />
<glyph unicode="&#x2211;" horiz-adv-x="794" d="M131 655.5q0 20.5 21 32.5l397 248q14 10 29.5 12t26.5 -6t11 -24v-527q0 -25 -23.5 -27t-43.5 13l-397 246q-21 12 -21 32.5z" />
<glyph unicode="&#x221a;" horiz-adv-x="794" d="M156 477v348q0 35 15 50.5t52 15.5h348q35 0 50.5 -15.5t15.5 -50.5v-348q0 -37 -15.5 -52t-50.5 -15h-348q-37 0 -52 15t-15 52zM193 477q0 -31 30 -31h348q29 0 29 31v348q0 27 -29 27h-348q-31 0 -30 -27v-348z" />
<glyph unicode="&#x221e;" horiz-adv-x="794" d="M78 651q0 20 24 45l248 248q25 25 47 25q25 0 47 -25l246 -248q25 -25 25 -45q0 -23 -25 -47l-246 -248q-23 -25 -47 -24q-23 0 -47 24l-248 248q-24 24 -24 47zM121 649q0 -10 8 -18l248 -248q10 -10 20 -10q8 0 19 10l248 248q10 10 10 18q0 10 -10 21l-248 248 q-8 8 -19 8q-12 0 -20 -8l-246 -248q-10 -11 -10 -21z" />
<glyph unicode="&#x222b;" horiz-adv-x="794" d="M53 649q0 141 100.5 242.5t242 101.5t242.5 -101t101 -242.5t-101 -242t-243 -100.5q-143 0 -242.5 99.5t-99.5 242.5z" />
<glyph unicode="&#x2248;" horiz-adv-x="1011" d="M201 354l6 74q8 90 54 134t106 44q49 0 98 -22l184 -86q61 -29 88 -29q8 0 14.5 1t10.5 5t6 7t4 11.5t3 13.5t2 18.5t3 21.5l2 14q4 35 41 35h64q35 0 33 -45l-7 -74q-10 -94 -54 -137t-99 -43q-61 0 -115 27l-188 88q-41 23 -72 22q-27 0 -34 -14t-11 -58l-2 -18 q-2 -35 -43 -35h-62q-36 0 -32 45zM201 707l6 73q8 90 54 134t106 44q49 0 98 -22l184 -86q61 -29 88 -29q8 0 14.5 1t10.5 5t6 7.5t4 11.5t3 13t2 18.5t3 21.5l2 14q4 35 41 35h64q35 0 33 -45l-7 -74q-10 -94 -54 -137t-99 -43q-61 0 -115 27l-188 88q-41 23 -72 22 q-27 0 -34 -14t-11 -57l-2 -19q-2 -35 -43 -34h-62q-36 0 -32 45z" />
<glyph unicode="&#x2260;" horiz-adv-x="1198" d="M195 432v88q0 37 38 37h279l86 225h-365q-39 0 -38 39v88q0 37 38 37h426l50 129q16 41 49 41h112q39 0 27 -41l-49 -129h215q39 0 39 -37v-88q0 -39 -39 -39h-277l-86 -225h363q39 0 39 -37v-88q0 -39 -39 -39h-424l-49 -129q-14 -39 -51 -39h-113q-37 0 -25 39l50 129 h-218q-38 0 -38 39z" />
<glyph unicode="&#x2264;" horiz-adv-x="1089" d="M172 231v84q0 37 39 37h721q39 0 39 -37v-84q0 -39 -39 -38h-721q-39 -1 -39 38zM172 780v133q0 29 35 43l725 281q39 14 39 -35v-117q0 -31 -39 -43l-570 -194l570 -195q39 -12 39 -43v-116q0 -49 -39 -35l-725 280q-35 14 -35 41z" />
<glyph unicode="&#x2265;" horiz-adv-x="1089" d="M170 227v88q0 39 39 39h721q39 0 39 -39v-88q0 -39 -39 -39h-721q-39 0 -39 39zM170 494v118q0 33 39 45l569 191l-569 192q-39 12 -39 45v119q0 51 39 37l725 -278q35 -14 35 -45v-138q0 -29 -35 -43l-725 -280q-39 -14 -39 37z" />
<glyph unicode="&#x25ca;" horiz-adv-x="794" d="M98 651q0 14 19 33l248 248q16 16 32 16q12 0 33 -16l248 -248q16 -20 16 -33q0 -16 -16 -33l-248 -247q-18 -18 -33 -19q-16 0 -32 19l-248 247q-19 17 -19 33z" />
<glyph unicode="&#xe000;" horiz-adv-x="1014" d="M0 1015h1015v-1015h-1015v1015z" />
<glyph unicode="&#xfb01;" horiz-adv-x="1161" d="M158 -377l153 1229h-121q-20 0 -27 9t-5 32l6 72q2 37 43 39l108 8h15l16 139q35 281 428 281h346q20 0 28.5 -8.5t6.5 -30.5l-10 -86q-2 -41 -43 -41h-334q-213 0 -229 -136l-15 -118h574q41 0 35 -39l-115 -932q-6 -41 -41 -41h-121q-39 0 -33 41l101 811h-418 l-154 -1229q-6 -41 -41 -41h-118q-41 0 -35 41z" />
<glyph unicode="&#xfb02;" horiz-adv-x="1161" d="M158 -377l153 1229h-121q-20 0 -27 9t-5 32l6 72q2 37 43 39l108 8h15l16 139q35 281 428 281h375q41 0 35 -39l-166 -1352q-6 -41 -41 -41h-121q-39 0 -33 41l152 1225h-207q-213 0 -229 -136l-15 -118h199q39 0 37 -37l-10 -82q-6 -41 -43 -41h-201l-154 -1229 q-6 -41 -41 -41h-118q-41 0 -35 41z" />
<glyph horiz-adv-x="0" />
</font>
</defs>
</svg>
